<?xml version="1.0" encoding="UTF-8" standalone="no"?>
<!DOCTYPE svg PUBLIC "-//W3C//DTD SVG 1.1//EN" "http://www.w3.org/Graphics/SVG/1.1/DTD/svg11.dtd">
<svg width="100%" height="100%" viewBox="0 0 342 342" version="1.1" xmlns="http://www.w3.org/2000/svg" xmlns:xlink="http://www.w3.org/1999/xlink" xml:space="preserve" xmlns:serif="http://www.serif.com/" style="fill-rule:evenodd;clip-rule:evenodd;stroke-linecap:round;stroke-linejoin:round;stroke-miterlimit:1.5;">
    <g transform="matrix(1.33333,0,0,1.33333,0,0)">
        <g transform="matrix(1.04611,0,0,1.04611,-4.75598,-36.2961)">
            <path d="M24.107,236.474C22.888,234.626 22.177,232.413 22.177,230.036C22.177,227.699 22.864,225.521 24.045,223.693C20.528,221.672 18.158,217.878 18.158,213.534C18.158,209.615 20.087,206.143 23.047,204.018C22.486,202.65 22.177,201.153 22.177,199.585C22.177,193.123 27.424,187.877 33.886,187.877C38.383,187.877 42.291,190.417 44.252,194.141C45.772,193.419 47.47,193.016 49.263,193.016C50.703,193.016 52.083,193.276 53.357,193.753C53.342,193.509 53.335,193.263 53.335,193.016C53.335,186.554 58.581,181.307 65.043,181.307C68.214,181.307 71.092,182.571 73.202,184.621L73.202,174.953C73.202,171.94 73.826,169.073 74.951,166.472L67.672,166.472C67.634,166.472 67.595,166.472 67.556,166.472C65.857,166.472 64.477,165.092 64.477,163.392C64.477,162.362 64.984,161.448 65.763,160.889L85.104,141.548C85.119,141.533 85.135,141.518 85.15,141.503C84.734,140.048 84.51,138.512 84.51,136.923L84.51,103.652C84.51,101.956 84.765,100.319 85.237,98.777L78.149,98.777C78.116,98.777 78.084,98.777 78.051,98.777C76.621,98.777 75.459,97.256 75.459,95.383C75.459,94.247 75.887,93.241 76.542,92.625L92.82,71.309C93.357,70.605 94.073,70.275 94.777,70.319C94.822,70.316 94.867,70.314 94.912,70.314L161.395,70.315C162.059,70.314 162.723,70.646 163.229,71.309L179.782,92.984C180.269,93.622 180.541,94.481 180.541,95.383C180.541,95.432 180.54,95.481 180.538,95.53C180.533,95.686 180.52,95.841 180.499,95.994C180.408,96.65 180.169,97.277 179.782,97.784C179.395,98.291 178.916,98.603 178.415,98.722C178.298,98.75 178.18,98.767 178.06,98.774C178.023,98.776 177.986,98.777 177.949,98.777L170.763,98.777C171.235,100.319 171.49,101.956 171.49,103.652L171.49,136.923C171.49,139.102 171.07,141.183 170.307,143.091L188.431,161.216C189.01,161.795 189.333,162.574 189.333,163.392C189.333,163.437 189.332,163.481 189.33,163.525C189.324,163.667 189.308,163.808 189.283,163.946C189.175,164.542 188.891,165.111 188.432,165.571C187.972,166.03 187.403,166.314 186.807,166.422C186.669,166.447 186.528,166.463 186.386,166.469C186.342,166.471 186.298,166.472 186.253,166.472L181.049,166.472C182.174,169.073 182.798,171.941 182.798,174.953L182.798,182.943C184.547,181.904 186.588,181.307 188.767,181.307C195.229,181.307 200.475,186.554 200.475,193.016C200.475,193.263 200.468,193.509 200.452,193.753C201.727,193.276 203.107,193.016 204.547,193.016C206.339,193.016 208.038,193.419 209.558,194.141C211.519,190.417 215.427,187.877 219.924,187.877C226.386,187.877 231.632,193.123 231.632,199.585C231.632,201.153 231.323,202.65 230.763,204.018C233.723,206.143 235.652,209.615 235.652,213.534C235.652,217.878 233.282,221.672 229.765,223.693C230.946,225.521 231.632,227.699 231.632,230.036C231.632,233.707 229.939,236.986 227.291,239.134L26.519,239.134L26.506,239.124C26.437,239.13 26.367,239.134 26.296,239.134C25.088,239.134 24.107,238.153 24.107,236.945L24.107,236.474Z" style="stroke:black;stroke-width:19.92px;"/>
            <g transform="matrix(1,0,0,1,2.61261,0)">
                <g transform="matrix(1,0,0,1,8.5248,21.9812)">
                    <path d="M15.381,217.153C12.734,215.005 11.04,211.726 11.04,208.055C11.04,205.718 11.726,203.54 12.908,201.712C9.391,199.691 7.02,195.896 7.02,191.553C7.02,187.634 8.95,184.162 11.909,182.036C11.349,180.669 11.04,179.172 11.04,177.604C11.04,171.142 16.286,165.895 22.748,165.895C27.245,165.895 31.154,168.436 33.115,172.159C34.634,171.438 36.333,171.034 38.126,171.034C39.566,171.034 40.945,171.295 42.22,171.771C42.205,171.528 42.197,171.282 42.197,171.034C42.197,164.572 47.444,159.326 53.906,159.326C59.369,159.326 63.964,163.076 65.253,168.141C65.373,168.138 65.493,168.136 65.614,168.136C71.31,168.136 76.061,172.212 77.108,177.604L90.161,177.604L90.161,217.153L15.381,217.153Z" style="fill:rgb(97,151,103);"/>
                </g>
                <g transform="matrix(1,0,0,1,2.707,0)">
                    <g transform="matrix(1,0,0,1,26.0555,2.83514)">
                        <path d="M36.017,193.085L36.017,234.11C36.017,235.318 35.036,236.299 33.828,236.299C32.619,236.299 31.639,235.318 31.639,234.11L31.639,193.085C31.639,191.877 32.619,190.896 33.828,190.896C35.036,190.896 36.017,191.877 36.017,193.085Z" style="fill:rgb(111,75,41);"/>
                    </g>
                    <g transform="matrix(1,0,0,1,-12.8512,2.83514)">
                        <path d="M36.017,193.085L36.017,234.11C36.017,235.318 35.036,236.299 33.828,236.299C32.619,236.299 31.639,235.318 31.639,234.11L31.639,193.085C31.639,191.877 32.619,190.896 33.828,190.896C35.036,190.896 36.017,191.877 36.017,193.085Z" style="fill:rgb(111,75,41);"/>
                    </g>
                    <g transform="matrix(1,0,0,1,4.59142,0.330745)">
                        <g transform="matrix(1,0,0,1,-10.0531,-0.956344)">
                            <path d="M41.417,237.845C36.103,236.616 35.918,236.327 36.263,232.35C36.551,229.036 37.91,227.722 39.284,226.312C40.658,224.902 42.574,224.071 42.827,221.251C43.08,218.431 41.743,217.485 39.646,215.391C37.549,213.297 36.424,212.632 36.263,210.614C36.103,208.597 36.711,207.404 38.251,206.645C39.79,205.886 40.238,205.994 40.43,203.536" style="fill:none;stroke:rgb(30,107,38);stroke-width:3.19px;"/>
                        </g>
                        <g transform="matrix(0.964183,0.265238,-0.265238,0.964183,52.0517,-8.46903)">
                            <g transform="matrix(0.853714,0.520742,-0.520742,0.853714,118.023,15.4647)">
                                <path d="M34.754,215.413C34.738,215.571 34.698,215.727 34.631,215.879C34.374,215.472 33.887,215.019 33.264,214.742C32.64,214.466 31.977,214.409 31.504,214.491C31.772,213.888 32.387,213.539 33.04,213.555C32.818,212.621 33.129,211.72 33.832,211.418C33.802,211.765 33.832,212.205 33.939,212.674C34.18,212.051 34.759,211.612 35.433,211.612C35.166,212.011 34.949,212.64 34.949,213.323C34.949,214.005 35.166,214.634 35.433,215.033C35.342,215.033 35.253,215.025 35.166,215.01C35.285,215.136 35.404,215.246 35.518,215.337C35.276,215.441 35.015,215.463 34.754,215.413Z" style="fill:rgb(66,148,74);"/>
                            </g>
                            <path d="M32.403,219.326C31.751,218.965 31.309,218.269 31.309,217.472C31.309,216.302 32.258,215.353 33.428,215.353C34.226,215.353 34.922,215.796 35.283,216.449C35.369,216.438 35.457,216.432 35.546,216.432C35.635,216.432 35.723,216.438 35.809,216.449C36.17,215.796 36.866,215.353 37.665,215.353C38.834,215.353 39.783,216.302 39.783,217.472C39.783,218.286 39.323,218.994 38.648,219.348C38.938,219.711 39.111,220.17 39.111,220.67C39.111,221.605 38.503,222.399 37.662,222.68C37.664,222.716 37.665,222.752 37.665,222.788C37.665,223.957 36.715,224.907 35.546,224.907C34.377,224.907 33.428,223.957 33.428,222.788C33.428,222.343 33.565,221.93 33.8,221.589C32.977,221.298 32.386,220.512 32.386,219.59C32.386,219.501 32.392,219.413 32.403,219.326Z" style="fill:rgb(66,148,74);"/>
                            <clipPath id="_clip1">
                                <path d="M32.403,219.326C31.751,218.965 31.309,218.269 31.309,217.472C31.309,216.302 32.258,215.353 33.428,215.353C34.226,215.353 34.922,215.796 35.283,216.449C35.369,216.438 35.457,216.432 35.546,216.432C35.635,216.432 35.723,216.438 35.809,216.449C36.17,215.796 36.866,215.353 37.665,215.353C38.834,215.353 39.783,216.302 39.783,217.472C39.783,218.286 39.323,218.994 38.648,219.348C38.938,219.711 39.111,220.17 39.111,220.67C39.111,221.605 38.503,222.399 37.662,222.68C37.664,222.716 37.665,222.752 37.665,222.788C37.665,223.957 36.715,224.907 35.546,224.907C34.377,224.907 33.428,223.957 33.428,222.788C33.428,222.343 33.565,221.93 33.8,221.589C32.977,221.298 32.386,220.512 32.386,219.59C32.386,219.501 32.392,219.413 32.403,219.326Z"/>
                            </clipPath>
                            <g clip-path="url(#_clip1)">
                                <g transform="matrix(0.965934,0,0,0.965934,1.63661,7.66168)">
                                    <path d="M32.403,219.326C31.751,218.965 31.309,218.269 31.309,217.472C31.309,216.302 32.258,215.353 33.428,215.353C34.226,215.353 34.922,215.796 35.283,216.449C35.369,216.438 35.457,216.432 35.546,216.432C35.635,216.432 35.723,216.438 35.809,216.449C36.17,215.796 36.866,215.353 37.665,215.353C38.834,215.353 39.783,216.302 39.783,217.472C39.783,218.286 39.323,218.994 38.648,219.348C38.938,219.711 39.111,220.17 39.111,220.67C39.111,221.605 38.503,222.399 37.662,222.68C37.664,222.716 37.665,222.752 37.665,222.788C37.665,223.957 36.715,224.907 35.546,224.907C34.377,224.907 33.428,223.957 33.428,222.788C33.428,222.343 33.565,221.93 33.8,221.589C32.977,221.298 32.386,220.512 32.386,219.59C32.386,219.501 32.392,219.413 32.403,219.326Z" style="fill:rgb(90,34,133);"/>
                                </g>
                            </g>
                        </g>
                        <g transform="matrix(0.989665,-0.143396,0.143396,0.989665,-36.8683,15.1269)">
                            <g transform="matrix(0.853714,0.520742,-0.520742,0.853714,118.023,15.4647)">
                                <path d="M34.754,215.413C34.738,215.571 34.698,215.727 34.631,215.879C34.374,215.472 33.887,215.019 33.264,214.742C32.64,214.466 31.977,214.409 31.504,214.491C31.772,213.888 32.387,213.539 33.04,213.555C32.818,212.621 33.129,211.72 33.832,211.418C33.802,211.765 33.832,212.205 33.939,212.674C34.18,212.051 34.759,211.612 35.433,211.612C35.166,212.011 34.949,212.64 34.949,213.323C34.949,214.005 35.166,214.634 35.433,215.033C35.342,215.033 35.253,215.025 35.166,215.01C35.285,215.136 35.404,215.246 35.518,215.337C35.276,215.441 35.015,215.463 34.754,215.413Z" style="fill:rgb(66,148,74);"/>
                            </g>
                            <path d="M32.403,219.326C31.751,218.965 31.309,218.269 31.309,217.472C31.309,216.302 32.258,215.353 33.428,215.353C34.226,215.353 34.922,215.796 35.283,216.449C35.369,216.438 35.457,216.432 35.546,216.432C35.635,216.432 35.723,216.438 35.809,216.449C36.17,215.796 36.866,215.353 37.665,215.353C38.834,215.353 39.783,216.302 39.783,217.472C39.783,218.286 39.323,218.994 38.648,219.348C38.938,219.711 39.111,220.17 39.111,220.67C39.111,221.605 38.503,222.399 37.662,222.68C37.664,222.716 37.665,222.752 37.665,222.788C37.665,223.957 36.715,224.907 35.546,224.907C34.377,224.907 33.428,223.957 33.428,222.788C33.428,222.343 33.565,221.93 33.8,221.589C32.977,221.298 32.386,220.512 32.386,219.59C32.386,219.501 32.392,219.413 32.403,219.326Z" style="fill:rgb(66,148,74);"/>
                            <clipPath id="_clip2">
                                <path d="M32.403,219.326C31.751,218.965 31.309,218.269 31.309,217.472C31.309,216.302 32.258,215.353 33.428,215.353C34.226,215.353 34.922,215.796 35.283,216.449C35.369,216.438 35.457,216.432 35.546,216.432C35.635,216.432 35.723,216.438 35.809,216.449C36.17,215.796 36.866,215.353 37.665,215.353C38.834,215.353 39.783,216.302 39.783,217.472C39.783,218.286 39.323,218.994 38.648,219.348C38.938,219.711 39.111,220.17 39.111,220.67C39.111,221.605 38.503,222.399 37.662,222.68C37.664,222.716 37.665,222.752 37.665,222.788C37.665,223.957 36.715,224.907 35.546,224.907C34.377,224.907 33.428,223.957 33.428,222.788C33.428,222.343 33.565,221.93 33.8,221.589C32.977,221.298 32.386,220.512 32.386,219.59C32.386,219.501 32.392,219.413 32.403,219.326Z"/>
                            </clipPath>
                            <g clip-path="url(#_clip2)">
                                <g transform="matrix(0.965934,0,0,0.965934,1.63661,7.66168)">
                                    <path d="M32.403,219.326C31.751,218.965 31.309,218.269 31.309,217.472C31.309,216.302 32.258,215.353 33.428,215.353C34.226,215.353 34.922,215.796 35.283,216.449C35.369,216.438 35.457,216.432 35.546,216.432C35.635,216.432 35.723,216.438 35.809,216.449C36.17,215.796 36.866,215.353 37.665,215.353C38.834,215.353 39.783,216.302 39.783,217.472C39.783,218.286 39.323,218.994 38.648,219.348C38.938,219.711 39.111,220.17 39.111,220.67C39.111,221.605 38.503,222.399 37.662,222.68C37.664,222.716 37.665,222.752 37.665,222.788C37.665,223.957 36.715,224.907 35.546,224.907C34.377,224.907 33.428,223.957 33.428,222.788C33.428,222.343 33.565,221.93 33.8,221.589C32.977,221.298 32.386,220.512 32.386,219.59C32.386,219.501 32.392,219.413 32.403,219.326Z" style="fill:rgb(90,34,133);"/>
                                </g>
                            </g>
                        </g>
                        <g transform="matrix(0.767016,0,0,0.750842,-1.3837,59.7796)">
                            <path d="M33.299,238.43C33.299,237.942 33.383,237.468 33.541,237.018C33.255,236.51 32.912,236.006 32.511,235.53C31.333,234.133 29.839,233.204 28.647,232.83C30.323,231.355 33.006,231.728 34.636,233.661C34.9,233.973 35.12,234.308 35.296,234.655C36.073,234.045 37.036,233.579 38.113,233.313C38.259,232.959 38.446,232.615 38.677,232.288C40.137,230.218 42.779,229.61 44.573,230.931C43.634,231.32 42.528,232.091 41.579,233.168C42.42,233.301 43.205,233.552 43.904,233.898C46.739,231.716 50.007,231.271 51.349,232.943C49.92,233.382 48.021,234.339 46.171,235.729C46.768,236.523 47.109,237.446 47.109,238.43L33.299,238.43Z" style="fill:rgb(30,107,38);"/>
                        </g>
                    </g>
                    <g transform="matrix(1,0,0,1,17.6065,0.330745)">
                        <g transform="matrix(1,0,0,1,-10.0531,-0.956344)">
                            <path d="M41.417,237.845C36.103,236.616 35.918,236.327 36.263,232.35C36.551,229.036 37.91,227.722 39.284,226.312C40.658,224.902 42.574,224.071 42.827,221.251C43.08,218.431 41.743,217.485 39.646,215.391C37.549,213.297 36.424,212.632 36.263,210.614C36.103,208.597 36.711,207.404 38.251,206.645C39.79,205.886 40.238,205.994 40.43,203.536" style="fill:none;stroke:rgb(30,107,38);stroke-width:3.19px;"/>
                        </g>
                        <g transform="matrix(0.964183,0.265238,-0.265238,0.964183,52.0517,-8.46903)">
                            <g transform="matrix(0.853714,0.520742,-0.520742,0.853714,118.023,15.4647)">
                                <path d="M34.754,215.413C34.738,215.571 34.698,215.727 34.631,215.879C34.374,215.472 33.887,215.019 33.264,214.742C32.64,214.466 31.977,214.409 31.504,214.491C31.772,213.888 32.387,213.539 33.04,213.555C32.818,212.621 33.129,211.72 33.832,211.418C33.802,211.765 33.832,212.205 33.939,212.674C34.18,212.051 34.759,211.612 35.433,211.612C35.166,212.011 34.949,212.64 34.949,213.323C34.949,214.005 35.166,214.634 35.433,215.033C35.342,215.033 35.253,215.025 35.166,215.01C35.285,215.136 35.404,215.246 35.518,215.337C35.276,215.441 35.015,215.463 34.754,215.413Z" style="fill:rgb(66,148,74);"/>
                            </g>
                            <path d="M32.403,219.326C31.751,218.965 31.309,218.269 31.309,217.472C31.309,216.302 32.258,215.353 33.428,215.353C34.226,215.353 34.922,215.796 35.283,216.449C35.369,216.438 35.457,216.432 35.546,216.432C35.635,216.432 35.723,216.438 35.809,216.449C36.17,215.796 36.866,215.353 37.665,215.353C38.834,215.353 39.783,216.302 39.783,217.472C39.783,218.286 39.323,218.994 38.648,219.348C38.938,219.711 39.111,220.17 39.111,220.67C39.111,221.605 38.503,222.399 37.662,222.68C37.664,222.716 37.665,222.752 37.665,222.788C37.665,223.957 36.715,224.907 35.546,224.907C34.377,224.907 33.428,223.957 33.428,222.788C33.428,222.343 33.565,221.93 33.8,221.589C32.977,221.298 32.386,220.512 32.386,219.59C32.386,219.501 32.392,219.413 32.403,219.326Z" style="fill:rgb(66,148,74);"/>
                            <clipPath id="_clip3">
                                <path d="M32.403,219.326C31.751,218.965 31.309,218.269 31.309,217.472C31.309,216.302 32.258,215.353 33.428,215.353C34.226,215.353 34.922,215.796 35.283,216.449C35.369,216.438 35.457,216.432 35.546,216.432C35.635,216.432 35.723,216.438 35.809,216.449C36.17,215.796 36.866,215.353 37.665,215.353C38.834,215.353 39.783,216.302 39.783,217.472C39.783,218.286 39.323,218.994 38.648,219.348C38.938,219.711 39.111,220.17 39.111,220.67C39.111,221.605 38.503,222.399 37.662,222.68C37.664,222.716 37.665,222.752 37.665,222.788C37.665,223.957 36.715,224.907 35.546,224.907C34.377,224.907 33.428,223.957 33.428,222.788C33.428,222.343 33.565,221.93 33.8,221.589C32.977,221.298 32.386,220.512 32.386,219.59C32.386,219.501 32.392,219.413 32.403,219.326Z"/>
                            </clipPath>
                            <g clip-path="url(#_clip3)">
                                <g transform="matrix(0.965934,0,0,0.965934,1.63661,7.66168)">
                                    <path d="M32.403,219.326C31.751,218.965 31.309,218.269 31.309,217.472C31.309,216.302 32.258,215.353 33.428,215.353C34.226,215.353 34.922,215.796 35.283,216.449C35.369,216.438 35.457,216.432 35.546,216.432C35.635,216.432 35.723,216.438 35.809,216.449C36.17,215.796 36.866,215.353 37.665,215.353C38.834,215.353 39.783,216.302 39.783,217.472C39.783,218.286 39.323,218.994 38.648,219.348C38.938,219.711 39.111,220.17 39.111,220.67C39.111,221.605 38.503,222.399 37.662,222.68C37.664,222.716 37.665,222.752 37.665,222.788C37.665,223.957 36.715,224.907 35.546,224.907C34.377,224.907 33.428,223.957 33.428,222.788C33.428,222.343 33.565,221.93 33.8,221.589C32.977,221.298 32.386,220.512 32.386,219.59C32.386,219.501 32.392,219.413 32.403,219.326Z" style="fill:rgb(90,34,133);"/>
                                </g>
                            </g>
                        </g>
                        <g transform="matrix(0.989665,-0.143396,0.143396,0.989665,-36.8683,15.1269)">
                            <g transform="matrix(0.853714,0.520742,-0.520742,0.853714,118.023,15.4647)">
                                <path d="M34.754,215.413C34.738,215.571 34.698,215.727 34.631,215.879C34.374,215.472 33.887,215.019 33.264,214.742C32.64,214.466 31.977,214.409 31.504,214.491C31.772,213.888 32.387,213.539 33.04,213.555C32.818,212.621 33.129,211.72 33.832,211.418C33.802,211.765 33.832,212.205 33.939,212.674C34.18,212.051 34.759,211.612 35.433,211.612C35.166,212.011 34.949,212.64 34.949,213.323C34.949,214.005 35.166,214.634 35.433,215.033C35.342,215.033 35.253,215.025 35.166,215.01C35.285,215.136 35.404,215.246 35.518,215.337C35.276,215.441 35.015,215.463 34.754,215.413Z" style="fill:rgb(66,148,74);"/>
                            </g>
                            <path d="M32.403,219.326C31.751,218.965 31.309,218.269 31.309,217.472C31.309,216.302 32.258,215.353 33.428,215.353C34.226,215.353 34.922,215.796 35.283,216.449C35.369,216.438 35.457,216.432 35.546,216.432C35.635,216.432 35.723,216.438 35.809,216.449C36.17,215.796 36.866,215.353 37.665,215.353C38.834,215.353 39.783,216.302 39.783,217.472C39.783,218.286 39.323,218.994 38.648,219.348C38.938,219.711 39.111,220.17 39.111,220.67C39.111,221.605 38.503,222.399 37.662,222.68C37.664,222.716 37.665,222.752 37.665,222.788C37.665,223.957 36.715,224.907 35.546,224.907C34.377,224.907 33.428,223.957 33.428,222.788C33.428,222.343 33.565,221.93 33.8,221.589C32.977,221.298 32.386,220.512 32.386,219.59C32.386,219.501 32.392,219.413 32.403,219.326Z" style="fill:rgb(66,148,74);"/>
                            <clipPath id="_clip4">
                                <path d="M32.403,219.326C31.751,218.965 31.309,218.269 31.309,217.472C31.309,216.302 32.258,215.353 33.428,215.353C34.226,215.353 34.922,215.796 35.283,216.449C35.369,216.438 35.457,216.432 35.546,216.432C35.635,216.432 35.723,216.438 35.809,216.449C36.17,215.796 36.866,215.353 37.665,215.353C38.834,215.353 39.783,216.302 39.783,217.472C39.783,218.286 39.323,218.994 38.648,219.348C38.938,219.711 39.111,220.17 39.111,220.67C39.111,221.605 38.503,222.399 37.662,222.68C37.664,222.716 37.665,222.752 37.665,222.788C37.665,223.957 36.715,224.907 35.546,224.907C34.377,224.907 33.428,223.957 33.428,222.788C33.428,222.343 33.565,221.93 33.8,221.589C32.977,221.298 32.386,220.512 32.386,219.59C32.386,219.501 32.392,219.413 32.403,219.326Z"/>
                            </clipPath>
                            <g clip-path="url(#_clip4)">
                                <g transform="matrix(0.965934,0,0,0.965934,1.63661,7.66168)">
                                    <path d="M32.403,219.326C31.751,218.965 31.309,218.269 31.309,217.472C31.309,216.302 32.258,215.353 33.428,215.353C34.226,215.353 34.922,215.796 35.283,216.449C35.369,216.438 35.457,216.432 35.546,216.432C35.635,216.432 35.723,216.438 35.809,216.449C36.17,215.796 36.866,215.353 37.665,215.353C38.834,215.353 39.783,216.302 39.783,217.472C39.783,218.286 39.323,218.994 38.648,219.348C38.938,219.711 39.111,220.17 39.111,220.67C39.111,221.605 38.503,222.399 37.662,222.68C37.664,222.716 37.665,222.752 37.665,222.788C37.665,223.957 36.715,224.907 35.546,224.907C34.377,224.907 33.428,223.957 33.428,222.788C33.428,222.343 33.565,221.93 33.8,221.589C32.977,221.298 32.386,220.512 32.386,219.59C32.386,219.501 32.392,219.413 32.403,219.326Z" style="fill:rgb(90,34,133);"/>
                                </g>
                            </g>
                        </g>
                        <g transform="matrix(0.767016,0,0,0.750842,-1.3837,59.7796)">
                            <path d="M33.299,238.43C33.299,237.942 33.383,237.468 33.541,237.018C33.255,236.51 32.912,236.006 32.511,235.53C31.333,234.133 29.839,233.204 28.647,232.83C30.323,231.355 33.006,231.728 34.636,233.661C34.9,233.973 35.12,234.308 35.296,234.655C36.073,234.045 37.036,233.579 38.113,233.313C38.259,232.959 38.446,232.615 38.677,232.288C40.137,230.218 42.779,229.61 44.573,230.931C43.634,231.32 42.528,232.091 41.579,233.168C42.42,233.301 43.205,233.552 43.904,233.898C46.739,231.716 50.007,231.271 51.349,232.943C49.92,233.382 48.021,234.339 46.171,235.729C46.768,236.523 47.109,237.446 47.109,238.43L33.299,238.43Z" style="fill:rgb(30,107,38);"/>
                        </g>
                    </g>
                    <g transform="matrix(6.12323e-17,-1,0.953344,5.83755e-17,-163.202,236.738)">
                        <path d="M36.017,193.192L36.017,234.003C36.017,235.27 35.036,236.299 33.828,236.299C32.619,236.299 31.639,235.27 31.639,234.003L31.639,193.192C31.639,191.925 32.619,190.896 33.828,190.896C35.036,190.896 36.017,191.925 36.017,193.192Z" style="fill:rgb(111,75,41);"/>
                    </g>
                </g>
            </g>
            <g transform="matrix(-1,0,0,1,242.672,21.9812)">
                <path d="M15.381,217.153C12.734,215.005 11.04,211.726 11.04,208.055C11.04,205.718 11.726,203.54 12.908,201.712C9.391,199.691 7.02,195.896 7.02,191.553C7.02,187.634 8.95,184.162 11.909,182.036C11.349,180.669 11.04,179.172 11.04,177.604C11.04,171.142 16.286,165.895 22.748,165.895C27.245,165.895 31.154,168.436 33.115,172.159C34.634,171.438 36.333,171.034 38.126,171.034C39.566,171.034 40.945,171.295 42.22,171.771C42.205,171.528 42.197,171.282 42.197,171.034C42.197,164.572 47.444,159.326 53.906,159.326C59.369,159.326 63.964,163.076 65.253,168.141C65.373,168.138 65.493,168.136 65.614,168.136C71.31,168.136 76.061,172.212 77.108,177.604L90.161,177.604L90.161,217.153L15.381,217.153Z" style="fill:rgb(97,151,103);"/>
                <clipPath id="_clip5">
                    <path d="M15.381,217.153C12.734,215.005 11.04,211.726 11.04,208.055C11.04,205.718 11.726,203.54 12.908,201.712C9.391,199.691 7.02,195.896 7.02,191.553C7.02,187.634 8.95,184.162 11.909,182.036C11.349,180.669 11.04,179.172 11.04,177.604C11.04,171.142 16.286,165.895 22.748,165.895C27.245,165.895 31.154,168.436 33.115,172.159C34.634,171.438 36.333,171.034 38.126,171.034C39.566,171.034 40.945,171.295 42.22,171.771C42.205,171.528 42.197,171.282 42.197,171.034C42.197,164.572 47.444,159.326 53.906,159.326C59.369,159.326 63.964,163.076 65.253,168.141C65.373,168.138 65.493,168.136 65.614,168.136C71.31,168.136 76.061,172.212 77.108,177.604L90.161,177.604L90.161,217.153L15.381,217.153Z"/>
                </clipPath>
                <g clip-path="url(#_clip5)">
                    <g transform="matrix(-1,0,0,1,76.4454,-21.9812)">
                        <g transform="matrix(1,0,0,1,26.0555,2.83514)">
                            <path d="M36.017,193.085L36.017,234.11C36.017,235.318 35.036,236.299 33.828,236.299C32.619,236.299 31.639,235.318 31.639,234.11L31.639,193.085C31.639,191.877 32.619,190.896 33.828,190.896C35.036,190.896 36.017,191.877 36.017,193.085Z" style="fill:rgb(111,75,41);"/>
                        </g>
                        <g transform="matrix(1,0,0,1,-12.8512,2.83514)">
                            <path d="M36.017,193.085L36.017,234.11C36.017,235.318 35.036,236.299 33.828,236.299C32.619,236.299 31.639,235.318 31.639,234.11L31.639,193.085C31.639,191.877 32.619,190.896 33.828,190.896C35.036,190.896 36.017,191.877 36.017,193.085Z" style="fill:rgb(111,75,41);"/>
                        </g>
                        <g transform="matrix(1,0,0,1,4.59142,0.330745)">
                            <g transform="matrix(1,0,0,1,-10.0531,-0.956344)">
                                <path d="M41.417,237.845C36.103,236.616 35.918,236.327 36.263,232.35C36.551,229.036 37.91,227.722 39.284,226.312C40.658,224.902 42.574,224.071 42.827,221.251C43.08,218.431 41.743,217.485 39.646,215.391C37.549,213.297 36.424,212.632 36.263,210.614C36.103,208.597 36.711,207.404 38.251,206.645C39.79,205.886 40.238,205.994 40.43,203.536" style="fill:none;stroke:rgb(30,107,38);stroke-width:3.19px;"/>
                            </g>
                            <g transform="matrix(0.964183,0.265238,-0.265238,0.964183,52.0517,-8.46903)">
                                <g transform="matrix(0.853714,0.520742,-0.520742,0.853714,118.023,15.4647)">
                                    <path d="M34.754,215.413C34.738,215.571 34.698,215.727 34.631,215.879C34.374,215.472 33.887,215.019 33.264,214.742C32.64,214.466 31.977,214.409 31.504,214.491C31.772,213.888 32.387,213.539 33.04,213.555C32.818,212.621 33.129,211.72 33.832,211.418C33.802,211.765 33.832,212.205 33.939,212.674C34.18,212.051 34.759,211.612 35.433,211.612C35.166,212.011 34.949,212.64 34.949,213.323C34.949,214.005 35.166,214.634 35.433,215.033C35.342,215.033 35.253,215.025 35.166,215.01C35.285,215.136 35.404,215.246 35.518,215.337C35.276,215.441 35.015,215.463 34.754,215.413Z" style="fill:rgb(66,148,74);"/>
                                </g>
                                <path d="M32.403,219.326C31.751,218.965 31.309,218.269 31.309,217.472C31.309,216.302 32.258,215.353 33.428,215.353C34.226,215.353 34.922,215.796 35.283,216.449C35.369,216.438 35.457,216.432 35.546,216.432C35.635,216.432 35.723,216.438 35.809,216.449C36.17,215.796 36.866,215.353 37.665,215.353C38.834,215.353 39.783,216.302 39.783,217.472C39.783,218.286 39.323,218.994 38.648,219.348C38.938,219.711 39.111,220.17 39.111,220.67C39.111,221.605 38.503,222.399 37.662,222.68C37.664,222.716 37.665,222.752 37.665,222.788C37.665,223.957 36.715,224.907 35.546,224.907C34.377,224.907 33.428,223.957 33.428,222.788C33.428,222.343 33.565,221.93 33.8,221.589C32.977,221.298 32.386,220.512 32.386,219.59C32.386,219.501 32.392,219.413 32.403,219.326Z" style="fill:rgb(66,148,74);"/>
                                <clipPath id="_clip6">
                                    <path d="M32.403,219.326C31.751,218.965 31.309,218.269 31.309,217.472C31.309,216.302 32.258,215.353 33.428,215.353C34.226,215.353 34.922,215.796 35.283,216.449C35.369,216.438 35.457,216.432 35.546,216.432C35.635,216.432 35.723,216.438 35.809,216.449C36.17,215.796 36.866,215.353 37.665,215.353C38.834,215.353 39.783,216.302 39.783,217.472C39.783,218.286 39.323,218.994 38.648,219.348C38.938,219.711 39.111,220.17 39.111,220.67C39.111,221.605 38.503,222.399 37.662,222.68C37.664,222.716 37.665,222.752 37.665,222.788C37.665,223.957 36.715,224.907 35.546,224.907C34.377,224.907 33.428,223.957 33.428,222.788C33.428,222.343 33.565,221.93 33.8,221.589C32.977,221.298 32.386,220.512 32.386,219.59C32.386,219.501 32.392,219.413 32.403,219.326Z"/>
                                </clipPath>
                                <g clip-path="url(#_clip6)">
                                    <g transform="matrix(0.965934,0,0,0.965934,1.63661,7.66168)">
                                        <path d="M32.403,219.326C31.751,218.965 31.309,218.269 31.309,217.472C31.309,216.302 32.258,215.353 33.428,215.353C34.226,215.353 34.922,215.796 35.283,216.449C35.369,216.438 35.457,216.432 35.546,216.432C35.635,216.432 35.723,216.438 35.809,216.449C36.17,215.796 36.866,215.353 37.665,215.353C38.834,215.353 39.783,216.302 39.783,217.472C39.783,218.286 39.323,218.994 38.648,219.348C38.938,219.711 39.111,220.17 39.111,220.67C39.111,221.605 38.503,222.399 37.662,222.68C37.664,222.716 37.665,222.752 37.665,222.788C37.665,223.957 36.715,224.907 35.546,224.907C34.377,224.907 33.428,223.957 33.428,222.788C33.428,222.343 33.565,221.93 33.8,221.589C32.977,221.298 32.386,220.512 32.386,219.59C32.386,219.501 32.392,219.413 32.403,219.326Z" style="fill:rgb(90,34,133);"/>
                                    </g>
                                </g>
                            </g>
                            <g transform="matrix(0.989665,-0.143396,0.143396,0.989665,-36.8683,15.1269)">
                                <g transform="matrix(0.853714,0.520742,-0.520742,0.853714,118.023,15.4647)">
                                    <path d="M34.754,215.413C34.738,215.571 34.698,215.727 34.631,215.879C34.374,215.472 33.887,215.019 33.264,214.742C32.64,214.466 31.977,214.409 31.504,214.491C31.772,213.888 32.387,213.539 33.04,213.555C32.818,212.621 33.129,211.72 33.832,211.418C33.802,211.765 33.832,212.205 33.939,212.674C34.18,212.051 34.759,211.612 35.433,211.612C35.166,212.011 34.949,212.64 34.949,213.323C34.949,214.005 35.166,214.634 35.433,215.033C35.342,215.033 35.253,215.025 35.166,215.01C35.285,215.136 35.404,215.246 35.518,215.337C35.276,215.441 35.015,215.463 34.754,215.413Z" style="fill:rgb(66,148,74);"/>
                                </g>
                                <path d="M32.403,219.326C31.751,218.965 31.309,218.269 31.309,217.472C31.309,216.302 32.258,215.353 33.428,215.353C34.226,215.353 34.922,215.796 35.283,216.449C35.369,216.438 35.457,216.432 35.546,216.432C35.635,216.432 35.723,216.438 35.809,216.449C36.17,215.796 36.866,215.353 37.665,215.353C38.834,215.353 39.783,216.302 39.783,217.472C39.783,218.286 39.323,218.994 38.648,219.348C38.938,219.711 39.111,220.17 39.111,220.67C39.111,221.605 38.503,222.399 37.662,222.68C37.664,222.716 37.665,222.752 37.665,222.788C37.665,223.957 36.715,224.907 35.546,224.907C34.377,224.907 33.428,223.957 33.428,222.788C33.428,222.343 33.565,221.93 33.8,221.589C32.977,221.298 32.386,220.512 32.386,219.59C32.386,219.501 32.392,219.413 32.403,219.326Z" style="fill:rgb(66,148,74);"/>
                                <clipPath id="_clip7">
                                    <path d="M32.403,219.326C31.751,218.965 31.309,218.269 31.309,217.472C31.309,216.302 32.258,215.353 33.428,215.353C34.226,215.353 34.922,215.796 35.283,216.449C35.369,216.438 35.457,216.432 35.546,216.432C35.635,216.432 35.723,216.438 35.809,216.449C36.17,215.796 36.866,215.353 37.665,215.353C38.834,215.353 39.783,216.302 39.783,217.472C39.783,218.286 39.323,218.994 38.648,219.348C38.938,219.711 39.111,220.17 39.111,220.67C39.111,221.605 38.503,222.399 37.662,222.68C37.664,222.716 37.665,222.752 37.665,222.788C37.665,223.957 36.715,224.907 35.546,224.907C34.377,224.907 33.428,223.957 33.428,222.788C33.428,222.343 33.565,221.93 33.8,221.589C32.977,221.298 32.386,220.512 32.386,219.59C32.386,219.501 32.392,219.413 32.403,219.326Z"/>
                                </clipPath>
                                <g clip-path="url(#_clip7)">
                                    <g transform="matrix(0.965934,0,0,0.965934,1.63661,7.66168)">
                                        <path d="M32.403,219.326C31.751,218.965 31.309,218.269 31.309,217.472C31.309,216.302 32.258,215.353 33.428,215.353C34.226,215.353 34.922,215.796 35.283,216.449C35.369,216.438 35.457,216.432 35.546,216.432C35.635,216.432 35.723,216.438 35.809,216.449C36.17,215.796 36.866,215.353 37.665,215.353C38.834,215.353 39.783,216.302 39.783,217.472C39.783,218.286 39.323,218.994 38.648,219.348C38.938,219.711 39.111,220.17 39.111,220.67C39.111,221.605 38.503,222.399 37.662,222.68C37.664,222.716 37.665,222.752 37.665,222.788C37.665,223.957 36.715,224.907 35.546,224.907C34.377,224.907 33.428,223.957 33.428,222.788C33.428,222.343 33.565,221.93 33.8,221.589C32.977,221.298 32.386,220.512 32.386,219.59C32.386,219.501 32.392,219.413 32.403,219.326Z" style="fill:rgb(90,34,133);"/>
                                    </g>
                                </g>
                            </g>
                            <g transform="matrix(0.767016,0,0,0.750842,-1.3837,59.7796)">
                                <path d="M33.299,238.43C33.299,237.942 33.383,237.468 33.541,237.018C33.255,236.51 32.912,236.006 32.511,235.53C31.333,234.133 29.839,233.204 28.647,232.83C30.323,231.355 33.006,231.728 34.636,233.661C34.9,233.973 35.12,234.308 35.296,234.655C36.073,234.045 37.036,233.579 38.113,233.313C38.259,232.959 38.446,232.615 38.677,232.288C40.137,230.218 42.779,229.61 44.573,230.931C43.634,231.32 42.528,232.091 41.579,233.168C42.42,233.301 43.205,233.552 43.904,233.898C46.739,231.716 50.007,231.271 51.349,232.943C49.92,233.382 48.021,234.339 46.171,235.729C46.768,236.523 47.109,237.446 47.109,238.43L33.299,238.43Z" style="fill:rgb(30,107,38);"/>
                            </g>
                        </g>
                        <g transform="matrix(1,0,0,1,17.6065,0.330745)">
                            <g transform="matrix(1,0,0,1,-10.0531,-0.956344)">
                                <path d="M41.417,237.845C36.103,236.616 35.918,236.327 36.263,232.35C36.551,229.036 37.91,227.722 39.284,226.312C40.658,224.902 42.574,224.071 42.827,221.251C43.08,218.431 41.743,217.485 39.646,215.391C37.549,213.297 36.424,212.632 36.263,210.614C36.103,208.597 36.711,207.404 38.251,206.645C39.79,205.886 40.238,205.994 40.43,203.536" style="fill:none;stroke:rgb(30,107,38);stroke-width:3.19px;"/>
                            </g>
                            <g transform="matrix(0.964183,0.265238,-0.265238,0.964183,52.0517,-8.46903)">
                                <g transform="matrix(0.853714,0.520742,-0.520742,0.853714,118.023,15.4647)">
                                    <path d="M34.754,215.413C34.738,215.571 34.698,215.727 34.631,215.879C34.374,215.472 33.887,215.019 33.264,214.742C32.64,214.466 31.977,214.409 31.504,214.491C31.772,213.888 32.387,213.539 33.04,213.555C32.818,212.621 33.129,211.72 33.832,211.418C33.802,211.765 33.832,212.205 33.939,212.674C34.18,212.051 34.759,211.612 35.433,211.612C35.166,212.011 34.949,212.64 34.949,213.323C34.949,214.005 35.166,214.634 35.433,215.033C35.342,215.033 35.253,215.025 35.166,215.01C35.285,215.136 35.404,215.246 35.518,215.337C35.276,215.441 35.015,215.463 34.754,215.413Z" style="fill:rgb(66,148,74);"/>
                                </g>
                                <path d="M32.403,219.326C31.751,218.965 31.309,218.269 31.309,217.472C31.309,216.302 32.258,215.353 33.428,215.353C34.226,215.353 34.922,215.796 35.283,216.449C35.369,216.438 35.457,216.432 35.546,216.432C35.635,216.432 35.723,216.438 35.809,216.449C36.17,215.796 36.866,215.353 37.665,215.353C38.834,215.353 39.783,216.302 39.783,217.472C39.783,218.286 39.323,218.994 38.648,219.348C38.938,219.711 39.111,220.17 39.111,220.67C39.111,221.605 38.503,222.399 37.662,222.68C37.664,222.716 37.665,222.752 37.665,222.788C37.665,223.957 36.715,224.907 35.546,224.907C34.377,224.907 33.428,223.957 33.428,222.788C33.428,222.343 33.565,221.93 33.8,221.589C32.977,221.298 32.386,220.512 32.386,219.59C32.386,219.501 32.392,219.413 32.403,219.326Z" style="fill:rgb(66,148,74);"/>
                                <clipPath id="_clip8">
                                    <path d="M32.403,219.326C31.751,218.965 31.309,218.269 31.309,217.472C31.309,216.302 32.258,215.353 33.428,215.353C34.226,215.353 34.922,215.796 35.283,216.449C35.369,216.438 35.457,216.432 35.546,216.432C35.635,216.432 35.723,216.438 35.809,216.449C36.17,215.796 36.866,215.353 37.665,215.353C38.834,215.353 39.783,216.302 39.783,217.472C39.783,218.286 39.323,218.994 38.648,219.348C38.938,219.711 39.111,220.17 39.111,220.67C39.111,221.605 38.503,222.399 37.662,222.68C37.664,222.716 37.665,222.752 37.665,222.788C37.665,223.957 36.715,224.907 35.546,224.907C34.377,224.907 33.428,223.957 33.428,222.788C33.428,222.343 33.565,221.93 33.8,221.589C32.977,221.298 32.386,220.512 32.386,219.59C32.386,219.501 32.392,219.413 32.403,219.326Z"/>
                                </clipPath>
                                <g clip-path="url(#_clip8)">
                                    <g transform="matrix(0.965934,0,0,0.965934,1.63661,7.66168)">
                                        <path d="M32.403,219.326C31.751,218.965 31.309,218.269 31.309,217.472C31.309,216.302 32.258,215.353 33.428,215.353C34.226,215.353 34.922,215.796 35.283,216.449C35.369,216.438 35.457,216.432 35.546,216.432C35.635,216.432 35.723,216.438 35.809,216.449C36.17,215.796 36.866,215.353 37.665,215.353C38.834,215.353 39.783,216.302 39.783,217.472C39.783,218.286 39.323,218.994 38.648,219.348C38.938,219.711 39.111,220.17 39.111,220.67C39.111,221.605 38.503,222.399 37.662,222.68C37.664,222.716 37.665,222.752 37.665,222.788C37.665,223.957 36.715,224.907 35.546,224.907C34.377,224.907 33.428,223.957 33.428,222.788C33.428,222.343 33.565,221.93 33.8,221.589C32.977,221.298 32.386,220.512 32.386,219.59C32.386,219.501 32.392,219.413 32.403,219.326Z" style="fill:rgb(90,34,133);"/>
                                    </g>
                                </g>
                            </g>
                            <g transform="matrix(0.989665,-0.143396,0.143396,0.989665,-36.8683,15.1269)">
                                <g transform="matrix(0.853714,0.520742,-0.520742,0.853714,118.023,15.4647)">
                                    <path d="M34.754,215.413C34.738,215.571 34.698,215.727 34.631,215.879C34.374,215.472 33.887,215.019 33.264,214.742C32.64,214.466 31.977,214.409 31.504,214.491C31.772,213.888 32.387,213.539 33.04,213.555C32.818,212.621 33.129,211.72 33.832,211.418C33.802,211.765 33.832,212.205 33.939,212.674C34.18,212.051 34.759,211.612 35.433,211.612C35.166,212.011 34.949,212.64 34.949,213.323C34.949,214.005 35.166,214.634 35.433,215.033C35.342,215.033 35.253,215.025 35.166,215.01C35.285,215.136 35.404,215.246 35.518,215.337C35.276,215.441 35.015,215.463 34.754,215.413Z" style="fill:rgb(66,148,74);"/>
                                </g>
                                <path d="M32.403,219.326C31.751,218.965 31.309,218.269 31.309,217.472C31.309,216.302 32.258,215.353 33.428,215.353C34.226,215.353 34.922,215.796 35.283,216.449C35.369,216.438 35.457,216.432 35.546,216.432C35.635,216.432 35.723,216.438 35.809,216.449C36.17,215.796 36.866,215.353 37.665,215.353C38.834,215.353 39.783,216.302 39.783,217.472C39.783,218.286 39.323,218.994 38.648,219.348C38.938,219.711 39.111,220.17 39.111,220.67C39.111,221.605 38.503,222.399 37.662,222.68C37.664,222.716 37.665,222.752 37.665,222.788C37.665,223.957 36.715,224.907 35.546,224.907C34.377,224.907 33.428,223.957 33.428,222.788C33.428,222.343 33.565,221.93 33.8,221.589C32.977,221.298 32.386,220.512 32.386,219.59C32.386,219.501 32.392,219.413 32.403,219.326Z" style="fill:rgb(66,148,74);"/>
                                <clipPath id="_clip9">
                                    <path d="M32.403,219.326C31.751,218.965 31.309,218.269 31.309,217.472C31.309,216.302 32.258,215.353 33.428,215.353C34.226,215.353 34.922,215.796 35.283,216.449C35.369,216.438 35.457,216.432 35.546,216.432C35.635,216.432 35.723,216.438 35.809,216.449C36.17,215.796 36.866,215.353 37.665,215.353C38.834,215.353 39.783,216.302 39.783,217.472C39.783,218.286 39.323,218.994 38.648,219.348C38.938,219.711 39.111,220.17 39.111,220.67C39.111,221.605 38.503,222.399 37.662,222.68C37.664,222.716 37.665,222.752 37.665,222.788C37.665,223.957 36.715,224.907 35.546,224.907C34.377,224.907 33.428,223.957 33.428,222.788C33.428,222.343 33.565,221.93 33.8,221.589C32.977,221.298 32.386,220.512 32.386,219.59C32.386,219.501 32.392,219.413 32.403,219.326Z"/>
                                </clipPath>
                                <g clip-path="url(#_clip9)">
                                    <g transform="matrix(0.965934,0,0,0.965934,1.63661,7.66168)">
                                        <path d="M32.403,219.326C31.751,218.965 31.309,218.269 31.309,217.472C31.309,216.302 32.258,215.353 33.428,215.353C34.226,215.353 34.922,215.796 35.283,216.449C35.369,216.438 35.457,216.432 35.546,216.432C35.635,216.432 35.723,216.438 35.809,216.449C36.17,215.796 36.866,215.353 37.665,215.353C38.834,215.353 39.783,216.302 39.783,217.472C39.783,218.286 39.323,218.994 38.648,219.348C38.938,219.711 39.111,220.17 39.111,220.67C39.111,221.605 38.503,222.399 37.662,222.68C37.664,222.716 37.665,222.752 37.665,222.788C37.665,223.957 36.715,224.907 35.546,224.907C34.377,224.907 33.428,223.957 33.428,222.788C33.428,222.343 33.565,221.93 33.8,221.589C32.977,221.298 32.386,220.512 32.386,219.59C32.386,219.501 32.392,219.413 32.403,219.326Z" style="fill:rgb(90,34,133);"/>
                                    </g>
                                </g>
                            </g>
                            <g transform="matrix(0.767016,0,0,0.750842,-1.3837,59.7796)">
                                <path d="M33.299,238.43C33.299,237.942 33.383,237.468 33.541,237.018C33.255,236.51 32.912,236.006 32.511,235.53C31.333,234.133 29.839,233.204 28.647,232.83C30.323,231.355 33.006,231.728 34.636,233.661C34.9,233.973 35.12,234.308 35.296,234.655C36.073,234.045 37.036,233.579 38.113,233.313C38.259,232.959 38.446,232.615 38.677,232.288C40.137,230.218 42.779,229.61 44.573,230.931C43.634,231.32 42.528,232.091 41.579,233.168C42.42,233.301 43.205,233.552 43.904,233.898C46.739,231.716 50.007,231.271 51.349,232.943C49.92,233.382 48.021,234.339 46.171,235.729C46.768,236.523 47.109,237.446 47.109,238.43L33.299,238.43Z" style="fill:rgb(30,107,38);"/>
                            </g>
                        </g>
                        <g transform="matrix(6.12323e-17,-1,0.953344,5.83755e-17,-163.202,236.738)">
                            <path d="M36.017,193.192L36.017,234.003C36.017,235.27 35.036,236.299 33.828,236.299C32.619,236.299 31.639,235.27 31.639,234.003L31.639,193.192C31.639,191.925 32.619,190.896 33.828,190.896C35.036,190.896 36.017,191.925 36.017,193.192Z" style="fill:rgb(111,75,41);"/>
                        </g>
                    </g>
                </g>
            </g>
            <g>
                <g transform="matrix(1.13415,0,0,1,8.57529,25.559)">
                    <path d="M153.615,149.394L153.615,192.181C153.615,203.989 145.163,213.575 134.752,213.575L75.845,213.575C65.434,213.575 56.982,203.989 56.982,192.181L56.982,149.394C56.982,137.586 65.434,128 75.845,128L134.752,128C145.163,128 153.615,137.586 153.615,149.394Z" style="fill:rgb(236,186,137);"/>
                    <clipPath id="_clip10">
                        <path d="M153.615,149.394L153.615,192.181C153.615,203.989 145.163,213.575 134.752,213.575L75.845,213.575C65.434,213.575 56.982,203.989 56.982,192.181L56.982,149.394C56.982,137.586 65.434,128 75.845,128L134.752,128C145.163,128 153.615,137.586 153.615,149.394Z"/>
                    </clipPath>
                    <g clip-path="url(#_clip10)">
                        <g transform="matrix(1.23508,0,0,1.07182,43.9546,-15.8011)">
                            <path d="M59.873,186.486L59.873,223.072C59.873,226.753 57.587,229.741 54.771,229.741L44.565,229.741C41.749,229.741 39.462,226.753 39.462,223.072L39.462,186.486C39.462,182.805 41.749,179.817 44.565,179.817L54.771,179.817C57.587,179.817 59.873,182.805 59.873,186.486Z" style="fill:rgb(163,127,94);"/>
                        </g>
                        <g transform="matrix(0.899581,0,0,0.412854,89.7829,82.0813)">
                            <path d="M59.873,192.298L59.873,217.26C59.873,224.149 57.61,229.741 54.823,229.741L44.513,229.741C41.725,229.741 39.462,224.149 39.462,217.26L39.462,192.298C39.462,185.41 41.725,179.817 44.513,179.817L54.823,179.817C57.61,179.817 59.873,185.41 59.873,192.298Z" style="fill:rgb(163,127,94);"/>
                        </g>
                        <g transform="matrix(0.899581,0,0,0.412854,31.2936,82.0813)">
                            <path d="M59.873,192.298L59.873,217.26C59.873,224.149 57.61,229.741 54.823,229.741L44.513,229.741C41.725,229.741 39.462,224.149 39.462,217.26L39.462,192.298C39.462,185.41 41.725,179.817 44.513,179.817L54.823,179.817C57.61,179.817 59.873,185.41 59.873,192.298Z" style="fill:rgb(163,127,94);"/>
                        </g>
                    </g>
                </g>
                <g transform="matrix(0.900098,0,0,0.777599,33.2211,-12.5166)">
                    <path d="M153.615,149.394L153.615,192.181C153.615,203.989 145.333,213.575 135.133,213.575L75.464,213.575C65.264,213.575 56.982,203.989 56.982,192.181L56.982,149.394C56.982,137.586 65.264,128 75.464,128L135.133,128C145.333,128 153.615,137.586 153.615,149.394Z" style="fill:rgb(236,186,137);"/>
                    <clipPath id="_clip11">
                        <path d="M153.615,149.394L153.615,192.181C153.615,203.989 145.333,213.575 135.133,213.575L75.464,213.575C65.264,213.575 56.982,203.989 56.982,192.181L56.982,149.394C56.982,137.586 65.264,128 75.464,128L135.133,128C145.333,128 153.615,137.586 153.615,149.394Z"/>
                    </clipPath>
                    <g clip-path="url(#_clip11)">
                        <g transform="matrix(1.1335,0,0,0.530934,27.5447,62.0631)">
                            <path d="M59.873,192.298L59.873,217.26C59.873,224.149 57.61,229.741 54.823,229.741L44.513,229.741C41.725,229.741 39.462,224.149 39.462,217.26L39.462,192.298C39.462,185.41 41.725,179.817 44.513,179.817L54.823,179.817C57.61,179.817 59.873,185.41 59.873,192.298Z" style="fill:rgb(163,127,94);"/>
                        </g>
                        <g transform="matrix(1.1335,0,0,0.530934,71.4346,62.0631)">
                            <path d="M59.873,192.298L59.873,217.26C59.873,224.149 57.61,229.741 54.823,229.741L44.513,229.741C41.725,229.741 39.462,224.149 39.462,217.26L39.462,192.298C39.462,185.41 41.725,179.817 44.513,179.817L54.823,179.817C57.61,179.817 59.873,185.41 59.873,192.298Z" style="fill:rgb(163,127,94);"/>
                        </g>
                    </g>
                </g>
                <g transform="matrix(0.920913,0,0,1,28.0291,9.83343)">
                    <path d="M42.922,156.638C41.076,156.638 39.578,155.259 39.578,153.559C39.578,152.528 40.129,151.615 40.974,151.056L61.977,131.715C62.67,131.076 63.593,130.777 64.502,130.817C64.56,130.814 64.618,130.813 64.676,130.813L150.455,130.813C151.312,130.812 152.168,131.113 152.821,131.715L174.178,151.382C174.806,151.961 175.157,152.74 175.157,153.559C175.157,153.603 175.156,153.648 175.154,153.692C175.147,153.834 175.13,153.975 175.103,154.113C174.985,154.708 174.677,155.278 174.178,155.737C173.679,156.197 173.06,156.481 172.414,156.589C172.264,156.614 172.111,156.63 171.957,156.636C171.909,156.638 171.861,156.639 171.813,156.639L43.048,156.638C43.006,156.639 42.964,156.639 42.922,156.638Z" style="fill:rgb(243,114,100);"/>
                </g>
                <g transform="matrix(0.775056,0,0,1.10209,44.7844,-73.8532)">
                    <path d="M42.922,156.638C41.076,156.638 39.578,155.259 39.578,153.559C39.578,152.528 40.129,151.615 40.974,151.056L61.977,131.715C62.67,131.076 63.593,130.777 64.502,130.817C64.56,130.814 64.618,130.813 64.676,130.813L150.455,130.813C151.312,130.812 152.168,131.113 152.821,131.715L174.178,151.382C174.806,151.961 175.157,152.74 175.157,153.559C175.157,153.603 175.156,153.648 175.154,153.692C175.147,153.834 175.13,153.975 175.103,154.113C174.985,154.708 174.677,155.278 174.178,155.737C173.679,156.197 173.06,156.481 172.414,156.589C172.264,156.614 172.111,156.63 171.957,156.636C171.909,156.638 171.861,156.639 171.813,156.639L43.048,156.638C43.006,156.639 42.964,156.639 42.922,156.638Z" style="fill:rgb(243,114,100);"/>
                </g>
            </g>
        </g>
    </g>
</svg>
