<?xml version="1.0" encoding="UTF-8" standalone="no"?>
<!DOCTYPE svg PUBLIC "-//W3C//DTD SVG 1.1//EN" "http://www.w3.org/Graphics/SVG/1.1/DTD/svg11.dtd">
<svg width="100%" height="100%" viewBox="0 0 342 342" version="1.1" xmlns="http://www.w3.org/2000/svg" xmlns:xlink="http://www.w3.org/1999/xlink" xml:space="preserve" xmlns:serif="http://www.serif.com/" style="fill-rule:evenodd;clip-rule:evenodd;stroke-linecap:round;stroke-linejoin:round;stroke-miterlimit:1.5;">
    <g transform="matrix(1.33333,0,0,1.33333,0,0)">
        <g transform="matrix(0.9385,0,0,0.9385,0.340329,-11.8466)">
            <path d="M31.648,190.291C28.546,187.96 25.883,184.942 23.912,181.311C27.29,181.719 31.193,181.662 35.317,181.05C27.4,179.529 20.197,174.604 16.051,166.968C22.132,167.703 29.912,166.931 37.619,164.128C33.079,161.643 29.176,157.868 26.523,152.983C28.735,153.25 31.172,153.318 33.748,153.162C29.746,150.692 26.315,147.176 23.912,142.75C29.411,143.414 36.299,142.846 43.266,140.659C37.731,140.013 32.361,137.579 28.097,133.354C30.506,132.934 33.12,132.183 35.802,131.099C35.297,130.352 34.823,129.574 34.384,128.765C36.211,128.985 38.192,129.07 40.278,129.005C42.47,127.835 44.657,126.45 46.766,124.849C43.791,123.604 41,121.777 38.569,119.369C42.031,118.766 45.916,117.477 49.818,115.504C46.127,114.456 42.753,112.193 40.356,108.825C45.355,108.82 51.951,107.01 57.627,102.969C58.353,102.452 59.049,101.909 59.715,101.345C57.229,100.546 54.905,99.188 52.951,97.305C50.702,96.076 48.689,94.332 47.103,92.104C52.102,92.1 58.698,90.289 64.374,86.249C65.1,85.732 65.797,85.189 66.463,84.625C62.997,83.511 59.848,81.311 57.576,78.12C62.575,78.115 69.171,76.304 74.846,72.264C80.522,68.223 84.392,62.583 86.033,57.861C87.134,59.408 87.948,61.074 88.485,62.794C90.039,65.565 92.331,68.458 95.245,70.989C96.651,68.906 97.707,66.801 98.384,64.854C99.485,66.401 100.299,68.066 100.836,69.787C102.29,72.379 104.391,75.079 107.043,77.49C107.497,77.627 107.95,77.754 108.401,77.869C112.785,77.248 117.83,75.448 122.303,72.264C127.979,68.223 131.849,62.583 133.49,57.861C134.591,59.408 135.405,61.074 135.941,62.794C138.194,66.809 141.997,71.082 146.994,74.138C150.462,76.259 154.19,77.6 157.684,78.281C162.654,74.34 166.061,69.207 167.574,64.854C168.675,66.401 169.489,68.066 170.026,69.787C171.274,72.011 172.998,74.315 175.137,76.447C176.569,75.728 177.983,74.888 179.344,73.919C185.02,69.878 188.89,64.238 190.53,59.516C191.632,61.063 192.446,62.729 192.982,64.449C195.235,68.464 199.038,72.737 204.035,75.793C209.979,79.427 216.685,80.773 221.672,80.429C217.912,86.579 210.955,89.586 204.248,88.62C207.342,92.531 211.33,96.297 216.077,99.317C217.395,100.156 218.741,100.917 220.101,101.603C223.182,102.372 226.145,102.63 228.668,102.456C228.223,103.184 227.734,103.867 227.205,104.506C232.499,106.195 237.678,106.846 241.999,106.625C236.886,114.663 228.058,118.919 219.179,118.576C220.412,119.55 221.711,120.478 223.073,121.344C231.755,126.867 241.622,129.029 248.995,128.652C247.377,131.195 245.387,133.36 243.141,135.121C245.176,135.885 247.142,136.499 249.004,136.958C243.771,142.228 236.758,144.872 229.327,144.999C231.412,146.697 233.541,148.255 235.681,149.672C236.341,149.865 236.99,150.04 237.626,150.197C237.478,150.347 237.328,150.494 237.177,150.639C243.755,154.785 250.358,157.594 256,158.984C249.417,165.615 240.017,168.089 230.512,166.624C235.482,169.288 240.33,171.166 244.622,172.224C244.007,172.844 243.367,173.428 242.704,173.975C242.991,174.051 243.275,174.124 243.556,174.194C238.323,179.465 231.31,182.109 223.879,182.236C232.847,189.537 242.644,194.271 250.552,196.221C242.711,204.118 230.873,206.119 219.621,202.59C228.121,209.142 237.202,213.422 244.622,215.251C237.679,222.244 227.603,224.613 217.574,222.615L217.574,224.769C217.574,233.264 210.678,240.16 202.183,240.16L64.712,240.16C56.217,240.16 49.321,233.264 49.321,224.769L49.321,216.012C37.768,218.161 25.64,212.783 19.726,201.894C25.808,202.628 33.588,201.857 41.295,199.054C37.522,196.989 34.189,194.033 31.648,190.291Z" style="stroke:black;stroke-width:22.2px;"/>
            <path d="M166.508,178.597L202.183,178.597C210.678,178.597 217.574,185.493 217.574,193.988L217.574,224.769C217.574,233.264 210.678,240.16 202.183,240.16L64.712,240.16C56.217,240.16 49.321,233.264 49.321,224.769L49.321,193.988C49.321,185.493 56.217,178.597 64.712,178.597L136.34,178.597L136.34,92.395C136.34,88.232 139.719,84.853 143.882,84.853L158.966,84.853C163.128,84.853 166.508,88.232 166.508,92.395L166.508,178.597Z" style="fill:rgb(76,56,21);"/>
            <g transform="matrix(1,0,0,1,34.0335,18.9848)">
                <g transform="matrix(1,0,0,1,-4.17488,-37.7901)">
                    <path d="M109.41,204.93L109.41,231.16C109.41,233.436 107.562,235.284 105.286,235.284L97.038,235.284C94.762,235.284 92.914,233.436 92.914,231.16L92.914,204.93C92.914,202.654 94.762,200.806 97.038,200.806L105.286,200.806C107.562,200.806 109.41,202.654 109.41,204.93Z" style="fill:rgb(57,49,36);"/>
                </g>
                <g transform="matrix(0.704581,-0.709624,0.709624,0.704581,-25.959,116.282)">
                    <path d="M37.445,82.844C32.946,76.155 31.367,67.573 33.864,59.251C38.761,65.539 47.494,72.072 58.135,75.264C60.414,75.948 62.704,76.456 64.97,76.806C56.984,69.836 53.344,58.582 56.588,47.765C59.992,52.136 65.248,56.624 71.709,60.027C68.267,55.643 66.211,50.118 66.205,44.115C72.228,48.384 81.718,51.846 92.008,51.835C93.959,51.833 95.881,51.706 97.756,51.473C93.468,47.588 91.195,41.656 92.248,35.532C95.774,39.076 101.706,42.481 108.572,43.662C110.401,43.976 112.22,44.12 113.99,44.12C109.952,40.235 107.847,34.477 108.868,28.539C112.394,32.083 118.326,35.488 125.192,36.669C132.058,37.849 138.787,36.622 143.294,34.459C142.972,36.331 142.363,38.082 141.521,39.675C140.259,44.102 139.906,49.811 141.259,55.51C142.867,62.289 146.637,67.996 150.395,71.293C143.382,72.957 136.346,70.14 132.307,64.699C131.711,69.651 131.848,75.134 133.05,80.63C135.248,90.682 140.666,99.208 146.128,104.174C136.134,106.359 126.218,102.433 120.292,94.899C120.454,109.118 124.535,122.172 129.539,130.517C120.196,130.517 111.817,125.59 106.159,117.813C107.771,123.216 109.854,127.98 112.127,131.771C103.53,131.771 95.75,127.6 90.155,120.875C90.894,133.678 94.7,145.253 99.277,152.887C88.148,152.887 78.387,145.896 72.963,135.425C74.303,146.073 77.665,155.533 81.595,162.087C66.528,162.087 53.971,149.275 51.284,132.364C49.339,131.878 47.498,130.871 45.983,129.346C43.952,127.3 42.859,124.675 42.701,122.005C38.691,122.647 34.479,122.419 30.332,121.175C15.61,116.758 7.248,101.206 11.669,86.467C16.567,92.756 25.3,99.289 35.94,102.481C35.98,102.493 36.019,102.504 36.058,102.516C29.162,95.497 26.197,85.025 29.224,74.935C31.316,77.62 34.106,80.349 37.445,82.844Z" style="fill:rgb(0,49,1);"/>
                    <clipPath id="_clip1">
                        <path d="M37.445,82.844C32.946,76.155 31.367,67.573 33.864,59.251C38.761,65.539 47.494,72.072 58.135,75.264C60.414,75.948 62.704,76.456 64.97,76.806C56.984,69.836 53.344,58.582 56.588,47.765C59.992,52.136 65.248,56.624 71.709,60.027C68.267,55.643 66.211,50.118 66.205,44.115C72.228,48.384 81.718,51.846 92.008,51.835C93.959,51.833 95.881,51.706 97.756,51.473C93.468,47.588 91.195,41.656 92.248,35.532C95.774,39.076 101.706,42.481 108.572,43.662C110.401,43.976 112.22,44.12 113.99,44.12C109.952,40.235 107.847,34.477 108.868,28.539C112.394,32.083 118.326,35.488 125.192,36.669C132.058,37.849 138.787,36.622 143.294,34.459C142.972,36.331 142.363,38.082 141.521,39.675C140.259,44.102 139.906,49.811 141.259,55.51C142.867,62.289 146.637,67.996 150.395,71.293C143.382,72.957 136.346,70.14 132.307,64.699C131.711,69.651 131.848,75.134 133.05,80.63C135.248,90.682 140.666,99.208 146.128,104.174C136.134,106.359 126.218,102.433 120.292,94.899C120.454,109.118 124.535,122.172 129.539,130.517C120.196,130.517 111.817,125.59 106.159,117.813C107.771,123.216 109.854,127.98 112.127,131.771C103.53,131.771 95.75,127.6 90.155,120.875C90.894,133.678 94.7,145.253 99.277,152.887C88.148,152.887 78.387,145.896 72.963,135.425C74.303,146.073 77.665,155.533 81.595,162.087C66.528,162.087 53.971,149.275 51.284,132.364C49.339,131.878 47.498,130.871 45.983,129.346C43.952,127.3 42.859,124.675 42.701,122.005C38.691,122.647 34.479,122.419 30.332,121.175C15.61,116.758 7.248,101.206 11.669,86.467C16.567,92.756 25.3,99.289 35.94,102.481C35.98,102.493 36.019,102.504 36.058,102.516C29.162,95.497 26.197,85.025 29.224,74.935C31.316,77.62 34.106,80.349 37.445,82.844Z"/>
                    </clipPath>
                    <g clip-path="url(#_clip1)">
                        <g transform="matrix(0.704581,0.709624,-0.709624,0.704581,100.807,-63.5091)">
                            <path d="M110.47,177.519C109.952,177.179 109.438,176.827 108.93,176.461C107.214,177.499 105.203,178.096 103.053,178.096C100.171,178.096 97.538,177.022 95.532,175.252C93.162,178.551 90.033,181.379 86.228,183.445C72.721,190.78 55.793,185.757 48.449,172.234C56.362,173.19 67.151,171.596 76.914,166.294C76.95,166.274 76.985,166.255 77.021,166.235C67.182,166.183 57.662,160.909 52.634,151.651C56.013,152.059 59.916,152.002 64.039,151.391C56.122,149.87 48.92,144.944 44.773,137.308C52.687,138.264 63.476,136.67 73.238,131.368C75.329,130.233 77.303,128.965 79.148,127.604C68.575,128.36 58.024,123.014 52.634,113.09C58.134,113.754 65.022,113.187 71.989,110.999C66.453,110.353 61.084,107.919 56.82,103.694C64.093,102.428 73.236,98.133 80.478,90.823C81.852,89.437 83.116,87.984 84.271,86.489C78.493,86.795 72.683,84.228 69.079,79.165C74.078,79.161 80.674,77.35 86.349,73.31C87.861,72.233 89.245,71.044 90.492,69.788C84.89,69.916 79.32,67.353 75.826,62.445C80.825,62.44 87.421,60.63 93.097,56.589C98.773,52.548 102.642,46.908 104.283,42.186C105.384,43.733 106.198,45.399 106.735,47.119C107.703,48.845 108.957,50.618 110.47,52.321L110.47,44.411L174.047,44.411L174.047,197.494L110.47,197.494L110.47,177.519Z" style="fill:rgb(0,40,1);"/>
                        </g>
                    </g>
                </g>
            </g>
            <g transform="matrix(1,0,0,1,-13.4234,18.9848)">
                <g transform="matrix(1,0,0,1,-4.17488,-37.7901)">
                    <path d="M109.41,204.93L109.41,231.16C109.41,233.436 107.562,235.284 105.286,235.284L97.038,235.284C94.762,235.284 92.914,233.436 92.914,231.16L92.914,204.93C92.914,202.654 94.762,200.806 97.038,200.806L105.286,200.806C107.562,200.806 109.41,202.654 109.41,204.93Z" style="fill:rgb(57,49,36);"/>
                </g>
                <g transform="matrix(0.704581,-0.709624,0.709624,0.704581,-25.959,116.282)">
                    <path d="M37.445,82.844C32.946,76.155 31.367,67.573 33.864,59.251C38.761,65.539 47.494,72.072 58.135,75.264C60.414,75.948 62.704,76.456 64.97,76.806C56.984,69.836 53.344,58.582 56.588,47.765C59.992,52.136 65.248,56.624 71.709,60.027C68.267,55.643 66.211,50.118 66.205,44.115C72.228,48.384 81.718,51.846 92.008,51.835C93.959,51.833 95.881,51.706 97.756,51.473C93.468,47.588 91.195,41.656 92.248,35.532C95.774,39.076 101.706,42.481 108.572,43.662C110.401,43.976 112.22,44.12 113.99,44.12C109.952,40.235 107.847,34.477 108.868,28.539C112.394,32.083 118.326,35.488 125.192,36.669C132.058,37.849 138.787,36.622 143.294,34.459C142.972,36.331 142.363,38.082 141.521,39.675C140.259,44.102 139.906,49.811 141.259,55.51C142.867,62.289 146.637,67.996 150.395,71.293C143.382,72.957 136.346,70.14 132.307,64.699C131.711,69.651 131.848,75.134 133.05,80.63C135.248,90.682 140.666,99.208 146.128,104.174C136.134,106.359 126.218,102.433 120.292,94.899C120.454,109.118 124.535,122.172 129.539,130.517C120.196,130.517 111.817,125.59 106.159,117.813C107.771,123.216 109.854,127.98 112.127,131.771C103.53,131.771 95.75,127.6 90.155,120.875C90.894,133.678 94.7,145.253 99.277,152.887C88.148,152.887 78.387,145.896 72.963,135.425C74.303,146.073 77.665,155.533 81.595,162.087C66.528,162.087 53.971,149.275 51.284,132.364C49.339,131.878 47.498,130.871 45.983,129.346C43.952,127.3 42.859,124.675 42.701,122.005C38.691,122.647 34.479,122.419 30.332,121.175C15.61,116.758 7.248,101.206 11.669,86.467C16.567,92.756 25.3,99.289 35.94,102.481C35.98,102.493 36.019,102.504 36.058,102.516C29.162,95.497 26.197,85.025 29.224,74.935C31.316,77.62 34.106,80.349 37.445,82.844Z" style="fill:rgb(0,49,1);"/>
                    <clipPath id="_clip2">
                        <path d="M37.445,82.844C32.946,76.155 31.367,67.573 33.864,59.251C38.761,65.539 47.494,72.072 58.135,75.264C60.414,75.948 62.704,76.456 64.97,76.806C56.984,69.836 53.344,58.582 56.588,47.765C59.992,52.136 65.248,56.624 71.709,60.027C68.267,55.643 66.211,50.118 66.205,44.115C72.228,48.384 81.718,51.846 92.008,51.835C93.959,51.833 95.881,51.706 97.756,51.473C93.468,47.588 91.195,41.656 92.248,35.532C95.774,39.076 101.706,42.481 108.572,43.662C110.401,43.976 112.22,44.12 113.99,44.12C109.952,40.235 107.847,34.477 108.868,28.539C112.394,32.083 118.326,35.488 125.192,36.669C132.058,37.849 138.787,36.622 143.294,34.459C142.972,36.331 142.363,38.082 141.521,39.675C140.259,44.102 139.906,49.811 141.259,55.51C142.867,62.289 146.637,67.996 150.395,71.293C143.382,72.957 136.346,70.14 132.307,64.699C131.711,69.651 131.848,75.134 133.05,80.63C135.248,90.682 140.666,99.208 146.128,104.174C136.134,106.359 126.218,102.433 120.292,94.899C120.454,109.118 124.535,122.172 129.539,130.517C120.196,130.517 111.817,125.59 106.159,117.813C107.771,123.216 109.854,127.98 112.127,131.771C103.53,131.771 95.75,127.6 90.155,120.875C90.894,133.678 94.7,145.253 99.277,152.887C88.148,152.887 78.387,145.896 72.963,135.425C74.303,146.073 77.665,155.533 81.595,162.087C66.528,162.087 53.971,149.275 51.284,132.364C49.339,131.878 47.498,130.871 45.983,129.346C43.952,127.3 42.859,124.675 42.701,122.005C38.691,122.647 34.479,122.419 30.332,121.175C15.61,116.758 7.248,101.206 11.669,86.467C16.567,92.756 25.3,99.289 35.94,102.481C35.98,102.493 36.019,102.504 36.058,102.516C29.162,95.497 26.197,85.025 29.224,74.935C31.316,77.62 34.106,80.349 37.445,82.844Z"/>
                    </clipPath>
                    <g clip-path="url(#_clip2)">
                        <g transform="matrix(0.704581,0.709624,-0.709624,0.704581,100.807,-63.5091)">
                            <path d="M110.47,177.519C109.952,177.179 109.438,176.827 108.93,176.461C107.214,177.499 105.203,178.096 103.053,178.096C100.171,178.096 97.538,177.022 95.532,175.252C93.162,178.551 90.033,181.379 86.228,183.445C72.721,190.78 55.793,185.757 48.449,172.234C56.362,173.19 67.151,171.596 76.914,166.294C76.95,166.274 76.985,166.255 77.021,166.235C67.182,166.183 57.662,160.909 52.634,151.651C56.013,152.059 59.916,152.002 64.039,151.391C56.122,149.87 48.92,144.944 44.773,137.308C52.687,138.264 63.476,136.67 73.238,131.368C75.329,130.233 77.303,128.965 79.148,127.604C68.575,128.36 58.024,123.014 52.634,113.09C58.134,113.754 65.022,113.187 71.989,110.999C66.453,110.353 61.084,107.919 56.82,103.694C64.093,102.428 73.236,98.133 80.478,90.823C81.852,89.437 83.116,87.984 84.271,86.489C78.493,86.795 72.683,84.228 69.079,79.165C74.078,79.161 80.674,77.35 86.349,73.31C87.861,72.233 89.245,71.044 90.492,69.788C84.89,69.916 79.32,67.353 75.826,62.445C80.825,62.44 87.421,60.63 93.097,56.589C98.773,52.548 102.642,46.908 104.283,42.186C105.384,43.733 106.198,45.399 106.735,47.119C107.703,48.845 108.957,50.618 110.47,52.321L110.47,44.411L174.047,44.411L174.047,197.494L110.47,197.494L110.47,177.519Z" style="fill:rgb(0,40,1);"/>
                        </g>
                    </g>
                </g>
            </g>
            <g transform="matrix(1,0,0,1,91.0745,20.6397)">
                <g transform="matrix(1,0,0,1,-4.17488,-37.7901)">
                    <path d="M109.41,204.93L109.41,231.16C109.41,233.436 107.562,235.284 105.286,235.284L97.038,235.284C94.762,235.284 92.914,233.436 92.914,231.16L92.914,204.93C92.914,202.654 94.762,200.806 97.038,200.806L105.286,200.806C107.562,200.806 109.41,202.654 109.41,204.93Z" style="fill:rgb(57,49,36);"/>
                </g>
                <g transform="matrix(0.704581,-0.709624,0.709624,0.704581,-25.959,116.282)">
                    <path d="M37.445,82.844C32.946,76.155 31.367,67.573 33.864,59.251C38.761,65.539 47.494,72.072 58.135,75.264C60.414,75.948 62.704,76.456 64.97,76.806C56.984,69.836 53.344,58.582 56.588,47.765C59.992,52.136 65.248,56.624 71.709,60.027C68.267,55.643 66.211,50.118 66.205,44.115C72.228,48.384 81.718,51.846 92.008,51.835C93.959,51.833 95.881,51.706 97.756,51.473C93.468,47.588 91.195,41.656 92.248,35.532C95.774,39.076 101.706,42.481 108.572,43.662C110.401,43.976 112.22,44.12 113.99,44.12C109.952,40.235 107.847,34.477 108.868,28.539C112.394,32.083 118.326,35.488 125.192,36.669C132.058,37.849 138.787,36.622 143.294,34.459C142.972,36.331 142.363,38.082 141.521,39.675C140.259,44.102 139.906,49.811 141.259,55.51C142.867,62.289 146.637,67.996 150.395,71.293C143.382,72.957 136.346,70.14 132.307,64.699C131.711,69.651 131.848,75.134 133.05,80.63C135.248,90.682 140.666,99.208 146.128,104.174C136.134,106.359 126.218,102.433 120.292,94.899C120.454,109.118 124.535,122.172 129.539,130.517C120.196,130.517 111.817,125.59 106.159,117.813C107.771,123.216 109.854,127.98 112.127,131.771C103.53,131.771 95.75,127.6 90.155,120.875C90.894,133.678 94.7,145.253 99.277,152.887C88.148,152.887 78.387,145.896 72.963,135.425C74.303,146.073 77.665,155.533 81.595,162.087C66.528,162.087 53.971,149.275 51.284,132.364C49.339,131.878 47.498,130.871 45.983,129.346C43.952,127.3 42.859,124.675 42.701,122.005C38.691,122.647 34.479,122.419 30.332,121.175C15.61,116.758 7.248,101.206 11.669,86.467C16.567,92.756 25.3,99.289 35.94,102.481C35.98,102.493 36.019,102.504 36.058,102.516C29.162,95.497 26.197,85.025 29.224,74.935C31.316,77.62 34.106,80.349 37.445,82.844Z" style="fill:rgb(0,49,1);"/>
                    <clipPath id="_clip3">
                        <path d="M37.445,82.844C32.946,76.155 31.367,67.573 33.864,59.251C38.761,65.539 47.494,72.072 58.135,75.264C60.414,75.948 62.704,76.456 64.97,76.806C56.984,69.836 53.344,58.582 56.588,47.765C59.992,52.136 65.248,56.624 71.709,60.027C68.267,55.643 66.211,50.118 66.205,44.115C72.228,48.384 81.718,51.846 92.008,51.835C93.959,51.833 95.881,51.706 97.756,51.473C93.468,47.588 91.195,41.656 92.248,35.532C95.774,39.076 101.706,42.481 108.572,43.662C110.401,43.976 112.22,44.12 113.99,44.12C109.952,40.235 107.847,34.477 108.868,28.539C112.394,32.083 118.326,35.488 125.192,36.669C132.058,37.849 138.787,36.622 143.294,34.459C142.972,36.331 142.363,38.082 141.521,39.675C140.259,44.102 139.906,49.811 141.259,55.51C142.867,62.289 146.637,67.996 150.395,71.293C143.382,72.957 136.346,70.14 132.307,64.699C131.711,69.651 131.848,75.134 133.05,80.63C135.248,90.682 140.666,99.208 146.128,104.174C136.134,106.359 126.218,102.433 120.292,94.899C120.454,109.118 124.535,122.172 129.539,130.517C120.196,130.517 111.817,125.59 106.159,117.813C107.771,123.216 109.854,127.98 112.127,131.771C103.53,131.771 95.75,127.6 90.155,120.875C90.894,133.678 94.7,145.253 99.277,152.887C88.148,152.887 78.387,145.896 72.963,135.425C74.303,146.073 77.665,155.533 81.595,162.087C66.528,162.087 53.971,149.275 51.284,132.364C49.339,131.878 47.498,130.871 45.983,129.346C43.952,127.3 42.859,124.675 42.701,122.005C38.691,122.647 34.479,122.419 30.332,121.175C15.61,116.758 7.248,101.206 11.669,86.467C16.567,92.756 25.3,99.289 35.94,102.481C35.98,102.493 36.019,102.504 36.058,102.516C29.162,95.497 26.197,85.025 29.224,74.935C31.316,77.62 34.106,80.349 37.445,82.844Z"/>
                    </clipPath>
                    <g clip-path="url(#_clip3)">
                        <g transform="matrix(0.704581,0.709624,-0.709624,0.704581,100.807,-63.5091)">
                            <path d="M110.47,177.519C109.952,177.179 109.438,176.827 108.93,176.461C107.214,177.499 105.203,178.096 103.053,178.096C100.171,178.096 97.538,177.022 95.532,175.252C93.162,178.551 90.033,181.379 86.228,183.445C72.721,190.78 55.793,185.757 48.449,172.234C56.362,173.19 67.151,171.596 76.914,166.294C76.95,166.274 76.985,166.255 77.021,166.235C67.182,166.183 57.662,160.909 52.634,151.651C56.013,152.059 59.916,152.002 64.039,151.391C56.122,149.87 48.92,144.944 44.773,137.308C52.687,138.264 63.476,136.67 73.238,131.368C75.329,130.233 77.303,128.965 79.148,127.604C68.575,128.36 58.024,123.014 52.634,113.09C58.134,113.754 65.022,113.187 71.989,110.999C66.453,110.353 61.084,107.919 56.82,103.694C64.093,102.428 73.236,98.133 80.478,90.823C81.852,89.437 83.116,87.984 84.271,86.489C78.493,86.795 72.683,84.228 69.079,79.165C74.078,79.161 80.674,77.35 86.349,73.31C87.861,72.233 89.245,71.044 90.492,69.788C84.89,69.916 79.32,67.353 75.826,62.445C80.825,62.44 87.421,60.63 93.097,56.589C98.773,52.548 102.642,46.908 104.283,42.186C105.384,43.733 106.198,45.399 106.735,47.119C107.703,48.845 108.957,50.618 110.47,52.321L110.47,44.411L174.047,44.411L174.047,197.494L110.47,197.494L110.47,177.519Z" style="fill:rgb(0,40,1);"/>
                        </g>
                    </g>
                </g>
            </g>
            <g transform="matrix(1,0,0,1,68.1179,25.9772)">
                <g transform="matrix(1,0,0,1,-4.17488,-37.7901)">
                    <path d="M109.41,204.93L109.41,231.16C109.41,233.436 107.562,235.284 105.286,235.284L97.038,235.284C94.762,235.284 92.914,233.436 92.914,231.16L92.914,204.93C92.914,202.654 94.762,200.806 97.038,200.806L105.286,200.806C107.562,200.806 109.41,202.654 109.41,204.93Z" style="fill:rgb(85,72,49);"/>
                </g>
                <g transform="matrix(0.704581,-0.709624,0.709624,0.704581,-25.959,116.282)">
                    <path d="M37.445,82.844C32.946,76.155 31.367,67.573 33.864,59.251C38.761,65.539 47.494,72.072 58.135,75.264C60.414,75.948 62.704,76.456 64.97,76.806C56.984,69.836 53.344,58.582 56.588,47.765C59.992,52.136 65.248,56.624 71.709,60.027C68.267,55.643 66.211,50.118 66.205,44.115C72.228,48.384 81.718,51.846 92.008,51.835C93.959,51.833 95.881,51.706 97.756,51.473C93.468,47.588 91.195,41.656 92.248,35.532C95.774,39.076 101.706,42.481 108.572,43.662C110.401,43.976 112.22,44.12 113.99,44.12C109.952,40.235 107.847,34.477 108.868,28.539C112.394,32.083 118.326,35.488 125.192,36.669C132.058,37.849 138.787,36.622 143.294,34.459C142.972,36.331 142.363,38.082 141.521,39.675C140.259,44.102 139.906,49.811 141.259,55.51C142.867,62.289 146.637,67.996 150.395,71.293C143.382,72.957 136.346,70.14 132.307,64.699C131.711,69.651 131.848,75.134 133.05,80.63C135.248,90.682 140.666,99.208 146.128,104.174C136.134,106.359 126.218,102.433 120.292,94.899C120.454,109.118 124.535,122.172 129.539,130.517C120.196,130.517 111.817,125.59 106.159,117.813C107.771,123.216 109.854,127.98 112.127,131.771C103.53,131.771 95.75,127.6 90.155,120.875C90.894,133.678 94.7,145.253 99.277,152.887C88.148,152.887 78.387,145.896 72.963,135.425C74.303,146.073 77.665,155.533 81.595,162.087C66.528,162.087 53.971,149.275 51.284,132.364C49.339,131.878 47.498,130.871 45.983,129.346C43.952,127.3 42.859,124.675 42.701,122.005C38.691,122.647 34.479,122.419 30.332,121.175C15.61,116.758 7.248,101.206 11.669,86.467C16.567,92.756 25.3,99.289 35.94,102.481C35.98,102.493 36.019,102.504 36.058,102.516C29.162,95.497 26.197,85.025 29.224,74.935C31.316,77.62 34.106,80.349 37.445,82.844Z" style="fill:rgb(0,63,2);"/>
                    <clipPath id="_clip4">
                        <path d="M37.445,82.844C32.946,76.155 31.367,67.573 33.864,59.251C38.761,65.539 47.494,72.072 58.135,75.264C60.414,75.948 62.704,76.456 64.97,76.806C56.984,69.836 53.344,58.582 56.588,47.765C59.992,52.136 65.248,56.624 71.709,60.027C68.267,55.643 66.211,50.118 66.205,44.115C72.228,48.384 81.718,51.846 92.008,51.835C93.959,51.833 95.881,51.706 97.756,51.473C93.468,47.588 91.195,41.656 92.248,35.532C95.774,39.076 101.706,42.481 108.572,43.662C110.401,43.976 112.22,44.12 113.99,44.12C109.952,40.235 107.847,34.477 108.868,28.539C112.394,32.083 118.326,35.488 125.192,36.669C132.058,37.849 138.787,36.622 143.294,34.459C142.972,36.331 142.363,38.082 141.521,39.675C140.259,44.102 139.906,49.811 141.259,55.51C142.867,62.289 146.637,67.996 150.395,71.293C143.382,72.957 136.346,70.14 132.307,64.699C131.711,69.651 131.848,75.134 133.05,80.63C135.248,90.682 140.666,99.208 146.128,104.174C136.134,106.359 126.218,102.433 120.292,94.899C120.454,109.118 124.535,122.172 129.539,130.517C120.196,130.517 111.817,125.59 106.159,117.813C107.771,123.216 109.854,127.98 112.127,131.771C103.53,131.771 95.75,127.6 90.155,120.875C90.894,133.678 94.7,145.253 99.277,152.887C88.148,152.887 78.387,145.896 72.963,135.425C74.303,146.073 77.665,155.533 81.595,162.087C66.528,162.087 53.971,149.275 51.284,132.364C49.339,131.878 47.498,130.871 45.983,129.346C43.952,127.3 42.859,124.675 42.701,122.005C38.691,122.647 34.479,122.419 30.332,121.175C15.61,116.758 7.248,101.206 11.669,86.467C16.567,92.756 25.3,99.289 35.94,102.481C35.98,102.493 36.019,102.504 36.058,102.516C29.162,95.497 26.197,85.025 29.224,74.935C31.316,77.62 34.106,80.349 37.445,82.844Z"/>
                    </clipPath>
                    <g clip-path="url(#_clip4)">
                        <g transform="matrix(0.704581,0.709624,-0.709624,0.704581,100.807,-63.5091)">
                            <path d="M110.47,177.519C109.952,177.179 109.438,176.827 108.93,176.461C107.214,177.499 105.203,178.096 103.053,178.096C100.171,178.096 97.538,177.022 95.532,175.252C93.162,178.551 90.033,181.379 86.228,183.445C72.721,190.78 55.793,185.757 48.449,172.234C56.362,173.19 67.151,171.596 76.914,166.294C76.95,166.274 76.985,166.255 77.021,166.235C67.182,166.183 57.662,160.909 52.634,151.651C56.013,152.059 59.916,152.002 64.039,151.391C56.122,149.87 48.92,144.944 44.773,137.308C52.687,138.264 63.476,136.67 73.238,131.368C75.329,130.233 77.303,128.965 79.148,127.604C68.575,128.36 58.024,123.014 52.634,113.09C58.134,113.754 65.022,113.187 71.989,110.999C66.453,110.353 61.084,107.919 56.82,103.694C64.093,102.428 73.236,98.133 80.478,90.823C81.852,89.437 83.116,87.984 84.271,86.489C78.493,86.795 72.683,84.228 69.079,79.165C74.078,79.161 80.674,77.35 86.349,73.31C87.861,72.233 89.245,71.044 90.492,69.788C84.89,69.916 79.32,67.353 75.826,62.445C80.825,62.44 87.421,60.63 93.097,56.589C98.773,52.548 102.642,46.908 104.283,42.186C105.384,43.733 106.198,45.399 106.735,47.119C107.703,48.845 108.957,50.618 110.47,52.321L110.47,44.411L174.047,44.411L174.047,197.494L110.47,197.494L110.47,177.519Z" style="fill:rgb(0,75,2);"/>
                        </g>
                    </g>
                </g>
            </g>
            <g transform="matrix(1,0,0,1,-1.07244,25.9772)">
                <g transform="matrix(1,0,0,1,-4.17488,-37.7901)">
                    <path d="M109.41,204.93L109.41,231.16C109.41,233.436 107.562,235.284 105.286,235.284L97.038,235.284C94.762,235.284 92.914,233.436 92.914,231.16L92.914,204.93C92.914,202.654 94.762,200.806 97.038,200.806L105.286,200.806C107.562,200.806 109.41,202.654 109.41,204.93Z" style="fill:rgb(85,72,49);"/>
                </g>
                <g transform="matrix(0.704581,-0.709624,0.709624,0.704581,-25.959,116.282)">
                    <path d="M37.445,82.844C32.946,76.155 31.367,67.573 33.864,59.251C38.761,65.539 47.494,72.072 58.135,75.264C60.414,75.948 62.704,76.456 64.97,76.806C56.984,69.836 53.344,58.582 56.588,47.765C59.992,52.136 65.248,56.624 71.709,60.027C68.267,55.643 66.211,50.118 66.205,44.115C72.228,48.384 81.718,51.846 92.008,51.835C93.959,51.833 95.881,51.706 97.756,51.473C93.468,47.588 91.195,41.656 92.248,35.532C95.774,39.076 101.706,42.481 108.572,43.662C110.401,43.976 112.22,44.12 113.99,44.12C109.952,40.235 107.847,34.477 108.868,28.539C112.394,32.083 118.326,35.488 125.192,36.669C132.058,37.849 138.787,36.622 143.294,34.459C142.972,36.331 142.363,38.082 141.521,39.675C140.259,44.102 139.906,49.811 141.259,55.51C142.867,62.289 146.637,67.996 150.395,71.293C143.382,72.957 136.346,70.14 132.307,64.699C131.711,69.651 131.848,75.134 133.05,80.63C135.248,90.682 140.666,99.208 146.128,104.174C136.134,106.359 126.218,102.433 120.292,94.899C120.454,109.118 124.535,122.172 129.539,130.517C120.196,130.517 111.817,125.59 106.159,117.813C107.771,123.216 109.854,127.98 112.127,131.771C103.53,131.771 95.75,127.6 90.155,120.875C90.894,133.678 94.7,145.253 99.277,152.887C88.148,152.887 78.387,145.896 72.963,135.425C74.303,146.073 77.665,155.533 81.595,162.087C66.528,162.087 53.971,149.275 51.284,132.364C49.339,131.878 47.498,130.871 45.983,129.346C43.952,127.3 42.859,124.675 42.701,122.005C38.691,122.647 34.479,122.419 30.332,121.175C15.61,116.758 7.248,101.206 11.669,86.467C16.567,92.756 25.3,99.289 35.94,102.481C35.98,102.493 36.019,102.504 36.058,102.516C29.162,95.497 26.197,85.025 29.224,74.935C31.316,77.62 34.106,80.349 37.445,82.844Z" style="fill:rgb(0,63,2);"/>
                    <clipPath id="_clip5">
                        <path d="M37.445,82.844C32.946,76.155 31.367,67.573 33.864,59.251C38.761,65.539 47.494,72.072 58.135,75.264C60.414,75.948 62.704,76.456 64.97,76.806C56.984,69.836 53.344,58.582 56.588,47.765C59.992,52.136 65.248,56.624 71.709,60.027C68.267,55.643 66.211,50.118 66.205,44.115C72.228,48.384 81.718,51.846 92.008,51.835C93.959,51.833 95.881,51.706 97.756,51.473C93.468,47.588 91.195,41.656 92.248,35.532C95.774,39.076 101.706,42.481 108.572,43.662C110.401,43.976 112.22,44.12 113.99,44.12C109.952,40.235 107.847,34.477 108.868,28.539C112.394,32.083 118.326,35.488 125.192,36.669C132.058,37.849 138.787,36.622 143.294,34.459C142.972,36.331 142.363,38.082 141.521,39.675C140.259,44.102 139.906,49.811 141.259,55.51C142.867,62.289 146.637,67.996 150.395,71.293C143.382,72.957 136.346,70.14 132.307,64.699C131.711,69.651 131.848,75.134 133.05,80.63C135.248,90.682 140.666,99.208 146.128,104.174C136.134,106.359 126.218,102.433 120.292,94.899C120.454,109.118 124.535,122.172 129.539,130.517C120.196,130.517 111.817,125.59 106.159,117.813C107.771,123.216 109.854,127.98 112.127,131.771C103.53,131.771 95.75,127.6 90.155,120.875C90.894,133.678 94.7,145.253 99.277,152.887C88.148,152.887 78.387,145.896 72.963,135.425C74.303,146.073 77.665,155.533 81.595,162.087C66.528,162.087 53.971,149.275 51.284,132.364C49.339,131.878 47.498,130.871 45.983,129.346C43.952,127.3 42.859,124.675 42.701,122.005C38.691,122.647 34.479,122.419 30.332,121.175C15.61,116.758 7.248,101.206 11.669,86.467C16.567,92.756 25.3,99.289 35.94,102.481C35.98,102.493 36.019,102.504 36.058,102.516C29.162,95.497 26.197,85.025 29.224,74.935C31.316,77.62 34.106,80.349 37.445,82.844Z"/>
                    </clipPath>
                    <g clip-path="url(#_clip5)">
                        <g transform="matrix(0.704581,0.709624,-0.709624,0.704581,100.807,-63.5091)">
                            <path d="M110.47,177.519C109.952,177.179 109.438,176.827 108.93,176.461C107.214,177.499 105.203,178.096 103.053,178.096C100.171,178.096 97.538,177.022 95.532,175.252C93.162,178.551 90.033,181.379 86.228,183.445C72.721,190.78 55.793,185.757 48.449,172.234C56.362,173.19 67.151,171.596 76.914,166.294C76.95,166.274 76.985,166.255 77.021,166.235C67.182,166.183 57.662,160.909 52.634,151.651C56.013,152.059 59.916,152.002 64.039,151.391C56.122,149.87 48.92,144.944 44.773,137.308C52.687,138.264 63.476,136.67 73.238,131.368C75.329,130.233 77.303,128.965 79.148,127.604C68.575,128.36 58.024,123.014 52.634,113.09C58.134,113.754 65.022,113.187 71.989,110.999C66.453,110.353 61.084,107.919 56.82,103.694C64.093,102.428 73.236,98.133 80.478,90.823C81.852,89.437 83.116,87.984 84.271,86.489C78.493,86.795 72.683,84.228 69.079,79.165C74.078,79.161 80.674,77.35 86.349,73.31C87.861,72.233 89.245,71.044 90.492,69.788C84.89,69.916 79.32,67.353 75.826,62.445C80.825,62.44 87.421,60.63 93.097,56.589C98.773,52.548 102.642,46.908 104.283,42.186C105.384,43.733 106.198,45.399 106.735,47.119C107.703,48.845 108.957,50.618 110.47,52.321L110.47,44.411L174.047,44.411L174.047,197.494L110.47,197.494L110.47,177.519Z" style="fill:rgb(0,75,2);"/>
                        </g>
                    </g>
                </g>
            </g>
            <g transform="matrix(1,0,0,1,-23.8958,32.9696)">
                <g transform="matrix(1,0,0,1,-4.17488,-37.7901)">
                    <path d="M109.41,204.93L109.41,231.16C109.41,233.436 107.562,235.284 105.286,235.284L97.038,235.284C94.762,235.284 92.914,233.436 92.914,231.16L92.914,204.93C92.914,202.654 94.762,200.806 97.038,200.806L105.286,200.806C107.562,200.806 109.41,202.654 109.41,204.93Z" style="fill:rgb(105,91,67);"/>
                </g>
                <g transform="matrix(0.704581,-0.709624,0.709624,0.704581,-25.959,116.282)">
                    <path d="M37.445,82.844C32.946,76.155 31.367,67.573 33.864,59.251C38.761,65.539 47.494,72.072 58.135,75.264C60.414,75.948 62.704,76.456 64.97,76.806C56.984,69.836 53.344,58.582 56.588,47.765C59.992,52.136 65.248,56.624 71.709,60.027C68.267,55.643 66.211,50.118 66.205,44.115C72.228,48.384 81.718,51.846 92.008,51.835C93.959,51.833 95.881,51.706 97.756,51.473C93.468,47.588 91.195,41.656 92.248,35.532C95.774,39.076 101.706,42.481 108.572,43.662C110.401,43.976 112.22,44.12 113.99,44.12C109.952,40.235 107.847,34.477 108.868,28.539C112.394,32.083 118.326,35.488 125.192,36.669C132.058,37.849 138.787,36.622 143.294,34.459C142.972,36.331 142.363,38.082 141.521,39.675C140.259,44.102 139.906,49.811 141.259,55.51C142.867,62.289 146.637,67.996 150.395,71.293C143.382,72.957 136.346,70.14 132.307,64.699C131.711,69.651 131.848,75.134 133.05,80.63C135.248,90.682 140.666,99.208 146.128,104.174C136.134,106.359 126.218,102.433 120.292,94.899C120.454,109.118 124.535,122.172 129.539,130.517C120.196,130.517 111.817,125.59 106.159,117.813C107.771,123.216 109.854,127.98 112.127,131.771C103.53,131.771 95.75,127.6 90.155,120.875C90.894,133.678 94.7,145.253 99.277,152.887C88.148,152.887 78.387,145.896 72.963,135.425C74.303,146.073 77.665,155.533 81.595,162.087C66.528,162.087 53.971,149.275 51.284,132.364C49.339,131.878 47.498,130.871 45.983,129.346C43.952,127.3 42.859,124.675 42.701,122.005C38.691,122.647 34.479,122.419 30.332,121.175C15.61,116.758 7.248,101.206 11.669,86.467C16.567,92.756 25.3,99.289 35.94,102.481C35.98,102.493 36.019,102.504 36.058,102.516C29.162,95.497 26.197,85.025 29.224,74.935C31.316,77.62 34.106,80.349 37.445,82.844Z" style="fill:rgb(0,119,3);"/>
                    <clipPath id="_clip6">
                        <path d="M37.445,82.844C32.946,76.155 31.367,67.573 33.864,59.251C38.761,65.539 47.494,72.072 58.135,75.264C60.414,75.948 62.704,76.456 64.97,76.806C56.984,69.836 53.344,58.582 56.588,47.765C59.992,52.136 65.248,56.624 71.709,60.027C68.267,55.643 66.211,50.118 66.205,44.115C72.228,48.384 81.718,51.846 92.008,51.835C93.959,51.833 95.881,51.706 97.756,51.473C93.468,47.588 91.195,41.656 92.248,35.532C95.774,39.076 101.706,42.481 108.572,43.662C110.401,43.976 112.22,44.12 113.99,44.12C109.952,40.235 107.847,34.477 108.868,28.539C112.394,32.083 118.326,35.488 125.192,36.669C132.058,37.849 138.787,36.622 143.294,34.459C142.972,36.331 142.363,38.082 141.521,39.675C140.259,44.102 139.906,49.811 141.259,55.51C142.867,62.289 146.637,67.996 150.395,71.293C143.382,72.957 136.346,70.14 132.307,64.699C131.711,69.651 131.848,75.134 133.05,80.63C135.248,90.682 140.666,99.208 146.128,104.174C136.134,106.359 126.218,102.433 120.292,94.899C120.454,109.118 124.535,122.172 129.539,130.517C120.196,130.517 111.817,125.59 106.159,117.813C107.771,123.216 109.854,127.98 112.127,131.771C103.53,131.771 95.75,127.6 90.155,120.875C90.894,133.678 94.7,145.253 99.277,152.887C88.148,152.887 78.387,145.896 72.963,135.425C74.303,146.073 77.665,155.533 81.595,162.087C66.528,162.087 53.971,149.275 51.284,132.364C49.339,131.878 47.498,130.871 45.983,129.346C43.952,127.3 42.859,124.675 42.701,122.005C38.691,122.647 34.479,122.419 30.332,121.175C15.61,116.758 7.248,101.206 11.669,86.467C16.567,92.756 25.3,99.289 35.94,102.481C35.98,102.493 36.019,102.504 36.058,102.516C29.162,95.497 26.197,85.025 29.224,74.935C31.316,77.62 34.106,80.349 37.445,82.844Z"/>
                    </clipPath>
                    <g clip-path="url(#_clip6)">
                        <g transform="matrix(0.704581,0.709624,-0.709624,0.704581,100.807,-63.5091)">
                            <path d="M110.47,177.519C109.952,177.179 109.438,176.827 108.93,176.461C107.214,177.499 105.203,178.096 103.053,178.096C100.171,178.096 97.538,177.022 95.532,175.252C93.162,178.551 90.033,181.379 86.228,183.445C72.721,190.78 55.793,185.757 48.449,172.234C56.362,173.19 67.151,171.596 76.914,166.294C76.95,166.274 76.985,166.255 77.021,166.235C67.182,166.183 57.662,160.909 52.634,151.651C56.013,152.059 59.916,152.002 64.039,151.391C56.122,149.87 48.92,144.944 44.773,137.308C52.687,138.264 63.476,136.67 73.238,131.368C75.329,130.233 77.303,128.965 79.148,127.604C68.575,128.36 58.024,123.014 52.634,113.09C58.134,113.754 65.022,113.187 71.989,110.999C66.453,110.353 61.084,107.919 56.82,103.694C64.093,102.428 73.236,98.133 80.478,90.823C81.852,89.437 83.116,87.984 84.271,86.489C78.493,86.795 72.683,84.228 69.079,79.165C74.078,79.161 80.674,77.35 86.349,73.31C87.861,72.233 89.245,71.044 90.492,69.788C84.89,69.916 79.32,67.353 75.826,62.445C80.825,62.44 87.421,60.63 93.097,56.589C98.773,52.548 102.642,46.908 104.283,42.186C105.384,43.733 106.198,45.399 106.735,47.119C107.703,48.845 108.957,50.618 110.47,52.321L110.47,44.411L174.047,44.411L174.047,197.494L110.47,197.494L110.47,177.519Z" style="fill:rgb(2,103,4);"/>
                        </g>
                    </g>
                </g>
            </g>
            <g transform="matrix(1,0,0,1,98.0705,42.6666)">
                <g transform="matrix(1,0,0,1,-4.17488,-37.7901)">
                    <path d="M109.41,204.93L109.41,231.16C109.41,233.436 107.562,235.284 105.286,235.284L97.038,235.284C94.762,235.284 92.914,233.436 92.914,231.16L92.914,204.93C92.914,202.654 94.762,200.806 97.038,200.806L105.286,200.806C107.562,200.806 109.41,202.654 109.41,204.93Z" style="fill:rgb(105,91,67);"/>
                </g>
                <g transform="matrix(0.704581,-0.709624,0.709624,0.704581,-25.959,116.282)">
                    <path d="M37.445,82.844C32.946,76.155 31.367,67.573 33.864,59.251C38.761,65.539 47.494,72.072 58.135,75.264C60.414,75.948 62.704,76.456 64.97,76.806C56.984,69.836 53.344,58.582 56.588,47.765C59.992,52.136 65.248,56.624 71.709,60.027C68.267,55.643 66.211,50.118 66.205,44.115C72.228,48.384 81.718,51.846 92.008,51.835C93.959,51.833 95.881,51.706 97.756,51.473C93.468,47.588 91.195,41.656 92.248,35.532C95.774,39.076 101.706,42.481 108.572,43.662C110.401,43.976 112.22,44.12 113.99,44.12C109.952,40.235 107.847,34.477 108.868,28.539C112.394,32.083 118.326,35.488 125.192,36.669C132.058,37.849 138.787,36.622 143.294,34.459C142.972,36.331 142.363,38.082 141.521,39.675C140.259,44.102 139.906,49.811 141.259,55.51C142.867,62.289 146.637,67.996 150.395,71.293C143.382,72.957 136.346,70.14 132.307,64.699C131.711,69.651 131.848,75.134 133.05,80.63C135.248,90.682 140.666,99.208 146.128,104.174C136.134,106.359 126.218,102.433 120.292,94.899C120.454,109.118 124.535,122.172 129.539,130.517C120.196,130.517 111.817,125.59 106.159,117.813C107.771,123.216 109.854,127.98 112.127,131.771C103.53,131.771 95.75,127.6 90.155,120.875C90.894,133.678 94.7,145.253 99.277,152.887C88.148,152.887 78.387,145.896 72.963,135.425C74.303,146.073 77.665,155.533 81.595,162.087C66.528,162.087 53.971,149.275 51.284,132.364C49.339,131.878 47.498,130.871 45.983,129.346C43.952,127.3 42.859,124.675 42.701,122.005C38.691,122.647 34.479,122.419 30.332,121.175C15.61,116.758 7.248,101.206 11.669,86.467C16.567,92.756 25.3,99.289 35.94,102.481C35.98,102.493 36.019,102.504 36.058,102.516C29.162,95.497 26.197,85.025 29.224,74.935C31.316,77.62 34.106,80.349 37.445,82.844Z" style="fill:rgb(0,119,3);"/>
                    <clipPath id="_clip7">
                        <path d="M37.445,82.844C32.946,76.155 31.367,67.573 33.864,59.251C38.761,65.539 47.494,72.072 58.135,75.264C60.414,75.948 62.704,76.456 64.97,76.806C56.984,69.836 53.344,58.582 56.588,47.765C59.992,52.136 65.248,56.624 71.709,60.027C68.267,55.643 66.211,50.118 66.205,44.115C72.228,48.384 81.718,51.846 92.008,51.835C93.959,51.833 95.881,51.706 97.756,51.473C93.468,47.588 91.195,41.656 92.248,35.532C95.774,39.076 101.706,42.481 108.572,43.662C110.401,43.976 112.22,44.12 113.99,44.12C109.952,40.235 107.847,34.477 108.868,28.539C112.394,32.083 118.326,35.488 125.192,36.669C132.058,37.849 138.787,36.622 143.294,34.459C142.972,36.331 142.363,38.082 141.521,39.675C140.259,44.102 139.906,49.811 141.259,55.51C142.867,62.289 146.637,67.996 150.395,71.293C143.382,72.957 136.346,70.14 132.307,64.699C131.711,69.651 131.848,75.134 133.05,80.63C135.248,90.682 140.666,99.208 146.128,104.174C136.134,106.359 126.218,102.433 120.292,94.899C120.454,109.118 124.535,122.172 129.539,130.517C120.196,130.517 111.817,125.59 106.159,117.813C107.771,123.216 109.854,127.98 112.127,131.771C103.53,131.771 95.75,127.6 90.155,120.875C90.894,133.678 94.7,145.253 99.277,152.887C88.148,152.887 78.387,145.896 72.963,135.425C74.303,146.073 77.665,155.533 81.595,162.087C66.528,162.087 53.971,149.275 51.284,132.364C49.339,131.878 47.498,130.871 45.983,129.346C43.952,127.3 42.859,124.675 42.701,122.005C38.691,122.647 34.479,122.419 30.332,121.175C15.61,116.758 7.248,101.206 11.669,86.467C16.567,92.756 25.3,99.289 35.94,102.481C35.98,102.493 36.019,102.504 36.058,102.516C29.162,95.497 26.197,85.025 29.224,74.935C31.316,77.62 34.106,80.349 37.445,82.844Z"/>
                    </clipPath>
                    <g clip-path="url(#_clip7)">
                        <g transform="matrix(0.704581,0.709624,-0.709624,0.704581,100.807,-63.5091)">
                            <path d="M110.47,177.519C109.952,177.179 109.438,176.827 108.93,176.461C107.214,177.499 105.203,178.096 103.053,178.096C100.171,178.096 97.538,177.022 95.532,175.252C93.162,178.551 90.033,181.379 86.228,183.445C72.721,190.78 55.793,185.757 48.449,172.234C56.362,173.19 67.151,171.596 76.914,166.294C76.95,166.274 76.985,166.255 77.021,166.235C67.182,166.183 57.662,160.909 52.634,151.651C56.013,152.059 59.916,152.002 64.039,151.391C56.122,149.87 48.92,144.944 44.773,137.308C52.687,138.264 63.476,136.67 73.238,131.368C75.329,130.233 77.303,128.965 79.148,127.604C68.575,128.36 58.024,123.014 52.634,113.09C58.134,113.754 65.022,113.187 71.989,110.999C66.453,110.353 61.084,107.919 56.82,103.694C64.093,102.428 73.236,98.133 80.478,90.823C81.852,89.437 83.116,87.984 84.271,86.489C78.493,86.795 72.683,84.228 69.079,79.165C74.078,79.161 80.674,77.35 86.349,73.31C87.861,72.233 89.245,71.044 90.492,69.788C84.89,69.916 79.32,67.353 75.826,62.445C80.825,62.44 87.421,60.63 93.097,56.589C98.773,52.548 102.642,46.908 104.283,42.186C105.384,43.733 106.198,45.399 106.735,47.119C107.703,48.845 108.957,50.618 110.47,52.321L110.47,44.411L174.047,44.411L174.047,197.494L110.47,197.494L110.47,177.519Z" style="fill:rgb(2,103,4);"/>
                        </g>
                    </g>
                </g>
            </g>
        </g>
    </g>
</svg>
