<?xml version="1.0" encoding="UTF-8" standalone="no"?>
<!DOCTYPE svg PUBLIC "-//W3C//DTD SVG 1.1//EN" "http://www.w3.org/Graphics/SVG/1.1/DTD/svg11.dtd">
<svg width="100%" height="100%" viewBox="0 0 342 342" version="1.1" xmlns="http://www.w3.org/2000/svg" xmlns:xlink="http://www.w3.org/1999/xlink" xml:space="preserve" xmlns:serif="http://www.serif.com/" style="fill-rule:evenodd;clip-rule:evenodd;stroke-linecap:round;stroke-linejoin:round;stroke-miterlimit:1.5;">
    <g transform="matrix(1.33333,0,0,1.33333,0,0)">
        <g transform="matrix(1,0,0,1,-2.86344,-2.78891)">
            <path d="M36.598,119.802C34.607,119.709 32.643,118.902 31.124,117.383C27.886,114.145 27.886,108.888 31.124,105.65L100.539,36.235C102.266,34.507 104.569,33.702 106.833,33.818C109.097,33.702 111.4,34.507 113.127,36.235L146.01,69.118L146.01,52.971C146.01,50.342 148.145,48.208 150.774,48.208L160.301,48.208C162.93,48.208 165.064,50.342 165.064,52.971L165.064,88.172L182.543,105.65C185.78,108.888 185.78,114.145 182.543,117.383C181.103,118.823 179.263,119.623 177.38,119.782C177.5,120.961 177.562,122.157 177.562,123.367L177.562,148.699C184.807,152.21 189.911,159.455 190.368,167.927C192.83,167.012 195.494,166.512 198.273,166.512C210.82,166.512 221.006,176.698 221.006,189.244C221.006,191.013 220.803,192.734 220.421,194.387C227.893,198.113 233.032,205.833 233.032,214.744C233.032,219.589 231.513,224.081 228.926,227.771L71.219,227.771C52.011,227.771 36.418,212.177 36.418,192.97L36.418,123.367C36.418,122.164 36.479,120.974 36.598,119.802Z" style="stroke:black;stroke-width:20.83px;"/>
            <g transform="matrix(1,0,0,1,-13.3021,16.4633)">
                <path d="M120.579,211.308C114.233,203.881 110.398,194.245 110.398,183.72C110.398,160.263 129.442,141.219 152.899,141.219C155.643,141.219 158.327,141.48 160.927,141.977C164.761,134.834 172.303,129.972 180.971,129.972C193.101,129.972 203.024,139.493 203.67,151.463C206.132,150.549 208.796,150.049 211.575,150.049C224.122,150.049 234.308,160.235 234.308,172.781C234.308,174.55 234.105,176.271 233.723,177.924C241.195,181.65 246.334,189.37 246.334,198.281C246.334,203.125 244.815,207.618 242.229,211.308L120.579,211.308Z" style="fill:rgb(74,105,30);"/>
            </g>
            <path d="M165.064,52.971L165.064,93.424C165.064,96.053 162.93,98.187 160.301,98.187L150.774,98.187C148.145,98.187 146.01,96.053 146.01,93.424L146.01,52.971C146.01,50.342 148.145,48.208 150.774,48.208L160.301,48.208C162.93,48.208 165.064,50.342 165.064,52.971Z" style="fill:rgb(98,98,98);"/>
            <g>
                <g transform="matrix(1,0,0,1,2.58586,28.0135)">
                    <path d="M174.976,95.354L174.976,164.956C174.976,184.164 159.382,199.758 140.175,199.758L68.633,199.758C49.426,199.758 33.832,184.164 33.832,164.956L33.832,95.354C33.832,76.146 49.426,60.552 68.633,60.552L140.175,60.552C159.382,60.552 174.976,76.146 174.976,95.354Z" style="fill:rgb(125,82,41);"/>
                    <clipPath id="_clip1">
                        <path d="M174.976,95.354L174.976,164.956C174.976,184.164 159.382,199.758 140.175,199.758L68.633,199.758C49.426,199.758 33.832,184.164 33.832,164.956L33.832,95.354C33.832,76.146 49.426,60.552 68.633,60.552L140.175,60.552C159.382,60.552 174.976,76.146 174.976,95.354Z"/>
                    </clipPath>
                    <g clip-path="url(#_clip1)">
                        <g>
                            <g transform="matrix(1,0,0,1,-5.77503,-0.777224)">
                                <rect x="19.709" y="180.4" width="180.941" height="13.378" style="fill-opacity:0.25;"/>
                            </g>
                            <g transform="matrix(1,0,0,1,-5.77503,-29.463)">
                                <rect x="19.709" y="180.4" width="180.941" height="13.378" style="fill-opacity:0.25;"/>
                            </g>
                            <g transform="matrix(1,0,0,1,-5.77503,-56.9335)">
                                <rect x="19.709" y="180.4" width="180.941" height="13.378" style="fill-opacity:0.25;"/>
                            </g>
                            <g transform="matrix(1,0,0,1,-5.77503,-87.1018)">
                                <rect x="19.709" y="180.4" width="180.941" height="13.378" style="fill-opacity:0.25;"/>
                            </g>
                        </g>
                        <g transform="matrix(1,0,0,1,-147.222,-32.5876)">
                            <path d="M247.826,182.602L247.826,230.785C247.826,236.089 243.52,240.396 238.216,240.396L218.994,240.396C213.69,240.396 209.383,236.089 209.383,230.785L209.383,182.602C209.383,177.298 213.69,172.991 218.994,172.991L238.216,172.991C243.52,172.991 247.826,177.298 247.826,182.602Z" style="fill:rgb(76,65,53);"/>
                        </g>
                        <g transform="matrix(1.02296,0,0,0.595703,-96.0916,13.7157)">
                            <path d="M247.826,189.495L247.826,223.892C247.826,233.001 243.52,240.396 238.216,240.396L218.994,240.396C213.69,240.396 209.383,233.001 209.383,223.892L209.383,189.495C209.383,180.386 213.69,172.991 218.994,172.991L238.216,172.991C243.52,172.991 247.826,180.386 247.826,189.495Z" style="fill:rgb(76,65,53);"/>
                        </g>
                    </g>
                </g>
                <path d="M106.99,44.004L177.562,107.168L36.418,107.168L106.99,44.004Z" style="fill:rgb(130,107,86);"/>
                <clipPath id="_clip2">
                    <path d="M106.99,44.004L177.562,107.168L36.418,107.168L106.99,44.004Z"/>
                </clipPath>
                <g clip-path="url(#_clip2)">
                    <g transform="matrix(1,0,0,1,-3.18917,-95.5058)">
                        <rect x="19.709" y="180.4" width="180.941" height="13.378" style="fill-opacity:0.25;"/>
                    </g>
                    <g transform="matrix(1,0,0,1,-3.34606,-120.744)">
                        <rect x="19.709" y="180.4" width="180.941" height="13.378" style="fill-opacity:0.25;"/>
                    </g>
                </g>
            </g>
            <g transform="matrix(0.707107,-0.707107,0.611328,0.611328,-64.5835,159.004)">
                <path d="M209.73,37.811C211.413,39.568 212.471,42.11 212.471,44.936L212.471,158.485C212.471,163.781 208.754,168.081 204.175,168.081C199.596,168.081 195.879,163.781 195.879,158.485L195.879,53.833L105.402,53.833C100.823,53.833 97.106,49.533 97.106,44.236C97.106,38.94 100.823,34.64 105.402,34.64L203.57,34.64C206.013,34.64 208.211,35.865 209.73,37.811Z" style="fill:rgb(161,124,88);"/>
            </g>
        </g>
    </g>
</svg>
