<?xml version="1.0" encoding="UTF-8" standalone="no"?>
<!DOCTYPE svg PUBLIC "-//W3C//DTD SVG 1.1//EN" "http://www.w3.org/Graphics/SVG/1.1/DTD/svg11.dtd">
<svg width="100%" height="100%" viewBox="0 0 342 342" version="1.1" xmlns="http://www.w3.org/2000/svg" xmlns:xlink="http://www.w3.org/1999/xlink" xml:space="preserve" xmlns:serif="http://www.serif.com/" style="fill-rule:evenodd;clip-rule:evenodd;stroke-linecap:round;stroke-linejoin:round;stroke-miterlimit:1.5;">
    <g transform="matrix(1.33333,0,0,1.33333,0,0)">
        <g transform="matrix(1,0,0,1,0.5,5.58796)">
            <g transform="matrix(1,0,0,1,1,0)">
                <path d="M45.655,183.338C45.217,183.067 44.804,182.742 44.424,182.362L34.833,172.771C32.187,170.125 32.187,165.827 34.833,163.181L39.245,158.769C38.6,157.708 38.737,156.305 39.653,155.388C40.57,154.472 41.973,154.336 43.034,154.98L56.213,141.801C55.569,140.74 55.705,139.337 56.621,138.42C57.538,137.504 58.941,137.367 60.002,138.012L73.181,124.833C72.537,123.772 72.673,122.368 73.59,121.452C74.506,120.535 75.909,120.399 76.97,121.043L87.034,110.98L90.321,101.098C90.962,97.731 92.044,94.519 93.505,91.526L93.522,91.475L93.53,91.475C95.398,87.661 97.88,84.202 100.847,81.226L46.294,26.673C45.218,25.597 45.218,23.849 46.294,22.773C47.054,22.012 48.15,21.789 49.107,22.103C49.377,21.665 49.703,21.251 50.082,20.871L59.673,11.28C62.32,8.634 66.617,8.634 69.264,11.28L73.675,15.692C74.736,15.048 76.14,15.184 77.056,16.1C77.973,17.017 78.109,18.42 77.465,19.481L90.643,32.66C91.705,32.016 93.108,32.152 94.024,33.069C94.941,33.985 95.077,35.388 94.433,36.45L107.612,49.628C108.673,48.984 110.076,49.12 110.993,50.037C111.909,50.953 112.045,52.357 111.401,53.418L122.465,64.481C124.002,66.019 124.646,68.114 124.397,70.118C125.584,70.007 126.785,69.951 128,69.951C136.599,69.951 144.54,72.786 150.94,77.573L203.774,24.739C204.85,23.662 206.598,23.662 207.675,24.739C208.435,25.499 208.658,26.594 208.345,27.551C208.783,27.822 209.196,28.147 209.576,28.527L219.167,38.118C221.813,40.764 221.813,45.062 219.167,47.708L214.755,52.12C215.4,53.181 215.263,54.584 214.347,55.501C213.43,56.417 212.027,56.553 210.966,55.909L197.787,69.088C198.431,70.149 198.295,71.552 197.379,72.469C196.462,73.385 195.059,73.521 193.998,72.877L180.819,86.056C181.463,87.117 181.327,88.521 180.41,89.437C179.494,90.354 178.091,90.49 177.03,89.846L165.966,100.909C165.879,100.996 165.79,101.08 165.7,101.161L184.17,156.685L209.703,182.218C210.78,183.295 210.78,185.043 209.703,186.119C208.943,186.88 207.848,187.103 206.891,186.789C206.62,187.227 206.295,187.641 205.915,188.021L196.956,196.979L196.956,211.556C196.956,224.787 186.214,235.529 172.983,235.529L83.017,235.529C69.786,235.529 59.044,224.787 59.044,211.556L59.044,195.125L67.912,168.464L50.226,186.15C49.15,187.227 47.402,187.227 46.325,186.15C45.565,185.39 45.342,184.295 45.655,183.338Z" style="fill:none;stroke:black;stroke-width:20.83px;"/>
                <path d="M45.655,183.338C45.217,183.067 44.804,182.742 44.424,182.362L34.833,172.771C32.187,170.125 32.187,165.827 34.833,163.181L39.245,158.769C38.6,157.708 38.737,156.305 39.653,155.388C40.57,154.472 41.973,154.336 43.034,154.98L56.213,141.801C55.569,140.74 55.705,139.337 56.621,138.42C57.538,137.504 58.941,137.367 60.002,138.012L73.181,124.833C72.537,123.772 72.673,122.368 73.59,121.452C74.506,120.535 75.909,120.399 76.97,121.043L87.034,110.98L90.321,101.098C90.962,97.731 92.044,94.519 93.505,91.526L93.522,91.475L93.53,91.475C95.398,87.661 97.88,84.202 100.847,81.226L46.294,26.673C45.218,25.597 45.218,23.849 46.294,22.773C47.054,22.012 48.15,21.789 49.107,22.103C49.377,21.665 49.703,21.251 50.082,20.871L59.673,11.28C62.32,8.634 66.617,8.634 69.264,11.28L73.675,15.692C74.736,15.048 76.14,15.184 77.056,16.1C77.973,17.017 78.109,18.42 77.465,19.481L90.643,32.66C91.705,32.016 93.108,32.152 94.024,33.069C94.941,33.985 95.077,35.388 94.433,36.45L107.612,49.628C108.673,48.984 110.076,49.12 110.993,50.037C111.909,50.953 112.045,52.357 111.401,53.418L122.465,64.481C124.002,66.019 124.646,68.114 124.397,70.118C125.584,70.007 126.785,69.951 128,69.951C136.599,69.951 144.54,72.786 150.94,77.573L203.774,24.739C204.85,23.662 206.598,23.662 207.675,24.739C208.435,25.499 208.658,26.594 208.345,27.551C208.783,27.822 209.196,28.147 209.576,28.527L219.167,38.118C221.813,40.764 221.813,45.062 219.167,47.708L214.755,52.12C215.4,53.181 215.263,54.584 214.347,55.501C213.43,56.417 212.027,56.553 210.966,55.909L197.787,69.088C198.431,70.149 198.295,71.552 197.379,72.469C196.462,73.385 195.059,73.521 193.998,72.877L180.819,86.056C181.463,87.117 181.327,88.521 180.41,89.437C179.494,90.354 178.091,90.49 177.03,89.846L165.966,100.909C165.879,100.996 165.79,101.08 165.7,101.161L184.17,156.685L209.703,182.218C210.78,183.295 210.78,185.043 209.703,186.119C208.943,186.88 207.848,187.103 206.891,186.789C206.62,187.227 206.295,187.641 205.915,188.021L196.956,196.979L196.956,211.556C196.956,224.787 186.214,235.529 172.983,235.529L83.017,235.529C69.786,235.529 59.044,224.787 59.044,211.556L59.044,195.125L67.912,168.464L50.226,186.15C49.15,187.227 47.402,187.227 46.325,186.15C45.565,185.39 45.342,184.295 45.655,183.338Z"/>
            </g>
            <g transform="matrix(0.808081,0,0,0.729508,33.4464,70.6254)">
                <path d="M163.638,41.771L202.343,170.662L202.343,193.185C202.343,211.322 189.05,226.047 172.677,226.047L61.343,226.047C44.97,226.047 31.677,211.322 31.677,193.185L31.677,170.662L70.382,41.771C71.176,37.156 72.515,32.754 74.322,28.65L74.343,28.58L74.353,28.58C82.075,11.114 98.283,-0.925 117.01,-0.925C135.737,-0.925 151.945,11.114 159.667,28.58L159.677,28.58L159.698,28.65C161.505,32.754 162.844,37.156 163.638,41.771Z" style="fill:rgb(130,102,76);"/>
                <clipPath id="_clip1">
                    <path d="M163.638,41.771L202.343,170.662L202.343,193.185C202.343,211.322 189.05,226.047 172.677,226.047L61.343,226.047C44.97,226.047 31.677,211.322 31.677,193.185L31.677,170.662L70.382,41.771C71.176,37.156 72.515,32.754 74.322,28.65L74.343,28.58L74.353,28.58C82.075,11.114 98.283,-0.925 117.01,-0.925C135.737,-0.925 151.945,11.114 159.667,28.58L159.677,28.58L159.698,28.65C161.505,32.754 162.844,37.156 163.638,41.771Z"/>
                </clipPath>
                <g clip-path="url(#_clip1)">
                    <g>
                        <g transform="matrix(1.2375,0,0,1.37079,36.6901,-67.9824)">
                            <path d="M54.846,197.723L54.846,204.619C54.846,206.521 53.301,208.066 51.398,208.066L36.296,208.066C34.393,208.066 32.848,206.521 32.848,204.619L32.848,197.723C32.848,195.82 34.393,194.275 36.296,194.275L51.398,194.275C53.301,194.275 54.846,195.82 54.846,197.723Z" style="fill:rgb(118,83,50);"/>
                        </g>
                        <g transform="matrix(1.2375,0,0,1.37079,2.77007,-86.8873)">
                            <path d="M54.846,197.723L54.846,204.619C54.846,206.521 53.301,208.066 51.398,208.066L36.296,208.066C34.393,208.066 32.848,206.521 32.848,204.619L32.848,197.723C32.848,195.82 34.393,194.275 36.296,194.275L51.398,194.275C53.301,194.275 54.846,195.82 54.846,197.723Z" style="fill:rgb(118,83,50);"/>
                        </g>
                        <g transform="matrix(1.2375,0,0,1.37079,-14.4255,-49.7151)">
                            <path d="M54.846,197.723L54.846,204.619C54.846,206.521 53.301,208.066 51.398,208.066L36.296,208.066C34.393,208.066 32.848,206.521 32.848,204.619L32.848,197.723C32.848,195.82 34.393,194.275 36.296,194.275L51.398,194.275C53.301,194.275 54.846,195.82 54.846,197.723Z" style="fill:rgb(118,83,50);"/>
                        </g>
                        <g transform="matrix(1.2375,0,0,1.37079,38.1834,-106.265)">
                            <path d="M54.846,197.723L54.846,204.619C54.846,206.521 53.301,208.066 51.398,208.066L36.296,208.066C34.393,208.066 32.848,206.521 32.848,204.619L32.848,197.723C32.848,195.82 34.393,194.275 36.296,194.275L51.398,194.275C53.301,194.275 54.846,195.82 54.846,197.723Z" style="fill:rgb(118,83,50);"/>
                        </g>
                        <g transform="matrix(1.2375,0,0,1.37079,-8.97283,-125.17)">
                            <path d="M54.846,197.723L54.846,204.619C54.846,206.521 53.301,208.066 51.398,208.066L36.296,208.066C34.393,208.066 32.848,206.521 32.848,204.619L32.848,197.723C32.848,195.82 34.393,194.275 36.296,194.275L51.398,194.275C53.301,194.275 54.846,195.82 54.846,197.723Z" style="fill:rgb(118,83,50);"/>
                        </g>
                        <g transform="matrix(1.2375,0,0,1.37079,56.7434,-134.622)">
                            <path d="M54.846,197.723L54.846,204.619C54.846,206.521 53.301,208.066 51.398,208.066L36.296,208.066C34.393,208.066 32.848,206.521 32.848,204.619L32.848,197.723C32.848,195.82 34.393,194.275 36.296,194.275L51.398,194.275C53.301,194.275 54.846,195.82 54.846,197.723Z" style="fill:rgb(118,83,50);"/>
                        </g>
                        <g transform="matrix(1.2375,0,0,1.37079,24.5723,-157.544)">
                            <path d="M54.846,197.723L54.846,204.619C54.846,206.521 53.301,208.066 51.398,208.066L36.296,208.066C34.393,208.066 32.848,206.521 32.848,204.619L32.848,197.723C32.848,195.82 34.393,194.275 36.296,194.275L51.398,194.275C53.301,194.275 54.846,195.82 54.846,197.723Z" style="fill:rgb(118,83,50);"/>
                        </g>
                        <g transform="matrix(1.2375,0,0,1.37079,39.4846,-192.754)">
                            <path d="M54.846,197.723L54.846,204.619C54.846,206.521 53.301,208.066 51.398,208.066L36.296,208.066C34.393,208.066 32.848,206.521 32.848,204.619L32.848,197.723C32.848,195.82 34.393,194.275 36.296,194.275L51.398,194.275C53.301,194.275 54.846,195.82 54.846,197.723Z" style="fill:rgb(118,83,50);"/>
                        </g>
                        <g transform="matrix(1.2375,0,0,1.37079,76.3605,-172.653)">
                            <path d="M54.846,197.723L54.846,204.619C54.846,206.521 53.301,208.066 51.398,208.066L36.296,208.066C34.393,208.066 32.848,206.521 32.848,204.619L32.848,197.723C32.848,195.82 34.393,194.275 36.296,194.275L51.398,194.275C53.301,194.275 54.846,195.82 54.846,197.723Z" style="fill:rgb(118,83,50);"/>
                        </g>
                        <g transform="matrix(1.2375,0,0,1.37079,76.3605,-92.5587)">
                            <path d="M54.846,197.723L54.846,204.619C54.846,206.521 53.301,208.066 51.398,208.066L36.296,208.066C34.393,208.066 32.848,206.521 32.848,204.619L32.848,197.723C32.848,195.82 34.393,194.275 36.296,194.275L51.398,194.275C53.301,194.275 54.846,195.82 54.846,197.723Z" style="fill:rgb(118,83,50);"/>
                        </g>
                        <g transform="matrix(1.2375,0,0,1.37079,103.583,-54.5127)">
                            <path d="M54.846,197.723L54.846,204.619C54.846,206.521 53.301,208.066 51.398,208.066L36.296,208.066C34.393,208.066 32.848,206.521 32.848,204.619L32.848,197.723C32.848,195.82 34.393,194.275 36.296,194.275L51.398,194.275C53.301,194.275 54.846,195.82 54.846,197.723Z" style="fill:rgb(118,83,50);"/>
                        </g>
                        <g transform="matrix(1.2375,0,0,1.37079,137.81,-73.6539)">
                            <path d="M54.846,197.723L54.846,204.619C54.846,206.521 53.301,208.066 51.398,208.066L36.296,208.066C34.393,208.066 32.848,206.521 32.848,204.619L32.848,197.723C32.848,195.82 34.393,194.275 36.296,194.275L51.398,194.275C53.301,194.275 54.846,195.82 54.846,197.723Z" style="fill:rgb(118,83,50);"/>
                        </g>
                        <g transform="matrix(1.2375,0,0,1.37079,117.194,-111.464)">
                            <path d="M54.846,197.723L54.846,204.619C54.846,206.521 53.301,208.066 51.398,208.066L36.296,208.066C34.393,208.066 32.848,206.521 32.848,204.619L32.848,197.723C32.848,195.82 34.393,194.275 36.296,194.275L51.398,194.275C53.301,194.275 54.846,195.82 54.846,197.723Z" style="fill:rgb(118,83,50);"/>
                        </g>
                        <g transform="matrix(1.2375,0,0,1.37079,96.85,-142.42)">
                            <path d="M54.846,197.723L54.846,204.619C54.846,206.521 53.301,208.066 51.398,208.066L36.296,208.066C34.393,208.066 32.848,206.521 32.848,204.619L32.848,197.723C32.848,195.82 34.393,194.275 36.296,194.275L51.398,194.275C53.301,194.275 54.846,195.82 54.846,197.723Z" style="fill:rgb(118,83,50);"/>
                        </g>
                        <g transform="matrix(1.2375,0,0,1.37079,117.194,-206.566)">
                            <path d="M54.846,197.723L54.846,204.619C54.846,206.521 53.301,208.066 51.398,208.066L36.296,208.066C34.393,208.066 32.848,206.521 32.848,204.619L32.848,197.723C32.848,195.82 34.393,194.275 36.296,194.275L51.398,194.275C53.301,194.275 54.846,195.82 54.846,197.723Z" style="fill:rgb(118,83,50);"/>
                        </g>
                        <g transform="matrix(1.2375,0,0,1.37079,69.6278,-225.471)">
                            <path d="M54.846,197.723L54.846,204.619C54.846,206.521 53.301,208.066 51.398,208.066L36.296,208.066C34.393,208.066 32.848,206.521 32.848,204.619L32.848,197.723C32.848,195.82 34.393,194.275 36.296,194.275L51.398,194.275C53.301,194.275 54.846,195.82 54.846,197.723Z" style="fill:rgb(118,83,50);"/>
                        </g>
                        <g transform="matrix(1.2375,0,0,1.37079,22.8234,-234.924)">
                            <path d="M54.846,197.723L54.846,204.619C54.846,206.521 53.301,208.066 51.398,208.066L36.296,208.066C34.393,208.066 32.848,206.521 32.848,204.619L32.848,197.723C32.848,195.82 34.393,194.275 36.296,194.275L51.398,194.275C53.301,194.275 54.846,195.82 54.846,197.723Z" style="fill:rgb(118,83,50);"/>
                        </g>
                        <g transform="matrix(1.2375,0,0,1.37079,76.3605,-267.234)">
                            <path d="M54.846,197.723L54.846,204.619C54.846,206.521 53.301,208.066 51.398,208.066L36.296,208.066C34.393,208.066 32.848,206.521 32.848,204.619L32.848,197.723C32.848,195.82 34.393,194.275 36.296,194.275L51.398,194.275C53.301,194.275 54.846,195.82 54.846,197.723Z" style="fill:rgb(118,83,50);"/>
                        </g>
                    </g>
                    <g transform="matrix(1.2375,0,0,1.37079,62.1567,-92.3224)">
                        <path d="M59.044,198.859L59.044,238.995C59.044,243.333 55.522,246.854 51.185,246.854L35.467,246.854C31.13,246.854 27.608,243.333 27.608,238.995L27.608,198.859C27.608,194.521 31.13,191 35.467,191L51.185,191C55.522,191 59.044,194.521 59.044,198.859Z" style="fill:rgb(64,64,64);"/>
                    </g>
                </g>
            </g>
            <g transform="matrix(0.707107,-0.707107,0.707107,0.707107,-37.2369,120.292)">
                <g transform="matrix(1,0,0,1,-1.42109e-14,78.4)">
                    <g transform="matrix(1.16704,0,0,1.16273,-33.8597,9.09764)">
                        <path d="M234.158,19.039L234.158,30.704C234.158,33.923 231.554,36.537 228.347,36.537L163.878,36.537C160.671,36.537 158.067,33.923 158.067,30.704L158.067,19.039C158.067,15.82 160.671,13.207 163.878,13.207L228.347,13.207C231.554,13.207 234.158,15.82 234.158,19.039Z" style="fill:white;"/>
                    </g>
                    <g transform="matrix(1.17551,0,0,1,-22.4656,0)">
                        <path d="M166.247,29.97L130.346,29.97C129.051,29.97 128,28.734 128,27.212C128,25.69 129.051,24.454 130.346,24.454L221.565,24.454C222.86,24.454 223.912,25.69 223.912,27.212C223.912,28.734 222.86,29.97 221.565,29.97L211.767,29.97L211.767,50.924C211.767,52.446 210.716,53.682 209.421,53.682C208.126,53.682 207.074,52.446 207.074,50.924L207.074,29.97L191.353,29.97L191.353,50.924C191.353,52.446 190.302,53.682 189.007,53.682C187.712,53.682 186.661,52.446 186.661,50.924L186.661,29.97L170.94,29.97L170.94,50.924C170.94,52.446 169.888,53.682 168.593,53.682C167.298,53.682 166.247,52.446 166.247,50.924L166.247,29.97Z" style="fill:rgb(82,60,38);"/>
                    </g>
                </g>
                <g transform="matrix(6.12323e-17,-1,1,6.12323e-17,100.81,230.854)">
                    <g transform="matrix(1.16704,0,0,1.16273,-33.8597,9.09764)">
                        <path d="M234.158,19.039L234.158,30.704C234.158,33.923 231.554,36.537 228.347,36.537L163.878,36.537C160.671,36.537 158.067,33.923 158.067,30.704L158.067,19.039C158.067,15.82 160.671,13.207 163.878,13.207L228.347,13.207C231.554,13.207 234.158,15.82 234.158,19.039Z" style="fill:white;"/>
                    </g>
                    <g transform="matrix(1.17551,0,0,1,-22.4656,0)">
                        <path d="M166.247,29.97L130.346,29.97C129.051,29.97 128,28.734 128,27.212C128,25.69 129.051,24.454 130.346,24.454L221.565,24.454C222.86,24.454 223.912,25.69 223.912,27.212C223.912,28.734 222.86,29.97 221.565,29.97L211.767,29.97L211.767,50.924C211.767,52.446 210.716,53.682 209.421,53.682C208.126,53.682 207.074,52.446 207.074,50.924L207.074,29.97L191.353,29.97L191.353,50.924C191.353,52.446 190.302,53.682 189.007,53.682C187.712,53.682 186.661,52.446 186.661,50.924L186.661,29.97L170.94,29.97L170.94,50.924C170.94,52.446 169.888,53.682 168.593,53.682C167.298,53.682 166.247,52.446 166.247,50.924L166.247,29.97Z" style="fill:rgb(82,60,38);"/>
                    </g>
                </g>
                <g transform="matrix(-1,-1.22465e-16,1.22465e-16,-1,253.264,132.868)">
                    <g transform="matrix(1.16704,0,0,1.16273,-33.8597,9.09764)">
                        <path d="M234.158,19.039L234.158,30.704C234.158,33.923 231.554,36.537 228.347,36.537L163.878,36.537C160.671,36.537 158.067,33.923 158.067,30.704L158.067,19.039C158.067,15.82 160.671,13.207 163.878,13.207L228.347,13.207C231.554,13.207 234.158,15.82 234.158,19.039Z" style="fill:white;"/>
                    </g>
                    <g transform="matrix(1.17551,0,0,1,-22.4656,0)">
                        <path d="M166.247,29.97L130.346,29.97C129.051,29.97 128,28.734 128,27.212C128,25.69 129.051,24.454 130.346,24.454L221.565,24.454C222.86,24.454 223.912,25.69 223.912,27.212C223.912,28.734 222.86,29.97 221.565,29.97L211.767,29.97L211.767,50.924C211.767,52.446 210.716,53.682 209.421,53.682C208.126,53.682 207.074,52.446 207.074,50.924L207.074,29.97L191.353,29.97L191.353,50.924C191.353,52.446 190.302,53.682 189.007,53.682C187.712,53.682 186.661,52.446 186.661,50.924L186.661,29.97L170.94,29.97L170.94,50.924C170.94,52.446 169.888,53.682 168.593,53.682C167.298,53.682 166.247,52.446 166.247,50.924L166.247,29.97Z" style="fill:rgb(82,60,38);"/>
                    </g>
                </g>
                <g transform="matrix(-1.83697e-16,1,-1,-1.83697e-16,155.278,-19.5856)">
                    <g transform="matrix(1.16704,0,0,1.16273,-33.8597,9.09764)">
                        <path d="M234.158,19.039L234.158,30.704C234.158,33.923 231.554,36.537 228.347,36.537L163.878,36.537C160.671,36.537 158.067,33.923 158.067,30.704L158.067,19.039C158.067,15.82 160.671,13.207 163.878,13.207L228.347,13.207C231.554,13.207 234.158,15.82 234.158,19.039Z" style="fill:white;"/>
                    </g>
                    <g transform="matrix(1.17551,0,0,1,-22.4656,0)">
                        <path d="M166.247,29.97L130.346,29.97C129.051,29.97 128,28.734 128,27.212C128,25.69 129.051,24.454 130.346,24.454L221.565,24.454C222.86,24.454 223.912,25.69 223.912,27.212C223.912,28.734 222.86,29.97 221.565,29.97L211.767,29.97L211.767,50.924C211.767,52.446 210.716,53.682 209.421,53.682C208.126,53.682 207.074,52.446 207.074,50.924L207.074,29.97L191.353,29.97L191.353,50.924C191.353,52.446 190.302,53.682 189.007,53.682C187.712,53.682 186.661,52.446 186.661,50.924L186.661,29.97L170.94,29.97L170.94,50.924C170.94,52.446 169.888,53.682 168.593,53.682C167.298,53.682 166.247,52.446 166.247,50.924L166.247,29.97Z" style="fill:rgb(82,60,38);"/>
                    </g>
                </g>
                <g transform="matrix(1,0,0,1,7.24678,50.3104)">
                    <circle cx="120.753" cy="55.368" r="8.909" style="fill:rgb(64,64,64);"/>
                </g>
            </g>
        </g>
    </g>
</svg>
