<?xml version="1.0" encoding="UTF-8" standalone="no"?>
<!DOCTYPE svg PUBLIC "-//W3C//DTD SVG 1.1//EN" "http://www.w3.org/Graphics/SVG/1.1/DTD/svg11.dtd">
<svg width="100%" height="100%" viewBox="0 0 342 342" version="1.1" xmlns="http://www.w3.org/2000/svg" xmlns:xlink="http://www.w3.org/1999/xlink" xml:space="preserve" xmlns:serif="http://www.serif.com/" style="fill-rule:evenodd;clip-rule:evenodd;stroke-linecap:round;stroke-linejoin:round;stroke-miterlimit:1.5;">
    <g transform="matrix(1.33333,0,0,1.33333,0,0)">
        <g transform="matrix(0.932229,0,0,0.932229,8.67472,1.62957)">
            <path d="M23.176,128.97C17.711,124.692 14.196,118.035 14.196,110.563L14.196,63.836C14.196,50.942 24.664,40.473 37.559,40.473L218.441,40.473C231.336,40.473 241.804,50.942 241.804,63.836L241.804,110.563C241.804,118.035 238.289,124.692 232.824,128.97C232.885,129.789 232.916,130.616 232.916,131.45L232.916,197.577C232.916,215.826 218.1,230.641 199.852,230.641L56.148,230.641C37.9,230.641 23.084,215.826 23.084,197.577L23.084,131.45C23.084,130.616 23.115,129.789 23.176,128.97Z" style="stroke:black;stroke-width:22.35px;"/>
            <g transform="matrix(1,0,0,1.1009,-1.68977,-2.21684)">
                <path d="M234.605,121.416L234.605,181.483C234.605,198.059 219.79,211.517 201.541,211.517L57.838,211.517C39.59,211.517 24.774,198.059 24.774,181.483L24.774,121.416C24.774,104.84 39.59,91.382 57.838,91.382L201.541,91.382C219.79,91.382 234.605,104.84 234.605,121.416Z" style="fill:rgb(111,75,41);"/>
                <clipPath id="_clip1">
                    <path d="M234.605,121.416L234.605,181.483C234.605,198.059 219.79,211.517 201.541,211.517L57.838,211.517C39.59,211.517 24.774,198.059 24.774,181.483L24.774,121.416C24.774,104.84 39.59,91.382 57.838,91.382L201.541,91.382C219.79,91.382 234.605,104.84 234.605,121.416Z"/>
                </clipPath>
                <g clip-path="url(#_clip1)">
                    <g>
                        <g transform="matrix(1.27007,0,0,0.125783,-35.0252,184.912)">
                            <path d="M234.605,121.416L234.605,181.483C234.605,198.059 233.138,211.517 231.331,211.517L28.049,211.517C26.241,211.517 24.774,198.059 24.774,181.483L24.774,121.416C24.774,104.84 26.241,91.382 28.049,91.382L231.331,91.382C233.138,91.382 234.605,104.84 234.605,121.416Z" style="fill:rgb(114,102,90);"/>
                        </g>
                        <g transform="matrix(1.27007,0,0,0.125783,-35.0252,156.224)">
                            <path d="M234.605,121.416L234.605,181.483C234.605,198.059 233.138,211.517 231.331,211.517L28.049,211.517C26.241,211.517 24.774,198.059 24.774,181.483L24.774,121.416C24.774,104.84 26.241,91.382 28.049,91.382L231.331,91.382C233.138,91.382 234.605,104.84 234.605,121.416Z" style="fill:rgb(114,102,90);"/>
                        </g>
                        <g transform="matrix(1.27007,0,0,0.125783,-35.0252,127.537)">
                            <path d="M234.605,121.416L234.605,181.483C234.605,198.059 233.138,211.517 231.331,211.517L28.049,211.517C26.241,211.517 24.774,198.059 24.774,181.483L24.774,121.416C24.774,104.84 26.241,91.382 28.049,91.382L231.331,91.382C233.138,91.382 234.605,104.84 234.605,121.416Z" style="fill:rgb(114,102,90);"/>
                        </g>
                        <g transform="matrix(1.27007,0,0,0.125783,-35.0252,98.8493)">
                            <path d="M234.605,121.416L234.605,181.483C234.605,198.059 233.138,211.517 231.331,211.517L28.049,211.517C26.241,211.517 24.774,198.059 24.774,181.483L24.774,121.416C24.774,104.84 26.241,91.382 28.049,91.382L231.331,91.382C233.138,91.382 234.605,104.84 234.605,121.416Z" style="fill:rgb(114,102,90);"/>
                        </g>
                    </g>
                    <g transform="matrix(1.14524,0,0,1.02402,94.7873,-30.1695)">
                        <path d="M110.097,177.78L110.097,204.314C110.097,211.636 104.245,217.581 97.037,217.581L27.255,217.581C20.047,217.581 14.196,211.636 14.196,204.314L14.196,177.78C14.196,170.458 20.047,164.513 27.255,164.513L97.037,164.513C104.245,164.513 110.097,170.458 110.097,177.78Z" style="fill:rgb(32,32,32);"/>
                        <clipPath id="_clip2">
                            <path d="M110.097,177.78L110.097,204.314C110.097,211.636 104.245,217.581 97.037,217.581L27.255,217.581C20.047,217.581 14.196,211.636 14.196,204.314L14.196,177.78C14.196,170.458 20.047,164.513 27.255,164.513L97.037,164.513C104.245,164.513 110.097,170.458 110.097,177.78Z"/>
                        </clipPath>
                        <g clip-path="url(#_clip2)">
                            <g transform="matrix(1,0,0,1,-16.4159,18.1426)">
                                <g transform="matrix(0.873176,0,0,0.887042,-53.2189,29.9362)">
                                    <path d="M141.611,161.174C138.469,165.946 135.917,173.468 135.917,181.627C135.917,189.786 138.469,197.308 141.611,202.08C131.136,202.08 122.631,192.915 122.631,181.627C122.631,170.339 131.136,161.174 141.611,161.174Z" style="fill:rgb(141,141,141);"/>
                                </g>
                                <g transform="matrix(0.756192,-0.443521,0.436588,0.768201,-120.249,113.272)">
                                    <path d="M141.611,161.174C138.469,165.946 135.917,173.468 135.917,181.627C135.917,189.786 138.469,197.308 141.611,202.08C131.136,202.08 122.631,192.915 122.631,181.627C122.631,170.339 131.136,161.174 141.611,161.174Z" style="fill:rgb(141,141,141);"/>
                                </g>
                                <g transform="matrix(0.436588,-0.768201,0.756192,0.443521,-137.282,219.489)">
                                    <path d="M141.611,161.174C138.469,165.946 135.917,173.468 135.917,181.627C135.917,189.786 138.469,197.308 141.611,202.08C131.136,202.08 122.631,192.915 122.631,181.627C122.631,170.339 131.136,161.174 141.611,161.174Z" style="fill:rgb(141,141,141);"/>
                                </g>
                                <g transform="matrix(1.66533e-16,-0.887042,0.873176,2.22045e-16,-99.7542,320.128)">
                                    <path d="M141.611,161.174C138.469,165.946 135.917,173.468 135.917,181.627C135.917,189.786 138.469,197.308 141.611,202.08C131.136,202.08 122.631,192.915 122.631,181.627C122.631,170.339 131.136,161.174 141.611,161.174Z" style="fill:rgb(141,141,141);"/>
                                </g>
                                <g transform="matrix(-0.436588,-0.768201,0.756192,-0.443521,-17.7216,388.222)">
                                    <path d="M141.611,161.174C138.469,165.946 135.917,173.468 135.917,181.627C135.917,189.786 138.469,197.308 141.611,202.08C131.136,202.08 122.631,192.915 122.631,181.627C122.631,170.339 131.136,161.174 141.611,161.174Z" style="fill:rgb(141,141,141);"/>
                                </g>
                                <g transform="matrix(-0.756192,-0.443521,0.436588,-0.768201,86.8356,405.526)">
                                    <path d="M141.611,161.174C138.469,165.946 135.917,173.468 135.917,181.627C135.917,189.786 138.469,197.308 141.611,202.08C131.136,202.08 122.631,192.915 122.631,181.627C122.631,170.339 131.136,161.174 141.611,161.174Z" style="fill:rgb(141,141,141);"/>
                                </g>
                                <g transform="matrix(-0.873176,-4.996e-16,4.44089e-16,-0.887042,185.901,367.402)">
                                    <path d="M141.611,161.174C138.469,165.946 135.917,173.468 135.917,181.627C135.917,189.786 138.469,197.308 141.611,202.08C131.136,202.08 122.631,192.915 122.631,181.627C122.631,170.339 131.136,161.174 141.611,161.174Z" style="fill:rgb(141,141,141);"/>
                                </g>
                                <g transform="matrix(-0.756192,0.443521,-0.436588,-0.768201,252.931,284.067)">
                                    <path d="M141.611,161.174C138.469,165.946 135.917,173.468 135.917,181.627C135.917,189.786 138.469,197.308 141.611,202.08C131.136,202.08 122.631,192.915 122.631,181.627C122.631,170.339 131.136,161.174 141.611,161.174Z" style="fill:rgb(141,141,141);"/>
                                </g>
                                <g transform="matrix(-0.436588,0.768201,-0.756192,-0.443521,269.964,177.849)">
                                    <path d="M141.611,161.174C138.469,165.946 135.917,173.468 135.917,181.627C135.917,189.786 138.469,197.308 141.611,202.08C131.136,202.08 122.631,192.915 122.631,181.627C122.631,170.339 131.136,161.174 141.611,161.174Z" style="fill:rgb(141,141,141);"/>
                                </g>
                                <g transform="matrix(-7.21645e-16,0.887042,-0.873176,-6.66134e-16,232.437,77.2105)">
                                    <path d="M141.611,161.174C138.469,165.946 135.917,173.468 135.917,181.627C135.917,189.786 138.469,197.308 141.611,202.08C131.136,202.08 122.631,192.915 122.631,181.627C122.631,170.339 131.136,161.174 141.611,161.174Z" style="fill:rgb(141,141,141);"/>
                                </g>
                                <g transform="matrix(0.436588,0.768201,-0.756192,0.443521,150.404,9.11642)">
                                    <path d="M141.611,161.174C138.469,165.946 135.917,173.468 135.917,181.627C135.917,189.786 138.469,197.308 141.611,202.08C131.136,202.08 122.631,192.915 122.631,181.627C122.631,170.339 131.136,161.174 141.611,161.174Z" style="fill:rgb(141,141,141);"/>
                                </g>
                                <g transform="matrix(0.756192,0.443521,-0.436588,0.768201,45.8468,-8.18717)">
                                    <path d="M141.611,161.174C138.469,165.946 135.917,173.468 135.917,181.627C135.917,189.786 138.469,197.308 141.611,202.08C131.136,202.08 122.631,192.915 122.631,181.627C122.631,170.339 131.136,161.174 141.611,161.174Z" style="fill:rgb(141,141,141);"/>
                                </g>
                                <g transform="matrix(0.873176,0,0,0.887042,-45.5036,39.8463)">
                                    <circle cx="127.876" cy="178.245" r="4.002" style="fill:rgb(90,86,82);"/>
                                </g>
                            </g>
                            <g transform="matrix(0.460225,0,0,0.124648,67.116,189.124)">
                                <path d="M234.605,121.416L234.605,181.483C234.605,198.059 231.017,211.517 226.598,211.517L32.781,211.517C28.362,211.517 24.774,198.059 24.774,181.483L24.774,121.416C24.774,104.84 28.362,91.382 32.781,91.382L226.598,91.382C231.017,91.382 234.605,104.84 234.605,121.416Z" style="fill:rgb(82,66,51);"/>
                            </g>
                        </g>
                    </g>
                    <g transform="matrix(0.45641,0,0,1.28605,40.8503,-60.1236)">
                        <path d="M110.097,172.242L110.097,209.852C110.097,214.117 99.354,217.581 86.121,217.581L38.171,217.581C24.938,217.581 14.196,214.117 14.196,209.852L14.196,172.242C14.196,167.977 24.938,164.513 38.171,164.513L86.121,164.513C99.354,164.513 110.097,167.977 110.097,172.242Z" style="fill:rgb(32,32,32);"/>
                    </g>
                </g>
            </g>
            <g transform="matrix(1.08472,0,0,0.7779,-12.6776,-30.613)">
                <path d="M234.605,121.416L234.605,181.483C234.605,198.059 224.954,211.517 213.067,211.517L46.312,211.517C34.425,211.517 24.774,198.059 24.774,181.483L24.774,121.416C24.774,104.84 34.425,91.382 46.312,91.382L213.067,91.382C224.954,91.382 234.605,104.84 234.605,121.416Z" style="fill:rgb(147,115,83);"/>
                <clipPath id="_clip3">
                    <path d="M234.605,121.416L234.605,181.483C234.605,198.059 224.954,211.517 213.067,211.517L46.312,211.517C34.425,211.517 24.774,198.059 24.774,181.483L24.774,121.416C24.774,104.84 34.425,91.382 46.312,91.382L213.067,91.382C224.954,91.382 234.605,104.84 234.605,121.416Z"/>
                </clipPath>
                <g clip-path="url(#_clip3)">
                    <g transform="matrix(0.107034,0,0,1.82711,22.1225,-122.121)">
                        <path d="M234.605,95.667L234.605,207.232C234.605,209.597 211.1,211.517 182.148,211.517L77.232,211.517C48.28,211.517 24.774,209.597 24.774,207.232L24.774,95.667C24.774,93.302 48.28,91.382 77.232,91.382L182.148,91.382C211.1,91.382 234.605,93.302 234.605,95.667Z" style="fill:rgb(132,107,84);"/>
                    </g>
                    <g transform="matrix(0.107034,0,0,1.82711,64.8416,-122.121)">
                        <path d="M234.605,95.667L234.605,207.232C234.605,209.597 211.1,211.517 182.148,211.517L77.232,211.517C48.28,211.517 24.774,209.597 24.774,207.232L24.774,95.667C24.774,93.302 48.28,91.382 77.232,91.382L182.148,91.382C211.1,91.382 234.605,93.302 234.605,95.667Z" style="fill:rgb(132,107,84);"/>
                    </g>
                    <g transform="matrix(0.107034,0,0,1.82711,107.688,-122.121)">
                        <path d="M234.605,95.667L234.605,207.232C234.605,209.597 211.1,211.517 182.148,211.517L77.232,211.517C48.28,211.517 24.774,209.597 24.774,207.232L24.774,95.667C24.774,93.302 48.28,91.382 77.232,91.382L182.148,91.382C211.1,91.382 234.605,93.302 234.605,95.667Z" style="fill:rgb(132,107,84);"/>
                    </g>
                    <g transform="matrix(0.107034,0,0,1.82711,149.39,-114.853)">
                        <path d="M234.605,95.667L234.605,207.232C234.605,209.597 211.1,211.517 182.148,211.517L77.232,211.517C48.28,211.517 24.774,209.597 24.774,207.232L24.774,95.667C24.774,93.302 48.28,91.382 77.232,91.382L182.148,91.382C211.1,91.382 234.605,93.302 234.605,95.667Z" style="fill:rgb(132,107,84);"/>
                    </g>
                    <g transform="matrix(0.107034,0,0,1.82711,191.346,-106.52)">
                        <path d="M234.605,95.667L234.605,207.232C234.605,209.597 211.1,211.517 182.148,211.517L77.232,211.517C48.28,211.517 24.774,209.597 24.774,207.232L24.774,95.667C24.774,93.302 48.28,91.382 77.232,91.382L182.148,91.382C211.1,91.382 234.605,93.302 234.605,95.667Z" style="fill:rgb(132,107,84);"/>
                    </g>
                </g>
            </g>
        </g>
    </g>
</svg>
