<?xml version="1.0" encoding="UTF-8" standalone="no"?>
<!DOCTYPE svg PUBLIC "-//W3C//DTD SVG 1.1//EN" "http://www.w3.org/Graphics/SVG/1.1/DTD/svg11.dtd">
<svg width="100%" height="100%" viewBox="0 0 342 342" version="1.1" xmlns="http://www.w3.org/2000/svg" xmlns:xlink="http://www.w3.org/1999/xlink" xml:space="preserve" xmlns:serif="http://www.serif.com/" style="fill-rule:evenodd;clip-rule:evenodd;stroke-linecap:round;stroke-linejoin:round;stroke-miterlimit:1.5;">
    <g transform="matrix(1.33333,0,0,1.33333,0,0)">
        <g transform="matrix(1.03862,0,0,1.03862,-15.8026,-9.19823)">
            <path d="M52.68,112.316C51.03,111.81 49.322,110.786 47.837,109.301C44.385,105.848 43.424,101.191 45.666,98.853C44.102,96.009 44.006,93.006 45.666,91.275C44.102,88.431 44.006,85.427 45.666,83.696C44.102,80.852 44.006,77.849 45.666,76.118C44.083,73.24 44.004,70.2 45.725,68.479C47.307,66.896 50.005,66.836 52.666,68.067L51.662,55.807C51.614,55.217 52.054,54.699 52.644,54.65C52.841,54.634 53.031,54.673 53.198,54.754L53.145,54.266C53.08,53.677 53.506,53.148 54.094,53.083C54.617,53.026 55.092,53.355 55.238,53.841L55.236,53.781C55.214,53.189 55.677,52.692 56.269,52.67C56.626,52.657 56.95,52.821 57.154,53.084C57.354,52.827 57.667,52.664 58.017,52.67C58.609,52.679 59.082,53.166 59.073,53.758L59.066,54.254L59.082,54.014C59.124,53.424 59.637,52.978 60.227,53.019C60.818,53.061 61.263,53.573 61.222,54.164L61.186,54.677L61.252,54.257C61.343,53.672 61.892,53.272 62.477,53.363C63.062,53.455 63.462,54.004 63.371,54.588L63.157,55.955C63.223,55.948 63.291,55.948 63.36,55.954C63.949,56.007 64.385,56.528 64.332,57.118L64.321,57.241C64.335,57.239 64.349,57.238 64.364,57.236C64.562,57.22 64.751,57.259 64.918,57.34L64.865,56.852C64.801,56.263 65.226,55.733 65.814,55.669C66.337,55.612 66.813,55.941 66.958,56.427L66.956,56.367C66.935,55.775 67.397,55.277 67.989,55.256C68.347,55.243 68.67,55.407 68.874,55.67C68.994,55.516 69.154,55.396 69.339,55.325L68.955,50.635C68.907,50.045 69.346,49.527 69.936,49.479C70.134,49.463 70.324,49.501 70.491,49.582L70.437,49.094C70.373,48.506 70.799,47.976 71.387,47.912C71.909,47.855 72.385,48.183 72.531,48.669L72.529,48.609C72.507,48.017 72.97,47.52 73.562,47.499C73.919,47.486 74.243,47.65 74.447,47.912C74.647,47.656 74.96,47.493 75.31,47.498C75.902,47.507 76.375,47.995 76.366,48.587L76.358,49.082L76.375,48.842C76.417,48.252 76.929,47.806 77.52,47.847C78.11,47.889 78.556,48.402 78.515,48.992L78.479,49.505L78.544,49.085C78.636,48.501 79.185,48.1 79.77,48.192C80.354,48.283 80.755,48.832 80.664,49.417L80.45,50.783C80.516,50.777 80.584,50.776 80.652,50.782C81.242,50.835 81.678,51.357 81.625,51.946L81.272,55.881C82.832,55.218 84.88,55.407 86.907,56.344L85.903,44.084C85.855,43.494 86.294,42.976 86.884,42.928C87.082,42.912 87.272,42.95 87.439,43.031L87.385,42.543C87.321,41.955 87.747,41.425 88.335,41.361C88.857,41.304 89.333,41.632 89.479,42.118L89.477,42.058C89.455,41.467 89.918,40.969 90.51,40.948C90.867,40.935 91.19,41.099 91.395,41.361C91.595,41.105 91.908,40.942 92.258,40.947C92.85,40.956 93.323,41.444 93.314,42.036L93.306,42.531L93.323,42.292C93.365,41.701 93.877,41.255 94.468,41.297C95.058,41.338 95.504,41.851 95.463,42.441L95.427,42.954L95.492,42.535C95.584,41.95 96.133,41.549 96.718,41.641C97.302,41.732 97.703,42.281 97.612,42.866L97.398,44.232C97.464,44.226 97.532,44.225 97.6,44.231C98.19,44.284 98.626,44.806 98.573,45.395L97.601,56.238C100.184,55.119 102.771,55.221 104.306,56.756C104.799,57.25 105.145,57.851 105.349,58.527C105.652,58.72 105.851,59.062 105.845,59.447L105.837,59.943L105.854,59.703C105.895,59.113 106.408,58.667 106.999,58.708C107.589,58.749 108.035,59.262 107.994,59.853L107.958,60.366L108.023,59.946C108.115,59.361 108.664,58.961 109.248,59.052C109.833,59.144 110.234,59.693 110.142,60.277L109.929,61.644C109.995,61.637 110.063,61.637 110.131,61.643C110.721,61.696 111.156,62.217 111.104,62.807L110.751,66.741C112.218,66.119 114.116,66.248 116.022,67.045L115.102,55.807C115.076,55.495 115.188,55.202 115.385,54.989L115.382,54.945C115.334,54.355 115.773,53.837 116.363,53.789C116.456,53.781 116.548,53.785 116.636,53.801C116.685,53.658 116.764,53.528 116.866,53.419L116.864,53.404C116.8,52.815 117.226,52.286 117.814,52.221C118.336,52.164 118.812,52.493 118.957,52.979L118.955,52.919C118.934,52.327 119.397,51.83 119.988,51.808C120.346,51.795 120.669,51.959 120.874,52.222C121.073,51.965 121.387,51.802 121.737,51.808C122.328,51.817 122.802,52.304 122.793,52.896L122.786,53.382L122.802,53.152C122.843,52.562 123.356,52.116 123.947,52.157C124.537,52.199 124.983,52.712 124.942,53.302L124.91,53.758C124.912,53.755 124.914,53.753 124.916,53.75L124.971,53.395C125.063,52.81 125.612,52.41 126.196,52.501C126.781,52.593 127.182,53.142 127.09,53.726L126.877,55.093C126.943,55.086 127.011,55.086 127.079,55.092C127.669,55.145 128.104,55.666 128.052,56.256L127.964,57.235C128.103,57.244 128.237,57.281 128.358,57.34L128.304,56.852C128.24,56.263 128.666,55.733 129.254,55.669C129.776,55.612 130.252,55.941 130.398,56.427L130.396,56.367C130.374,55.775 130.837,55.277 131.429,55.256C131.786,55.243 132.11,55.407 132.314,55.67C132.434,55.516 132.594,55.396 132.779,55.325L132.395,50.635C132.346,50.045 132.786,49.527 133.376,49.479C133.574,49.463 133.764,49.501 133.93,49.582L133.877,49.094C133.813,48.506 134.239,47.976 134.827,47.912C135.349,47.855 135.825,48.183 135.97,48.669L135.968,48.609C135.947,48.017 136.41,47.52 137.001,47.499C137.359,47.486 137.682,47.65 137.887,47.912C138.086,47.656 138.4,47.493 138.75,47.498C139.341,47.507 139.815,47.995 139.806,48.587L139.798,49.082L139.815,48.842C139.856,48.252 140.369,47.806 140.96,47.847C141.55,47.889 141.996,48.402 141.954,48.992L141.919,49.505L141.984,49.085C142.076,48.501 142.625,48.1 143.209,48.192C143.794,48.283 144.195,48.832 144.103,49.417L143.89,50.783C143.956,50.777 144.023,50.776 144.092,50.782C144.682,50.835 145.117,51.357 145.064,51.946L144.712,55.881C146.272,55.218 148.32,55.407 150.347,56.344L149.343,44.084C149.294,43.494 149.734,42.976 150.324,42.928C150.522,42.912 150.712,42.95 150.878,43.031L150.825,42.543C150.761,41.955 151.186,41.425 151.775,41.361C152.297,41.304 152.773,41.632 152.918,42.118L152.916,42.058C152.895,41.467 153.358,40.969 153.949,40.948C154.307,40.935 154.63,41.099 154.835,41.361C155.034,41.105 155.348,40.942 155.698,40.947C156.289,40.956 156.763,41.444 156.754,42.036L156.746,42.531L156.763,42.292C156.804,41.701 157.317,41.255 157.908,41.297C158.498,41.338 158.944,41.851 158.902,42.441L158.867,42.954L158.932,42.535C159.024,41.95 159.573,41.549 160.157,41.641C160.742,41.732 161.143,42.281 161.051,42.866L160.838,44.232C160.904,44.226 160.971,44.225 161.04,44.231C161.63,44.284 162.065,44.806 162.012,45.395L161.041,56.238C163.624,55.119 166.21,55.221 167.746,56.756C168.385,57.395 168.776,58.216 168.933,59.143C169.055,58.705 169.45,58.376 169.928,58.359C170.286,58.346 170.609,58.51 170.813,58.773C171.013,58.516 171.326,58.353 171.676,58.359C172.268,58.368 172.741,58.855 172.732,59.447L172.725,59.943L172.741,59.703C172.783,59.113 173.296,58.667 173.886,58.708C174.477,58.749 174.922,59.262 174.881,59.853L174.845,60.366L174.911,59.946C175.002,59.361 175.551,58.961 176.136,59.052C176.721,59.144 177.121,59.693 177.03,60.277L176.816,61.644C176.882,61.637 176.95,61.637 177.019,61.643C177.608,61.696 178.044,62.217 177.991,62.807L177.638,66.741C178.176,66.513 178.772,66.386 179.406,66.356L178.542,55.807C178.493,55.217 178.933,54.699 179.523,54.65C179.721,54.634 179.911,54.673 180.077,54.754L180.024,54.266C179.96,53.677 180.385,53.148 180.974,53.083C181.496,53.026 181.972,53.355 182.117,53.841L182.115,53.781C182.094,53.189 182.557,52.692 183.148,52.67C183.401,52.661 183.637,52.74 183.826,52.881C183.97,52.529 184.297,52.265 184.701,52.221C185.224,52.164 185.699,52.493 185.845,52.979L185.843,52.919C185.821,52.327 186.284,51.83 186.876,51.808C187.233,51.795 187.557,51.959 187.761,52.222C187.961,51.965 188.274,51.802 188.624,51.808C189.216,51.817 189.689,52.304 189.68,52.896L189.673,53.392L189.689,53.152C189.731,52.562 190.244,52.116 190.834,52.157C191.425,52.199 191.87,52.712 191.829,53.302L191.793,53.815L191.859,53.395C191.95,52.81 192.499,52.41 193.084,52.501C193.669,52.593 194.069,53.142 193.978,53.726L193.764,55.093C193.83,55.086 193.898,55.086 193.967,55.092C194.183,55.111 194.38,55.194 194.538,55.321C194.641,55.283 194.752,55.26 194.868,55.256C195.226,55.243 195.549,55.407 195.754,55.67C195.873,55.516 196.034,55.396 196.219,55.325L195.834,50.635C195.786,50.045 196.226,49.527 196.816,49.479C197.014,49.463 197.203,49.501 197.37,49.582L197.317,49.094C197.253,48.506 197.678,47.976 198.267,47.912C198.789,47.855 199.265,48.183 199.41,48.669L199.408,48.609C199.387,48.017 199.85,47.52 200.441,47.499C200.799,47.486 201.122,47.65 201.326,47.912C201.526,47.656 201.84,47.493 202.189,47.498C202.781,47.507 203.254,47.995 203.245,48.587L203.238,49.082L203.255,48.842C203.296,48.252 203.809,47.806 204.399,47.847C204.99,47.889 205.436,48.402 205.394,48.992L205.358,49.505L205.424,49.085C205.515,48.501 206.064,48.1 206.649,48.192C207.234,48.283 207.634,48.832 207.543,49.417L207.329,50.783C207.396,50.777 207.463,50.776 207.532,50.782C208.121,50.835 208.557,51.357 208.504,51.946L208.152,55.881C209.712,55.218 211.76,55.407 213.786,56.344L212.782,44.084C212.734,43.494 213.174,42.976 213.764,42.928C213.962,42.912 214.151,42.95 214.318,43.031L214.265,42.543C214.201,41.955 214.626,41.425 215.215,41.361C215.737,41.304 216.213,41.632 216.358,42.118L216.356,42.058C216.335,41.467 216.797,40.969 217.389,40.948C217.747,40.935 218.07,41.099 218.274,41.361C218.474,41.105 218.788,40.942 219.137,40.947C219.729,40.956 220.202,41.444 220.193,42.036L220.186,42.531L220.203,42.292C220.244,41.701 220.757,41.255 221.347,41.297C221.938,41.338 222.384,41.851 222.342,42.441L222.306,42.954L222.372,42.535C222.463,41.95 223.012,41.549 223.597,41.641C224.182,41.732 224.582,42.281 224.491,42.866L224.277,44.232C224.343,44.226 224.411,44.225 224.48,44.231C225.069,44.284 225.505,44.806 225.452,45.395L224.48,56.238C227.064,55.119 229.65,55.221 231.185,56.756C232.906,58.477 232.827,61.518 231.245,64.395C232.904,66.126 232.808,69.129 231.245,71.974C232.904,73.705 232.808,76.708 231.245,79.552C232.904,81.283 232.808,84.287 231.245,87.131C233.486,89.468 232.526,94.126 229.073,97.578C227.36,99.291 225.351,100.391 223.475,100.79L223.475,216.025C223.475,220.01 220.239,223.246 216.254,223.246L54.641,223.246C53.373,222.368 52.542,220.903 52.542,219.245L52.542,113.769C52.542,113.371 52.59,112.985 52.68,112.615L52.68,112.316ZM107.861,74.963L107.88,74.75L107.845,74.975L107.861,74.963ZM61.089,69.274L61.108,69.061L61.073,69.286L61.089,69.274ZM141.822,64.103L141.841,63.89L141.805,64.115L141.822,64.103ZM78.382,64.103L78.401,63.89L78.366,64.115L78.382,64.103ZM95.33,57.552L95.349,57.339L95.314,57.564L95.33,57.552ZM205.261,64.103L205.28,63.89L205.245,64.115L205.261,64.103ZM222.209,57.552L222.228,57.339L222.193,57.564L222.209,57.552ZM158.769,57.552L158.789,57.339L158.753,57.564L158.769,57.552Z" style="stroke:black;stroke-width:20.06px;"/>
            <g transform="matrix(1.01511,0,0,1,-3.13203,-3.44781)">
                <path d="M223.235,101.052L223.235,219.473C223.235,223.458 220.048,226.694 216.122,226.694L62.095,226.694C58.169,226.694 54.982,223.458 54.982,219.473L54.982,101.052C54.982,97.067 58.169,93.831 62.095,93.831L216.122,93.831C220.048,93.831 223.235,97.067 223.235,101.052Z" style="fill:rgb(85,67,37);"/>
            </g>
            <g transform="matrix(1,0,0,1,5.57271,-7.75757)">
                <path d="M93.741,231.003L93.741,127.215C93.741,126.718 93.816,126.238 93.955,125.786C92.281,125.288 90.544,124.255 89.036,122.747C85.583,119.295 84.623,114.637 86.864,112.3C85.301,109.456 85.205,106.452 86.864,104.721C85.301,101.877 85.205,98.874 86.864,97.143C85.301,94.299 85.205,91.295 86.864,89.564C85.282,86.687 85.203,83.646 86.924,81.925C88.506,80.343 91.204,80.283 93.865,81.513L92.861,69.253C92.813,68.663 93.253,68.145 93.842,68.097C94.04,68.081 94.23,68.119 94.397,68.2L94.344,67.712C94.279,67.124 94.705,66.594 95.293,66.53C95.815,66.473 96.291,66.801 96.437,67.287L96.435,67.227C96.413,66.636 96.876,66.138 97.468,66.117C97.825,66.104 98.149,66.268 98.353,66.53C98.553,66.274 98.866,66.111 99.216,66.116C99.808,66.125 100.281,66.613 100.272,67.205L100.264,67.7L100.281,67.461C100.323,66.87 100.836,66.424 101.426,66.466C102.016,66.507 102.462,67.02 102.421,67.61L102.385,68.123L102.451,67.704C102.542,67.119 103.091,66.718 103.676,66.81C104.261,66.901 104.661,67.45 104.57,68.035L104.356,69.401C104.422,69.395 104.49,69.394 104.558,69.4C105.148,69.453 105.584,69.975 105.531,70.564L104.559,81.407C107.143,80.288 109.729,80.39 111.264,81.925C112.985,83.646 112.905,86.687 111.323,89.564C112.983,91.295 112.887,94.299 111.323,97.143C112.983,98.874 112.887,101.877 111.323,104.721C112.983,106.452 112.887,109.456 111.323,112.3C113.565,114.637 112.604,119.295 109.152,122.747C107.366,124.533 105.257,125.652 103.314,126.006C103.413,126.393 103.466,126.798 103.466,127.215L103.466,231.003L93.741,231.003ZM160.629,231.003L160.629,127.215C160.629,126.718 160.703,126.238 160.842,125.786C159.169,125.288 157.431,124.255 155.924,122.747C152.471,119.295 151.511,114.637 153.752,112.3C152.188,109.456 152.092,106.452 153.752,104.721C152.188,101.877 152.092,98.874 153.752,97.143C152.188,94.299 152.092,91.295 153.752,89.564C152.17,86.687 152.09,83.646 153.811,81.925C155.393,80.343 158.092,80.283 160.753,81.513L159.749,69.253C159.7,68.663 160.14,68.145 160.73,68.097C160.928,68.081 161.118,68.119 161.284,68.2L161.231,67.712C161.167,67.124 161.592,66.594 162.181,66.53C162.703,66.473 163.179,66.801 163.324,67.287L163.322,67.227C163.301,66.636 163.764,66.138 164.355,66.117C164.713,66.104 165.036,66.268 165.241,66.53C165.44,66.274 165.754,66.111 166.104,66.116C166.695,66.125 167.168,66.613 167.16,67.205L167.152,67.7L167.169,67.461C167.21,66.87 167.723,66.424 168.313,66.466C168.904,66.507 169.35,67.02 169.308,67.61L169.272,68.123L169.338,67.704C169.429,67.119 169.978,66.718 170.563,66.81C171.148,66.901 171.549,67.45 171.457,68.035L171.244,69.401C171.31,69.395 171.377,69.394 171.446,69.4C172.035,69.453 172.471,69.975 172.418,70.564L171.447,81.407C174.03,80.288 176.616,80.39 178.152,81.925C179.873,83.646 179.793,86.687 178.211,89.564C179.871,91.295 179.775,94.299 178.211,97.143C179.871,98.874 179.775,101.877 178.211,104.721C179.871,106.452 179.775,109.456 178.211,112.3C180.452,114.637 179.492,119.295 176.039,122.747C174.253,124.533 172.145,125.652 170.202,126.006C170.301,126.393 170.353,126.798 170.353,127.215L170.353,231.003L160.629,231.003ZM102.288,82.721L102.307,82.508L102.272,82.733L102.288,82.721ZM169.175,82.721L169.194,82.508L169.159,82.733L169.175,82.721ZM64.386,70.653L63.382,58.393C63.334,57.803 63.774,57.285 64.364,57.236C64.562,57.22 64.751,57.259 64.918,57.34L64.865,56.852C64.801,56.263 65.226,55.733 65.814,55.669C66.337,55.612 66.813,55.941 66.958,56.427L66.956,56.367C66.935,55.775 67.397,55.277 67.989,55.256C68.347,55.243 68.67,55.407 68.874,55.67C69.074,55.413 69.387,55.25 69.737,55.256C70.329,55.264 70.802,55.752 70.793,56.344L70.786,56.84L70.802,56.6C70.844,56.009 71.357,55.564 71.947,55.605C72.538,55.646 72.983,56.159 72.942,56.75L72.906,57.263L72.972,56.843C73.063,56.258 73.612,55.858 74.197,55.949C74.782,56.04 75.182,56.589 75.091,57.174L74.877,58.541C74.943,58.534 75.011,58.534 75.08,58.54C75.669,58.593 76.105,59.114 76.052,59.704L75.08,70.547C77.664,69.427 80.25,69.529 81.785,71.065C83.506,72.785 83.427,75.826 81.845,78.704C83.504,80.435 83.408,83.438 81.845,86.282C83.504,88.013 83.408,91.016 81.845,93.861C83.504,95.592 83.408,98.595 81.845,101.439C84.086,103.777 83.126,108.434 79.673,111.887C77.887,113.673 75.778,114.792 73.835,115.146C73.934,115.532 73.987,115.937 73.987,116.354L73.987,221.831C73.987,224.515 71.808,226.694 69.125,226.694C66.441,226.694 64.262,224.515 64.262,221.831L64.262,116.354C64.262,115.857 64.337,115.377 64.476,114.925C62.802,114.427 61.065,113.395 59.557,111.887C56.105,108.434 55.144,103.777 57.386,101.439C55.822,98.595 55.726,95.592 57.386,93.861C55.822,91.016 55.726,88.013 57.386,86.282C55.822,83.438 55.726,80.435 57.386,78.704C55.804,75.826 55.724,72.785 57.445,71.065C59.027,69.482 61.725,69.422 64.386,70.653ZM72.809,71.86L72.828,71.647L72.793,71.872L72.809,71.86ZM127.826,70.653L126.822,58.393C126.774,57.803 127.213,57.285 127.803,57.236C128.001,57.22 128.191,57.259 128.358,57.34L128.304,56.852C128.24,56.263 128.666,55.733 129.254,55.669C129.776,55.612 130.252,55.941 130.398,56.427L130.396,56.367C130.374,55.775 130.837,55.277 131.429,55.256C131.786,55.243 132.11,55.407 132.314,55.67C132.514,55.413 132.827,55.25 133.177,55.256C133.769,55.264 134.242,55.752 134.233,56.344L134.225,56.84L134.242,56.6C134.284,56.009 134.796,55.564 135.387,55.605C135.977,55.646 136.423,56.159 136.382,56.75L136.346,57.263L136.411,56.843C136.503,56.258 137.052,55.858 137.637,55.949C138.221,56.04 138.622,56.589 138.531,57.174L138.317,58.541C138.383,58.534 138.451,58.534 138.519,58.54C139.109,58.593 139.545,59.114 139.492,59.704L138.52,70.547C141.103,69.427 143.69,69.529 145.225,71.065C146.946,72.785 146.866,75.826 145.284,78.704C146.944,80.435 146.848,83.438 145.284,86.282C146.944,88.013 146.848,91.016 145.284,93.861C146.944,95.592 146.848,98.595 145.284,101.439C147.525,103.777 146.565,108.434 143.113,111.887C141.327,113.673 139.218,114.792 137.275,115.146C137.374,115.532 137.427,115.937 137.427,116.354L137.427,221.831C137.427,224.515 135.248,226.694 132.564,226.694C129.881,226.694 127.702,224.515 127.702,221.831L127.702,116.354C127.702,115.857 127.777,115.377 127.916,114.925C126.242,114.427 124.505,113.395 122.997,111.887C119.544,108.434 118.584,103.777 120.825,101.439C119.262,98.595 119.166,95.592 120.825,93.861C119.262,91.016 119.166,88.013 120.825,86.282C119.262,83.438 119.166,80.435 120.825,78.704C119.243,75.826 119.164,72.785 120.885,71.065C122.467,69.482 125.165,69.422 127.826,70.653ZM136.249,71.86L136.268,71.647L136.233,71.872L136.249,71.86ZM191.266,70.653L190.262,58.393C190.213,57.803 190.653,57.285 191.243,57.236C191.441,57.22 191.631,57.259 191.797,57.34L191.744,56.852C191.68,56.263 192.105,55.733 192.694,55.669C193.216,55.612 193.692,55.941 193.837,56.427L193.835,56.367C193.814,55.775 194.277,55.277 194.868,55.256C195.226,55.243 195.549,55.407 195.754,55.67C195.953,55.413 196.267,55.25 196.617,55.256C197.208,55.264 197.682,55.752 197.673,56.344L197.665,56.84L197.682,56.6C197.723,56.009 198.236,55.564 198.827,55.605C199.417,55.646 199.863,56.159 199.821,56.75L199.786,57.263L199.851,56.843C199.943,56.258 200.492,55.858 201.076,55.949C201.661,56.04 202.062,56.589 201.97,57.174L201.757,58.541C201.823,58.534 201.89,58.534 201.959,58.54C202.549,58.593 202.984,59.114 202.931,59.704L201.96,70.547C204.543,69.427 207.129,69.529 208.665,71.065C210.386,72.785 210.306,75.826 208.724,78.704C210.384,80.435 210.288,83.438 208.724,86.282C210.384,88.013 210.288,91.016 208.724,93.861C210.384,95.592 210.288,98.595 208.724,101.439C210.965,103.777 210.005,108.434 206.552,111.887C204.766,113.673 202.658,114.792 200.715,115.146C200.814,115.532 200.867,115.937 200.867,116.354L200.867,221.831C200.867,224.515 198.688,226.694 196.004,226.694C193.321,226.694 191.142,224.515 191.142,221.831L191.142,116.354C191.142,115.857 191.217,115.377 191.356,114.925C189.682,114.427 187.944,113.395 186.437,111.887C182.984,108.434 182.024,103.777 184.265,101.439C182.701,98.595 182.605,95.592 184.265,93.861C182.701,91.016 182.605,88.013 184.265,86.282C182.701,83.438 182.605,80.435 184.265,78.704C182.683,75.826 182.603,72.785 184.324,71.065C185.907,69.482 188.605,69.422 191.266,70.653ZM199.688,71.86L199.708,71.647L199.672,71.872L199.688,71.86Z" style="fill:rgb(105,91,67);"/>
            </g>
            <g transform="matrix(1,0,0,1,22.5207,-14.3084)">
                <path d="M165.491,237.554C162.807,237.554 160.629,235.375 160.629,232.692L160.629,127.215C160.629,126.718 160.703,126.238 160.842,125.786C159.169,125.288 157.431,124.255 155.924,122.747C152.471,119.295 151.511,114.637 153.752,112.3C152.188,109.456 152.092,106.452 153.752,104.721C152.188,101.877 152.092,98.874 153.752,97.143C152.188,94.299 152.092,91.295 153.752,89.564C152.17,86.687 152.09,83.646 153.811,81.925C155.393,80.343 158.092,80.283 160.753,81.513L159.749,69.253C159.7,68.663 160.14,68.145 160.73,68.097C160.928,68.081 161.118,68.119 161.284,68.2L161.231,67.712C161.167,67.124 161.592,66.594 162.181,66.53C162.703,66.473 163.179,66.801 163.324,67.287L163.322,67.227C163.301,66.636 163.764,66.138 164.355,66.117C164.713,66.104 165.036,66.268 165.241,66.53C165.44,66.274 165.754,66.111 166.104,66.116C166.695,66.125 167.168,66.613 167.16,67.205L167.152,67.7L167.169,67.461C167.21,66.87 167.723,66.424 168.313,66.466C168.904,66.507 169.35,67.02 169.308,67.61L169.272,68.123L169.338,67.704C169.429,67.119 169.978,66.718 170.563,66.81C171.148,66.901 171.549,67.45 171.457,68.035L171.244,69.401C171.31,69.395 171.377,69.394 171.446,69.4C172.035,69.453 172.471,69.975 172.418,70.564L171.447,81.407C174.03,80.288 176.616,80.39 178.152,81.925C179.873,83.646 179.793,86.687 178.211,89.564C179.871,91.295 179.775,94.299 178.211,97.143C179.871,98.874 179.775,101.877 178.211,104.721C179.871,106.452 179.775,109.456 178.211,112.3C180.452,114.637 179.492,119.295 176.039,122.747C174.253,124.533 172.145,125.652 170.202,126.006C170.301,126.393 170.353,126.798 170.353,127.215L170.353,232.692C170.353,235.375 168.175,237.554 165.491,237.554ZM98.604,237.554C95.92,237.554 93.741,235.375 93.741,232.692L93.741,127.215C93.741,126.718 93.816,126.238 93.955,125.786C92.281,125.288 90.544,124.255 89.036,122.747C85.583,119.295 84.623,114.637 86.864,112.3C85.301,109.456 85.205,106.452 86.864,104.721C85.301,101.877 85.205,98.874 86.864,97.143C85.301,94.299 85.205,91.295 86.864,89.564C85.282,86.687 85.203,83.646 86.924,81.925C88.506,80.343 91.204,80.283 93.865,81.513L92.861,69.253C92.813,68.663 93.253,68.145 93.842,68.097C94.04,68.081 94.23,68.119 94.397,68.2L94.344,67.712C94.279,67.124 94.705,66.594 95.293,66.53C95.815,66.473 96.291,66.801 96.437,67.287L96.435,67.227C96.413,66.636 96.876,66.138 97.468,66.117C97.825,66.104 98.149,66.268 98.353,66.53C98.553,66.274 98.866,66.111 99.216,66.116C99.808,66.125 100.281,66.613 100.272,67.205L100.264,67.7L100.281,67.461C100.323,66.87 100.836,66.424 101.426,66.466C102.016,66.507 102.462,67.02 102.421,67.61L102.385,68.123L102.451,67.704C102.542,67.119 103.091,66.718 103.676,66.81C104.261,66.901 104.661,67.45 104.57,68.035L104.356,69.401C104.422,69.395 104.49,69.394 104.558,69.4C105.148,69.453 105.584,69.975 105.531,70.564L104.559,81.407C107.143,80.288 109.729,80.39 111.264,81.925C112.985,83.646 112.905,86.687 111.323,89.564C112.983,91.295 112.887,94.299 111.323,97.143C112.983,98.874 112.887,101.877 111.323,104.721C112.983,106.452 112.887,109.456 111.323,112.3C113.565,114.637 112.604,119.295 109.152,122.747C107.366,124.533 105.257,125.652 103.314,126.006C103.413,126.393 103.466,126.798 103.466,127.215L103.466,232.692C103.466,235.375 101.287,237.554 98.604,237.554ZM169.175,82.721L169.194,82.508L169.159,82.733L169.175,82.721ZM102.288,82.721L102.307,82.508L102.272,82.733L102.288,82.721ZM64.386,70.653L63.382,58.393C63.334,57.803 63.774,57.285 64.364,57.236C64.562,57.22 64.751,57.259 64.918,57.34L64.865,56.852C64.801,56.263 65.226,55.733 65.814,55.669C66.337,55.612 66.813,55.941 66.958,56.427L66.956,56.367C66.935,55.775 67.397,55.277 67.989,55.256C68.347,55.243 68.67,55.407 68.874,55.67C69.074,55.413 69.387,55.25 69.737,55.256C70.329,55.264 70.802,55.752 70.793,56.344L70.786,56.84L70.802,56.6C70.844,56.009 71.357,55.564 71.947,55.605C72.538,55.646 72.983,56.159 72.942,56.75L72.906,57.263L72.972,56.843C73.063,56.258 73.612,55.858 74.197,55.949C74.782,56.04 75.182,56.589 75.091,57.174L74.877,58.541C74.943,58.534 75.011,58.534 75.08,58.54C75.669,58.593 76.105,59.114 76.052,59.704L75.08,70.547C77.664,69.427 80.25,69.529 81.785,71.065C83.506,72.785 83.427,75.826 81.845,78.704C83.504,80.435 83.408,83.438 81.845,86.282C83.504,88.013 83.408,91.016 81.845,93.861C83.504,95.592 83.408,98.595 81.845,101.439C84.086,103.777 83.126,108.434 79.673,111.887C77.887,113.673 75.778,114.792 73.835,115.146C73.934,115.532 73.987,115.937 73.987,116.354L73.987,221.831C73.987,224.515 71.808,226.694 69.125,226.694C66.441,226.694 64.262,224.515 64.262,221.831L64.262,116.354C64.262,115.857 64.337,115.377 64.476,114.925C62.802,114.427 61.065,113.395 59.557,111.887C56.105,108.434 55.144,103.777 57.386,101.439C55.822,98.595 55.726,95.592 57.386,93.861C55.822,91.016 55.726,88.013 57.386,86.282C55.822,83.438 55.726,80.435 57.386,78.704C55.804,75.826 55.724,72.785 57.445,71.065C59.027,69.482 61.725,69.422 64.386,70.653ZM72.809,71.86L72.828,71.647L72.793,71.872L72.809,71.86ZM127.826,70.653L126.822,58.393C126.774,57.803 127.213,57.285 127.803,57.236C128.001,57.22 128.191,57.259 128.358,57.34L128.304,56.852C128.24,56.263 128.666,55.733 129.254,55.669C129.776,55.612 130.252,55.941 130.398,56.427L130.396,56.367C130.374,55.775 130.837,55.277 131.429,55.256C131.786,55.243 132.11,55.407 132.314,55.67C132.514,55.413 132.827,55.25 133.177,55.256C133.769,55.264 134.242,55.752 134.233,56.344L134.225,56.84L134.242,56.6C134.284,56.009 134.796,55.564 135.387,55.605C135.977,55.646 136.423,56.159 136.382,56.75L136.346,57.263L136.411,56.843C136.503,56.258 137.052,55.858 137.637,55.949C138.221,56.04 138.622,56.589 138.531,57.174L138.317,58.541C138.383,58.534 138.451,58.534 138.519,58.54C139.109,58.593 139.545,59.114 139.492,59.704L138.52,70.547C141.103,69.427 143.69,69.529 145.225,71.065C146.946,72.785 146.866,75.826 145.284,78.704C146.944,80.435 146.848,83.438 145.284,86.282C146.944,88.013 146.848,91.016 145.284,93.861C146.944,95.592 146.848,98.595 145.284,101.439C147.525,103.777 146.565,108.434 143.113,111.887C141.327,113.673 139.218,114.792 137.275,115.146C137.374,115.532 137.427,115.937 137.427,116.354L137.427,221.831C137.427,224.515 135.248,226.694 132.564,226.694C129.881,226.694 127.702,224.515 127.702,221.831L127.702,116.354C127.702,115.857 127.777,115.377 127.916,114.925C126.242,114.427 124.505,113.395 122.997,111.887C119.544,108.434 118.584,103.777 120.825,101.439C119.262,98.595 119.166,95.592 120.825,93.861C119.262,91.016 119.166,88.013 120.825,86.282C119.262,83.438 119.166,80.435 120.825,78.704C119.243,75.826 119.164,72.785 120.885,71.065C122.467,69.482 125.165,69.422 127.826,70.653ZM136.249,71.86L136.268,71.647L136.233,71.872L136.249,71.86ZM191.266,70.653L190.262,58.393C190.213,57.803 190.653,57.285 191.243,57.236C191.441,57.22 191.631,57.259 191.797,57.34L191.744,56.852C191.68,56.263 192.105,55.733 192.694,55.669C193.216,55.612 193.692,55.941 193.837,56.427L193.835,56.367C193.814,55.775 194.277,55.277 194.868,55.256C195.226,55.243 195.549,55.407 195.754,55.67C195.953,55.413 196.267,55.25 196.617,55.256C197.208,55.264 197.682,55.752 197.673,56.344L197.665,56.84L197.682,56.6C197.723,56.009 198.236,55.564 198.827,55.605C199.417,55.646 199.863,56.159 199.821,56.75L199.786,57.263L199.851,56.843C199.943,56.258 200.492,55.858 201.076,55.949C201.661,56.04 202.062,56.589 201.97,57.174L201.757,58.541C201.823,58.534 201.89,58.534 201.959,58.54C202.549,58.593 202.984,59.114 202.931,59.704L201.96,70.547C204.543,69.427 207.129,69.529 208.665,71.065C210.386,72.785 210.306,75.826 208.724,78.704C210.384,80.435 210.288,83.438 208.724,86.282C210.384,88.013 210.288,91.016 208.724,93.861C210.384,95.592 210.288,98.595 208.724,101.439C210.965,103.777 210.005,108.434 206.552,111.887C204.766,113.673 202.658,114.792 200.715,115.146C200.814,115.532 200.867,115.937 200.867,116.354L200.867,221.831C200.867,224.515 198.688,226.694 196.004,226.694C193.321,226.694 191.142,224.515 191.142,221.831L191.142,116.354C191.142,115.857 191.217,115.377 191.356,114.925C189.682,114.427 187.944,113.395 186.437,111.887C182.984,108.434 182.024,103.777 184.265,101.439C182.701,98.595 182.605,95.592 184.265,93.861C182.701,91.016 182.605,88.013 184.265,86.282C182.701,83.438 182.605,80.435 184.265,78.704C182.683,75.826 182.603,72.785 184.324,71.065C185.907,69.482 188.605,69.422 191.266,70.653ZM199.688,71.86L199.708,71.647L199.672,71.872L199.688,71.86Z" style="fill:rgb(160,122,57);"/>
            </g>
            <g transform="matrix(1,0,0,1,-11.72,-2.58586)">
                <path d="M66.362,225.832C65.094,224.954 64.262,223.489 64.262,221.831L64.262,116.354C64.262,115.857 64.337,115.377 64.476,114.925C62.802,114.427 61.065,113.395 59.557,111.887C56.105,108.434 55.144,103.777 57.386,101.439C55.822,98.595 55.726,95.592 57.386,93.861C55.822,91.016 55.726,88.013 57.386,86.282C55.822,83.438 55.726,80.435 57.386,78.704C55.804,75.826 55.724,72.785 57.445,71.065C59.027,69.482 61.725,69.422 64.386,70.653L63.382,58.393C63.334,57.803 63.774,57.285 64.364,57.236C64.562,57.22 64.751,57.259 64.918,57.34L64.865,56.852C64.801,56.263 65.226,55.733 65.814,55.669C66.337,55.612 66.813,55.941 66.958,56.427L66.956,56.367C66.935,55.775 67.397,55.277 67.989,55.256C68.347,55.243 68.67,55.407 68.874,55.67C69.074,55.413 69.387,55.25 69.737,55.256C70.329,55.264 70.802,55.752 70.793,56.344L70.786,56.84L70.802,56.6C70.844,56.009 71.357,55.564 71.947,55.605C72.538,55.646 72.983,56.159 72.942,56.75L72.906,57.263L72.972,56.843C73.063,56.258 73.612,55.858 74.197,55.949C74.782,56.04 75.182,56.589 75.091,57.174L74.877,58.541C74.943,58.534 75.011,58.534 75.08,58.54C75.669,58.593 76.105,59.114 76.052,59.704L75.08,70.547C77.664,69.427 80.25,69.529 81.785,71.065C83.506,72.785 83.427,75.826 81.845,78.704C83.504,80.435 83.408,83.438 81.845,86.282C83.504,88.013 83.408,91.016 81.845,93.861C83.504,95.592 83.408,98.595 81.845,101.439C84.086,103.777 83.126,108.434 79.673,111.887C77.887,113.673 75.778,114.792 73.835,115.146C73.934,115.532 73.987,115.937 73.987,116.354L73.987,221.831C73.987,223.489 73.156,224.954 71.888,225.832L66.362,225.832ZM93.741,225.832L93.741,127.215C93.741,126.718 93.816,126.238 93.955,125.786C92.281,125.288 90.544,124.255 89.036,122.747C85.583,119.295 84.623,114.637 86.864,112.3C85.301,109.456 85.205,106.452 86.864,104.721C85.301,101.877 85.205,98.874 86.864,97.143C85.301,94.299 85.205,91.295 86.864,89.564C85.282,86.687 85.203,83.646 86.924,81.925C88.506,80.343 91.204,80.283 93.865,81.513L92.861,69.253C92.813,68.663 93.253,68.145 93.842,68.097C94.04,68.081 94.23,68.119 94.397,68.2L94.344,67.712C94.279,67.124 94.705,66.594 95.293,66.53C95.815,66.473 96.291,66.801 96.437,67.287L96.435,67.227C96.413,66.636 96.876,66.138 97.468,66.117C97.825,66.104 98.149,66.268 98.353,66.53C98.553,66.274 98.866,66.111 99.216,66.116C99.808,66.125 100.281,66.613 100.272,67.205L100.264,67.7L100.281,67.461C100.323,66.87 100.836,66.424 101.426,66.466C102.016,66.507 102.462,67.02 102.421,67.61L102.385,68.123L102.451,67.704C102.542,67.119 103.091,66.718 103.676,66.81C104.261,66.901 104.661,67.45 104.57,68.035L104.356,69.401C104.422,69.395 104.49,69.394 104.558,69.4C105.148,69.453 105.584,69.975 105.531,70.564L104.559,81.407C107.143,80.288 109.729,80.39 111.264,81.925C112.985,83.646 112.905,86.687 111.323,89.564C112.983,91.295 112.887,94.299 111.323,97.143C112.983,98.874 112.887,101.877 111.323,104.721C112.983,106.452 112.887,109.456 111.323,112.3C113.565,114.637 112.604,119.295 109.152,122.747C107.366,124.533 105.257,125.652 103.314,126.006C103.413,126.393 103.466,126.798 103.466,127.215L103.466,225.832L93.741,225.832ZM129.801,225.832C128.533,224.954 127.702,223.489 127.702,221.831L127.702,116.354C127.702,115.857 127.777,115.377 127.916,114.925C126.242,114.427 124.505,113.395 122.997,111.887C119.544,108.434 118.584,103.777 120.825,101.439C119.262,98.595 119.166,95.592 120.825,93.861C119.262,91.016 119.166,88.013 120.825,86.282C119.262,83.438 119.166,80.435 120.825,78.704C119.243,75.826 119.164,72.785 120.885,71.065C122.467,69.482 125.165,69.422 127.826,70.653L126.822,58.393C126.774,57.803 127.213,57.285 127.803,57.236C128.001,57.22 128.191,57.259 128.358,57.34L128.304,56.852C128.24,56.263 128.666,55.733 129.254,55.669C129.776,55.612 130.252,55.941 130.398,56.427L130.396,56.367C130.374,55.775 130.837,55.277 131.429,55.256C131.786,55.243 132.11,55.407 132.314,55.67C132.514,55.413 132.827,55.25 133.177,55.256C133.769,55.264 134.242,55.752 134.233,56.344L134.225,56.84L134.242,56.6C134.284,56.009 134.796,55.564 135.387,55.605C135.977,55.646 136.423,56.159 136.382,56.75L136.346,57.263L136.411,56.843C136.503,56.258 137.052,55.858 137.637,55.949C138.221,56.04 138.622,56.589 138.531,57.174L138.317,58.541C138.383,58.534 138.451,58.534 138.519,58.54C139.109,58.593 139.545,59.114 139.492,59.704L138.52,70.547C141.103,69.427 143.69,69.529 145.225,71.065C146.946,72.785 146.866,75.826 145.284,78.704C146.944,80.435 146.848,83.438 145.284,86.282C146.944,88.013 146.848,91.016 145.284,93.861C146.944,95.592 146.848,98.595 145.284,101.439C147.525,103.777 146.565,108.434 143.113,111.887C141.327,113.673 139.218,114.792 137.275,115.146C137.374,115.532 137.427,115.937 137.427,116.354L137.427,221.831C137.427,223.489 136.596,224.954 135.328,225.832L129.801,225.832ZM160.629,225.832L160.629,127.215C160.629,126.718 160.703,126.238 160.842,125.786C159.169,125.288 157.431,124.255 155.924,122.747C152.471,119.295 151.511,114.637 153.752,112.3C152.188,109.456 152.092,106.452 153.752,104.721C152.188,101.877 152.092,98.874 153.752,97.143C152.188,94.299 152.092,91.295 153.752,89.564C152.17,86.687 152.09,83.646 153.811,81.925C155.393,80.343 158.092,80.283 160.753,81.513L159.749,69.253C159.7,68.663 160.14,68.145 160.73,68.097C160.928,68.081 161.118,68.119 161.284,68.2L161.231,67.712C161.167,67.124 161.592,66.594 162.181,66.53C162.703,66.473 163.179,66.801 163.324,67.287L163.322,67.227C163.301,66.636 163.764,66.138 164.355,66.117C164.713,66.104 165.036,66.268 165.241,66.53C165.44,66.274 165.754,66.111 166.104,66.116C166.695,66.125 167.168,66.613 167.16,67.205L167.152,67.7L167.169,67.461C167.21,66.87 167.723,66.424 168.313,66.466C168.904,66.507 169.35,67.02 169.308,67.61L169.272,68.123L169.338,67.704C169.429,67.119 169.978,66.718 170.563,66.81C171.148,66.901 171.549,67.45 171.457,68.035L171.244,69.401C171.31,69.395 171.377,69.394 171.446,69.4C172.035,69.453 172.471,69.975 172.418,70.564L171.447,81.407C174.03,80.288 176.616,80.39 178.152,81.925C179.873,83.646 179.793,86.687 178.211,89.564C179.871,91.295 179.775,94.299 178.211,97.143C179.871,98.874 179.775,101.877 178.211,104.721C179.871,106.452 179.775,109.456 178.211,112.3C180.452,114.637 179.492,119.295 176.039,122.747C174.253,124.533 172.145,125.652 170.202,126.006C170.301,126.393 170.353,126.798 170.353,127.215L170.353,225.832L160.629,225.832ZM193.241,225.832C191.973,224.954 191.142,223.489 191.142,221.831L191.142,116.354C191.142,115.857 191.217,115.377 191.356,114.925C189.682,114.427 187.944,113.395 186.437,111.887C182.984,108.434 182.024,103.777 184.265,101.439C182.701,98.595 182.605,95.592 184.265,93.861C182.701,91.016 182.605,88.013 184.265,86.282C182.701,83.438 182.605,80.435 184.265,78.704C182.683,75.826 182.603,72.785 184.324,71.065C185.907,69.482 188.605,69.422 191.266,70.653L190.262,58.393C190.213,57.803 190.653,57.285 191.243,57.236C191.441,57.22 191.631,57.259 191.797,57.34L191.744,56.852C191.68,56.263 192.105,55.733 192.694,55.669C193.216,55.612 193.692,55.941 193.837,56.427L193.835,56.367C193.814,55.775 194.277,55.277 194.868,55.256C195.226,55.243 195.549,55.407 195.754,55.67C195.953,55.413 196.267,55.25 196.617,55.256C197.208,55.264 197.682,55.752 197.673,56.344L197.665,56.84L197.682,56.6C197.723,56.009 198.236,55.564 198.827,55.605C199.417,55.646 199.863,56.159 199.821,56.75L199.786,57.263L199.851,56.843C199.943,56.258 200.492,55.858 201.076,55.949C201.661,56.04 202.062,56.589 201.97,57.174L201.757,58.541C201.823,58.534 201.89,58.534 201.959,58.54C202.549,58.593 202.984,59.114 202.931,59.704L201.96,70.547C204.543,69.427 207.129,69.529 208.665,71.065C210.386,72.785 210.306,75.826 208.724,78.704C210.384,80.435 210.288,83.438 208.724,86.282C210.384,88.013 210.288,91.016 208.724,93.861C210.384,95.592 210.288,98.595 208.724,101.439C210.965,103.777 210.005,108.434 206.552,111.887C204.766,113.673 202.658,114.792 200.715,115.146C200.814,115.532 200.867,115.937 200.867,116.354L200.867,221.831C200.867,223.489 200.035,224.954 198.767,225.832L193.241,225.832ZM72.809,71.86L72.828,71.647L72.793,71.872L72.809,71.86ZM102.288,82.721L102.307,82.508L102.272,82.733L102.288,82.721ZM136.249,71.86L136.268,71.647L136.233,71.872L136.249,71.86ZM169.175,82.721L169.194,82.508L169.159,82.733L169.175,82.721ZM199.688,71.86L199.708,71.647L199.672,71.872L199.688,71.86Z" style="fill:rgb(199,142,43);"/>
            </g>
            <g>
                <g transform="matrix(0.867869,0,0,0.867869,7.0356,29.9533)">
                    <g transform="matrix(0.693333,0,0,0.912593,23.6577,19.8147)">
                        <path d="M61.331,222.34C61.105,221.775 60.983,221.175 60.983,220.554L60.983,87.378C60.983,83.99 64.604,81.239 69.064,81.239C73.524,81.239 77.145,83.99 77.145,87.378L77.145,220.554C77.145,221.175 77.023,221.775 76.797,222.34L61.331,222.34Z" style="fill:rgb(255,172,29);"/>
                    </g>
                    <g transform="matrix(1,0,0,1,-40.4083,1.24121)">
                        <g>
                            <g transform="matrix(0.996663,-0.0816226,0.0816226,0.996663,28.8467,14.5161)">
                                <path d="M77.315,23.198L77.315,63.447C77.315,64.129 76.761,64.682 76.079,64.682C75.397,64.682 74.843,64.129 74.843,63.447L74.843,23.198C74.843,22.516 75.397,21.963 76.079,21.963C76.761,21.963 77.315,22.516 77.315,23.198Z" style="fill:rgb(255,172,29);"/>
                            </g>
                            <g transform="matrix(0.996008,0.0892662,-0.0892662,0.996008,44.9971,3.0313)">
                                <path d="M77.315,23.198L77.315,63.447C77.315,64.129 76.761,64.682 76.079,64.682C75.397,64.682 74.843,64.129 74.843,63.447L74.843,23.198C74.843,22.516 75.397,21.963 76.079,21.963C76.761,21.963 77.315,22.516 77.315,23.198Z" style="fill:rgb(255,172,29);"/>
                            </g>
                            <g transform="matrix(0.994096,-0.108502,0.108502,0.994096,30.1233,14.8117)">
                                <path d="M77.315,23.198L77.315,63.447C77.315,64.129 76.761,64.682 76.079,64.682C75.397,64.682 74.843,64.129 74.843,63.447L74.843,23.198C74.843,22.516 75.397,21.963 76.079,21.963C76.761,21.963 77.315,22.516 77.315,23.198Z" style="fill:rgb(249,204,126);"/>
                            </g>
                            <g transform="matrix(0.987999,0.154462,-0.154462,0.987999,46.0213,-4.738)">
                                <path d="M77.315,23.198L77.315,63.447C77.315,64.129 76.761,64.682 76.079,64.682C75.397,64.682 74.843,64.129 74.843,63.447L74.843,23.198C74.843,22.516 75.397,21.963 76.079,21.963C76.761,21.963 77.315,22.516 77.315,23.198Z" style="fill:rgb(249,204,126);"/>
                            </g>
                            <g transform="matrix(0.999885,0.0151945,-0.0151945,0.999885,36.9196,4.79714)">
                                <path d="M77.315,23.198L77.315,63.447C77.315,64.129 76.761,64.682 76.079,64.682C75.397,64.682 74.843,64.129 74.843,63.447L74.843,23.198C74.843,22.516 75.397,21.963 76.079,21.963C76.761,21.963 77.315,22.516 77.315,23.198Z" style="fill:rgb(249,204,126);"/>
                            </g>
                            <g transform="matrix(0.999348,-0.0360966,0.0360966,0.999348,33.8194,8.71178)">
                                <path d="M77.315,23.198L77.315,63.447C77.315,64.129 76.761,64.682 76.079,64.682C75.397,64.682 74.843,64.129 74.843,63.447L74.843,23.198C74.843,22.516 75.397,21.963 76.079,21.963C76.761,21.963 77.315,22.516 77.315,23.198Z" style="fill:rgb(255,172,29);"/>
                            </g>
                            <g transform="matrix(0.997556,0.0698653,-0.0698653,0.997556,40.8439,1.09175)">
                                <path d="M77.315,23.198L77.315,63.447C77.315,64.129 76.761,64.682 76.079,64.682C75.397,64.682 74.843,64.129 74.843,63.447L74.843,23.198C74.843,22.516 75.397,21.963 76.079,21.963C76.761,21.963 77.315,22.516 77.315,23.198Z" style="fill:rgb(255,172,29);"/>
                            </g>
                        </g>
                        <g>
                            <g transform="matrix(0.707107,0.707107,-0.707107,0.707107,91.7364,-23.7487)">
                                <ellipse cx="98.719" cy="59.784" rx="6.84" ry="10.283" style="fill:rgb(255,172,29);"/>
                            </g>
                            <g transform="matrix(-0.707107,0.707107,0.707107,0.707107,133.295,-23.7487)">
                                <ellipse cx="98.719" cy="59.784" rx="6.84" ry="10.283" style="fill:rgb(249,204,126);"/>
                            </g>
                            <g transform="matrix(0.707107,0.707107,-0.707107,0.707107,91.7364,-32.481)">
                                <ellipse cx="98.719" cy="59.784" rx="6.84" ry="10.283" style="fill:rgb(249,204,126);"/>
                            </g>
                            <g transform="matrix(-0.707107,0.707107,0.707107,0.707107,133.295,-32.481)">
                                <ellipse cx="98.719" cy="59.784" rx="6.84" ry="10.283" style="fill:rgb(255,172,29);"/>
                            </g>
                            <g transform="matrix(0.707107,0.707107,-0.707107,0.707107,91.7364,-41.2134)">
                                <ellipse cx="98.719" cy="59.784" rx="6.84" ry="10.283" style="fill:rgb(255,172,29);"/>
                            </g>
                            <g transform="matrix(-0.707107,0.707107,0.707107,0.707107,133.295,-41.2134)">
                                <ellipse cx="98.719" cy="59.784" rx="6.84" ry="10.283" style="fill:rgb(249,204,126);"/>
                            </g>
                            <g transform="matrix(0.707107,0.707107,-0.707107,0.707107,91.7364,-49.9457)">
                                <ellipse cx="98.719" cy="59.784" rx="6.84" ry="10.283" style="fill:rgb(249,204,126);"/>
                            </g>
                            <g transform="matrix(-0.707107,0.707107,0.707107,0.707107,133.295,-49.9457)">
                                <ellipse cx="98.719" cy="59.784" rx="6.84" ry="10.283" style="fill:rgb(255,172,29);"/>
                            </g>
                            <g transform="matrix(0.707107,0.707107,-0.707107,0.707107,91.7364,-58.6781)">
                                <ellipse cx="98.719" cy="59.784" rx="6.84" ry="10.283" style="fill:rgb(255,172,29);"/>
                            </g>
                            <g transform="matrix(-0.707107,0.707107,0.707107,0.707107,133.295,-58.6781)">
                                <ellipse cx="98.719" cy="59.784" rx="6.84" ry="10.283" style="fill:rgb(249,204,126);"/>
                            </g>
                        </g>
                    </g>
                </g>
                <g transform="matrix(0.867869,0,0,0.867869,36.5144,40.8139)">
                    <g transform="matrix(0.693333,0,0,0.912593,23.6577,19.8147)">
                        <path d="M60.983,208.628L60.983,87.378C60.983,83.99 64.604,81.239 69.064,81.239C73.524,81.239 77.145,83.99 77.145,87.378L77.145,208.628L60.983,208.628Z" style="fill:rgb(255,172,29);"/>
                    </g>
                    <g transform="matrix(1,0,0,1,-40.4083,1.24121)">
                        <g>
                            <g transform="matrix(0.996663,-0.0816226,0.0816226,0.996663,28.8467,14.5161)">
                                <path d="M77.315,23.198L77.315,63.447C77.315,64.129 76.761,64.682 76.079,64.682C75.397,64.682 74.843,64.129 74.843,63.447L74.843,23.198C74.843,22.516 75.397,21.963 76.079,21.963C76.761,21.963 77.315,22.516 77.315,23.198Z" style="fill:rgb(255,172,29);"/>
                            </g>
                            <g transform="matrix(0.996008,0.0892662,-0.0892662,0.996008,44.9971,3.0313)">
                                <path d="M77.315,23.198L77.315,63.447C77.315,64.129 76.761,64.682 76.079,64.682C75.397,64.682 74.843,64.129 74.843,63.447L74.843,23.198C74.843,22.516 75.397,21.963 76.079,21.963C76.761,21.963 77.315,22.516 77.315,23.198Z" style="fill:rgb(255,172,29);"/>
                            </g>
                            <g transform="matrix(0.994096,-0.108502,0.108502,0.994096,30.1233,14.8117)">
                                <path d="M77.315,23.198L77.315,63.447C77.315,64.129 76.761,64.682 76.079,64.682C75.397,64.682 74.843,64.129 74.843,63.447L74.843,23.198C74.843,22.516 75.397,21.963 76.079,21.963C76.761,21.963 77.315,22.516 77.315,23.198Z" style="fill:rgb(249,204,126);"/>
                            </g>
                            <g transform="matrix(0.987999,0.154462,-0.154462,0.987999,46.0213,-4.738)">
                                <path d="M77.315,23.198L77.315,63.447C77.315,64.129 76.761,64.682 76.079,64.682C75.397,64.682 74.843,64.129 74.843,63.447L74.843,23.198C74.843,22.516 75.397,21.963 76.079,21.963C76.761,21.963 77.315,22.516 77.315,23.198Z" style="fill:rgb(249,204,126);"/>
                            </g>
                            <g transform="matrix(0.999885,0.0151945,-0.0151945,0.999885,36.9196,4.79714)">
                                <path d="M77.315,23.198L77.315,63.447C77.315,64.129 76.761,64.682 76.079,64.682C75.397,64.682 74.843,64.129 74.843,63.447L74.843,23.198C74.843,22.516 75.397,21.963 76.079,21.963C76.761,21.963 77.315,22.516 77.315,23.198Z" style="fill:rgb(249,204,126);"/>
                            </g>
                            <g transform="matrix(0.999348,-0.0360966,0.0360966,0.999348,33.8194,8.71178)">
                                <path d="M77.315,23.198L77.315,63.447C77.315,64.129 76.761,64.682 76.079,64.682C75.397,64.682 74.843,64.129 74.843,63.447L74.843,23.198C74.843,22.516 75.397,21.963 76.079,21.963C76.761,21.963 77.315,22.516 77.315,23.198Z" style="fill:rgb(255,172,29);"/>
                            </g>
                            <g transform="matrix(0.997556,0.0698653,-0.0698653,0.997556,40.8439,1.09175)">
                                <path d="M77.315,23.198L77.315,63.447C77.315,64.129 76.761,64.682 76.079,64.682C75.397,64.682 74.843,64.129 74.843,63.447L74.843,23.198C74.843,22.516 75.397,21.963 76.079,21.963C76.761,21.963 77.315,22.516 77.315,23.198Z" style="fill:rgb(255,172,29);"/>
                            </g>
                        </g>
                        <g>
                            <g transform="matrix(0.707107,0.707107,-0.707107,0.707107,91.7364,-23.7487)">
                                <ellipse cx="98.719" cy="59.784" rx="6.84" ry="10.283" style="fill:rgb(255,172,29);"/>
                            </g>
                            <g transform="matrix(-0.707107,0.707107,0.707107,0.707107,133.295,-23.7487)">
                                <ellipse cx="98.719" cy="59.784" rx="6.84" ry="10.283" style="fill:rgb(249,204,126);"/>
                            </g>
                            <g transform="matrix(0.707107,0.707107,-0.707107,0.707107,91.7364,-32.481)">
                                <ellipse cx="98.719" cy="59.784" rx="6.84" ry="10.283" style="fill:rgb(249,204,126);"/>
                            </g>
                            <g transform="matrix(-0.707107,0.707107,0.707107,0.707107,133.295,-32.481)">
                                <ellipse cx="98.719" cy="59.784" rx="6.84" ry="10.283" style="fill:rgb(255,172,29);"/>
                            </g>
                            <g transform="matrix(0.707107,0.707107,-0.707107,0.707107,91.7364,-41.2134)">
                                <ellipse cx="98.719" cy="59.784" rx="6.84" ry="10.283" style="fill:rgb(255,172,29);"/>
                            </g>
                            <g transform="matrix(-0.707107,0.707107,0.707107,0.707107,133.295,-41.2134)">
                                <ellipse cx="98.719" cy="59.784" rx="6.84" ry="10.283" style="fill:rgb(249,204,126);"/>
                            </g>
                            <g transform="matrix(0.707107,0.707107,-0.707107,0.707107,91.7364,-49.9457)">
                                <ellipse cx="98.719" cy="59.784" rx="6.84" ry="10.283" style="fill:rgb(249,204,126);"/>
                            </g>
                            <g transform="matrix(-0.707107,0.707107,0.707107,0.707107,133.295,-49.9457)">
                                <ellipse cx="98.719" cy="59.784" rx="6.84" ry="10.283" style="fill:rgb(255,172,29);"/>
                            </g>
                            <g transform="matrix(0.707107,0.707107,-0.707107,0.707107,91.7364,-58.6781)">
                                <ellipse cx="98.719" cy="59.784" rx="6.84" ry="10.283" style="fill:rgb(255,172,29);"/>
                            </g>
                            <g transform="matrix(-0.707107,0.707107,0.707107,0.707107,133.295,-58.6781)">
                                <ellipse cx="98.719" cy="59.784" rx="6.84" ry="10.283" style="fill:rgb(249,204,126);"/>
                            </g>
                        </g>
                    </g>
                </g>
                <g transform="matrix(0.867869,0,0,0.867869,70.4753,29.9533)">
                    <g transform="matrix(0.693333,0,0,0.912593,23.6577,19.8147)">
                        <path d="M61.331,222.34C61.105,221.775 60.983,221.175 60.983,220.554L60.983,87.378C60.983,83.99 64.604,81.239 69.064,81.239C73.524,81.239 77.145,83.99 77.145,87.378L77.145,220.554C77.145,221.175 77.023,221.775 76.797,222.34L61.331,222.34Z" style="fill:rgb(255,172,29);"/>
                    </g>
                    <g transform="matrix(1,0,0,1,-40.4083,1.24121)">
                        <g>
                            <g transform="matrix(0.996663,-0.0816226,0.0816226,0.996663,28.8467,14.5161)">
                                <path d="M77.315,23.198L77.315,63.447C77.315,64.129 76.761,64.682 76.079,64.682C75.397,64.682 74.843,64.129 74.843,63.447L74.843,23.198C74.843,22.516 75.397,21.963 76.079,21.963C76.761,21.963 77.315,22.516 77.315,23.198Z" style="fill:rgb(255,172,29);"/>
                            </g>
                            <g transform="matrix(0.996008,0.0892662,-0.0892662,0.996008,44.9971,3.0313)">
                                <path d="M77.315,23.198L77.315,63.447C77.315,64.129 76.761,64.682 76.079,64.682C75.397,64.682 74.843,64.129 74.843,63.447L74.843,23.198C74.843,22.516 75.397,21.963 76.079,21.963C76.761,21.963 77.315,22.516 77.315,23.198Z" style="fill:rgb(255,172,29);"/>
                            </g>
                            <g transform="matrix(0.994096,-0.108502,0.108502,0.994096,30.1233,14.8117)">
                                <path d="M77.315,23.198L77.315,63.447C77.315,64.129 76.761,64.682 76.079,64.682C75.397,64.682 74.843,64.129 74.843,63.447L74.843,23.198C74.843,22.516 75.397,21.963 76.079,21.963C76.761,21.963 77.315,22.516 77.315,23.198Z" style="fill:rgb(249,204,126);"/>
                            </g>
                            <g transform="matrix(0.987999,0.154462,-0.154462,0.987999,46.0213,-4.738)">
                                <path d="M77.315,23.198L77.315,63.447C77.315,64.129 76.761,64.682 76.079,64.682C75.397,64.682 74.843,64.129 74.843,63.447L74.843,23.198C74.843,22.516 75.397,21.963 76.079,21.963C76.761,21.963 77.315,22.516 77.315,23.198Z" style="fill:rgb(249,204,126);"/>
                            </g>
                            <g transform="matrix(0.999885,0.0151945,-0.0151945,0.999885,36.9196,4.79714)">
                                <path d="M77.315,23.198L77.315,63.447C77.315,64.129 76.761,64.682 76.079,64.682C75.397,64.682 74.843,64.129 74.843,63.447L74.843,23.198C74.843,22.516 75.397,21.963 76.079,21.963C76.761,21.963 77.315,22.516 77.315,23.198Z" style="fill:rgb(249,204,126);"/>
                            </g>
                            <g transform="matrix(0.999348,-0.0360966,0.0360966,0.999348,33.8194,8.71178)">
                                <path d="M77.315,23.198L77.315,63.447C77.315,64.129 76.761,64.682 76.079,64.682C75.397,64.682 74.843,64.129 74.843,63.447L74.843,23.198C74.843,22.516 75.397,21.963 76.079,21.963C76.761,21.963 77.315,22.516 77.315,23.198Z" style="fill:rgb(255,172,29);"/>
                            </g>
                            <g transform="matrix(0.997556,0.0698653,-0.0698653,0.997556,40.8439,1.09175)">
                                <path d="M77.315,23.198L77.315,63.447C77.315,64.129 76.761,64.682 76.079,64.682C75.397,64.682 74.843,64.129 74.843,63.447L74.843,23.198C74.843,22.516 75.397,21.963 76.079,21.963C76.761,21.963 77.315,22.516 77.315,23.198Z" style="fill:rgb(255,172,29);"/>
                            </g>
                        </g>
                        <g>
                            <g transform="matrix(0.707107,0.707107,-0.707107,0.707107,91.7364,-23.7487)">
                                <ellipse cx="98.719" cy="59.784" rx="6.84" ry="10.283" style="fill:rgb(255,172,29);"/>
                            </g>
                            <g transform="matrix(-0.707107,0.707107,0.707107,0.707107,133.295,-23.7487)">
                                <ellipse cx="98.719" cy="59.784" rx="6.84" ry="10.283" style="fill:rgb(249,204,126);"/>
                            </g>
                            <g transform="matrix(0.707107,0.707107,-0.707107,0.707107,91.7364,-32.481)">
                                <ellipse cx="98.719" cy="59.784" rx="6.84" ry="10.283" style="fill:rgb(249,204,126);"/>
                            </g>
                            <g transform="matrix(-0.707107,0.707107,0.707107,0.707107,133.295,-32.481)">
                                <ellipse cx="98.719" cy="59.784" rx="6.84" ry="10.283" style="fill:rgb(255,172,29);"/>
                            </g>
                            <g transform="matrix(0.707107,0.707107,-0.707107,0.707107,91.7364,-41.2134)">
                                <ellipse cx="98.719" cy="59.784" rx="6.84" ry="10.283" style="fill:rgb(255,172,29);"/>
                            </g>
                            <g transform="matrix(-0.707107,0.707107,0.707107,0.707107,133.295,-41.2134)">
                                <ellipse cx="98.719" cy="59.784" rx="6.84" ry="10.283" style="fill:rgb(249,204,126);"/>
                            </g>
                            <g transform="matrix(0.707107,0.707107,-0.707107,0.707107,91.7364,-49.9457)">
                                <ellipse cx="98.719" cy="59.784" rx="6.84" ry="10.283" style="fill:rgb(249,204,126);"/>
                            </g>
                            <g transform="matrix(-0.707107,0.707107,0.707107,0.707107,133.295,-49.9457)">
                                <ellipse cx="98.719" cy="59.784" rx="6.84" ry="10.283" style="fill:rgb(255,172,29);"/>
                            </g>
                            <g transform="matrix(0.707107,0.707107,-0.707107,0.707107,91.7364,-58.6781)">
                                <ellipse cx="98.719" cy="59.784" rx="6.84" ry="10.283" style="fill:rgb(255,172,29);"/>
                            </g>
                            <g transform="matrix(-0.707107,0.707107,0.707107,0.707107,133.295,-58.6781)">
                                <ellipse cx="98.719" cy="59.784" rx="6.84" ry="10.283" style="fill:rgb(249,204,126);"/>
                            </g>
                        </g>
                    </g>
                </g>
                <g transform="matrix(0.867869,0,0,0.867869,103.402,40.8139)">
                    <g transform="matrix(0.693333,0,0,0.912593,23.6577,19.8147)">
                        <path d="M60.983,208.628L60.983,87.378C60.983,83.99 64.604,81.239 69.064,81.239C73.524,81.239 77.145,83.99 77.145,87.378L77.145,208.628L60.983,208.628Z" style="fill:rgb(255,172,29);"/>
                    </g>
                    <g transform="matrix(1,0,0,1,-40.4083,1.24121)">
                        <g>
                            <g transform="matrix(0.996663,-0.0816226,0.0816226,0.996663,28.8467,14.5161)">
                                <path d="M77.315,23.198L77.315,63.447C77.315,64.129 76.761,64.682 76.079,64.682C75.397,64.682 74.843,64.129 74.843,63.447L74.843,23.198C74.843,22.516 75.397,21.963 76.079,21.963C76.761,21.963 77.315,22.516 77.315,23.198Z" style="fill:rgb(255,172,29);"/>
                            </g>
                            <g transform="matrix(0.996008,0.0892662,-0.0892662,0.996008,44.9971,3.0313)">
                                <path d="M77.315,23.198L77.315,63.447C77.315,64.129 76.761,64.682 76.079,64.682C75.397,64.682 74.843,64.129 74.843,63.447L74.843,23.198C74.843,22.516 75.397,21.963 76.079,21.963C76.761,21.963 77.315,22.516 77.315,23.198Z" style="fill:rgb(255,172,29);"/>
                            </g>
                            <g transform="matrix(0.994096,-0.108502,0.108502,0.994096,30.1233,14.8117)">
                                <path d="M77.315,23.198L77.315,63.447C77.315,64.129 76.761,64.682 76.079,64.682C75.397,64.682 74.843,64.129 74.843,63.447L74.843,23.198C74.843,22.516 75.397,21.963 76.079,21.963C76.761,21.963 77.315,22.516 77.315,23.198Z" style="fill:rgb(249,204,126);"/>
                            </g>
                            <g transform="matrix(0.987999,0.154462,-0.154462,0.987999,46.0213,-4.738)">
                                <path d="M77.315,23.198L77.315,63.447C77.315,64.129 76.761,64.682 76.079,64.682C75.397,64.682 74.843,64.129 74.843,63.447L74.843,23.198C74.843,22.516 75.397,21.963 76.079,21.963C76.761,21.963 77.315,22.516 77.315,23.198Z" style="fill:rgb(249,204,126);"/>
                            </g>
                            <g transform="matrix(0.999885,0.0151945,-0.0151945,0.999885,36.9196,4.79714)">
                                <path d="M77.315,23.198L77.315,63.447C77.315,64.129 76.761,64.682 76.079,64.682C75.397,64.682 74.843,64.129 74.843,63.447L74.843,23.198C74.843,22.516 75.397,21.963 76.079,21.963C76.761,21.963 77.315,22.516 77.315,23.198Z" style="fill:rgb(249,204,126);"/>
                            </g>
                            <g transform="matrix(0.999348,-0.0360966,0.0360966,0.999348,33.8194,8.71178)">
                                <path d="M77.315,23.198L77.315,63.447C77.315,64.129 76.761,64.682 76.079,64.682C75.397,64.682 74.843,64.129 74.843,63.447L74.843,23.198C74.843,22.516 75.397,21.963 76.079,21.963C76.761,21.963 77.315,22.516 77.315,23.198Z" style="fill:rgb(255,172,29);"/>
                            </g>
                            <g transform="matrix(0.997556,0.0698653,-0.0698653,0.997556,40.8439,1.09175)">
                                <path d="M77.315,23.198L77.315,63.447C77.315,64.129 76.761,64.682 76.079,64.682C75.397,64.682 74.843,64.129 74.843,63.447L74.843,23.198C74.843,22.516 75.397,21.963 76.079,21.963C76.761,21.963 77.315,22.516 77.315,23.198Z" style="fill:rgb(255,172,29);"/>
                            </g>
                        </g>
                        <g>
                            <g transform="matrix(0.707107,0.707107,-0.707107,0.707107,91.7364,-23.7487)">
                                <ellipse cx="98.719" cy="59.784" rx="6.84" ry="10.283" style="fill:rgb(255,172,29);"/>
                            </g>
                            <g transform="matrix(-0.707107,0.707107,0.707107,0.707107,133.295,-23.7487)">
                                <ellipse cx="98.719" cy="59.784" rx="6.84" ry="10.283" style="fill:rgb(249,204,126);"/>
                            </g>
                            <g transform="matrix(0.707107,0.707107,-0.707107,0.707107,91.7364,-32.481)">
                                <ellipse cx="98.719" cy="59.784" rx="6.84" ry="10.283" style="fill:rgb(249,204,126);"/>
                            </g>
                            <g transform="matrix(-0.707107,0.707107,0.707107,0.707107,133.295,-32.481)">
                                <ellipse cx="98.719" cy="59.784" rx="6.84" ry="10.283" style="fill:rgb(255,172,29);"/>
                            </g>
                            <g transform="matrix(0.707107,0.707107,-0.707107,0.707107,91.7364,-41.2134)">
                                <ellipse cx="98.719" cy="59.784" rx="6.84" ry="10.283" style="fill:rgb(255,172,29);"/>
                            </g>
                            <g transform="matrix(-0.707107,0.707107,0.707107,0.707107,133.295,-41.2134)">
                                <ellipse cx="98.719" cy="59.784" rx="6.84" ry="10.283" style="fill:rgb(249,204,126);"/>
                            </g>
                            <g transform="matrix(0.707107,0.707107,-0.707107,0.707107,91.7364,-49.9457)">
                                <ellipse cx="98.719" cy="59.784" rx="6.84" ry="10.283" style="fill:rgb(249,204,126);"/>
                            </g>
                            <g transform="matrix(-0.707107,0.707107,0.707107,0.707107,133.295,-49.9457)">
                                <ellipse cx="98.719" cy="59.784" rx="6.84" ry="10.283" style="fill:rgb(255,172,29);"/>
                            </g>
                            <g transform="matrix(0.707107,0.707107,-0.707107,0.707107,91.7364,-58.6781)">
                                <ellipse cx="98.719" cy="59.784" rx="6.84" ry="10.283" style="fill:rgb(255,172,29);"/>
                            </g>
                            <g transform="matrix(-0.707107,0.707107,0.707107,0.707107,133.295,-58.6781)">
                                <ellipse cx="98.719" cy="59.784" rx="6.84" ry="10.283" style="fill:rgb(249,204,126);"/>
                            </g>
                        </g>
                    </g>
                </g>
                <g transform="matrix(0.867869,0,0,0.867869,133.915,29.9533)">
                    <g transform="matrix(0.693333,0,0,0.912593,23.6577,19.8147)">
                        <path d="M61.331,222.34C61.105,221.775 60.983,221.175 60.983,220.554L60.983,87.378C60.983,83.99 64.604,81.239 69.064,81.239C73.524,81.239 77.145,83.99 77.145,87.378L77.145,220.554C77.145,221.175 77.023,221.775 76.797,222.34L61.331,222.34Z" style="fill:rgb(255,172,29);"/>
                    </g>
                    <g transform="matrix(1,0,0,1,-40.4083,1.24121)">
                        <g>
                            <g transform="matrix(0.996663,-0.0816226,0.0816226,0.996663,28.8467,14.5161)">
                                <path d="M77.315,23.198L77.315,63.447C77.315,64.129 76.761,64.682 76.079,64.682C75.397,64.682 74.843,64.129 74.843,63.447L74.843,23.198C74.843,22.516 75.397,21.963 76.079,21.963C76.761,21.963 77.315,22.516 77.315,23.198Z" style="fill:rgb(255,172,29);"/>
                            </g>
                            <g transform="matrix(0.996008,0.0892662,-0.0892662,0.996008,44.9971,3.0313)">
                                <path d="M77.315,23.198L77.315,63.447C77.315,64.129 76.761,64.682 76.079,64.682C75.397,64.682 74.843,64.129 74.843,63.447L74.843,23.198C74.843,22.516 75.397,21.963 76.079,21.963C76.761,21.963 77.315,22.516 77.315,23.198Z" style="fill:rgb(255,172,29);"/>
                            </g>
                            <g transform="matrix(0.994096,-0.108502,0.108502,0.994096,30.1233,14.8117)">
                                <path d="M77.315,23.198L77.315,63.447C77.315,64.129 76.761,64.682 76.079,64.682C75.397,64.682 74.843,64.129 74.843,63.447L74.843,23.198C74.843,22.516 75.397,21.963 76.079,21.963C76.761,21.963 77.315,22.516 77.315,23.198Z" style="fill:rgb(249,204,126);"/>
                            </g>
                            <g transform="matrix(0.987999,0.154462,-0.154462,0.987999,46.0213,-4.738)">
                                <path d="M77.315,23.198L77.315,63.447C77.315,64.129 76.761,64.682 76.079,64.682C75.397,64.682 74.843,64.129 74.843,63.447L74.843,23.198C74.843,22.516 75.397,21.963 76.079,21.963C76.761,21.963 77.315,22.516 77.315,23.198Z" style="fill:rgb(249,204,126);"/>
                            </g>
                            <g transform="matrix(0.999885,0.0151945,-0.0151945,0.999885,36.9196,4.79714)">
                                <path d="M77.315,23.198L77.315,63.447C77.315,64.129 76.761,64.682 76.079,64.682C75.397,64.682 74.843,64.129 74.843,63.447L74.843,23.198C74.843,22.516 75.397,21.963 76.079,21.963C76.761,21.963 77.315,22.516 77.315,23.198Z" style="fill:rgb(249,204,126);"/>
                            </g>
                            <g transform="matrix(0.999348,-0.0360966,0.0360966,0.999348,33.8194,8.71178)">
                                <path d="M77.315,23.198L77.315,63.447C77.315,64.129 76.761,64.682 76.079,64.682C75.397,64.682 74.843,64.129 74.843,63.447L74.843,23.198C74.843,22.516 75.397,21.963 76.079,21.963C76.761,21.963 77.315,22.516 77.315,23.198Z" style="fill:rgb(255,172,29);"/>
                            </g>
                            <g transform="matrix(0.997556,0.0698653,-0.0698653,0.997556,40.8439,1.09175)">
                                <path d="M77.315,23.198L77.315,63.447C77.315,64.129 76.761,64.682 76.079,64.682C75.397,64.682 74.843,64.129 74.843,63.447L74.843,23.198C74.843,22.516 75.397,21.963 76.079,21.963C76.761,21.963 77.315,22.516 77.315,23.198Z" style="fill:rgb(255,172,29);"/>
                            </g>
                        </g>
                        <g>
                            <g transform="matrix(0.707107,0.707107,-0.707107,0.707107,91.7364,-23.7487)">
                                <ellipse cx="98.719" cy="59.784" rx="6.84" ry="10.283" style="fill:rgb(255,172,29);"/>
                            </g>
                            <g transform="matrix(-0.707107,0.707107,0.707107,0.707107,133.295,-23.7487)">
                                <ellipse cx="98.719" cy="59.784" rx="6.84" ry="10.283" style="fill:rgb(249,204,126);"/>
                            </g>
                            <g transform="matrix(0.707107,0.707107,-0.707107,0.707107,91.7364,-32.481)">
                                <ellipse cx="98.719" cy="59.784" rx="6.84" ry="10.283" style="fill:rgb(249,204,126);"/>
                            </g>
                            <g transform="matrix(-0.707107,0.707107,0.707107,0.707107,133.295,-32.481)">
                                <ellipse cx="98.719" cy="59.784" rx="6.84" ry="10.283" style="fill:rgb(255,172,29);"/>
                            </g>
                            <g transform="matrix(0.707107,0.707107,-0.707107,0.707107,91.7364,-41.2134)">
                                <ellipse cx="98.719" cy="59.784" rx="6.84" ry="10.283" style="fill:rgb(255,172,29);"/>
                            </g>
                            <g transform="matrix(-0.707107,0.707107,0.707107,0.707107,133.295,-41.2134)">
                                <ellipse cx="98.719" cy="59.784" rx="6.84" ry="10.283" style="fill:rgb(249,204,126);"/>
                            </g>
                            <g transform="matrix(0.707107,0.707107,-0.707107,0.707107,91.7364,-49.9457)">
                                <ellipse cx="98.719" cy="59.784" rx="6.84" ry="10.283" style="fill:rgb(249,204,126);"/>
                            </g>
                            <g transform="matrix(-0.707107,0.707107,0.707107,0.707107,133.295,-49.9457)">
                                <ellipse cx="98.719" cy="59.784" rx="6.84" ry="10.283" style="fill:rgb(255,172,29);"/>
                            </g>
                            <g transform="matrix(0.707107,0.707107,-0.707107,0.707107,91.7364,-58.6781)">
                                <ellipse cx="98.719" cy="59.784" rx="6.84" ry="10.283" style="fill:rgb(255,172,29);"/>
                            </g>
                            <g transform="matrix(-0.707107,0.707107,0.707107,0.707107,133.295,-58.6781)">
                                <ellipse cx="98.719" cy="59.784" rx="6.84" ry="10.283" style="fill:rgb(249,204,126);"/>
                            </g>
                        </g>
                    </g>
                </g>
            </g>
        </g>
    </g>
</svg>
