<?xml version="1.0" encoding="UTF-8" standalone="no"?>
<!DOCTYPE svg PUBLIC "-//W3C//DTD SVG 1.1//EN" "http://www.w3.org/Graphics/SVG/1.1/DTD/svg11.dtd">
<svg width="100%" height="100%" viewBox="0 0 342 342" version="1.1" xmlns="http://www.w3.org/2000/svg" xmlns:xlink="http://www.w3.org/1999/xlink" xml:space="preserve" xmlns:serif="http://www.serif.com/" style="fill-rule:evenodd;clip-rule:evenodd;stroke-linecap:round;stroke-linejoin:round;stroke-miterlimit:1.5;">
    <g transform="matrix(1.33333,0,0,1.33333,0,0)">
        <g>
            <path d="M41.944,134.684L38.781,137.346C37.817,138.157 36.377,138.033 35.565,137.069L23.48,122.713C22.669,121.75 22.793,120.309 23.756,119.497L108.868,47.851L96.503,37.475C95.538,36.665 95.412,35.225 96.222,34.26L108.284,19.884C109.094,18.919 110.534,18.793 111.499,19.603L126.986,32.598L141.605,20.293C142.568,19.481 144.009,19.605 144.82,20.569L156.906,34.925C157.717,35.889 157.593,37.33 156.629,38.141L145.129,47.822L229.504,118.621C230.469,119.431 230.595,120.872 229.786,121.836L217.723,136.212C216.914,137.177 215.473,137.303 214.508,136.493L209.88,132.609L209.88,217.93C209.88,224.716 204.37,230.225 197.585,230.225L54.239,230.225C47.453,230.225 41.944,224.716 41.944,217.93L41.944,134.684Z" style="stroke:black;stroke-width:20.83px;"/>
            <g transform="matrix(1,0,0,0.90528,0,21.807)">
                <path d="M187.274,91.392L197.585,91.392C204.37,91.392 209.88,97.478 209.88,104.973L209.88,216.643C209.88,224.139 204.37,230.225 197.585,230.225L54.239,230.225C47.453,230.225 41.944,224.139 41.944,216.643L41.944,104.973C41.944,97.478 47.453,91.392 54.239,91.392L70.365,91.392C70.757,90.186 71.381,89.051 72.239,88.071L120.449,32.987C123.685,29.29 129.03,29.19 132.377,32.765L187.274,91.392Z" style="fill:rgb(211,154,110);"/>
                <clipPath id="_clip1">
                    <path d="M187.274,91.392L197.585,91.392C204.37,91.392 209.88,97.478 209.88,104.973L209.88,216.643C209.88,224.139 204.37,230.225 197.585,230.225L54.239,230.225C47.453,230.225 41.944,224.139 41.944,216.643L41.944,104.973C41.944,97.478 47.453,91.392 54.239,91.392L70.365,91.392C70.757,90.186 71.381,89.051 72.239,88.071L120.449,32.987C123.685,29.29 129.03,29.19 132.377,32.765L187.274,91.392Z"/>
                </clipPath>
                <g clip-path="url(#_clip1)">
                    <g id="Planks">
                        <g transform="matrix(1,0,0,1.10463,0,-24.0887)">
                            <path d="M233.401,95.747L233.401,107.561C233.401,110.821 230.754,113.468 227.494,113.468L25.281,113.468C22.021,113.468 19.375,110.821 19.375,107.561L19.375,95.747C19.375,92.487 22.021,89.84 25.281,89.84L227.494,89.84C230.754,89.84 233.401,92.487 233.401,95.747Z" style="fill:rgb(227,163,113);"/>
                        </g>
                        <g transform="matrix(1,0,0,1.10463,-2.75941,24.4909)">
                            <path d="M233.401,95.747L233.401,107.561C233.401,110.821 230.754,113.468 227.494,113.468L25.281,113.468C22.021,113.468 19.375,110.821 19.375,107.561L19.375,95.747C19.375,92.487 22.021,89.84 25.281,89.84L227.494,89.84C230.754,89.84 233.401,92.487 233.401,95.747Z" style="fill:rgb(227,163,113);"/>
                        </g>
                        <g transform="matrix(1,0,0,1.10463,-1.72463,73.2609)">
                            <path d="M233.401,95.747L233.401,107.561C233.401,110.821 230.754,113.468 227.494,113.468L25.281,113.468C22.021,113.468 19.375,110.821 19.375,107.561L19.375,95.747C19.375,92.487 22.021,89.84 25.281,89.84L227.494,89.84C230.754,89.84 233.401,92.487 233.401,95.747Z" style="fill:rgb(227,163,113);"/>
                        </g>
                        <g transform="matrix(1,0,0,1.10463,-0.689852,122.031)">
                            <path d="M233.401,95.747L233.401,107.561C233.401,110.821 230.754,113.468 227.494,113.468L25.281,113.468C22.021,113.468 19.375,110.821 19.375,107.561L19.375,95.747C19.375,92.487 22.021,89.84 25.281,89.84L227.494,89.84C230.754,89.84 233.401,92.487 233.401,95.747Z" style="fill:rgb(227,163,113);"/>
                        </g>
                    </g>
                    <g transform="matrix(1.46429,0,0,1.63234,-97.9291,-143.747)">
                        <path d="M151.027,187.889L151.027,233.11C151.027,238.061 146.969,242.082 141.972,242.082L123.864,242.082C118.866,242.082 114.809,238.061 114.809,233.11L114.809,187.889C114.809,182.937 118.866,178.917 123.864,178.917L141.972,178.917C146.969,178.917 151.027,182.937 151.027,187.889Z" style="fill:rgb(165,124,92);"/>
                    </g>
                    <g transform="matrix(1.39204,0,0,1.39204,-56.5561,-87.9985)">
                        <g transform="matrix(-0.438332,-0.992857,0.813677,-0.438332,101.726,442.569)">
                            <g transform="matrix(1,0,0,1.10463,31.4659,-22.9905)">
                                <path d="M148.738,164.43L148.738,186.009C148.738,186.401 148.419,186.72 148.026,186.72L146.603,186.72C146.21,186.72 145.891,186.401 145.891,186.009L145.891,164.43C145.891,164.037 146.21,163.718 146.603,163.718L148.026,163.718C148.419,163.718 148.738,164.037 148.738,164.43Z" style="fill:rgb(165,124,92);"/>
                            </g>
                            <g transform="matrix(1,0,0,1.10463,0,-24.0887)">
                                <path d="M174.02,172.915C174.501,174.919 175.35,176.683 176.318,177.969C171.324,177.969 167.271,174.145 167.271,169.435C167.271,164.725 171.324,160.901 176.318,160.901C175.35,162.186 174.501,163.95 174.02,165.955L179.31,165.955C180.27,165.955 181.05,166.735 181.05,167.695L181.05,171.175C181.05,172.135 180.27,172.915 179.31,172.915L174.02,172.915Z" style="fill:rgb(173,173,173);"/>
                            </g>
                        </g>
                        <g transform="matrix(1,0,0,1.10463,9.59871,40.017)">
                            <path d="M162.694,154.828L162.694,171.181C162.694,174.927 159.652,177.969 155.906,177.969L142.33,177.969C138.584,177.969 135.542,174.927 135.542,171.181L135.542,154.828C135.542,151.082 138.584,148.04 142.33,148.04L155.906,148.04C159.652,148.04 162.694,151.082 162.694,154.828Z" style="fill:rgb(101,71,47);"/>
                        </g>
                    </g>
                </g>
            </g>
            <g transform="matrix(0.748481,-0.630071,0.600817,0.713729,-46.5807,142.181)">
                <path d="M187.808,54.959L69.93,54.959C68.643,54.959 67.597,53.863 67.597,52.513L67.597,32.398C67.597,31.048 68.643,29.952 69.93,29.952L183.642,29.952L180.803,12.909C180.582,11.579 181.432,10.31 182.7,10.078L201.594,6.616C202.862,6.384 204.072,7.275 204.294,8.605L207.85,29.952L227.38,29.952C228.668,29.952 229.713,31.048 229.713,32.398L229.713,52.513C229.713,53.863 228.668,54.959 227.38,54.959L212.015,54.959L231.389,171.258C231.611,172.588 230.761,173.857 229.493,174.089L210.598,177.551C209.33,177.783 208.12,176.892 207.899,175.562L187.808,54.959Z" style="fill:rgb(165,124,92);"/>
            </g>
        </g>
    </g>
</svg>
