<?xml version="1.0" encoding="UTF-8" standalone="no"?>
<!DOCTYPE svg PUBLIC "-//W3C//DTD SVG 1.1//EN" "http://www.w3.org/Graphics/SVG/1.1/DTD/svg11.dtd">
<svg width="100%" height="100%" viewBox="0 0 342 342" version="1.1" xmlns="http://www.w3.org/2000/svg" xmlns:xlink="http://www.w3.org/1999/xlink" xml:space="preserve" xmlns:serif="http://www.serif.com/" style="fill-rule:evenodd;clip-rule:evenodd;stroke-linecap:round;stroke-linejoin:round;stroke-miterlimit:1.5;">
    <g transform="matrix(1.33333,0,0,1.33333,0,0)">
        <g transform="matrix(1.11465,0,0,1.11465,-14.6753,-30.1864)">
            <path d="M149.484,78.069L149.484,77.303C149.484,76.178 150.398,75.264 151.524,75.264L155.602,75.264C156.728,75.264 157.642,76.178 157.642,77.303L157.642,130.101C166.786,131.438 175.294,133.378 182.917,135.81L182.917,91.156C182.917,90.21 183.685,89.442 184.631,89.442L188.059,89.442C189.005,89.442 189.773,90.21 189.773,91.156L189.773,93.333C192.424,95.894 195.891,98.481 199.889,100.542C204.697,103.022 209.679,104.434 213.764,104.933C214.048,104.783 214.372,104.698 214.714,104.698L218.793,104.698C219.919,104.698 220.833,105.612 220.833,106.738L220.833,164.555C220.833,164.888 220.753,165.203 220.611,165.48C220.758,166.407 220.833,167.341 220.833,168.284C220.833,190.517 179.236,208.567 128,208.567C76.764,208.567 35.167,190.517 35.167,168.284C35.167,167.337 35.243,166.397 35.391,165.467C35.248,165.188 35.167,164.872 35.167,164.537L35.167,106.72C35.167,105.594 36.081,104.68 37.207,104.68L41.286,104.68C41.628,104.68 41.952,104.765 42.236,104.915C46.321,104.416 51.303,103.003 56.111,100.524C60.109,98.462 63.576,95.875 66.227,93.315L66.227,91.137C66.227,90.191 66.995,89.423 67.941,89.423L71.369,89.423C72.315,89.423 73.083,90.191 73.083,91.137L73.083,135.81C80.706,133.378 89.214,131.438 98.358,130.101L98.358,77.303C98.358,76.178 99.272,75.264 100.398,75.264L104.476,75.264C105.602,75.264 106.516,76.178 106.516,77.303L106.516,78.008L106.52,78.01C106.517,77.922 106.516,77.834 106.516,77.745C111.529,79.932 119.43,81.708 128,81.708C136.57,81.708 144.471,79.932 149.484,77.745C149.484,77.855 149.482,77.964 149.478,78.073L149.484,78.069Z" style="stroke:black;stroke-width:18.69px;"/>
            <g transform="matrix(1,0,0,1,-16.971,28.5926)">
                <ellipse cx="144.971" cy="139.691" rx="92.833" ry="40.284" style="fill:rgb(171,122,100);"/>
                <clipPath id="_clip1">
                    <ellipse cx="144.971" cy="139.691" rx="92.833" ry="40.284"/>
                </clipPath>
                <g clip-path="url(#_clip1)">
                    <g transform="matrix(0.119487,0,0,0.119487,87.4574,136.693)">
                        <ellipse cx="144.971" cy="139.691" rx="92.833" ry="40.284" style="fill:rgb(134,91,71);"/>
                    </g>
                    <g transform="matrix(0.119487,0,0,0.119487,113.759,118.186)">
                        <ellipse cx="144.971" cy="139.691" rx="92.833" ry="40.284" style="fill:rgb(134,91,71);"/>
                    </g>
                    <g transform="matrix(0.0590017,0,0,0.0590017,144.397,123.089)">
                        <ellipse cx="144.971" cy="139.691" rx="92.833" ry="40.284" style="fill:rgb(134,91,71);"/>
                    </g>
                    <g transform="matrix(0.0590017,0,0,0.0590017,115.534,136.262)">
                        <ellipse cx="144.971" cy="139.691" rx="92.833" ry="40.284" style="fill:rgb(134,91,71);"/>
                    </g>
                    <g transform="matrix(0.0590017,0,0,0.0590017,92.148,157.764)">
                        <ellipse cx="144.971" cy="139.691" rx="92.833" ry="40.284" style="fill:rgb(134,91,71);"/>
                    </g>
                    <g transform="matrix(0.0590017,0,0,0.0590017,55.936,141.016)">
                        <ellipse cx="144.971" cy="139.691" rx="92.833" ry="40.284" style="fill:rgb(134,91,71);"/>
                    </g>
                    <g transform="matrix(0.0590017,0,0,0.0590017,180.254,162.518)">
                        <ellipse cx="144.971" cy="139.691" rx="92.833" ry="40.284" style="fill:rgb(134,91,71);"/>
                    </g>
                    <g transform="matrix(0.0590017,0,0,0.0590017,191.208,145.77)">
                        <ellipse cx="144.971" cy="139.691" rx="92.833" ry="40.284" style="fill:rgb(134,91,71);"/>
                    </g>
                    <g transform="matrix(0.0590017,0,0,0.0590017,209.511,127.818)">
                        <ellipse cx="144.971" cy="139.691" rx="92.833" ry="40.284" style="fill:rgb(134,91,71);"/>
                    </g>
                    <g transform="matrix(0.119487,0,0,0.119487,67.3617,113.373)">
                        <ellipse cx="144.971" cy="139.691" rx="92.833" ry="40.284" style="fill:rgb(134,91,71);"/>
                    </g>
                    <g transform="matrix(0.119487,0,0,0.119487,93.959,99.7518)">
                        <ellipse cx="144.971" cy="139.691" rx="92.833" ry="40.284" style="fill:rgb(134,91,71);"/>
                    </g>
                    <g transform="matrix(0.119487,0,0,0.119487,133.559,146.319)">
                        <ellipse cx="144.971" cy="139.691" rx="92.833" ry="40.284" style="fill:rgb(134,91,71);"/>
                    </g>
                    <g transform="matrix(0.119487,0,0,0.119487,159.566,133.048)">
                        <ellipse cx="144.971" cy="139.691" rx="92.833" ry="40.284" style="fill:rgb(134,91,71);"/>
                    </g>
                    <g transform="matrix(0.119487,0,0,0.119487,198.969,130.092)">
                        <ellipse cx="144.971" cy="139.691" rx="92.833" ry="40.284" style="fill:rgb(134,91,71);"/>
                    </g>
                    <g transform="matrix(0.119487,0,0,0.119487,150.995,108.56)">
                        <ellipse cx="144.971" cy="139.691" rx="92.833" ry="40.284" style="fill:rgb(134,91,71);"/>
                    </g>
                    <g transform="matrix(0.119487,0,0,0.119487,130.9,90.1251)">
                        <ellipse cx="144.971" cy="139.691" rx="92.833" ry="40.284" style="fill:rgb(134,91,71);"/>
                    </g>
                    <g transform="matrix(0.119487,0,0,0.119487,179.563,98.9331)">
                        <ellipse cx="144.971" cy="139.691" rx="92.833" ry="40.284" style="fill:rgb(134,91,71);"/>
                    </g>
                    <g transform="matrix(0.119487,0,0,0.119487,179.563,115.679)">
                        <ellipse cx="144.971" cy="139.691" rx="92.833" ry="40.284" style="fill:rgb(156,113,85);"/>
                    </g>
                    <g transform="matrix(0.0604849,0,0,0.0604849,186.54,136.925)">
                        <ellipse cx="144.971" cy="139.691" rx="92.833" ry="40.284" style="fill:rgb(156,113,85);"/>
                    </g>
                    <g transform="matrix(0.0604849,0,0,0.0604849,141.817,165.928)">
                        <ellipse cx="144.971" cy="139.691" rx="92.833" ry="40.284" style="fill:rgb(156,113,85);"/>
                    </g>
                    <g transform="matrix(0.0604849,0,0,0.0604849,109.704,152.686)">
                        <ellipse cx="144.971" cy="139.691" rx="92.833" ry="40.284" style="fill:rgb(156,113,85);"/>
                    </g>
                    <g transform="matrix(0.0604849,0,0,0.0604849,77.2944,131.242)">
                        <ellipse cx="144.971" cy="139.691" rx="92.833" ry="40.284" style="fill:rgb(156,113,85);"/>
                    </g>
                    <g transform="matrix(0.0604849,0,0,0.0604849,92.0706,115.548)">
                        <ellipse cx="144.971" cy="139.691" rx="92.833" ry="40.284" style="fill:rgb(156,113,85);"/>
                    </g>
                    <g transform="matrix(0.0604849,0,0,0.0604849,120.934,104.023)">
                        <ellipse cx="144.971" cy="139.691" rx="92.833" ry="40.284" style="fill:rgb(156,113,85);"/>
                    </g>
                    <g transform="matrix(0.119487,0,0,0.119487,139.903,125.306)">
                        <ellipse cx="144.971" cy="139.691" rx="92.833" ry="40.284" style="fill:rgb(156,113,85);"/>
                    </g>
                    <g transform="matrix(0.119487,0,0,0.119487,181.927,146.119)">
                        <ellipse cx="144.971" cy="139.691" rx="92.833" ry="40.284" style="fill:rgb(156,113,85);"/>
                    </g>
                    <g transform="matrix(0.119487,0,0,0.119487,102.726,155.745)">
                        <ellipse cx="144.971" cy="139.691" rx="92.833" ry="40.284" style="fill:rgb(156,113,85);"/>
                    </g>
                    <g transform="matrix(0.119487,0,0,0.119487,60.1706,141.305)">
                        <ellipse cx="144.971" cy="139.691" rx="92.833" ry="40.284" style="fill:rgb(156,113,85);"/>
                    </g>
                    <g transform="matrix(0.119487,0,0,0.119487,40.5674,123.265)">
                        <ellipse cx="144.971" cy="139.691" rx="92.833" ry="40.284" style="fill:rgb(156,113,85);"/>
                    </g>
                    <g transform="matrix(0.119487,0,0,0.119487,71.2629,93.3181)">
                        <ellipse cx="144.971" cy="139.691" rx="92.833" ry="40.284" style="fill:rgb(156,113,85);"/>
                    </g>
                    <g transform="matrix(0.119487,0,0,0.119487,124.911,104.253)">
                        <ellipse cx="144.971" cy="139.691" rx="92.833" ry="40.284" style="fill:rgb(156,113,85);"/>
                    </g>
                    <g transform="matrix(0.119487,0,0,0.119487,159.743,88.5047)">
                        <ellipse cx="144.971" cy="139.691" rx="92.833" ry="40.284" style="fill:rgb(156,113,85);"/>
                    </g>
                    <g transform="matrix(0.119487,0,0,0.119487,222.513,122.083)">
                        <ellipse cx="144.971" cy="139.691" rx="92.833" ry="40.284" style="fill:rgb(156,113,85);"/>
                    </g>
                    <g transform="matrix(0.119487,0,0,0.119487,87.753,122.083)">
                        <ellipse cx="144.971" cy="139.691" rx="92.833" ry="40.284" style="fill:rgb(132,82,68);"/>
                    </g>
                    <g transform="matrix(0.119487,0,0,0.119487,116.557,136.465)">
                        <ellipse cx="144.971" cy="139.691" rx="92.833" ry="40.284" style="fill:rgb(132,82,68);"/>
                    </g>
                    <g transform="matrix(0.119487,0,0,0.119487,155.034,160.205)">
                        <ellipse cx="144.971" cy="139.691" rx="92.833" ry="40.284" style="fill:rgb(132,82,68);"/>
                    </g>
                    <g transform="matrix(0.0784601,0,0,0.0784601,168.266,127.814)">
                        <ellipse cx="144.971" cy="139.691" rx="92.833" ry="40.284" style="fill:rgb(132,82,68);"/>
                    </g>
                    <g transform="matrix(0.0784601,0,0,0.0784601,68.378,135.788)">
                        <ellipse cx="144.971" cy="139.691" rx="92.833" ry="40.284" style="fill:rgb(132,82,68);"/>
                    </g>
                    <g transform="matrix(0.0784601,0,0,0.0784601,104.128,117.372)">
                        <ellipse cx="144.971" cy="139.691" rx="92.833" ry="40.284" style="fill:rgb(132,82,68);"/>
                    </g>
                    <g transform="matrix(0.0784601,0,0,0.0784601,100.59,95.1088)">
                        <ellipse cx="144.971" cy="139.691" rx="92.833" ry="40.284" style="fill:rgb(132,82,68);"/>
                    </g>
                    <g transform="matrix(0.0784601,0,0,0.0784601,155.459,103.778)">
                        <ellipse cx="144.971" cy="139.691" rx="92.833" ry="40.284" style="fill:rgb(132,82,68);"/>
                    </g>
                    <g transform="matrix(0.0784601,0,0,0.0784601,210.526,148.5)">
                        <ellipse cx="144.971" cy="139.691" rx="92.833" ry="40.284" style="fill:rgb(132,82,68);"/>
                    </g>
                    <g transform="matrix(0.0784601,0,0,0.0784601,123.05,169.015)">
                        <ellipse cx="144.971" cy="139.691" rx="92.833" ry="40.284" style="fill:rgb(132,82,68);"/>
                    </g>
                    <g transform="matrix(0.0784601,0,0,0.0784601,198.409,114.211)">
                        <ellipse cx="144.971" cy="139.691" rx="92.833" ry="40.284" style="fill:rgb(132,82,68);"/>
                    </g>
                </g>
            </g>
            <g transform="matrix(1,0,0,1,13.6492,19.9799)">
                <g transform="matrix(0.9449,0,0,1,-0.473671,-22.6253)">
                    <path d="M61.803,116.736C61.832,117.013 61.846,117.294 61.846,117.579L61.846,144.318C61.846,149.132 57.71,153.04 52.616,153.04L34.157,153.04C29.062,153.04 24.927,149.132 24.927,144.318L24.927,117.579C24.927,112.765 29.062,108.857 34.157,108.857L48.559,108.857L48.559,106.471C48.559,104.739 50.048,103.332 51.881,103.332L58.524,103.332C60.358,103.332 61.846,104.739 61.846,106.471L61.846,116.232C61.846,116.404 61.832,116.572 61.803,116.736Z" style="fill:rgb(19,19,19);"/>
                </g>
                <g transform="matrix(1,0,0,1,5.68434e-14,2.4446)">
                    <path d="M59.434,68.713L59.434,126.286C59.434,127.232 58.666,128 57.72,128L54.292,128C53.346,128 52.578,127.232 52.578,126.286L52.578,68.713C52.578,67.767 53.346,66.999 54.292,66.999L57.72,66.999C58.666,66.999 59.434,67.767 59.434,68.713Z" style="fill:rgb(77,36,11);"/>
                </g>
                <g transform="matrix(0.942328,-0.515422,0.418529,0.765182,-95.511,103.275)">
                    <path d="M89.487,87.883L120.772,87.883C121.092,87.883 121.404,87.923 121.706,87.999L111.642,110.658L83.917,110.658C82.462,110.658 81.163,109.829 80.315,108.533L89.487,87.883Z" style="fill:rgb(117,63,38);"/>
                </g>
                <g transform="matrix(0.448068,0.893999,-0.635915,0.318718,79.7156,67.585)">
                    <path d="M28.576,56.437L28.576,102.642C28.576,104.612 27.438,106.212 26.036,106.212C24.635,106.212 23.497,104.612 23.497,102.642L23.497,56.437C23.497,54.466 24.635,52.867 26.036,52.867C27.438,52.867 28.576,54.466 28.576,56.437Z" style="fill:rgb(90,70,60);"/>
                </g>
                <g transform="matrix(-0.428612,-0.83125,0.842526,-0.434426,7.85774,161.204)">
                    <path d="M63.598,53.394C61.445,57.605 59.698,64.242 59.698,71.441C59.698,78.64 61.445,85.277 63.598,89.488C56.422,89.488 50.595,81.401 50.595,71.441C50.595,61.481 56.422,53.394 63.598,53.394Z" style="fill:rgb(55,117,38);"/>
                    <clipPath id="_clip2">
                        <path d="M63.598,53.394C61.445,57.605 59.698,64.242 59.698,71.441C59.698,78.64 61.445,85.277 63.598,89.488C56.422,89.488 50.595,81.401 50.595,71.441C50.595,61.481 56.422,53.394 63.598,53.394Z"/>
                    </clipPath>
                    <g clip-path="url(#_clip2)">
                        <g transform="matrix(0.368916,0.95486,-1.33377,0.528209,136.589,-55.5731)">
                            <path d="M80.699,75.778C79.614,77.343 78.732,79.81 78.732,82.486C78.732,85.162 79.614,87.629 80.699,89.194C77.081,89.194 74.143,86.188 74.143,82.486C74.143,78.783 77.081,75.778 80.699,75.778Z" style="fill:white;"/>
                        </g>
                        <g transform="matrix(0.368916,0.95486,-1.33377,0.528209,136.765,-46.8907)">
                            <path d="M80.699,75.778C79.614,77.343 78.732,79.81 78.732,82.486C78.732,85.162 79.614,87.629 80.699,89.194C77.081,89.194 74.143,86.188 74.143,82.486C74.143,78.783 77.081,75.778 80.699,75.778Z" style="fill:white;"/>
                        </g>
                        <g transform="matrix(0.556601,0.856565,-1.19647,0.796933,110.469,-52.4419)">
                            <path d="M80.699,75.778C79.614,77.343 78.732,79.81 78.732,82.486C78.732,85.162 79.614,87.629 80.699,89.194C77.081,89.194 74.143,86.188 74.143,82.486C74.143,78.783 77.081,75.778 80.699,75.778Z" style="fill:white;"/>
                        </g>
                        <g transform="matrix(0.786807,0.645525,-0.901683,1.12654,69.5275,-54.1424)">
                            <path d="M80.699,75.778C79.614,77.343 78.732,79.81 78.732,82.486C78.732,85.162 79.614,87.629 80.699,89.194C77.081,89.194 74.143,86.188 74.143,82.486C74.143,78.783 77.081,75.778 80.699,75.778Z" style="fill:white;"/>
                        </g>
                    </g>
                </g>
                <g transform="matrix(1,0,0,1,7.10543e-15,1.29117)">
                    <path d="M29.676,85.449L29.676,143.266C29.676,144.392 28.762,145.305 27.636,145.305L23.557,145.305C22.432,145.305 21.518,144.392 21.518,143.266L21.518,85.449C21.518,84.323 22.432,83.409 23.557,83.409L27.636,83.409C28.762,83.409 29.676,84.323 29.676,85.449Z" style="fill:rgb(77,36,11);"/>
                </g>
            </g>
            <g transform="matrix(-1,0,0,1,242.351,19.9981)">
                <g transform="matrix(0.9449,4.44089e-16,0,1,-0.18511,-22.6434)">
                    <path d="M61.803,116.736C61.832,117.013 61.846,117.294 61.846,117.579L61.846,144.318C61.846,149.132 57.71,153.04 52.616,153.04L34.157,153.04C29.062,153.04 24.927,149.132 24.927,144.318L24.927,117.579C24.927,112.765 29.062,108.857 34.157,108.857L48.559,108.857L48.559,106.471C48.559,104.739 50.048,103.332 51.881,103.332L58.524,103.332C60.358,103.332 61.846,104.739 61.846,106.471L61.846,116.232C61.846,116.404 61.832,116.572 61.803,116.736Z" style="fill:rgb(19,19,19);"/>
                </g>
                <g transform="matrix(1,0,0,1,5.68434e-14,2.4446)">
                    <path d="M59.434,68.713L59.434,126.286C59.434,127.232 58.666,128 57.72,128L54.292,128C53.346,128 52.578,127.232 52.578,126.286L52.578,68.713C52.578,67.767 53.346,66.999 54.292,66.999L57.72,66.999C58.666,66.999 59.434,67.767 59.434,68.713Z" style="fill:rgb(77,36,11);"/>
                </g>
                <g transform="matrix(0.942328,-0.515422,0.418529,0.765182,-95.511,103.275)">
                    <path d="M89.487,87.883L120.772,87.883C121.092,87.883 121.404,87.923 121.706,87.999L111.642,110.658L83.917,110.658C82.462,110.658 81.163,109.829 80.315,108.533L89.487,87.883Z" style="fill:rgb(117,63,38);"/>
                </g>
                <g transform="matrix(0.448068,0.893999,-0.613903,0.307685,78.3479,66.3715)">
                    <path d="M28.576,56.565L28.576,102.514C28.576,104.555 27.438,106.212 26.036,106.212C24.635,106.212 23.497,104.555 23.497,102.514L23.497,56.565C23.497,54.524 24.635,52.867 26.036,52.867C27.438,52.867 28.576,54.524 28.576,56.565Z" style="fill:rgb(90,70,60);"/>
                </g>
                <g transform="matrix(-0.428612,-0.83125,0.842526,-0.434426,7.85774,161.204)">
                    <path d="M63.598,53.394C61.445,57.605 59.698,64.242 59.698,71.441C59.698,78.64 61.445,85.277 63.598,89.488C56.422,89.488 50.595,81.401 50.595,71.441C50.595,61.481 56.422,53.394 63.598,53.394Z" style="fill:rgb(233,74,20);"/>
                    <clipPath id="_clip3">
                        <path d="M63.598,53.394C61.445,57.605 59.698,64.242 59.698,71.441C59.698,78.64 61.445,85.277 63.598,89.488C56.422,89.488 50.595,81.401 50.595,71.441C50.595,61.481 56.422,53.394 63.598,53.394Z"/>
                    </clipPath>
                    <g clip-path="url(#_clip3)">
                        <g transform="matrix(0.368916,0.95486,-1.33377,0.528209,136.589,-55.5731)">
                            <path d="M80.699,75.778C79.614,77.343 78.732,79.81 78.732,82.486C78.732,85.162 79.614,87.629 80.699,89.194C77.081,89.194 74.143,86.188 74.143,82.486C74.143,78.783 77.081,75.778 80.699,75.778Z" style="fill:white;"/>
                        </g>
                        <g transform="matrix(0.368916,0.95486,-1.33377,0.528209,136.765,-46.8907)">
                            <path d="M80.699,75.778C79.614,77.343 78.732,79.81 78.732,82.486C78.732,85.162 79.614,87.629 80.699,89.194C77.081,89.194 74.143,86.188 74.143,82.486C74.143,78.783 77.081,75.778 80.699,75.778Z" style="fill:white;"/>
                        </g>
                        <g transform="matrix(0.556601,0.856565,-1.19647,0.796933,110.469,-52.4419)">
                            <path d="M80.699,75.778C79.614,77.343 78.732,79.81 78.732,82.486C78.732,85.162 79.614,87.629 80.699,89.194C77.081,89.194 74.143,86.188 74.143,82.486C74.143,78.783 77.081,75.778 80.699,75.778Z" style="fill:white;"/>
                        </g>
                        <g transform="matrix(0.786807,0.645525,-0.901683,1.12654,69.5275,-54.1424)">
                            <path d="M80.699,75.778C79.614,77.343 78.732,79.81 78.732,82.486C78.732,85.162 79.614,87.629 80.699,89.194C77.081,89.194 74.143,86.188 74.143,82.486C74.143,78.783 77.081,75.778 80.699,75.778Z" style="fill:white;"/>
                        </g>
                    </g>
                </g>
                <g transform="matrix(1,0,0,1,7.10543e-15,1.29117)">
                    <path d="M29.676,85.449L29.676,143.266C29.676,144.392 28.762,145.305 27.636,145.305L23.557,145.305C22.432,145.305 21.518,144.392 21.518,143.266L21.518,85.449C21.518,84.323 22.432,83.409 23.557,83.409L27.636,83.409C28.762,83.409 29.676,84.323 29.676,85.449Z" style="fill:rgb(77,36,11);"/>
                </g>
            </g>
            <g transform="matrix(1,0,0,1,-0.244005,6.15678)">
                <g transform="matrix(5.55112e-17,-1,1.06125,5.89114e-17,15.3835,177.12)">
                    <path d="M100.818,127.099L100.818,130.434L64.503,130.434L64.503,82.259L100.818,82.259L100.818,85.711C102.456,85.125 104.192,84.81 105.989,84.81C103.56,88.905 101.503,94.918 100.818,101.651L100.818,111.158C101.503,117.892 103.56,123.905 105.989,128C104.192,128 102.456,127.685 100.818,127.099Z" style="fill:rgb(19,19,19);"/>
                </g>
                <g transform="matrix(1.05488,0,0,0.960201,13.1245,13.9539)">
                    <rect x="84.898" y="96.561" width="48.466" height="24.332" style="fill:rgb(117,63,38);"/>
                </g>
                <g transform="matrix(0.82464,0,0,1,28.6364,-7.63235)">
                    <path d="M149.484,112.827L149.484,115.782C149.484,116.597 148.681,117.26 147.692,117.26L94.865,117.26C93.876,117.26 93.073,116.597 93.073,115.782L93.073,112.827C93.073,112.011 93.876,111.349 94.865,111.349L147.692,111.349C148.681,111.349 149.484,112.011 149.484,112.827Z" style="fill:rgb(90,70,60);"/>
                </g>
                <g transform="matrix(6.40706e-17,-1.04635,1.157,7.08457e-17,46.2443,132.292)">
                    <path d="M58.014,52.304C55.924,56.637 54.227,63.465 54.227,70.873C54.227,78.28 55.924,85.109 58.014,89.442C51.048,89.442 45.392,81.121 45.392,70.873C45.392,60.624 51.048,52.304 58.014,52.304Z" style="fill:rgb(38,50,117);"/>
                    <clipPath id="_clip4">
                        <path d="M58.014,52.304C55.924,56.637 54.227,63.465 54.227,70.873C54.227,78.28 55.924,85.109 58.014,89.442C51.048,89.442 45.392,81.121 45.392,70.873C45.392,60.624 51.048,52.304 58.014,52.304Z"/>
                    </clipPath>
                    <g clip-path="url(#_clip4)">
                        <g transform="matrix(5.85198e-17,0.864305,-0.9557,5.29234e-17,126.431,-39.9692)">
                            <rect x="110.806" y="69.107" width="3.615" height="17.146" style="fill:white;"/>
                        </g>
                        <g transform="matrix(5.85198e-17,0.864305,-0.9557,5.29234e-17,124.06,-32.6708)">
                            <rect x="110.806" y="69.107" width="3.615" height="17.146" style="fill:white;"/>
                        </g>
                        <g transform="matrix(5.85198e-17,0.864305,-0.9557,5.29234e-17,122.974,-25.1085)">
                            <rect x="110.806" y="69.107" width="3.615" height="17.146" style="fill:white;"/>
                        </g>
                        <g transform="matrix(5.85198e-17,0.864305,-0.9557,5.29234e-17,124.998,-17.9032)">
                            <rect x="110.806" y="69.107" width="3.615" height="17.146" style="fill:white;"/>
                        </g>
                        <g transform="matrix(5.85198e-17,0.864305,-0.9557,5.29234e-17,127.021,-10.698)">
                            <rect x="110.806" y="69.107" width="3.615" height="17.146" style="fill:white;"/>
                        </g>
                    </g>
                </g>
                <g transform="matrix(-1,0,0,1,128.278,-14.302)">
                    <path d="M29.676,85.449L29.676,143.266C29.676,144.392 28.762,145.305 27.636,145.305L23.557,145.305C22.432,145.305 21.518,144.392 21.518,143.266L21.518,85.449C21.518,84.323 22.432,83.409 23.557,83.409L27.636,83.409C28.762,83.409 29.676,84.323 29.676,85.449Z" style="fill:rgb(77,36,11);"/>
                </g>
                <g transform="matrix(-1,0,0,1,179.404,-14.302)">
                    <path d="M29.676,85.449L29.676,143.266C29.676,144.392 28.762,145.305 27.636,145.305L23.557,145.305C22.432,145.305 21.518,144.392 21.518,143.266L21.518,85.449C21.518,84.323 22.432,83.409 23.557,83.409L27.636,83.409C28.762,83.409 29.676,84.323 29.676,85.449Z" style="fill:rgb(77,36,11);"/>
                </g>
            </g>
        </g>
    </g>
</svg>
