<?xml version="1.0" encoding="UTF-8" standalone="no"?>
<!DOCTYPE svg PUBLIC "-//W3C//DTD SVG 1.1//EN" "http://www.w3.org/Graphics/SVG/1.1/DTD/svg11.dtd">
<svg width="100%" height="100%" viewBox="0 0 342 342" version="1.1" xmlns="http://www.w3.org/2000/svg" xmlns:xlink="http://www.w3.org/1999/xlink" xml:space="preserve" xmlns:serif="http://www.serif.com/" style="fill-rule:evenodd;clip-rule:evenodd;stroke-linecap:round;stroke-linejoin:round;stroke-miterlimit:1.5;">
    <g transform="matrix(1.33333,0,0,1.33333,0,0)">
        <g transform="matrix(1,0,0,1,15.0842,-9.88694)">
            <path d="M50.556,105.816C46.297,103.972 43.313,99.73 43.313,94.797L43.313,43.897C43.313,40.573 46.012,37.875 49.336,37.875L54.515,37.875C57.839,37.875 60.538,40.573 60.538,43.897L60.538,50.64L73.852,50.64L73.852,43.897C73.852,40.573 76.551,37.875 79.875,37.875L85.055,37.875C88.379,37.875 91.077,40.573 91.077,43.897L91.077,50.64L104.304,50.64L104.304,43.897C104.304,40.573 107.002,37.875 110.326,37.875L115.506,37.875C118.83,37.875 121.528,40.573 121.528,43.897L121.528,50.64L134.755,50.64L134.755,43.897C134.755,40.573 137.453,37.875 140.777,37.875L145.957,37.875C149.281,37.875 151.979,40.573 151.979,43.897L151.979,50.64L165.294,50.64L165.294,43.897C165.294,40.573 167.992,37.875 171.316,37.875L176.496,37.875C179.82,37.875 182.519,40.573 182.519,43.897L182.519,94.797C182.519,99.73 179.535,103.972 175.276,105.816C174.699,110.498 170.703,114.128 165.866,114.128L162.586,114.128L162.586,225.899C162.586,232.522 157.209,237.899 150.586,237.899L75.246,237.899C68.623,237.899 63.246,232.522 63.246,225.899L63.246,114.128L59.966,114.128C55.129,114.128 51.133,110.498 50.556,105.816Z" style="stroke:black;stroke-width:20.83px;"/>
            <g transform="matrix(1.22606,0,0,1.22173,-27.6398,-39.8483)">
                <path d="M155.152,92.354L155.152,217.518C155.152,222.939 150.766,227.34 145.364,227.34L83.915,227.34C78.514,227.34 74.128,222.939 74.128,217.518L74.128,92.354C74.128,86.933 78.514,82.532 83.915,82.532L145.364,82.532C150.766,82.532 155.152,86.933 155.152,92.354Z" style="fill:rgb(98,98,98);"/>
                <clipPath id="_clip1">
                    <path d="M155.152,92.354L155.152,217.518C155.152,222.939 150.766,227.34 145.364,227.34L83.915,227.34C78.514,227.34 74.128,222.939 74.128,217.518L74.128,92.354C74.128,86.933 78.514,82.532 83.915,82.532L145.364,82.532C150.766,82.532 155.152,86.933 155.152,92.354Z"/>
                </clipPath>
                <g clip-path="url(#_clip1)">
                    <g>
                        <g transform="matrix(0.237363,0,0,0.0796886,121.294,203.18)">
                            <path d="M155.152,122.407L155.152,187.465C155.152,209.473 149.174,227.34 141.812,227.34L87.468,227.34C80.105,227.34 74.128,209.473 74.128,187.465L74.128,122.407C74.128,100.399 80.105,82.532 87.468,82.532L141.812,82.532C149.174,82.532 155.152,100.399 155.152,122.407Z" style="fill:rgb(76,76,76);"/>
                        </g>
                        <g transform="matrix(0.237363,0,0,0.0796886,73.0608,197.411)">
                            <path d="M155.152,122.407L155.152,187.465C155.152,209.473 149.174,227.34 141.812,227.34L87.468,227.34C80.105,227.34 74.128,209.473 74.128,187.465L74.128,122.407C74.128,100.399 80.105,82.532 87.468,82.532L141.812,82.532C149.174,82.532 155.152,100.399 155.152,122.407Z" style="fill:rgb(76,76,76);"/>
                        </g>
                        <g transform="matrix(0.237363,0,0,0.0796886,51.014,214.993)">
                            <path d="M155.152,122.407L155.152,187.465C155.152,209.473 149.174,227.34 141.812,227.34L87.468,227.34C80.105,227.34 74.128,209.473 74.128,187.465L74.128,122.407C74.128,100.399 80.105,82.532 87.468,82.532L141.812,82.532C149.174,82.532 155.152,100.399 155.152,122.407Z" style="fill:rgb(76,76,76);"/>
                        </g>
                        <g transform="matrix(0.237363,0,0,0.0796886,49.3043,182.844)">
                            <path d="M155.152,122.407L155.152,187.465C155.152,209.473 149.174,227.34 141.812,227.34L87.468,227.34C80.105,227.34 74.128,209.473 74.128,187.465L74.128,122.407C74.128,100.399 80.105,82.532 87.468,82.532L141.812,82.532C149.174,82.532 155.152,100.399 155.152,122.407Z" style="fill:rgb(76,76,76);"/>
                        </g>
                        <g transform="matrix(0.237363,0,0,0.0796886,75.6831,177.075)">
                            <path d="M155.152,122.407L155.152,187.465C155.152,209.473 149.174,227.34 141.812,227.34L87.468,227.34C80.105,227.34 74.128,209.473 74.128,187.465L74.128,122.407C74.128,100.399 80.105,82.532 87.468,82.532L141.812,82.532C149.174,82.532 155.152,100.399 155.152,122.407Z" style="fill:rgb(76,76,76);"/>
                        </g>
                        <g transform="matrix(0.237363,0,0,0.0796886,103.579,185.871)">
                            <path d="M155.152,122.407L155.152,187.465C155.152,209.473 149.174,227.34 141.812,227.34L87.468,227.34C80.105,227.34 74.128,209.473 74.128,187.465L74.128,122.407C74.128,100.399 80.105,82.532 87.468,82.532L141.812,82.532C149.174,82.532 155.152,100.399 155.152,122.407Z" style="fill:rgb(76,76,76);"/>
                        </g>
                        <g transform="matrix(0.237363,0,0,0.0796886,121.294,169.255)">
                            <path d="M155.152,122.407L155.152,187.465C155.152,209.473 149.174,227.34 141.812,227.34L87.468,227.34C80.105,227.34 74.128,209.473 74.128,187.465L74.128,122.407C74.128,100.399 80.105,82.532 87.468,82.532L141.812,82.532C149.174,82.532 155.152,100.399 155.152,122.407Z" style="fill:rgb(76,76,76);"/>
                        </g>
                        <g transform="matrix(0.237363,0,0,0.0796886,94.9151,157.715)">
                            <path d="M155.152,122.407L155.152,187.465C155.152,209.473 149.174,227.34 141.812,227.34L87.468,227.34C80.105,227.34 74.128,209.473 74.128,187.465L74.128,122.407C74.128,100.399 80.105,82.532 87.468,82.532L141.812,82.532C149.174,82.532 155.152,100.399 155.152,122.407Z" style="fill:rgb(76,76,76);"/>
                        </g>
                        <g transform="matrix(0.237363,0,0,0.0796886,66.0671,161.869)">
                            <path d="M155.152,122.407L155.152,187.465C155.152,209.473 149.174,227.34 141.812,227.34L87.468,227.34C80.105,227.34 74.128,209.473 74.128,187.465L74.128,122.407C74.128,100.399 80.105,82.532 87.468,82.532L141.812,82.532C149.174,82.532 155.152,100.399 155.152,122.407Z" style="fill:rgb(76,76,76);"/>
                        </g>
                        <g transform="matrix(0.237363,0,0,0.0796886,49.3043,146.176)">
                            <path d="M155.152,122.407L155.152,187.465C155.152,209.473 149.174,227.34 141.812,227.34L87.468,227.34C80.105,227.34 74.128,209.473 74.128,187.465L74.128,122.407C74.128,100.399 80.105,82.532 87.468,82.532L141.812,82.532C149.174,82.532 155.152,100.399 155.152,122.407Z" style="fill:rgb(76,76,76);"/>
                        </g>
                        <g transform="matrix(0.237363,0,0,0.0796886,75.6831,134.636)">
                            <path d="M155.152,122.407L155.152,187.465C155.152,209.473 149.174,227.34 141.812,227.34L87.468,227.34C80.105,227.34 74.128,209.473 74.128,187.465L74.128,122.407C74.128,100.399 80.105,82.532 87.468,82.532L141.812,82.532C149.174,82.532 155.152,100.399 155.152,122.407Z" style="fill:rgb(76,76,76);"/>
                        </g>
                        <g transform="matrix(0.237363,0,0,0.0796886,102.062,140.406)">
                            <path d="M155.152,122.407L155.152,187.465C155.152,209.473 149.174,227.34 141.812,227.34L87.468,227.34C80.105,227.34 74.128,209.473 74.128,187.465L74.128,122.407C74.128,100.399 80.105,82.532 87.468,82.532L141.812,82.532C149.174,82.532 155.152,100.399 155.152,122.407Z" style="fill:rgb(76,76,76);"/>
                        </g>
                        <g transform="matrix(0.237363,0,0,0.0796886,125.549,151.945)">
                            <path d="M155.152,122.407L155.152,187.465C155.152,209.473 149.174,227.34 141.812,227.34L87.468,227.34C80.105,227.34 74.128,209.473 74.128,187.465L74.128,122.407C74.128,100.399 80.105,82.532 87.468,82.532L141.812,82.532C149.174,82.532 155.152,100.399 155.152,122.407Z" style="fill:rgb(76,76,76);"/>
                        </g>
                        <g transform="matrix(0.237363,0,0,0.0796886,129.148,128.866)">
                            <path d="M155.152,122.407L155.152,187.465C155.152,209.473 149.174,227.34 141.812,227.34L87.468,227.34C80.105,227.34 74.128,209.473 74.128,187.465L74.128,122.407C74.128,100.399 80.105,82.532 87.468,82.532L141.812,82.532C149.174,82.532 155.152,100.399 155.152,122.407Z" style="fill:rgb(76,76,76);"/>
                        </g>
                        <g transform="matrix(0.237363,0,0,0.0796886,106.317,120.692)">
                            <path d="M155.152,122.407L155.152,187.465C155.152,209.473 149.174,227.34 141.812,227.34L87.468,227.34C80.105,227.34 74.128,209.473 74.128,187.465L74.128,122.407C74.128,100.399 80.105,82.532 87.468,82.532L141.812,82.532C149.174,82.532 155.152,100.399 155.152,122.407Z" style="fill:rgb(76,76,76);"/>
                        </g>
                        <g transform="matrix(0.237363,0,0,0.0796886,82.83,112.835)">
                            <path d="M155.152,122.407L155.152,187.465C155.152,209.473 149.174,227.34 141.812,227.34L87.468,227.34C80.105,227.34 74.128,209.473 74.128,187.465L74.128,122.407C74.128,100.399 80.105,82.532 87.468,82.532L141.812,82.532C149.174,82.532 155.152,100.399 155.152,122.407Z" style="fill:rgb(76,76,76);"/>
                        </g>
                        <g transform="matrix(0.237363,0,0,0.0796886,51.6045,124.375)">
                            <path d="M155.152,122.407L155.152,187.465C155.152,209.473 149.174,227.34 141.812,227.34L87.468,227.34C80.105,227.34 74.128,209.473 74.128,187.465L74.128,122.407C74.128,100.399 80.105,82.532 87.468,82.532L141.812,82.532C149.174,82.532 155.152,100.399 155.152,122.407Z" style="fill:rgb(76,76,76);"/>
                        </g>
                    </g>
                    <g transform="matrix(0.290673,0,0,0.26553,81.3171,171.397)">
                        <path d="M155.152,107.042L155.152,202.83C155.152,216.357 145.154,227.34 132.841,227.34L96.439,227.34C84.125,227.34 74.128,216.357 74.128,202.83L74.128,107.042C74.128,93.515 84.125,82.532 96.439,82.532L132.841,82.532C145.154,82.532 155.152,93.515 155.152,107.042Z" style="fill:rgb(49,49,49);"/>
                    </g>
                </g>
            </g>
            <g transform="matrix(0.827771,0,0,2.26242,34.4308,-139.873)">
                <path d="M45.313,112.269L30.848,112.269C24.526,112.269 19.394,110.392 19.394,108.079L19.394,101.592C19.394,99.279 24.526,97.401 30.848,97.401L158.781,97.401C165.103,97.401 170.236,99.279 170.236,101.592L170.236,108.079C170.236,110.392 165.103,112.269 158.781,112.269L145.521,112.269C145.506,112.294 145.489,112.319 145.471,112.344L141.409,117.891C140.756,118.783 138.247,119.313 135.809,119.074C133.372,118.835 131.923,117.917 132.576,117.025L136.059,112.269L99.387,112.269L99.387,117.459C99.387,118.382 97.338,119.131 94.815,119.131C92.291,119.131 90.243,118.382 90.243,117.459L90.243,112.269L54.775,112.269L58.258,117.025C58.911,117.917 57.462,118.835 55.025,119.074C52.587,119.313 50.078,118.783 49.425,117.891L45.362,112.344C45.344,112.319 45.328,112.294 45.313,112.269Z" style="fill:rgb(125,82,41);"/>
            </g>
            <g transform="matrix(1,0,0,0.911206,1.42109e-14,8.22725)">
                <path d="M43.313,95.006L43.313,39.146C43.313,35.498 46.012,32.537 49.336,32.537L54.515,32.537C57.839,32.537 60.538,35.498 60.538,39.146L60.538,46.545L73.852,46.545L73.852,39.146C73.852,35.498 76.551,32.537 79.875,32.537L85.055,32.537C88.379,32.537 91.077,35.498 91.077,39.146L91.077,46.545L104.304,46.545L104.304,39.146C104.304,35.498 107.002,32.537 110.326,32.537L115.506,32.537C118.83,32.537 121.528,35.498 121.528,39.146L121.528,46.545L134.755,46.545L134.755,39.146C134.755,35.498 137.453,32.537 140.777,32.537L145.957,32.537C149.281,32.537 151.979,35.498 151.979,39.146L151.979,46.545L165.294,46.545L165.294,39.146C165.294,35.498 167.992,32.537 171.316,32.537L176.496,32.537C179.82,32.537 182.519,35.498 182.519,39.146L182.519,95.006C182.519,102.274 177.141,108.175 170.519,108.175L55.313,108.175C48.69,108.175 43.313,102.274 43.313,95.006Z" style="fill:rgb(98,98,98);"/>
                <clipPath id="_clip2">
                    <path d="M43.313,95.006L43.313,39.146C43.313,35.498 46.012,32.537 49.336,32.537L54.515,32.537C57.839,32.537 60.538,35.498 60.538,39.146L60.538,46.545L73.852,46.545L73.852,39.146C73.852,35.498 76.551,32.537 79.875,32.537L85.055,32.537C88.379,32.537 91.077,35.498 91.077,39.146L91.077,46.545L104.304,46.545L104.304,39.146C104.304,35.498 107.002,32.537 110.326,32.537L115.506,32.537C118.83,32.537 121.528,35.498 121.528,39.146L121.528,46.545L134.755,46.545L134.755,39.146C134.755,35.498 137.453,32.537 140.777,32.537L145.957,32.537C149.281,32.537 151.979,35.498 151.979,39.146L151.979,46.545L165.294,46.545L165.294,39.146C165.294,35.498 167.992,32.537 171.316,32.537L176.496,32.537C179.82,32.537 182.519,35.498 182.519,39.146L182.519,95.006C182.519,102.274 177.141,108.175 170.519,108.175L55.313,108.175C48.69,108.175 43.313,102.274 43.313,95.006Z"/>
                </clipPath>
                <g clip-path="url(#_clip2)">
                    <g transform="matrix(0.291022,0,0,0.106845,23.8408,89.7269)">
                        <path d="M155.152,122.407L155.152,187.465C155.152,209.473 149.174,227.34 141.812,227.34L87.468,227.34C80.105,227.34 74.128,209.473 74.128,187.465L74.128,122.407C74.128,100.399 80.105,82.532 87.468,82.532L141.812,82.532C149.174,82.532 155.152,100.399 155.152,122.407Z" style="fill:rgb(76,76,76);"/>
                    </g>
                    <g transform="matrix(0.291022,0,0,0.106845,59.2102,81.9909)">
                        <path d="M155.152,122.407L155.152,187.465C155.152,209.473 149.174,227.34 141.812,227.34L87.468,227.34C80.105,227.34 74.128,209.473 74.128,187.465L74.128,122.407C74.128,100.399 80.105,82.532 87.468,82.532L141.812,82.532C149.174,82.532 155.152,100.399 155.152,122.407Z" style="fill:rgb(76,76,76);"/>
                    </g>
                    <g transform="matrix(0.291022,0,0,0.106845,94.6373,70.4853)">
                        <path d="M155.152,122.407L155.152,187.465C155.152,209.473 149.174,227.34 141.812,227.34L87.468,227.34C80.105,227.34 74.128,209.473 74.128,187.465L74.128,122.407C74.128,100.399 80.105,82.532 87.468,82.532L141.812,82.532C149.174,82.532 155.152,100.399 155.152,122.407Z" style="fill:rgb(76,76,76);"/>
                    </g>
                    <g transform="matrix(0.291022,0,0,0.106845,101.698,91.621)">
                        <path d="M155.152,122.407L155.152,187.465C155.152,209.473 149.174,227.34 141.812,227.34L87.468,227.34C80.105,227.34 74.128,209.473 74.128,187.465L74.128,122.407C74.128,100.399 80.105,82.532 87.468,82.532L141.812,82.532C149.174,82.532 155.152,100.399 155.152,122.407Z" style="fill:rgb(76,76,76);"/>
                    </g>
                    <g transform="matrix(0.291022,0,0,0.106845,135.04,78.2213)">
                        <path d="M155.152,122.407L155.152,187.465C155.152,209.473 149.174,227.34 141.812,227.34L87.468,227.34C80.105,227.34 74.128,209.473 74.128,187.465L74.128,122.407C74.128,100.399 80.105,82.532 87.468,82.532L141.812,82.532C149.174,82.532 155.152,100.399 155.152,122.407Z" style="fill:rgb(76,76,76);"/>
                    </g>
                    <g transform="matrix(0.291022,0,0,0.106845,144.712,49.8883)">
                        <path d="M155.152,122.407L155.152,187.465C155.152,209.473 149.174,227.34 141.812,227.34L87.468,227.34C80.105,227.34 74.128,209.473 74.128,187.465L74.128,122.407C74.128,100.399 80.105,82.532 87.468,82.532L141.812,82.532C149.174,82.532 155.152,100.399 155.152,122.407Z" style="fill:rgb(76,76,76);"/>
                    </g>
                    <g transform="matrix(0.291022,0,0,0.106845,108.371,47.7125)">
                        <path d="M155.152,122.407L155.152,187.465C155.152,209.473 149.174,227.34 141.812,227.34L87.468,227.34C80.105,227.34 74.128,209.473 74.128,187.465L74.128,122.407C74.128,100.399 80.105,82.532 87.468,82.532L141.812,82.532C149.174,82.532 155.152,100.399 155.152,122.407Z" style="fill:rgb(76,76,76);"/>
                    </g>
                    <g transform="matrix(0.291022,0,0,0.106845,67.7634,53.8018)">
                        <path d="M155.152,122.407L155.152,187.465C155.152,209.473 149.174,227.34 141.812,227.34L87.468,227.34C80.105,227.34 74.128,209.473 74.128,187.465L74.128,122.407C74.128,100.399 80.105,82.532 87.468,82.532L141.812,82.532C149.174,82.532 155.152,100.399 155.152,122.407Z" style="fill:rgb(76,76,76);"/>
                    </g>
                    <g transform="matrix(0.291022,0,0,0.106845,29.8831,59.161)">
                        <path d="M155.152,122.407L155.152,187.465C155.152,209.473 149.174,227.34 141.812,227.34L87.468,227.34C80.105,227.34 74.128,209.473 74.128,187.465L74.128,122.407C74.128,100.399 80.105,82.532 87.468,82.532L141.812,82.532C149.174,82.532 155.152,100.399 155.152,122.407Z" style="fill:rgb(76,76,76);"/>
                    </g>
                    <g transform="matrix(0.291022,0,0,0.106845,9.95048,37.8198)">
                        <path d="M155.152,122.407L155.152,187.465C155.152,209.473 149.174,227.34 141.812,227.34L87.468,227.34C80.105,227.34 74.128,209.473 74.128,187.465L74.128,122.407C74.128,100.399 80.105,82.532 87.468,82.532L141.812,82.532C149.174,82.532 155.152,100.399 155.152,122.407Z" style="fill:rgb(76,76,76);"/>
                    </g>
                    <g transform="matrix(0.291022,0,0,0.106845,58.3566,30.0838)">
                        <path d="M155.152,122.407L155.152,187.465C155.152,209.473 149.174,227.34 141.812,227.34L87.468,227.34C80.105,227.34 74.128,209.473 74.128,187.465L74.128,122.407C74.128,100.399 80.105,82.532 87.468,82.532L141.812,82.532C149.174,82.532 155.152,100.399 155.152,122.407Z" style="fill:rgb(76,76,76);"/>
                    </g>
                    <g transform="matrix(0.291022,0,0,0.106845,97.6782,26.6803)">
                        <path d="M155.152,122.407L155.152,187.465C155.152,209.473 149.174,227.34 141.812,227.34L87.468,227.34C80.105,227.34 74.128,209.473 74.128,187.465L74.128,122.407C74.128,100.399 80.105,82.532 87.468,82.532L141.812,82.532C149.174,82.532 155.152,100.399 155.152,122.407Z" style="fill:rgb(76,76,76);"/>
                    </g>
                    <g transform="matrix(0.291022,0,0,0.106845,151.188,26.6803)">
                        <path d="M155.152,122.407L155.152,187.465C155.152,209.473 149.174,227.34 141.812,227.34L87.468,227.34C80.105,227.34 74.128,209.473 74.128,187.465L74.128,122.407C74.128,100.399 80.105,82.532 87.468,82.532L141.812,82.532C149.174,82.532 155.152,100.399 155.152,122.407Z" style="fill:rgb(76,76,76);"/>
                    </g>
                </g>
            </g>
        </g>
    </g>
</svg>
