<?xml version="1.0" encoding="UTF-8" standalone="no"?>
<!DOCTYPE svg PUBLIC "-//W3C//DTD SVG 1.1//EN" "http://www.w3.org/Graphics/SVG/1.1/DTD/svg11.dtd">
<svg width="100%" height="100%" viewBox="0 0 342 342" version="1.1" xmlns="http://www.w3.org/2000/svg" xmlns:xlink="http://www.w3.org/1999/xlink" xml:space="preserve" xmlns:serif="http://www.serif.com/" style="fill-rule:evenodd;clip-rule:evenodd;stroke-linecap:round;stroke-linejoin:round;stroke-miterlimit:1.5;">
    <g transform="matrix(1.33333,0,0,1.33333,0,0)">
        <g transform="matrix(1,0,0,1,-0.540192,3.76069)">
            <path d="M47.514,221.707C45.943,221.708 44.35,221.31 42.893,220.468C38.475,217.917 36.959,212.26 39.51,207.842L117.867,72.122L99.689,40.637C97.138,36.219 98.654,30.561 103.072,28.01C107.49,25.46 113.148,26.976 115.699,31.394L128.54,53.636L141.382,31.394C143.933,26.976 149.59,25.46 154.008,28.01C158.426,30.561 159.942,36.219 157.391,40.637L139.213,72.122L217.571,207.842C220.122,212.26 218.606,217.917 214.188,220.468C212.714,221.319 211.103,221.717 209.515,221.706L47.514,221.707Z" style="stroke:black;stroke-width:20.83px;"/>
            <g transform="matrix(0.467144,0.269705,-0.733363,1.27022,133.275,-18.574)">
                <path d="M93.605,26.74L93.605,165.651C93.605,169.129 85.926,171.953 76.469,171.953C67.011,171.953 59.333,169.129 59.333,165.651L59.333,26.74C59.333,23.261 67.011,20.438 76.469,20.438C85.926,20.438 93.605,23.261 93.605,26.74Z" style="fill:rgb(207,161,125);"/>
            </g>
            <g transform="matrix(-0.467144,0.269705,0.733363,1.27022,123.806,-18.574)">
                <path d="M93.605,26.74L93.605,165.651C93.605,169.129 85.926,171.953 76.469,171.953C67.011,171.953 59.333,169.129 59.333,165.651L59.333,26.74C59.333,23.261 67.011,20.438 76.469,20.438C85.926,20.438 93.605,23.261 93.605,26.74Z" style="fill:rgb(207,161,125);"/>
            </g>
            <g transform="matrix(0.467144,0.269705,-0.596066,1.03242,109.666,22.3171)">
                <path d="M85.037,170.914C82.516,171.575 79.589,171.953 76.469,171.953C67.011,171.953 59.333,168.478 59.333,164.199L59.333,28.191C59.333,23.912 67.011,20.438 76.469,20.438C80.371,20.438 83.97,21.029 86.852,22.025L345.211,89.517C353.401,91.657 356.212,96.403 351.483,100.109C349.906,101.345 347.688,102.31 345.129,102.968L85.037,170.914Z" style="fill:rgb(185,171,161);"/>
                <clipPath id="_clip1">
                    <path d="M85.037,170.914C82.516,171.575 79.589,171.953 76.469,171.953C67.011,171.953 59.333,168.478 59.333,164.199L59.333,28.191C59.333,23.912 67.011,20.438 76.469,20.438C80.371,20.438 83.97,21.029 86.852,22.025L345.211,89.517C353.401,91.657 356.212,96.403 351.483,100.109C349.906,101.345 347.688,102.31 345.129,102.968L85.037,170.914Z"/>
                </clipPath>
                <g clip-path="url(#_clip1)">
                    <g transform="matrix(0.857252,3.99118e-17,-1.59647e-16,0.857252,39.4849,26.4247)">
                        <path d="M93.605,41.694L93.605,164.199C93.605,168.478 85.926,171.953 76.469,171.953C67.011,171.953 59.333,168.478 59.333,164.199L59.333,28.191C59.333,23.912 67.011,20.438 76.469,20.438C80.371,20.438 83.97,21.029 86.852,22.025L345.211,89.517C353.401,91.657 356.212,96.403 351.483,100.109C346.754,103.815 336.266,105.086 328.075,102.947L93.605,41.694Z" style="fill:rgb(137,165,123);"/>
                    </g>
                    <g transform="matrix(0.626818,2.91833e-17,-1.16733e-16,0.626818,112.068,76.0125)">
                        <path d="M93.605,124.219L93.605,164.199C93.605,168.478 85.926,171.953 76.469,171.953C67.011,171.953 59.333,168.478 59.333,164.199L59.333,28.191C59.333,23.912 67.011,20.438 76.469,20.438C80.371,20.438 83.97,21.029 86.852,22.025L345.211,89.517C353.401,91.657 356.212,96.403 351.483,100.109C346.754,103.815 336.266,105.086 328.075,102.947L251.554,82.957L93.605,124.219Z" style="fill:rgb(58,58,58);"/>
                    </g>
                </g>
            </g>
        </g>
    </g>
</svg>
