<?xml version="1.0" encoding="UTF-8" standalone="no"?>
<!DOCTYPE svg PUBLIC "-//W3C//DTD SVG 1.1//EN" "http://www.w3.org/Graphics/SVG/1.1/DTD/svg11.dtd">
<svg width="100%" height="100%" viewBox="0 0 342 342" version="1.1" xmlns="http://www.w3.org/2000/svg" xmlns:xlink="http://www.w3.org/1999/xlink" xml:space="preserve" xmlns:serif="http://www.serif.com/" style="fill-rule:evenodd;clip-rule:evenodd;stroke-linecap:round;stroke-linejoin:round;stroke-miterlimit:1.5;">
    <g transform="matrix(1.33333,0,0,1.33333,0,0)">
        <g transform="matrix(1.42048,0,0,1.42048,-57.5534,-87.2839)">
            <g>
                <path d="M95.769,176.205C73.38,174.945 56.13,167.231 56.13,157.915C56.13,149.785 69.269,142.875 87.495,140.41C85.698,140.004 84.019,139.523 82.483,138.978C82.458,139.189 82.44,139.394 82.43,139.591C82.47,139.756 82.511,139.918 82.554,140.075L80.33,140.075C80.312,139.44 80.235,138.741 80.085,138.022C75.437,135.943 72.606,133.189 72.606,130.17C72.606,128.457 73.516,126.83 75.152,125.364L79.577,120.617C82.536,116.845 91.303,114.108 101.645,114.108C111.916,114.108 120.632,116.808 123.651,120.539L126.774,123.889L128.559,121.973C130.163,119.93 134.912,118.447 140.515,118.447C146.08,118.447 150.802,119.91 152.438,121.931L155.501,125.217L155.487,125.231C155.961,125.836 156.218,126.48 156.218,127.149C156.218,127.45 156.165,127.747 156.065,128.038C157.044,128.013 158.031,128 159.026,128C184.469,128 205.125,136.276 205.125,146.47C205.125,152.589 197.683,158.017 186.232,161.379C186.185,161.7 186.154,162.009 186.138,162.3C186.178,162.465 186.22,162.627 186.262,162.784L184.039,162.784C184.032,162.531 184.015,162.268 183.988,161.997C183.658,162.083 183.325,162.167 182.989,162.249C186.121,164.742 187.886,167.557 187.886,170.537C187.886,178.374 175.677,185.077 158.471,187.758C158.437,188.023 158.413,188.279 158.399,188.523C158.44,188.688 158.481,188.85 158.524,189.007L156.3,189.007C156.292,188.711 156.271,188.4 156.235,188.08C151.69,188.682 146.832,189.007 141.787,189.007C121.374,189.007 104.042,183.68 97.987,176.308L97.974,176.308C97.982,176.341 97.991,176.373 98,176.405L95.777,176.405C95.775,176.339 95.772,176.273 95.769,176.205ZM130.259,132.041C130.297,132.029 130.335,132.017 130.373,132.005C130.344,131.994 130.315,131.984 130.285,131.974C130.277,131.997 130.268,132.019 130.259,132.041Z" style="stroke:black;stroke-width:14.67px;"/>
                <path d="M97.987,176.308C74.53,175.449 56.13,167.536 56.13,157.915C56.13,147.721 76.787,139.445 102.229,139.445C106.886,139.445 111.383,139.722 115.622,140.238C122.009,133.106 139.041,128 159.026,128C184.469,128 205.125,136.276 205.125,146.47C205.125,153.149 196.259,159.005 182.989,162.249C186.121,164.742 187.886,167.557 187.886,170.537C187.886,180.731 167.23,189.007 141.787,189.007C121.374,189.007 104.042,183.68 97.987,176.308Z" style="fill:rgb(142,188,206);"/>
                <clipPath id="_clip1">
                    <path d="M97.987,176.308C74.53,175.449 56.13,167.536 56.13,157.915C56.13,147.721 76.787,139.445 102.229,139.445C106.886,139.445 111.383,139.722 115.622,140.238C122.009,133.106 139.041,128 159.026,128C184.469,128 205.125,136.276 205.125,146.47C205.125,153.149 196.259,159.005 182.989,162.249C186.121,164.742 187.886,167.557 187.886,170.537C187.886,180.731 167.23,189.007 141.787,189.007C121.374,189.007 104.042,183.68 97.987,176.308Z"/>
                </clipPath>
                <g clip-path="url(#_clip1)">
                    <g transform="matrix(0.500624,0,0,0.500624,27.1965,72.7272)">
                        <ellipse cx="116.168" cy="159.965" rx="14.46" ry="8.408" style="fill:none;stroke:rgb(167,205,220);stroke-width:1.78px;"/>
                    </g>
                    <g transform="matrix(0.680248,0,0,0.680248,41.6147,58.1128)">
                        <ellipse cx="116.168" cy="159.965" rx="14.46" ry="8.408" style="fill:none;stroke:rgb(167,205,220);stroke-width:1.31px;"/>
                    </g>
                    <g transform="matrix(0.924323,0,0,0.924323,55.6897,-2.82161)">
                        <ellipse cx="116.168" cy="159.965" rx="14.46" ry="8.408" style="fill:none;stroke:rgb(167,205,220);stroke-width:0.96px;"/>
                    </g>
                    <g transform="matrix(0.71353,0,0,0.71353,83.225,57.0612)">
                        <ellipse cx="116.168" cy="159.965" rx="14.46" ry="8.408" style="fill:none;stroke:rgb(167,205,220);stroke-width:1.25px;"/>
                    </g>
                    <g transform="matrix(1,0,0,1,2.84217e-14,3.53055)">
                        <path d="M135.257,146.866L130.817,146.866C130.592,146.477 130.474,146.035 130.474,145.585C130.474,144.17 131.623,143.021 133.037,143.021C134.452,143.021 135.601,144.17 135.601,145.585C135.601,146.035 135.482,146.477 135.257,146.866Z" style="fill:rgb(167,205,220);"/>
                    </g>
                    <g transform="matrix(1.51646,0,0,1.51646,-98.8051,-62.2275)">
                        <path d="M135.257,146.866L130.817,146.866C130.592,146.477 130.474,146.035 130.474,145.585C130.474,144.17 131.623,143.021 133.037,143.021C134.452,143.021 135.601,144.17 135.601,145.585C135.601,146.035 135.482,146.477 135.257,146.866Z" style="fill:rgb(167,205,220);"/>
                    </g>
                    <g transform="matrix(1.34974,0,0,1.34974,3.73039,-47.1616)">
                        <path d="M135.257,146.866L130.817,146.866C130.592,146.477 130.474,146.035 130.474,145.585C130.474,144.17 131.623,143.021 133.037,143.021C134.452,143.021 135.601,144.17 135.601,145.585C135.601,146.035 135.482,146.477 135.257,146.866Z" style="fill:rgb(167,205,220);"/>
                    </g>
                </g>
                <path d="M97.987,176.308C74.53,175.449 56.13,167.536 56.13,157.915C56.13,147.721 76.787,139.445 102.229,139.445C106.886,139.445 111.383,139.722 115.622,140.238C122.009,133.106 139.041,128 159.026,128C184.469,128 205.125,136.276 205.125,146.47C205.125,153.149 196.259,159.005 182.989,162.249C186.121,164.742 187.886,167.557 187.886,170.537C187.886,180.731 167.23,189.007 141.787,189.007C121.374,189.007 104.042,183.68 97.987,176.308Z" style="fill:rgb(142,188,206);"/>
                <clipPath id="_clip2">
                    <path d="M97.987,176.308C74.53,175.449 56.13,167.536 56.13,157.915C56.13,147.721 76.787,139.445 102.229,139.445C106.886,139.445 111.383,139.722 115.622,140.238C122.009,133.106 139.041,128 159.026,128C184.469,128 205.125,136.276 205.125,146.47C205.125,153.149 196.259,159.005 182.989,162.249C186.121,164.742 187.886,167.557 187.886,170.537C187.886,180.731 167.23,189.007 141.787,189.007C121.374,189.007 104.042,183.68 97.987,176.308Z"/>
                </clipPath>
                <g clip-path="url(#_clip2)">
                    <g transform="matrix(0.500624,0,0,0.500624,27.1965,72.7272)">
                        <ellipse cx="116.168" cy="159.965" rx="14.46" ry="8.408" style="fill:none;stroke:rgb(167,205,220);stroke-width:1.78px;"/>
                    </g>
                    <g transform="matrix(0.680248,0,0,0.680248,41.6147,58.1128)">
                        <ellipse cx="116.168" cy="159.965" rx="14.46" ry="8.408" style="fill:none;stroke:rgb(167,205,220);stroke-width:1.31px;"/>
                    </g>
                    <g transform="matrix(0.924323,0,0,0.924323,55.6897,-2.82161)">
                        <ellipse cx="116.168" cy="159.965" rx="14.46" ry="8.408" style="fill:none;stroke:rgb(167,205,220);stroke-width:0.96px;"/>
                    </g>
                    <g transform="matrix(0.71353,0,0,0.71353,83.225,57.0612)">
                        <ellipse cx="116.168" cy="159.965" rx="14.46" ry="8.408" style="fill:none;stroke:rgb(167,205,220);stroke-width:1.25px;"/>
                    </g>
                    <g transform="matrix(1,0,0,1,2.84217e-14,3.53055)">
                        <path d="M135.257,146.866L130.817,146.866C130.592,146.477 130.474,146.035 130.474,145.585C130.474,144.17 131.623,143.021 133.037,143.021C134.452,143.021 135.601,144.17 135.601,145.585C135.601,146.035 135.482,146.477 135.257,146.866Z" style="fill:rgb(167,205,220);"/>
                    </g>
                    <g transform="matrix(1.51646,0,0,1.51646,-98.8051,-62.2275)">
                        <path d="M135.257,146.866L130.817,146.866C130.592,146.477 130.474,146.035 130.474,145.585C130.474,144.17 131.623,143.021 133.037,143.021C134.452,143.021 135.601,144.17 135.601,145.585C135.601,146.035 135.482,146.477 135.257,146.866Z" style="fill:rgb(167,205,220);"/>
                    </g>
                    <g transform="matrix(1.34974,0,0,1.34974,3.73039,-47.1616)">
                        <path d="M135.257,146.866L130.817,146.866C130.592,146.477 130.474,146.035 130.474,145.585C130.474,144.17 131.623,143.021 133.037,143.021C134.452,143.021 135.601,144.17 135.601,145.585C135.601,146.035 135.482,146.477 135.257,146.866Z" style="fill:rgb(167,205,220);"/>
                    </g>
                </g>
            </g>
            <g transform="matrix(1,0,0,1,-86.4199,-4.57833)">
                <g transform="matrix(1,0,0,1,-11.2097,4.47822)">
                    <path d="M226.908,126.729C227.784,127.846 228.257,129.036 228.257,130.27C228.257,136.739 215.258,141.992 199.246,141.992C183.235,141.992 170.235,136.739 170.235,130.27C170.235,128.557 171.146,126.931 172.782,125.464L177.955,119.914L179.754,121.59C184.906,119.7 191.745,118.547 199.246,118.547C206.771,118.547 213.63,119.707 218.787,121.608L220.605,119.914L226.935,126.704L226.908,126.729Z" style="fill:rgb(90,35,0);"/>
                </g>
                <g transform="matrix(0.797546,0,0,0.794514,29.1569,24.4989)">
                    <ellipse cx="199.246" cy="130.27" rx="29.011" ry="11.723" style="fill:rgb(58,23,0);"/>
                    <clipPath id="_clip3">
                        <ellipse cx="199.246" cy="130.27" rx="29.011" ry="11.723"/>
                    </clipPath>
                    <g clip-path="url(#_clip3)">
                        <g transform="matrix(0.794514,0,0,0.794514,40.7525,26.7686)">
                            <ellipse cx="199.246" cy="130.27" rx="29.011" ry="11.723" style="fill:rgb(142,188,206);"/>
                        </g>
                    </g>
                </g>
                <g transform="matrix(0.371145,0,0,0.371145,138.555,68.701)">
                    <ellipse cx="116.168" cy="159.965" rx="14.46" ry="8.408" style="fill:none;stroke:rgb(167,205,220);stroke-width:2.4px;"/>
                </g>
                <g transform="matrix(0.901306,0,0,0.901306,75.6512,-1.63498)">
                    <path d="M135.257,146.866L130.817,146.866C130.592,146.477 130.474,146.035 130.474,145.585C130.474,144.17 131.623,143.021 133.037,143.021C134.452,143.021 135.601,144.17 135.601,145.585C135.601,146.035 135.482,146.477 135.257,146.866Z" style="fill:rgb(167,205,220);"/>
                </g>
            </g>
            <g transform="matrix(0.541779,0,0,0.541779,38.6257,54.1452)">
                <g transform="matrix(1,0,0,1,-11.2097,4.47822)">
                    <path d="M226.908,126.729C227.784,127.846 228.257,129.036 228.257,130.27C228.257,136.739 215.258,141.992 199.246,141.992C183.235,141.992 170.235,136.739 170.235,130.27C170.235,128.557 171.146,126.931 172.782,125.464L177.955,119.914L179.754,121.59C184.906,119.7 191.745,118.547 199.246,118.547C206.771,118.547 213.63,119.707 218.787,121.608L220.605,119.914L226.935,126.704L226.908,126.729Z" style="fill:rgb(90,35,0);"/>
                </g>
                <g transform="matrix(0.797546,0,0,0.794514,29.1569,24.4989)">
                    <ellipse cx="199.246" cy="130.27" rx="29.011" ry="11.723" style="fill:rgb(58,23,0);"/>
                    <clipPath id="_clip4">
                        <ellipse cx="199.246" cy="130.27" rx="29.011" ry="11.723"/>
                    </clipPath>
                    <g clip-path="url(#_clip4)">
                        <g transform="matrix(0.794514,0,0,0.794514,40.7525,26.7686)">
                            <ellipse cx="199.246" cy="130.27" rx="29.011" ry="11.723" style="fill:rgb(142,188,206);"/>
                        </g>
                    </g>
                </g>
            </g>
            <g transform="matrix(0.942922,0.333015,-0.333015,0.942922,68.2021,-0.0303359)">
                <path d="M84.756,157.182C84.465,156.427 84.049,155.605 83.51,154.814C82.576,153.442 81.421,152.377 80.512,151.821C81.045,151.459 81.738,151.426 82.457,151.666C81.884,149.482 82.11,147.641 83.139,147.175C83.279,148.355 83.69,150.001 84.372,151.741C84.678,149.975 85.707,148.676 86.927,148.676C86.489,149.647 86.133,151.177 86.133,152.837C86.133,154.017 86.313,155.132 86.574,156.027C86.667,156.169 86.76,156.308 86.853,156.442L84.756,157.182Z" style="fill:rgb(0,116,16);"/>
            </g>
            <g transform="matrix(0.942922,0.333015,-0.333015,0.942922,52.756,-36.3603)">
                <path d="M84.756,157.182C84.465,156.427 84.049,155.605 83.51,154.814C82.576,153.442 81.421,152.377 80.512,151.821C81.045,151.459 81.738,151.426 82.457,151.666C81.884,149.482 82.11,147.641 83.139,147.175C83.279,148.355 83.69,150.001 84.372,151.741C84.678,149.975 85.707,148.676 86.927,148.676C86.489,149.647 86.133,151.177 86.133,152.837C86.133,154.017 86.313,155.132 86.574,156.027C86.667,156.169 86.76,156.308 86.853,156.442L84.756,157.182Z" style="fill:rgb(0,116,16);"/>
            </g>
            <g transform="matrix(0.942922,0.333015,-0.333015,0.942922,156.465,-13.6515)">
                <path d="M84.756,157.182C84.465,156.427 84.049,155.605 83.51,154.814C82.576,153.442 81.421,152.377 80.512,151.821C81.045,151.459 81.738,151.426 82.457,151.666C81.884,149.482 82.11,147.641 83.139,147.175C83.279,148.355 83.69,150.001 84.372,151.741C84.678,149.975 85.707,148.676 86.927,148.676C86.489,149.647 86.133,151.177 86.133,152.837C86.133,154.017 86.313,155.132 86.574,156.027C86.667,156.169 86.76,156.308 86.853,156.442L84.756,157.182Z" style="fill:rgb(0,116,16);"/>
            </g>
            <g transform="matrix(0.942922,0.333015,-0.333015,0.942922,128.726,12.5715)">
                <path d="M84.756,157.182C84.465,156.427 84.049,155.605 83.51,154.814C82.576,153.442 81.421,152.377 80.512,151.821C81.045,151.459 81.738,151.426 82.457,151.666C81.884,149.482 82.11,147.641 83.139,147.175C83.279,148.355 83.69,150.001 84.372,151.741C84.678,149.975 85.707,148.676 86.927,148.676C86.489,149.647 86.133,151.177 86.133,152.837C86.133,154.017 86.313,155.132 86.574,156.027C86.667,156.169 86.76,156.308 86.853,156.442L84.756,157.182Z" style="fill:rgb(0,116,16);"/>
            </g>
        </g>
    </g>
</svg>
