<?xml version="1.0" encoding="UTF-8" standalone="no"?>
<!DOCTYPE svg PUBLIC "-//W3C//DTD SVG 1.1//EN" "http://www.w3.org/Graphics/SVG/1.1/DTD/svg11.dtd">
<svg width="100%" height="100%" viewBox="0 0 342 342" version="1.1" xmlns="http://www.w3.org/2000/svg" xmlns:xlink="http://www.w3.org/1999/xlink" xml:space="preserve" xmlns:serif="http://www.serif.com/" style="fill-rule:evenodd;clip-rule:evenodd;stroke-linecap:round;stroke-linejoin:round;stroke-miterlimit:1.5;">
    <g transform="matrix(1.33333,0,0,1.33333,0,0)">
        <g transform="matrix(1,0,0,1,3.09067,-27.384)">
            <g transform="matrix(0.704102,-0.710099,0.710099,0.704102,-107.329,100.181)">
                <path d="M5.568,196.538C3.171,190.848 4.392,184.021 9.136,179.528L24.484,164.992C25.154,158.785 29.623,153.369 36.034,151.803L45.805,149.415C45.859,141.041 52.674,134.26 61.061,134.26L91.574,134.26C94.383,134.26 97.016,135.021 99.277,136.348L110.89,133.51C117.052,132.004 123.262,134.481 126.805,139.291L127.16,139.126C134.794,135.572 143.877,138.885 147.43,146.519L150.13,152.318L169.708,147.534C177.887,145.535 186.151,150.553 188.15,158.733L195.393,188.374C196.9,194.54 194.419,200.753 189.603,204.295L190.266,209.214C190.96,214.367 188.99,219.269 185.417,222.53C190.349,228.098 190.589,236.597 185.659,242.457L176.895,252.873L184.707,269.281C188.326,276.884 185.092,285.995 177.49,289.615L173.604,291.464C173.029,293.711 171.932,295.86 170.3,297.722L150.189,320.669C145.674,325.821 138.447,327.202 132.499,324.549L5.568,196.538Z" style="fill:none;stroke:black;stroke-width:20.83px;"/>
                <path d="M5.568,196.538C3.171,190.848 4.392,184.021 9.136,179.528L24.484,164.992C25.154,158.785 29.623,153.369 36.034,151.803L45.805,149.415C45.859,141.041 52.674,134.26 61.061,134.26L91.574,134.26C94.383,134.26 97.016,135.021 99.277,136.348L110.89,133.51C117.052,132.004 123.262,134.481 126.805,139.291L127.16,139.126C134.794,135.572 143.877,138.885 147.43,146.519L150.13,152.318L169.708,147.534C177.887,145.535 186.151,150.553 188.15,158.733L195.393,188.374C196.9,194.54 194.419,200.753 189.603,204.295L190.266,209.214C190.96,214.367 188.99,219.269 185.417,222.53C190.349,228.098 190.589,236.597 185.659,242.457L176.895,252.873L184.707,269.281C188.326,276.884 185.092,285.995 177.49,289.615L173.604,291.464C173.029,293.711 171.932,295.86 170.3,297.722L150.189,320.669C145.674,325.821 138.447,327.202 132.499,324.549L5.568,196.538Z"/>
            </g>
            <g transform="matrix(0.704102,-0.710099,0.710099,0.704102,-107.329,100.181)">
                <path d="M5.568,196.538C3.171,190.848 4.392,184.021 9.136,179.528L24.484,164.992C25.154,158.785 29.623,153.369 36.034,151.803L45.805,149.415C45.859,141.041 52.674,134.26 61.061,134.26L91.574,134.26C94.383,134.26 97.016,135.021 99.277,136.348L110.89,133.51C117.052,132.004 123.262,134.481 126.805,139.291L127.16,139.126C134.794,135.572 143.877,138.885 147.43,146.519L150.13,152.318L169.708,147.534C177.887,145.535 186.151,150.553 188.15,158.733L195.393,188.374C196.9,194.54 194.419,200.753 189.603,204.295L190.266,209.214C190.96,214.367 188.99,219.269 185.417,222.53C190.349,228.098 190.589,236.597 185.659,242.457L176.895,252.873L184.707,269.281C188.326,276.884 185.092,285.995 177.49,289.615L173.604,291.464C173.029,293.711 171.932,295.86 170.3,297.722L150.189,320.669C145.674,325.821 138.447,327.202 132.499,324.549L5.568,196.538Z" style="fill:rgb(106,106,106);"/>
                <clipPath id="_clip1">
                    <path d="M5.568,196.538C3.171,190.848 4.392,184.021 9.136,179.528L24.484,164.992C25.154,158.785 29.623,153.369 36.034,151.803L45.805,149.415C45.859,141.041 52.674,134.26 61.061,134.26L91.574,134.26C94.383,134.26 97.016,135.021 99.277,136.348L110.89,133.51C117.052,132.004 123.262,134.481 126.805,139.291L127.16,139.126C134.794,135.572 143.877,138.885 147.43,146.519L150.13,152.318L169.708,147.534C177.887,145.535 186.151,150.553 188.15,158.733L195.393,188.374C196.9,194.54 194.419,200.753 189.603,204.295L190.266,209.214C190.96,214.367 188.99,219.269 185.417,222.53C190.349,228.098 190.589,236.597 185.659,242.457L176.895,252.873L184.707,269.281C188.326,276.884 185.092,285.995 177.49,289.615L173.604,291.464C173.029,293.711 171.932,295.86 170.3,297.722L150.189,320.669C145.674,325.821 138.447,327.202 132.499,324.549L5.568,196.538Z"/>
                </clipPath>
                <g clip-path="url(#_clip1)">
                    <g id="Copper" transform="matrix(1,0,0,1,9.00246,-12.3252)">
                        <g transform="matrix(-0.129172,0.991622,-0.991622,-0.129172,282.165,249.723)">
                            <path d="M74.075,125.041L74.075,131.701C74.075,133.539 72.583,135.031 70.745,135.031L64.086,135.031C62.248,135.031 60.756,133.539 60.756,131.701L60.756,125.041C60.756,123.204 62.248,121.711 64.086,121.711L70.745,121.711C72.583,121.711 74.075,123.204 74.075,125.041Z" style="fill:rgb(208,102,44);"/>
                        </g>
                        <g transform="matrix(-0.483661,0.875255,-0.875255,-0.483661,298.631,262.372)">
                            <path d="M74.075,125.041L74.075,131.701C74.075,133.539 72.583,135.031 70.745,135.031L64.086,135.031C62.248,135.031 60.756,133.539 60.756,131.701L60.756,125.041C60.756,123.204 62.248,121.711 64.086,121.711L70.745,121.711C72.583,121.711 74.075,123.204 74.075,125.041Z" style="fill:rgb(208,102,44);"/>
                        </g>
                        <g transform="matrix(-0.129172,0.991622,-0.991622,-0.129172,284.297,136.31)">
                            <path d="M74.075,125.041L74.075,131.701C74.075,133.539 72.583,135.031 70.745,135.031L64.086,135.031C62.248,135.031 60.756,133.539 60.756,131.701L60.756,125.041C60.756,123.204 62.248,121.711 64.086,121.711L70.745,121.711C72.583,121.711 74.075,123.204 74.075,125.041Z" style="fill:rgb(208,102,44);"/>
                        </g>
                        <g transform="matrix(-0.551237,0.834349,-0.834349,-0.551237,252.897,188.471)">
                            <path d="M74.075,125.041L74.075,131.701C74.075,133.539 72.583,135.031 70.745,135.031L64.086,135.031C62.248,135.031 60.756,133.539 60.756,131.701L60.756,125.041C60.756,123.204 62.248,121.711 64.086,121.711L70.745,121.711C72.583,121.711 74.075,123.204 74.075,125.041Z" style="fill:rgb(208,102,44);"/>
                        </g>
                        <g transform="matrix(-0.551237,0.834349,-0.834349,-0.551237,188.999,184.864)">
                            <path d="M74.075,125.041L74.075,131.701C74.075,133.539 72.583,135.031 70.745,135.031L64.086,135.031C62.248,135.031 60.756,133.539 60.756,131.701L60.756,125.041C60.756,123.204 62.248,121.711 64.086,121.711L70.745,121.711C72.583,121.711 74.075,123.204 74.075,125.041Z" style="fill:rgb(208,102,44);"/>
                        </g>
                        <g transform="matrix(-0.551237,0.834349,-0.834349,-0.551237,164.084,209.568)">
                            <path d="M74.075,125.041L74.075,131.701C74.075,133.539 72.583,135.031 70.745,135.031L64.086,135.031C62.248,135.031 60.756,133.539 60.756,131.701L60.756,125.041C60.756,123.204 62.248,121.711 64.086,121.711L70.745,121.711C72.583,121.711 74.075,123.204 74.075,125.041Z" style="fill:rgb(208,102,44);"/>
                        </g>
                    </g>
                    <g transform="matrix(0.878488,0.169744,-0.179784,0.930448,1.73331,91.0562)">
                        <path d="M77.41,167.646C75.861,168.243 74.166,168.573 72.39,168.573L45.777,168.573C38.433,168.573 32.471,162.943 32.471,156.009L32.471,102.914C32.471,95.98 38.433,90.35 45.777,90.35L52.69,90.35L70.131,55.703C73.183,49.641 80.874,47.058 87.295,49.939L92.527,52.288C92.854,52.239 93.186,52.202 93.521,52.177L153.925,47.689C159.481,47.276 164.496,50.263 166.673,54.796L178.116,50.8C184.784,48.472 192.2,51.693 194.666,57.989L203.602,80.803C205.711,86.187 203.521,92.087 198.672,95.139L213.784,133.719C216.472,140.583 212.753,148.218 205.482,150.756L204.902,150.959L213.594,173.149C216.06,179.445 212.648,186.446 205.98,188.774L187.628,195.182L187.358,224.486C187.296,231.198 181.474,236.6 174.365,236.542L148.603,236.331C141.494,236.273 135.773,230.776 135.834,224.064L135.999,206.194C134.524,204.926 133.34,203.315 132.601,201.428L130.052,194.92L117.064,199.455C103.861,204.065 89.177,197.687 84.294,185.221L77.41,167.646Z" style="fill:rgb(115,115,115);"/>
                        <clipPath id="_clip2">
                            <path d="M77.41,167.646C75.861,168.243 74.166,168.573 72.39,168.573L45.777,168.573C38.433,168.573 32.471,162.943 32.471,156.009L32.471,102.914C32.471,95.98 38.433,90.35 45.777,90.35L52.69,90.35L70.131,55.703C73.183,49.641 80.874,47.058 87.295,49.939L92.527,52.288C92.854,52.239 93.186,52.202 93.521,52.177L153.925,47.689C159.481,47.276 164.496,50.263 166.673,54.796L178.116,50.8C184.784,48.472 192.2,51.693 194.666,57.989L203.602,80.803C205.711,86.187 203.521,92.087 198.672,95.139L213.784,133.719C216.472,140.583 212.753,148.218 205.482,150.756L204.902,150.959L213.594,173.149C216.06,179.445 212.648,186.446 205.98,188.774L187.628,195.182L187.358,224.486C187.296,231.198 181.474,236.6 174.365,236.542L148.603,236.331C141.494,236.273 135.773,230.776 135.834,224.064L135.999,206.194C134.524,204.926 133.34,203.315 132.601,201.428L130.052,194.92L117.064,199.455C103.861,204.065 89.177,197.687 84.294,185.221L77.41,167.646Z"/>
                        </clipPath>
                        <g clip-path="url(#_clip2)">
                            <g id="Copper1" serif:id="Copper">
                                <g transform="matrix(0.770894,0.764041,-0.809233,0.727844,230.927,-63.3377)">
                                    <path d="M74.075,125.041L74.075,131.701C74.075,133.539 72.583,135.031 70.745,135.031L64.086,135.031C62.248,135.031 60.756,133.539 60.756,131.701L60.756,125.041C60.756,123.204 62.248,121.711 64.086,121.711L70.745,121.711C72.583,121.711 74.075,123.204 74.075,125.041Z" style="fill:rgb(208,102,44);"/>
                                </g>
                                <g transform="matrix(0.160171,1.04434,-1.10611,0.151227,310.558,82.644)">
                                    <path d="M74.075,125.041L74.075,131.701C74.075,133.539 72.583,135.031 70.745,135.031L64.086,135.031C62.248,135.031 60.756,133.539 60.756,131.701L60.756,125.041C60.756,123.204 62.248,121.711 64.086,121.711L70.745,121.711C72.583,121.711 74.075,123.204 74.075,125.041Z" style="fill:rgb(208,102,44);"/>
                                </g>
                                <g transform="matrix(0.770894,0.764041,-0.809233,0.727844,146.255,-70.7577)">
                                    <path d="M74.075,125.041L74.075,131.701C74.075,133.539 72.583,135.031 70.745,135.031L64.086,135.031C62.248,135.031 60.756,133.539 60.756,131.701L60.756,125.041C60.756,123.204 62.248,121.711 64.086,121.711L70.745,121.711C72.583,121.711 74.075,123.204 74.075,125.041Z" style="fill:rgb(208,102,44);"/>
                                </g>
                                <g transform="matrix(0.770894,0.764041,-0.809233,0.727844,200.329,-68.443)">
                                    <path d="M74.075,125.041L74.075,131.701C74.075,133.539 72.583,135.031 70.745,135.031L64.086,135.031C62.248,135.031 60.756,133.539 60.756,131.701L60.756,125.041C60.756,123.204 62.248,121.711 64.086,121.711L70.745,121.711C72.583,121.711 74.075,123.204 74.075,125.041Z" style="fill:rgb(208,102,44);"/>
                                </g>
                            </g>
                            <g transform="matrix(1.10677,0.146839,-0.155524,1.04497,49.4125,-3.41595)">
                                <path d="M38.135,81.731L36.68,76.481C35.314,71.552 38.206,66.442 43.134,65.076L88.611,52.47C93.539,51.104 98.649,53.996 100.015,58.924L101.029,62.581L117.081,58.132C122.009,56.766 127.119,59.658 128.485,64.586L133.352,82.142C136.896,82.804 139.88,85.513 140.707,89.253L150.897,135.332C152.001,140.325 148.843,145.276 143.85,146.38L139.991,147.233L143.082,158.385C144.449,163.313 141.557,168.423 136.628,169.789L91.151,182.396C86.819,183.597 82.345,181.506 80.399,177.635L79.398,177.912C68.965,180.804 58.146,174.682 55.254,164.248L50.599,147.455L37.211,147.455C32.097,147.455 27.945,143.303 27.945,138.189L27.945,90.997C27.945,85.883 32.097,81.731 37.211,81.731L38.135,81.731Z" style="fill:rgb(128,128,128);"/>
                            </g>
                        </g>
                    </g>
                    <g>
                        <g transform="matrix(0.704102,0.710099,-0.710099,0.704102,146.709,5.67621)">
                            <rect x="91.108" y="182.877" width="67.222" height="56.348" style="fill:rgb(17,17,17);"/>
                        </g>
                        <g transform="matrix(0.777453,0.628941,-0.628941,0.777453,60.7854,123.191)">
                            <path d="M54.391,52.609L50.598,52.323C48.641,52.175 47.172,50.467 47.319,48.51L47.853,41.419C48.001,39.462 49.709,37.993 51.666,38.141L146.185,45.261C148.142,45.408 149.611,47.116 149.464,49.073L148.93,56.164C148.782,58.121 147.074,59.59 145.117,59.443L142.256,59.227L116.033,142.17C115.442,144.041 113.442,145.08 111.571,144.488L104.791,142.345C102.92,141.753 101.881,139.754 102.473,137.883L127.686,58.13L68.613,53.68L68.613,138.61C68.613,140.572 67.02,142.166 65.058,142.166L57.947,142.166C55.984,142.166 54.391,140.572 54.391,138.61L54.391,52.609Z" style="fill:rgb(82,66,51);"/>
                        </g>
                    </g>
                    <g id="LoreCopper" transform="matrix(0.85489,0.86217,-0.86217,0.85489,235.035,-1.52445)">
                        <g id="Lore">
                            <rect id="LoreCopper1" serif:id="LoreCopper" x="16.167" y="218.382" width="46.863" height="34.481" style="fill:none;"/>
                            <g id="LoreCopper2" serif:id="LoreCopper">
                                <g>
                                    <g transform="matrix(0.759468,0.650544,-0.650544,0.759468,163.923,47.0858)">
                                        <path d="M14.721,223.454L14.721,226.414C14.721,227.194 14.088,227.827 13.308,227.827L10.484,227.827C9.705,227.827 9.072,227.194 9.072,226.414L9.072,223.454C9.072,222.675 9.705,222.042 10.484,222.042L13.308,222.042C14.088,222.042 14.721,222.675 14.721,223.454Z" style="fill:rgb(208,102,44);"/>
                                    </g>
                                    <g transform="matrix(0.580744,0.814086,-0.814086,0.580744,229.722,85.3414)">
                                        <path d="M14.721,223.454L14.721,226.414C14.721,227.194 14.088,227.827 13.308,227.827L10.484,227.827C9.705,227.827 9.072,227.194 9.072,226.414L9.072,223.454C9.072,222.675 9.705,222.042 10.484,222.042L13.308,222.042C14.088,222.042 14.721,222.675 14.721,223.454Z" style="fill:rgb(208,102,44);"/>
                                    </g>
                                    <g transform="matrix(0.226909,0.973916,-0.973916,0.226909,266.445,160.994)">
                                        <path d="M14.721,223.454L14.721,226.414C14.721,227.194 14.088,227.827 13.308,227.827L10.484,227.827C9.705,227.827 9.072,227.194 9.072,226.414L9.072,223.454C9.072,222.675 9.705,222.042 10.484,222.042L13.308,222.042C14.088,222.042 14.721,222.675 14.721,223.454Z" style="fill:rgb(208,102,44);"/>
                                    </g>
                                    <g transform="matrix(0.580744,0.814086,-0.814086,0.580744,207.232,84.1151)">
                                        <path d="M14.721,223.454L14.721,226.414C14.721,227.194 14.088,227.827 13.308,227.827L10.484,227.827C9.705,227.827 9.072,227.194 9.072,226.414L9.072,223.454C9.072,222.675 9.705,222.042 10.484,222.042L13.308,222.042C14.088,222.042 14.721,222.675 14.721,223.454Z" style="fill:rgb(208,102,44);"/>
                                    </g>
                                    <g transform="matrix(0.580744,0.814086,-0.814086,0.580744,211.975,85.8505)">
                                        <path d="M14.721,223.454L14.721,226.414C14.721,227.194 14.088,227.827 13.308,227.827L10.484,227.827C9.705,227.827 9.072,227.194 9.072,226.414L9.072,223.454C9.072,222.675 9.705,222.042 10.484,222.042L13.308,222.042C14.088,222.042 14.721,222.675 14.721,223.454Z" style="fill:rgb(208,102,44);"/>
                                    </g>
                                    <g transform="matrix(0.580744,0.814086,-0.814086,0.580744,217.32,85.3414)">
                                        <path d="M14.721,223.454L14.721,226.414C14.721,227.194 14.088,227.827 13.308,227.827L10.484,227.827C9.705,227.827 9.072,227.194 9.072,226.414L9.072,223.454C9.072,222.675 9.705,222.042 10.484,222.042L13.308,222.042C14.088,222.042 14.721,222.675 14.721,223.454Z" style="fill:rgb(208,102,44);"/>
                                    </g>
                                    <g transform="matrix(1.24616,-0.0413283,0.0423468,1.27687,21.4147,-63.0566)">
                                        <path d="M14.721,223.42L14.721,226.448C14.721,227.209 14.088,227.827 13.308,227.827L10.484,227.827C9.705,227.827 9.072,227.209 9.072,226.448L9.072,223.42C9.072,222.66 9.705,222.042 10.484,222.042L13.308,222.042C14.088,222.042 14.721,222.66 14.721,223.42Z" style="fill:rgb(208,102,44);"/>
                                    </g>
                                    <g transform="matrix(0.177781,0.939014,-0.947392,0.179367,248.873,171.388)">
                                        <path d="M14.721,223.442L14.721,226.427C14.721,227.199 14.088,227.827 13.308,227.827L10.484,227.827C9.705,227.827 9.072,227.199 9.072,226.427L9.072,223.442C9.072,222.669 9.705,222.042 10.484,222.042L13.308,222.042C14.088,222.042 14.721,222.669 14.721,223.442Z" style="fill:rgb(208,102,44);"/>
                                    </g>
                                </g>
                                <g transform="matrix(0.526376,-0.191585,0.17807,0.489243,-33.6753,122.709)">
                                    <path d="M29.59,269.612C27.938,269.014 26.746,267.333 26.746,265.354L26.746,227.308C26.746,224.829 28.616,222.817 30.92,222.817C31.466,222.817 31.988,222.93 32.467,223.136C32.509,223.151 32.55,223.166 32.591,223.182L90.161,245.726C90.207,245.744 90.252,245.763 90.297,245.783C90.791,245.955 91.264,246.231 91.686,246.613C93.451,248.206 93.681,251.041 92.201,252.939L69.47,282.085C68.244,283.656 66.228,284.097 64.569,283.299C64.473,283.269 64.378,283.236 64.284,283.199L29.688,269.652C29.655,269.639 29.623,269.626 29.59,269.612Z" style="fill:rgb(60,43,27);"/>
                                </g>
                                <g transform="matrix(1.09947,0,0,1.09947,18.9993,-18.3283)">
                                    <circle cx="13.919" cy="242.402" r="3.954" style="fill:rgb(106,106,106);"/>
                                    <clipPath id="_clip3">
                                        <circle cx="13.919" cy="242.402" r="3.954"/>
                                    </clipPath>
                                    <g clip-path="url(#_clip3)">
                                        <g transform="matrix(0.909526,0,0,0.909526,-4.98544,18.5351)">
                                            <circle cx="20.785" cy="246.136" r="0.966" style="fill:rgb(60,43,27);"/>
                                        </g>
                                    </g>
                                </g>
                                <g transform="matrix(1.09947,0,0,1.09947,31.2233,-18.3283)">
                                    <circle cx="13.919" cy="242.402" r="3.954" style="fill:rgb(106,106,106);"/>
                                    <clipPath id="_clip4">
                                        <circle cx="13.919" cy="242.402" r="3.954"/>
                                    </clipPath>
                                    <g clip-path="url(#_clip4)">
                                        <g transform="matrix(0.909526,0,0,0.909526,-4.98544,18.5351)">
                                            <circle cx="20.785" cy="246.136" r="0.966" style="fill:rgb(60,43,27);"/>
                                        </g>
                                    </g>
                                </g>
                            </g>
                        </g>
                    </g>
                </g>
            </g>
        </g>
    </g>
</svg>
