<?xml version="1.0" encoding="UTF-8" standalone="no"?>
<!DOCTYPE svg PUBLIC "-//W3C//DTD SVG 1.1//EN" "http://www.w3.org/Graphics/SVG/1.1/DTD/svg11.dtd">
<svg width="100%" height="100%" viewBox="0 0 342 342" version="1.1" xmlns="http://www.w3.org/2000/svg" xmlns:xlink="http://www.w3.org/1999/xlink" xml:space="preserve" xmlns:serif="http://www.serif.com/" style="fill-rule:evenodd;clip-rule:evenodd;stroke-linecap:round;stroke-linejoin:round;stroke-miterlimit:1.5;">
    <g transform="matrix(1.33333,0,0,1.33333,0,0)">
        <g transform="matrix(1,0,0,1,-16.9201,10.2162)">
            <path d="M58.254,108.465L57.033,107.244C55.557,105.769 55.557,103.373 57.033,101.897L111.015,47.914L112.056,46.112L98.575,32.631C97.099,31.155 97.099,28.759 98.575,27.284L103.201,22.657L102.867,22.079C101.824,20.272 102.444,17.958 104.251,16.914L108.624,14.389C108.855,12.964 109.896,11.735 111.379,11.337L115.452,10.246C115.991,8.815 117.374,7.795 118.993,7.795L126.555,7.795C128.091,7.795 129.414,8.714 130.006,10.03L134.884,11.337C136.367,11.735 137.408,12.964 137.639,14.389L142.012,16.914C143.819,17.958 144.439,20.272 143.396,22.079L143.062,22.657L147.688,27.284C149.164,28.759 149.164,31.155 147.688,32.631L134.207,46.112L135.248,47.914L189.23,101.897C190.706,103.373 190.706,105.769 189.23,107.244L188.009,108.465C189.512,112.276 190.337,116.427 190.337,120.769L190.337,124.431L198.467,122.383C204.618,120.833 210.77,124.173 212.197,129.837L233.616,214.836C235,220.327 231.437,225.999 225.613,227.753L225.613,227.772L89.529,227.772C70.983,227.772 55.926,212.715 55.926,194.169L55.926,120.769C55.926,116.427 56.751,112.276 58.254,108.465Z" style="stroke:black;stroke-width:20.83px;"/>
            <g transform="matrix(0.953963,-0.240388,0.221355,0.878431,130.081,75.9793)">
                <path d="M56.461,188.251L-63.511,155.42L-56.123,123.582L20.832,144.641L20.832,79.8C20.832,73.352 26.067,68.117 32.515,68.117L55.88,68.117C62.328,68.117 67.562,73.352 67.562,79.8L67.562,176.562C67.562,182.813 62.642,187.924 56.466,188.23L56.461,188.251Z" style="fill:rgb(145,145,145);"/>
                <clipPath id="_clip1">
                    <path d="M56.461,188.251L-63.511,155.42L-56.123,123.582L20.832,144.641L20.832,79.8C20.832,73.352 26.067,68.117 32.515,68.117L55.88,68.117C62.328,68.117 67.562,73.352 67.562,79.8L67.562,176.562C67.562,182.813 62.642,187.924 56.466,188.23L56.461,188.251Z"/>
                </clipPath>
                <g clip-path="url(#_clip1)">
                    <g transform="matrix(0.96469,0.347874,-0.32033,1.04764,26.0044,-30.6312)">
                        <path d="M23.295,183.734C21.752,181.754 20.832,179.265 20.832,176.562L20.832,79.8C20.832,73.352 26.067,68.117 32.515,68.117L55.88,68.117C62.328,68.117 67.562,73.352 67.562,79.8L67.562,176.562C67.562,177.949 67.32,179.28 66.876,180.514L23.295,183.734Z" style="fill:rgb(87,87,87);"/>
                    </g>
                </g>
            </g>
            <g transform="matrix(1.10155,0,0,1,-26.6317,-7.93212)">
                <path d="M196.967,128.701L196.967,202.102C196.967,220.647 183.299,235.704 166.462,235.704L105.452,235.704C88.616,235.704 74.947,220.647 74.947,202.102L74.947,128.701C74.947,110.155 88.616,95.098 105.452,95.098L166.462,95.098C183.299,95.098 196.967,110.155 196.967,128.701Z" style="fill:rgb(114,114,114);"/>
                <clipPath id="_clip2">
                    <path d="M196.967,128.701L196.967,202.102C196.967,220.647 183.299,235.704 166.462,235.704L105.452,235.704C88.616,235.704 74.947,220.647 74.947,202.102L74.947,128.701C74.947,110.155 88.616,95.098 105.452,95.098L166.462,95.098C183.299,95.098 196.967,110.155 196.967,128.701Z"/>
                </clipPath>
                <g clip-path="url(#_clip2)">
                    <g>
                        <g transform="matrix(0.742758,0,0,0.874768,90.9303,64.4614)">
                            <path d="M79.584,163.061L79.584,174.246C79.584,177.333 76.905,179.838 73.605,179.838L47.637,179.838C44.338,179.838 41.658,177.333 41.658,174.246L41.658,163.061C41.658,159.975 44.338,157.469 47.637,157.469L73.605,157.469C76.905,157.469 79.584,159.975 79.584,163.061Z" style="fill:rgb(145,145,145);"/>
                        </g>
                        <g transform="matrix(0.742758,0,0,0.874768,48.6631,74.2454)">
                            <path d="M79.584,163.061L79.584,174.246C79.584,177.333 76.905,179.838 73.605,179.838L47.637,179.838C44.338,179.838 41.658,177.333 41.658,174.246L41.658,163.061C41.658,159.975 44.338,157.469 47.637,157.469L73.605,157.469C76.905,157.469 79.584,159.975 79.584,163.061Z" style="fill:rgb(145,145,145);"/>
                        </g>
                        <g transform="matrix(0.742758,0,0,0.874768,62.748,38.4631)">
                            <path d="M79.584,163.061L79.584,174.246C79.584,177.333 76.905,179.838 73.605,179.838L47.637,179.838C44.338,179.838 41.658,177.333 41.658,174.246L41.658,163.061C41.658,159.975 44.338,157.469 47.637,157.469L73.605,157.469C76.905,157.469 79.584,159.975 79.584,163.061Z" style="fill:rgb(145,145,145);"/>
                        </g>
                        <g transform="matrix(0.742758,0,0,0.874768,26.9536,11.3969)">
                            <path d="M79.584,163.061L79.584,174.246C79.584,177.333 76.905,179.838 73.605,179.838L47.637,179.838C44.338,179.838 41.658,177.333 41.658,174.246L41.658,163.061C41.658,159.975 44.338,157.469 47.637,157.469L73.605,157.469C76.905,157.469 79.584,159.975 79.584,163.061Z" style="fill:rgb(145,145,145);"/>
                        </g>
                        <g transform="matrix(0.742758,0,0,0.874768,75.1928,1.6129)">
                            <path d="M79.584,163.061L79.584,174.246C79.584,177.333 76.905,179.838 73.605,179.838L47.637,179.838C44.338,179.838 41.658,177.333 41.658,174.246L41.658,163.061C41.658,159.975 44.338,157.469 47.637,157.469L73.605,157.469C76.905,157.469 79.584,159.975 79.584,163.061Z" style="fill:rgb(145,145,145);"/>
                        </g>
                        <g transform="matrix(0.742758,0,0,0.874768,122.305,18.8952)">
                            <path d="M79.584,163.061L79.584,174.246C79.584,177.333 76.905,179.838 73.605,179.838L47.637,179.838C44.338,179.838 41.658,177.333 41.658,174.246L41.658,163.061C41.658,159.975 44.338,157.469 47.637,157.469L73.605,157.469C76.905,157.469 79.584,159.975 79.584,163.061Z" style="fill:rgb(145,145,145);"/>
                        </g>
                        <g transform="matrix(0.742758,0,0,0.874768,150.475,58.4277)">
                            <path d="M79.584,163.061L79.584,174.246C79.584,177.333 76.905,179.838 73.605,179.838L47.637,179.838C44.338,179.838 41.658,177.333 41.658,174.246L41.658,163.061C41.658,159.975 44.338,157.469 47.637,157.469L73.605,157.469C76.905,157.469 79.584,159.975 79.584,163.061Z" style="fill:rgb(145,145,145);"/>
                        </g>
                        <g transform="matrix(0.742758,0,0,0.874768,132.011,-17.955)">
                            <path d="M79.584,163.061L79.584,174.246C79.584,177.333 76.905,179.838 73.605,179.838L47.637,179.838C44.338,179.838 41.658,177.333 41.658,174.246L41.658,163.061C41.658,159.975 44.338,157.469 47.637,157.469L73.605,157.469C76.905,157.469 79.584,159.975 79.584,163.061Z" style="fill:rgb(145,145,145);"/>
                        </g>
                        <g transform="matrix(0.742758,0,0,0.874768,40.4839,-27.739)">
                            <path d="M79.584,163.061L79.584,174.246C79.584,177.333 76.905,179.838 73.605,179.838L47.637,179.838C44.338,179.838 41.658,177.333 41.658,174.246L41.658,163.061C41.658,159.975 44.338,157.469 47.637,157.469L73.605,157.469C76.905,157.469 79.584,159.975 79.584,163.061Z" style="fill:rgb(145,145,145);"/>
                        </g>
                    </g>
                    <g transform="matrix(0.907816,0,0,1,117.31,18.748)">
                        <path d="M65.793,157.966L65.793,216.459C65.793,222.703 60.724,227.772 54.48,227.772L31.854,227.772C25.61,227.772 20.541,222.703 20.541,216.459L20.541,157.966C20.541,151.722 25.61,146.653 31.854,146.653L54.48,146.653C60.724,146.653 65.793,151.722 65.793,157.966Z" style="fill:rgb(58,58,58);"/>
                    </g>
                    <g transform="matrix(0.812426,-0.635823,0.57721,0.894924,-63.6629,103.36)">
                        <g transform="matrix(1,0,0,1,4.9806,1.7273)">
                            <path d="M100.238,186.873L100.238,188.601C100.238,189.077 99.851,189.464 99.374,189.464L60.492,189.464C60.016,189.464 59.629,189.077 59.629,188.601L59.629,186.873C59.629,186.397 60.016,186.01 60.492,186.01L99.374,186.01C99.851,186.01 100.238,186.397 100.238,186.873Z" style="fill:rgb(145,72,15);"/>
                        </g>
                        <path d="M76.336,174.888C74.791,178.289 73.536,183.65 73.536,189.464C73.536,195.279 74.791,200.64 76.336,204.041C71.186,204.041 67.005,197.509 67.005,189.464C67.005,181.419 71.186,174.888 76.336,174.888Z" style="fill:rgb(173,173,173);"/>
                    </g>
                </g>
            </g>
            <g transform="matrix(0.707107,0.707107,-0.783764,0.783764,74.8661,-75.566)">
                <path d="M128,106.638L128,124.589C128,126.471 126.306,128 124.219,128L116.657,128C114.57,128 112.875,126.471 112.875,124.589L112.875,55.713L112.337,53.899L93.271,53.899C91.184,53.899 89.49,52.371 89.49,50.488L89.49,44.585L88.846,44.429C86.83,43.942 85.632,42.07 86.172,40.251L87.479,35.851C86.634,34.795 86.501,33.346 87.269,32.146L89.377,28.852C88.746,27.595 89.003,26.062 90.148,25.03L95.495,20.205C96.581,19.225 98.166,18.967 99.516,19.43L103.889,17.152C105.219,16.459 106.824,16.579 107.995,17.341L112.873,16.162C114.888,15.675 116.963,16.756 117.504,18.574L117.676,19.156L124.219,19.156C126.306,19.156 128,20.684 128,22.567L128,39.768L130.01,40.254L206.353,40.254C208.44,40.254 210.134,41.782 210.134,43.665L210.134,50.488C210.134,52.371 208.44,53.899 206.353,53.899L186.456,53.899L201.989,57.654C204.004,58.141 205.202,60.013 204.662,61.832L202.705,68.422C202.165,70.241 200.09,71.322 198.074,70.834L172.242,64.59L194.147,76C195.954,76.941 196.574,79.029 195.531,80.66L191.75,86.568C190.706,88.199 188.392,88.758 186.584,87.817L161.029,74.506L180.803,92.346C182.279,93.677 182.279,95.839 180.803,97.17L175.456,101.994C173.98,103.326 171.584,103.326 170.108,101.994L152.223,85.858L165.595,106.754C166.638,108.384 166.018,110.472 164.211,111.414L157.662,114.825C155.854,115.766 153.54,115.207 152.496,113.576L139.849,93.814L146.771,117.119C147.311,118.938 146.113,120.81 144.098,121.297L136.793,123.063C134.777,123.551 132.702,122.47 132.162,120.651L128,106.638Z" style="fill:rgb(227,163,113);"/>
                <clipPath id="_clip3">
                    <path d="M128,106.638L128,124.589C128,126.471 126.306,128 124.219,128L116.657,128C114.57,128 112.875,126.471 112.875,124.589L112.875,55.713L112.337,53.899L93.271,53.899C91.184,53.899 89.49,52.371 89.49,50.488L89.49,44.585L88.846,44.429C86.83,43.942 85.632,42.07 86.172,40.251L87.479,35.851C86.634,34.795 86.501,33.346 87.269,32.146L89.377,28.852C88.746,27.595 89.003,26.062 90.148,25.03L95.495,20.205C96.581,19.225 98.166,18.967 99.516,19.43L103.889,17.152C105.219,16.459 106.824,16.579 107.995,17.341L112.873,16.162C114.888,15.675 116.963,16.756 117.504,18.574L117.676,19.156L124.219,19.156C126.306,19.156 128,20.684 128,22.567L128,39.768L130.01,40.254L206.353,40.254C208.44,40.254 210.134,41.782 210.134,43.665L210.134,50.488C210.134,52.371 208.44,53.899 206.353,53.899L186.456,53.899L201.989,57.654C204.004,58.141 205.202,60.013 204.662,61.832L202.705,68.422C202.165,70.241 200.09,71.322 198.074,70.834L172.242,64.59L194.147,76C195.954,76.941 196.574,79.029 195.531,80.66L191.75,86.568C190.706,88.199 188.392,88.758 186.584,87.817L161.029,74.506L180.803,92.346C182.279,93.677 182.279,95.839 180.803,97.17L175.456,101.994C173.98,103.326 171.584,103.326 170.108,101.994L152.223,85.858L165.595,106.754C166.638,108.384 166.018,110.472 164.211,111.414L157.662,114.825C155.854,115.766 153.54,115.207 152.496,113.576L139.849,93.814L146.771,117.119C147.311,118.938 146.113,120.81 144.098,121.297L136.793,123.063C134.777,123.551 132.702,122.47 132.162,120.651L128,106.638Z"/>
                </clipPath>
                <g clip-path="url(#_clip3)">
                    <g transform="matrix(0.707107,-0.637947,0.707107,0.637947,46.4958,50.1106)">
                        <path d="M77.556,47.958L77.556,50.786C77.556,51.566 76.923,52.199 76.143,52.199L33.183,52.199C32.403,52.199 31.769,51.566 31.769,50.786L31.769,47.958C31.769,47.178 32.403,46.545 33.183,46.545L76.143,46.545C76.923,46.545 77.556,47.178 77.556,47.958Z" style="fill:rgb(58,23,0);"/>
                    </g>
                </g>
            </g>
        </g>
    </g>
</svg>
