<?xml version="1.0" encoding="UTF-8" standalone="no"?>
<!DOCTYPE svg PUBLIC "-//W3C//DTD SVG 1.1//EN" "http://www.w3.org/Graphics/SVG/1.1/DTD/svg11.dtd">
<svg width="100%" height="100%" viewBox="0 0 342 342" version="1.1" xmlns="http://www.w3.org/2000/svg" xmlns:xlink="http://www.w3.org/1999/xlink" xml:space="preserve" xmlns:serif="http://www.serif.com/" style="fill-rule:evenodd;clip-rule:evenodd;stroke-linecap:round;stroke-linejoin:round;stroke-miterlimit:1.5;">
    <g transform="matrix(1.33333,0,0,1.33333,0,0)">
        <g transform="matrix(1,0,0,1,0.721035,16.5481)">
            <path d="M59.362,217.756C58.534,217.837 57.674,217.669 56.899,217.222L49.739,213.088C47.764,211.947 47.086,209.417 48.226,207.441L83.585,146.198C83.432,144.686 83.335,143.153 83.297,141.602C82.969,128.321 87.014,116.124 93.888,106.926C91.516,100.947 90.123,94.347 89.952,87.39C89.387,64.492 102.227,44.803 120.308,38.158C125.128,18.883 137.67,5.128 152.367,5.128C147.825,14.596 143.97,28.441 142.625,43.965C143.225,45.252 146.454,52.331 146.454,55.535C146.454,55.898 146.405,56.248 146.313,56.582C160.663,63.929 171.045,81.624 171.56,102.506C171.816,112.912 169.586,122.649 165.555,130.795C165.419,131.664 164.996,132.44 164.387,133.021C164.221,133.321 164.052,133.618 163.88,133.913L206.332,207.441C207.472,209.417 206.794,211.947 204.819,213.088L197.659,217.222C197.281,217.44 196.883,217.592 196.478,217.68L196.525,217.775L59.352,217.775L59.362,217.756Z" style="stroke:black;stroke-width:20.83px;"/>
            <g transform="matrix(1,0,0,1.30831,75.6929,-27.6332)">
                <path d="M18.195,102.85C15.823,98.28 14.43,93.235 14.259,87.918C13.694,70.416 26.534,55.366 44.615,50.287C49.435,35.555 61.977,25.041 76.674,25.041C71.101,33.921 66.56,47.841 66.426,62.987C82.908,67.436 95.303,81.993 95.867,99.471C96.554,120.787 79.385,138.427 57.55,138.839C63.658,129.925 68.434,116.089 68.2,101.109C57.971,98.154 49.584,89.975 45.394,79.239C45.13,81.888 45.03,84.595 45.118,87.336C45.148,88.28 45.201,89.219 45.275,90.151C46.531,90.027 47.806,89.951 49.095,89.927C47.96,91.455 46.868,93.128 45.838,94.926C47.781,107.304 53.267,118.317 59.589,125.709C51.707,125.858 44.247,124.181 37.74,121.122C37.516,123.634 37.436,126.197 37.519,128.79C38.016,144.197 44.219,158.292 51.586,167.171C27.999,167.615 8.291,150.67 7.604,129.354C7.276,119.203 11.321,109.88 18.195,102.85Z" style="fill:rgb(146,146,146);"/>
            </g>
            <g>
                <g transform="matrix(0.964502,0,0,1,9.24843,-9.96067)">
                    <path d="M123.058,90.255L194.169,227.736L51.947,227.736L123.058,90.255Z" style="fill:rgb(158,40,0);"/>
                </g>
                <path d="M72.008,217.775C71.493,216.783 71.378,215.587 71.791,214.455L86.326,174.52L62.545,215.709C61.405,217.684 58.875,218.362 56.899,217.222L49.739,213.088C47.764,211.947 47.086,209.417 48.226,207.441L116.439,89.294L117.044,85.86L114.539,81.52C113.624,79.936 113.879,77.996 115.034,76.701L114.235,74.507C113.455,72.363 114.562,69.989 116.706,69.209L118.946,68.393C119.164,66.639 120.5,65.154 122.331,64.831L130.473,63.396C132.72,62.999 134.865,64.502 135.261,66.749L135.445,67.792C135.607,68.008 135.748,68.24 135.865,68.485L137.852,69.209C139.996,69.989 141.103,72.363 140.323,74.507L139.524,76.701C140.679,77.996 140.934,79.936 140.019,81.52L138.37,84.377L139.728,92.081L206.332,207.441C207.472,209.417 206.794,211.947 204.819,213.088L197.659,217.222C197.009,217.597 196.299,217.775 195.597,217.775C194.168,217.775 192.778,217.034 192.013,215.709L168.232,174.52L182.767,214.455C183.179,215.587 183.065,216.783 182.55,217.775L166.38,217.775L157.673,193.852L161.892,217.775L145.102,217.775L136.267,167.67L136.267,217.775L119.733,217.775L119.733,165.83L110.573,217.775L93.784,217.775L99.053,187.896L88.177,217.775L72.008,217.775Z" style="fill:rgb(77,36,11);"/>
            </g>
            <g>
                <g>
                    <g transform="matrix(1,0,0,1,57.8738,24.1787)">
                        <path d="M36.17,124.856C36.17,124.856 40.094,133.097 40.094,136.629C40.094,138.795 38.336,140.554 36.17,140.554C34.004,140.554 32.246,138.795 32.246,136.629C32.246,133.097 36.17,124.856 36.17,124.856Z" style="fill:rgb(158,40,0);"/>
                    </g>
                    <g transform="matrix(1,0,0,1,95.7543,15.6976)">
                        <path d="M36.17,124.856C36.17,124.856 40.094,133.097 40.094,136.629C40.094,138.795 38.336,140.554 36.17,140.554C34.004,140.554 32.246,138.795 32.246,136.629C32.246,133.097 36.17,124.856 36.17,124.856Z" style="fill:rgb(158,40,0);"/>
                    </g>
                    <g transform="matrix(1,0,0,1,118.982,31.3952)">
                        <path d="M36.17,124.856C36.17,124.856 40.094,133.097 40.094,136.629C40.094,138.795 38.336,140.554 36.17,140.554C34.004,140.554 32.246,138.795 32.246,136.629C32.246,133.097 36.17,124.856 36.17,124.856Z" style="fill:rgb(158,40,0);"/>
                    </g>
                    <g transform="matrix(1,0,0,1,76.0851,3.14383)">
                        <path d="M36.17,124.856C36.17,124.856 40.094,133.097 40.094,136.629C40.094,138.795 38.336,140.554 36.17,140.554C34.004,140.554 32.246,138.795 32.246,136.629C32.246,133.097 36.17,124.856 36.17,124.856Z" style="fill:rgb(158,40,0);"/>
                    </g>
                    <g transform="matrix(1,0,0,1,76.0851,42.8634)">
                        <path d="M36.17,124.856C36.17,124.856 40.094,133.097 40.094,136.629C40.094,138.795 38.336,140.554 36.17,140.554C34.004,140.554 32.246,138.795 32.246,136.629C32.246,133.097 36.17,124.856 36.17,124.856Z" style="fill:rgb(158,40,0);"/>
                    </g>
                    <g transform="matrix(1,0,0,1,103.603,-17.4033)">
                        <path d="M36.17,124.856C36.17,124.856 40.094,133.097 40.094,136.629C40.094,138.795 38.336,140.554 36.17,140.554C34.004,140.554 32.246,138.795 32.246,136.629C32.246,133.097 36.17,124.856 36.17,124.856Z" style="fill:rgb(158,40,0);"/>
                    </g>
                </g>
                <g>
                    <g transform="matrix(1,0,0,1,88.4277,-27.6236)">
                        <path d="M36.17,124.856C36.17,124.856 40.094,133.097 40.094,136.629C40.094,138.795 38.336,140.554 36.17,140.554C34.004,140.554 32.246,138.795 32.246,136.629C32.246,133.097 36.17,124.856 36.17,124.856Z" style="fill:rgb(233,74,20);"/>
                    </g>
                    <g transform="matrix(1,0,0,1,114.995,4.88123)">
                        <path d="M36.17,124.856C36.17,124.856 40.094,133.097 40.094,136.629C40.094,138.795 38.336,140.554 36.17,140.554C34.004,140.554 32.246,138.795 32.246,136.629C32.246,133.097 36.17,124.856 36.17,124.856Z" style="fill:rgb(233,74,20);"/>
                    </g>
                    <g transform="matrix(1,0,0,1,88.4277,0)">
                        <path d="M36.17,124.856C36.17,124.856 40.094,133.097 40.094,136.629C40.094,138.795 38.336,140.554 36.17,140.554C34.004,140.554 32.246,138.795 32.246,136.629C32.246,133.097 36.17,124.856 36.17,124.856Z" style="fill:rgb(233,74,20);"/>
                    </g>
                    <g transform="matrix(1,0,0,1,64.756,4.88123)">
                        <path d="M36.17,124.856C36.17,124.856 40.094,133.097 40.094,136.629C40.094,138.795 38.336,140.554 36.17,140.554C34.004,140.554 32.246,138.795 32.246,136.629C32.246,133.097 36.17,124.856 36.17,124.856Z" style="fill:rgb(233,74,20);"/>
                    </g>
                    <g transform="matrix(1,0,0,1,72.6048,-24.422)">
                        <path d="M36.17,124.856C36.17,124.856 40.094,133.097 40.094,136.629C40.094,138.795 38.336,140.554 36.17,140.554C34.004,140.554 32.246,138.795 32.246,136.629C32.246,133.097 36.17,124.856 36.17,124.856Z" style="fill:rgb(233,74,20);"/>
                    </g>
                    <g transform="matrix(1,0,0,1,104.283,-38.4626)">
                        <path d="M36.17,124.856C36.17,124.856 40.094,133.097 40.094,136.629C40.094,138.795 38.336,140.554 36.17,140.554C34.004,140.554 32.246,138.795 32.246,136.629C32.246,133.097 36.17,124.856 36.17,124.856Z" style="fill:rgb(233,74,20);"/>
                    </g>
                </g>
                <g>
                    <g transform="matrix(1,0,0,1,80.4536,-46.3114)">
                        <path d="M36.17,124.856C36.17,124.856 40.094,133.097 40.094,136.629C40.094,138.795 38.336,140.554 36.17,140.554C34.004,140.554 32.246,138.795 32.246,136.629C32.246,133.097 36.17,124.856 36.17,124.856Z" style="fill:rgb(233,115,20);"/>
                    </g>
                    <g transform="matrix(1,0,0,1,102.436,-62.009)">
                        <path d="M36.17,124.856C36.17,124.856 40.094,133.097 40.094,136.629C40.094,138.795 38.336,140.554 36.17,140.554C34.004,140.554 32.246,138.795 32.246,136.629C32.246,133.097 36.17,124.856 36.17,124.856Z" style="fill:rgb(233,115,20);"/>
                    </g>
                    <g transform="matrix(1,0,0,1,114.995,-26.4865)">
                        <path d="M36.17,124.856C36.17,124.856 40.094,133.097 40.094,136.629C40.094,138.795 38.336,140.554 36.17,140.554C34.004,140.554 32.246,138.795 32.246,136.629C32.246,133.097 36.17,124.856 36.17,124.856Z" style="fill:rgb(233,115,20);"/>
                    </g>
                    <g transform="matrix(1,0,0,1,64.756,-16.7907)">
                        <path d="M36.17,124.856C36.17,124.856 40.094,133.097 40.094,136.629C40.094,138.795 38.336,140.554 36.17,140.554C34.004,140.554 32.246,138.795 32.246,136.629C32.246,133.097 36.17,124.856 36.17,124.856Z" style="fill:rgb(233,115,20);"/>
                    </g>
                    <g transform="matrix(1,0,0,1,68.6804,-58.1324)">
                        <path d="M36.17,124.856C36.17,124.856 40.094,133.097 40.094,136.629C40.094,138.795 38.336,140.554 36.17,140.554C34.004,140.554 32.246,138.795 32.246,136.629C32.246,133.097 36.17,124.856 36.17,124.856Z" style="fill:rgb(233,115,20);"/>
                    </g>
                    <g transform="matrix(1,0,0,1,98.5111,-8.94186)">
                        <path d="M36.17,124.856C36.17,124.856 40.094,133.097 40.094,136.629C40.094,138.795 38.336,140.554 36.17,140.554C34.004,140.554 32.246,138.795 32.246,136.629C32.246,133.097 36.17,124.856 36.17,124.856Z" style="fill:rgb(233,115,20);"/>
                    </g>
                    <g transform="matrix(1,0,0,1,80.148,17.7192)">
                        <path d="M36.17,124.856C36.17,124.856 40.094,133.097 40.094,136.629C40.094,138.795 38.336,140.554 36.17,140.554C34.004,140.554 32.246,138.795 32.246,136.629C32.246,133.097 36.17,124.856 36.17,124.856Z" style="fill:rgb(233,115,20);"/>
                    </g>
                </g>
                <g>
                    <g transform="matrix(1,0,0,1,85.9513,-69.8578)">
                        <path d="M36.17,124.856C36.17,124.856 40.094,133.097 40.094,136.629C40.094,138.795 38.336,140.554 36.17,140.554C34.004,140.554 32.246,138.795 32.246,136.629C32.246,133.097 36.17,124.856 36.17,124.856Z" style="fill:rgb(255,172,29);"/>
                    </g>
                    <g transform="matrix(1,0,0,1,106.36,-81.0939)">
                        <path d="M36.17,124.856C36.17,124.856 40.094,133.097 40.094,136.629C40.094,138.795 38.336,140.554 36.17,140.554C34.004,140.554 32.246,138.795 32.246,136.629C32.246,133.097 36.17,124.856 36.17,124.856Z" style="fill:rgb(255,172,29);"/>
                    </g>
                    <g transform="matrix(1,0,0,1,82.0269,-14.2961)">
                        <path d="M36.17,124.856C36.17,124.856 40.094,133.097 40.094,136.629C40.094,138.795 38.336,140.554 36.17,140.554C34.004,140.554 32.246,138.795 32.246,136.629C32.246,133.097 36.17,124.856 36.17,124.856Z" style="fill:rgb(255,172,29);"/>
                    </g>
                    <g transform="matrix(1,0,0,1,125.509,-6.44726)">
                        <path d="M36.17,124.856C36.17,124.856 40.094,133.097 40.094,136.629C40.094,138.795 38.336,140.554 36.17,140.554C34.004,140.554 32.246,138.795 32.246,136.629C32.246,133.097 36.17,124.856 36.17,124.856Z" style="fill:rgb(255,172,29);"/>
                    </g>
                </g>
            </g>
        </g>
    </g>
</svg>
