<?xml version="1.0" encoding="UTF-8" standalone="no"?>
<!DOCTYPE svg PUBLIC "-//W3C//DTD SVG 1.1//EN" "http://www.w3.org/Graphics/SVG/1.1/DTD/svg11.dtd">
<svg width="100%" height="100%" viewBox="0 0 342 342" version="1.1" xmlns="http://www.w3.org/2000/svg" xmlns:xlink="http://www.w3.org/1999/xlink" xml:space="preserve" xmlns:serif="http://www.serif.com/" style="fill-rule:evenodd;clip-rule:evenodd;stroke-linecap:round;stroke-linejoin:round;stroke-miterlimit:1.5;">
    <g transform="matrix(1.33333,0,0,1.33333,0,0)">
        <g transform="matrix(1,0,0,1,1.42109e-14,12.2234)">
            <path d="M41.944,120.917L25.193,130.588C22.484,132.152 19.016,131.223 17.452,128.514L11.785,118.698C10.221,115.99 11.15,112.521 13.859,110.957L98.066,62.34C99.183,61.695 100.428,61.474 101.616,61.627C101.848,61.596 102.084,61.58 102.324,61.58L154.229,61.58C154.376,61.58 154.521,61.586 154.664,61.598C155.766,61.511 156.905,61.746 157.934,62.34L162.483,64.966L162.483,56.821C162.483,51.497 166.456,47.093 171.596,46.414L171.596,31.387C171.596,28.526 173.545,26.117 176.187,25.415C175.857,24.727 175.672,23.956 175.672,23.142C175.672,21.729 176.229,20.446 177.136,19.5C173.792,18.034 171.454,14.693 171.454,10.811C171.454,5.577 175.703,1.328 180.937,1.328C186.17,1.328 190.419,5.577 190.419,10.811C190.419,11.262 190.388,11.706 190.327,12.141C192.107,13.424 193.268,15.516 193.268,17.877C193.268,21.777 190.102,24.943 186.202,24.943C186.097,24.943 185.992,24.94 185.888,24.936C185.854,25.028 185.818,25.119 185.78,25.209L190.132,25.209C193.542,25.209 196.31,27.977 196.31,31.387L196.31,46.585C200.982,47.647 204.473,51.83 204.473,56.821L204.473,89.209L242.141,110.957C244.85,112.521 245.779,115.99 244.215,118.698L238.548,128.514C236.984,131.223 233.516,132.152 230.807,130.588L209.88,118.506L209.88,217.93C209.88,224.716 204.37,230.225 197.585,230.225L54.239,230.225C47.453,230.225 41.944,224.716 41.944,217.93L41.944,120.917ZM70.381,104.499L70.306,104.542L70.365,104.542C70.37,104.528 70.376,104.513 70.381,104.499Z" style="stroke:black;stroke-width:20.83px;"/>
            <g transform="matrix(0.739209,0,0,0.739209,81.0528,8.43634)">
                <path d="M129.981,14.967C125.458,12.983 122.295,8.464 122.295,3.212C122.295,-3.868 128.043,-9.616 135.123,-9.616C142.203,-9.616 147.951,-3.868 147.951,3.212C147.951,3.823 147.908,4.423 147.825,5.011C150.234,6.748 151.804,9.577 151.804,12.771C151.804,18.047 147.521,22.33 142.245,22.33C142.103,22.33 141.961,22.327 141.82,22.32C140.827,25.058 138.202,27.016 135.123,27.016C131.192,27.016 128,23.825 128,19.894C128,17.983 128.754,16.247 129.981,14.967Z" style="fill:white;"/>
            </g>
            <g transform="matrix(1.46665,0,0,0.970501,-103.347,19.5208)">
                <path d="M204.314,27.887C207.499,28.982 209.88,33.291 209.88,38.434L209.88,89.852C209.88,95.821 206.672,100.668 202.722,100.668L188.407,100.668C184.457,100.668 181.25,95.821 181.25,89.852L181.25,38.434C181.25,32.948 183.958,28.41 187.463,27.711L187.463,12.227C187.463,8.714 189.351,5.861 191.676,5.861L200.101,5.861C202.426,5.861 204.314,8.714 204.314,12.227L204.314,27.887Z" style="fill:rgb(145,145,145);"/>
                <clipPath id="_clip1">
                    <path d="M204.314,27.887C207.499,28.982 209.88,33.291 209.88,38.434L209.88,89.852C209.88,95.821 206.672,100.668 202.722,100.668L188.407,100.668C184.457,100.668 181.25,95.821 181.25,89.852L181.25,38.434C181.25,32.948 183.958,28.41 187.463,27.711L187.463,12.227C187.463,8.714 189.351,5.861 191.676,5.861L200.101,5.861C202.426,5.861 204.314,8.714 204.314,12.227L204.314,27.887Z"/>
                </clipPath>
                <g clip-path="url(#_clip1)">
                    <g transform="matrix(0.125501,0,0,1.0304,165.388,-57.5031)">
                        <path d="M233.401,95.747L233.401,107.561C233.401,110.821 219.022,113.468 201.31,113.468L51.466,113.468C33.754,113.468 19.375,110.821 19.375,107.561L19.375,95.747C19.375,92.487 33.754,89.84 51.466,89.84L201.31,89.84C219.022,89.84 233.401,92.487 233.401,95.747Z" style="fill:rgb(114,114,114);"/>
                    </g>
                    <g transform="matrix(0.125501,0,0,1.0304,187.591,-25.2433)">
                        <path d="M233.401,95.747L233.401,107.561C233.401,110.821 219.022,113.468 201.31,113.468L51.466,113.468C33.754,113.468 19.375,110.821 19.375,107.561L19.375,95.747C19.375,92.487 33.754,89.84 51.466,89.84L201.31,89.84C219.022,89.84 233.401,92.487 233.401,95.747Z" style="fill:rgb(114,114,114);"/>
                    </g>
                </g>
            </g>
            <g transform="matrix(1,0,0,0.90528,0,21.807)">
                <path d="M157.05,59.114L187.274,91.392L197.585,91.392C204.37,91.392 209.88,97.478 209.88,104.973L209.88,216.643C209.88,224.139 204.37,230.225 197.585,230.225L54.239,230.225C47.453,230.225 41.944,224.139 41.944,216.643L41.944,104.973C41.944,97.478 47.453,91.392 54.239,91.392L70.365,91.392C70.757,90.186 71.381,89.051 72.239,88.071L97.582,59.114L157.05,59.114Z" style="fill:rgb(145,145,145);"/>
                <clipPath id="_clip2">
                    <path d="M157.05,59.114L187.274,91.392L197.585,91.392C204.37,91.392 209.88,97.478 209.88,104.973L209.88,216.643C209.88,224.139 204.37,230.225 197.585,230.225L54.239,230.225C47.453,230.225 41.944,224.139 41.944,216.643L41.944,104.973C41.944,97.478 47.453,91.392 54.239,91.392L70.365,91.392C70.757,90.186 71.381,89.051 72.239,88.071L97.582,59.114L157.05,59.114Z"/>
                </clipPath>
                <g clip-path="url(#_clip2)">
                    <g id="Stones">
                        <g transform="matrix(0.184066,0,0,1.10463,95.8292,97.2139)">
                            <path d="M233.401,95.747L233.401,107.561C233.401,110.821 219.022,113.468 201.31,113.468L51.466,113.468C33.754,113.468 19.375,110.821 19.375,107.561L19.375,95.747C19.375,92.487 33.754,89.84 51.466,89.84L201.31,89.84C219.022,89.84 233.401,92.487 233.401,95.747Z" style="fill:rgb(114,114,114);"/>
                        </g>
                        <g transform="matrix(0.184066,0,0,1.10463,42.7013,54.3676)">
                            <path d="M233.401,95.747L233.401,107.561C233.401,110.821 219.022,113.468 201.31,113.468L51.466,113.468C33.754,113.468 19.375,110.821 19.375,107.561L19.375,95.747C19.375,92.487 33.754,89.84 51.466,89.84L201.31,89.84C219.022,89.84 233.401,92.487 233.401,95.747Z" style="fill:rgb(114,114,114);"/>
                        </g>
                        <g transform="matrix(0.184066,0,0,1.10463,85.0387,21.4236)">
                            <path d="M233.401,95.747L233.401,107.561C233.401,110.821 219.022,113.468 201.31,113.468L51.466,113.468C33.754,113.468 19.375,110.821 19.375,107.561L19.375,95.747C19.375,92.487 33.754,89.84 51.466,89.84L201.31,89.84C219.022,89.84 233.401,92.487 233.401,95.747Z" style="fill:rgb(114,114,114);"/>
                        </g>
                        <g transform="matrix(0.184066,0,0,1.10463,28.5964,2.87954)">
                            <path d="M233.401,95.747L233.401,107.561C233.401,110.821 219.022,113.468 201.31,113.468L51.466,113.468C33.754,113.468 19.375,110.821 19.375,107.561L19.375,95.747C19.375,92.487 33.754,89.84 51.466,89.84L201.31,89.84C219.022,89.84 233.401,92.487 233.401,95.747Z" style="fill:rgb(114,114,114);"/>
                        </g>
                        <g transform="matrix(0.184066,0,0,1.10463,159.573,59.513)">
                            <path d="M233.401,95.747L233.401,107.561C233.401,110.821 219.022,113.468 201.31,113.468L51.466,113.468C33.754,113.468 19.375,110.821 19.375,107.561L19.375,95.747C19.375,92.487 33.754,89.84 51.466,89.84L201.31,89.84C219.022,89.84 233.401,92.487 233.401,95.747Z" style="fill:rgb(114,114,114);"/>
                        </g>
                        <g transform="matrix(0.184066,0,0,1.10463,143.709,13.6536)">
                            <path d="M233.401,95.747L233.401,107.561C233.401,110.821 219.022,113.468 201.31,113.468L51.466,113.468C33.754,113.468 19.375,110.821 19.375,107.561L19.375,95.747C19.375,92.487 33.754,89.84 51.466,89.84L201.31,89.84C219.022,89.84 233.401,92.487 233.401,95.747Z" style="fill:rgb(114,114,114);"/>
                        </g>
                        <g transform="matrix(0.184066,0,0,1.10463,116.15,-23.4308)">
                            <path d="M233.401,95.747L233.401,107.561C233.401,110.821 219.022,113.468 201.31,113.468L51.466,113.468C33.754,113.468 19.375,110.821 19.375,107.561L19.375,95.747C19.375,92.487 33.754,89.84 51.466,89.84L201.31,89.84C219.022,89.84 233.401,92.487 233.401,95.747Z" style="fill:rgb(114,114,114);"/>
                        </g>
                        <g transform="matrix(0.184066,0,0,1.10463,76.7548,-57.1028)">
                            <path d="M233.401,95.747L233.401,107.561C233.401,110.821 219.022,113.468 201.31,113.468L51.466,113.468C33.754,113.468 19.375,110.821 19.375,107.561L19.375,95.747C19.375,92.487 33.754,89.84 51.466,89.84L201.31,89.84C219.022,89.84 233.401,92.487 233.401,95.747Z" style="fill:rgb(114,114,114);"/>
                        </g>
                    </g>
                    <g transform="matrix(0.241286,0,0,3.35513,148.952,-135.722)">
                        <path d="M233.401,94.091L233.401,109.217C233.401,111.563 209.426,113.468 179.895,113.468L72.881,113.468C43.35,113.468 19.375,111.563 19.375,109.217L19.375,94.091C19.375,91.745 43.35,89.84 72.881,89.84L179.895,89.84C209.426,89.84 233.401,91.745 233.401,94.091Z" style="fill:rgb(114,114,114);"/>
                        <clipPath id="_clip3">
                            <path d="M233.401,94.091L233.401,109.217C233.401,111.563 209.426,113.468 179.895,113.468L72.881,113.468C43.35,113.468 19.375,111.563 19.375,109.217L19.375,94.091C19.375,91.745 43.35,89.84 72.881,89.84L179.895,89.84C209.426,89.84 233.401,91.745 233.401,94.091Z"/>
                        </clipPath>
                        <g clip-path="url(#_clip3)">
                            <g transform="matrix(4.14446,0,0,0.182813,-747.197,66.3623)">
                                <path d="M232.365,151.261L232.365,168.031C232.365,172.659 230.278,176.416 227.709,176.416L193.859,176.416C191.29,176.416 189.203,172.659 189.203,168.031L189.203,151.261C189.203,146.633 191.29,142.876 193.859,142.876L227.709,142.876C230.278,142.876 232.365,146.633 232.365,151.261Z" style="fill:rgb(70,7,0);"/>
                                <clipPath id="_clip4">
                                    <path d="M232.365,151.261L232.365,168.031C232.365,172.659 230.278,176.416 227.709,176.416L193.859,176.416C191.29,176.416 189.203,172.659 189.203,168.031L189.203,151.261C189.203,146.633 191.29,142.876 193.859,142.876L227.709,142.876C230.278,142.876 232.365,146.633 232.365,151.261Z"/>
                                </clipPath>
                                <g clip-path="url(#_clip4)">
                                    <g transform="matrix(1,0,0,1.35616,54.5099,-73.208)">
                                        <path d="M153.065,178.312L153.065,183.039C153.065,184.343 152.267,185.403 151.285,185.403L145.391,185.403C144.408,185.403 143.611,184.343 143.611,183.039L143.611,178.312C143.611,177.008 144.408,175.949 145.391,175.949L151.285,175.949C152.267,175.949 153.065,177.008 153.065,178.312Z" style="fill:rgb(224,112,40);"/>
                                    </g>
                                    <g transform="matrix(1,0,0,1.35616,61.8851,-70.2919)">
                                        <path d="M153.065,178.312L153.065,183.039C153.065,184.343 152.267,185.403 151.285,185.403L145.391,185.403C144.408,185.403 143.611,184.343 143.611,183.039L143.611,178.312C143.611,177.008 144.408,175.949 145.391,175.949L151.285,175.949C152.267,175.949 153.065,177.008 153.065,178.312Z" style="fill:rgb(224,112,40);"/>
                                    </g>
                                    <g transform="matrix(1,0,0,1.35616,69.6218,-73.208)">
                                        <path d="M153.065,178.312L153.065,183.039C153.065,184.343 152.267,185.403 151.285,185.403L145.391,185.403C144.408,185.403 143.611,184.343 143.611,183.039L143.611,178.312C143.611,177.008 144.408,175.949 145.391,175.949L151.285,175.949C152.267,175.949 153.065,177.008 153.065,178.312Z" style="fill:rgb(224,112,40);"/>
                                    </g>
                                    <g transform="matrix(1.5415,0,0,1.35616,-35.1804,-66.7974)">
                                        <path d="M153.065,178.312L153.065,183.039C153.065,184.343 152.547,185.403 151.91,185.403L144.765,185.403C144.128,185.403 143.611,184.343 143.611,183.039L143.611,178.312C143.611,177.008 144.128,175.949 144.765,175.949L151.91,175.949C152.547,175.949 153.065,177.008 153.065,178.312Z" style="fill:rgb(224,112,40);"/>
                                    </g>
                                    <g transform="matrix(1,0,0,1.35616,78.3708,-70.2919)">
                                        <path d="M153.065,178.312L153.065,183.039C153.065,184.343 152.267,185.403 151.285,185.403L145.391,185.403C144.408,185.403 143.611,184.343 143.611,183.039L143.611,178.312C143.611,177.008 144.408,175.949 145.391,175.949L151.285,175.949C152.267,175.949 153.065,177.008 153.065,178.312Z" style="fill:rgb(224,112,40);"/>
                                    </g>
                                </g>
                            </g>
                        </g>
                    </g>
                    <g transform="matrix(1.46429,0,0,1.63234,-95.2344,-141.509)">
                        <path d="M151.027,187.889L151.027,233.11C151.027,238.061 146.969,242.082 141.972,242.082L123.864,242.082C118.866,242.082 114.809,238.061 114.809,233.11L114.809,187.889C114.809,182.937 118.866,178.917 123.864,178.917L141.972,178.917C146.969,178.917 151.027,182.937 151.027,187.889Z" style="fill:rgb(87,87,87);"/>
                    </g>
                    <g>
                        <g transform="matrix(1,0,0,1.10463,-45.2493,-7.31886)">
                            <path d="M222.712,204.178L222.712,215.034C222.712,218.03 220.279,220.462 217.284,220.462L203.25,220.462C200.254,220.462 197.821,218.03 197.821,215.034L197.821,204.178C197.821,201.182 200.254,198.749 203.25,198.749L217.284,198.749C220.279,198.749 222.712,201.182 222.712,204.178Z" style="fill:rgb(58,58,58);"/>
                        </g>
                        <g transform="matrix(1.61702,0,0,0.525373,-177.636,96.4009)">
                            <path d="M222.712,204.178L222.712,215.034C222.712,218.03 221.996,220.462 221.115,220.462L199.418,220.462C198.537,220.462 197.821,218.03 197.821,215.034L197.821,204.178C197.821,201.182 198.537,198.749 199.418,198.749L221.115,198.749C221.996,198.749 222.712,201.182 222.712,204.178Z" style="fill:rgb(58,58,58);"/>
                        </g>
                        <g transform="matrix(0.670892,0,0,0.512559,23.9512,104.791)">
                            <path d="M222.712,204.178L222.712,215.034C222.712,218.03 221.03,220.462 218.957,220.462L201.576,220.462C199.504,220.462 197.821,218.03 197.821,215.034L197.821,204.178C197.821,201.182 199.504,198.749 201.576,198.749L218.957,198.749C221.03,198.749 222.712,201.182 222.712,204.178Z" style="fill:rgb(58,58,58);"/>
                        </g>
                        <g transform="matrix(1,0,0,1.10463,-1.55344,-12.7788)">
                            <path d="M191.143,217.013L191.143,229.688C191.143,233.185 188.304,236.025 184.806,236.025L148.335,236.025C144.838,236.025 141.998,233.185 141.998,229.688L141.998,217.013C141.998,213.515 144.838,210.676 148.335,210.676L184.806,210.676C188.304,210.676 191.143,213.515 191.143,217.013Z" style="fill:rgb(58,23,0);"/>
                        </g>
                    </g>
                </g>
            </g>
            <g transform="matrix(0.793247,-0.457982,0.5,0.866025,-104.276,122.467)">
                <path d="M221.656,71.767L117.977,71.767C114.562,71.767 111.79,69.228 111.79,66.1L111.79,54.766C111.79,51.638 114.562,49.099 117.977,49.099L224.132,49.099C225.54,49.099 226.838,49.53 227.878,50.256C228.114,50.346 228.346,50.45 228.573,50.57L277.648,76.523C277.786,76.596 277.92,76.673 278.049,76.755C279.139,77.231 280.087,78.004 280.736,79.033L333.813,163.24C335.521,165.949 334.506,169.417 331.549,170.981L320.833,176.648C317.875,178.212 314.088,177.283 312.381,174.574L260.542,92.331L221.656,71.767Z" style="fill:rgb(58,58,58);"/>
            </g>
        </g>
    </g>
</svg>
