<?xml version="1.0" encoding="UTF-8" standalone="no"?>
<!DOCTYPE svg PUBLIC "-//W3C//DTD SVG 1.1//EN" "http://www.w3.org/Graphics/SVG/1.1/DTD/svg11.dtd">
<svg width="100%" height="100%" viewBox="0 0 342 342" version="1.1" xmlns="http://www.w3.org/2000/svg" xmlns:xlink="http://www.w3.org/1999/xlink" xml:space="preserve" xmlns:serif="http://www.serif.com/" style="fill-rule:evenodd;clip-rule:evenodd;stroke-linecap:round;stroke-linejoin:round;stroke-miterlimit:1.5;">
    <g transform="matrix(1.33333,0,0,1.33333,0,0)">
        <g transform="matrix(0.969141,0,0,0.969141,-3.51075,-3.49893)">
            <path d="M31.569,127.741C30.082,128.289 28.345,127.967 27.152,126.773L21.225,120.847C19.59,119.211 19.59,116.556 21.225,114.92L78.919,57.227C78.997,57.134 79.079,57.044 79.166,56.957L85.093,51.031C86.728,49.395 89.384,49.395 91.019,51.031L154.909,114.92C156.545,116.556 156.545,119.211 154.909,120.847L153.906,121.85C155.779,121.225 157.782,120.887 159.862,120.887C166.804,120.887 172.877,124.651 176.165,130.255C179.273,128.005 183.088,126.678 187.209,126.678C194.497,126.678 200.827,130.826 203.983,136.897C208.391,132.944 214.207,130.539 220.578,130.539C234.337,130.539 245.508,141.754 245.508,155.567C245.508,160.246 244.226,164.627 241.996,168.375C247.81,174.329 251.398,182.483 251.398,191.472C251.398,204.859 243.441,216.394 232.02,221.568L59.812,221.568C44.224,221.568 31.569,208.912 31.569,193.324L31.569,127.741Z" style="stroke:black;stroke-width:21.5px;"/>
            <g transform="matrix(1.30639,0,0,1.30639,-78.7657,98.1244)">
                <g transform="matrix(1,0,0,1,30.8499,-1.81565)">
                    <path d="M207.046,96.308L76.039,96.308L76.039,29.569L100.38,29.569C99.874,27.74 99.603,25.813 99.603,23.823C99.603,11.95 109.243,2.31 121.117,2.31C132.57,2.31 141.945,11.279 142.594,22.571C145.098,20.491 148.311,19.24 151.812,19.24C157.126,19.24 161.774,22.121 164.291,26.411C166.67,24.688 169.59,23.673 172.745,23.673C178.323,23.673 183.169,26.848 185.584,31.495C188.959,28.469 193.411,26.628 198.288,26.628C208.82,26.628 217.37,35.212 217.37,45.786C217.37,49.368 216.389,52.721 214.682,55.59C219.133,60.148 221.879,66.389 221.879,73.27C221.879,83.517 215.788,92.347 207.046,96.308Z" style="fill:rgb(137,165,123);"/>
                </g>
                <path d="M184.923,30.158L184.923,92.087C184.923,93.414 183.846,94.492 182.518,94.492L177.708,94.492C176.381,94.492 175.303,93.414 175.303,92.087L175.303,30.158C175.303,28.831 176.381,27.753 177.708,27.753L182.518,27.753C183.846,27.753 184.923,28.831 184.923,30.158Z" style="fill:rgb(90,35,0);"/>
                <g transform="matrix(1,0,0,1,52.2647,-7.10543e-15)">
                    <path d="M184.923,30.158L184.923,92.087C184.923,93.414 183.846,94.492 182.518,94.492L177.708,94.492C176.381,94.492 175.303,93.414 175.303,92.087L175.303,30.158C175.303,28.831 176.381,27.753 177.708,27.753L182.518,27.753C183.846,27.753 184.923,28.831 184.923,30.158Z" style="fill:rgb(90,35,0);"/>
                </g>
                <g transform="matrix(1.20712,0,0,1,-5.40152,-2.91402)">
                    <path d="M169.108,43.557C169.221,43.549 169.334,43.545 169.448,43.545L180.873,43.545C181.078,43.545 181.28,43.558 181.479,43.583C184.575,39.533 188.599,37.085 192.996,37.085C190.067,43.373 187.688,53.285 187.688,64.037C187.688,74.788 190.067,84.7 192.996,90.989C188.198,90.989 183.844,88.073 180.655,83.342L169.951,83.342C166.763,88.073 162.409,90.989 157.611,90.989C160.54,84.7 162.919,74.788 162.919,64.037C162.919,53.285 160.54,43.373 157.611,37.085C161.998,37.085 166.015,39.523 169.108,43.557Z" style="fill:rgb(183,92,33);"/>
                </g>
            </g>
            <g transform="matrix(0.848307,0,0,0.966772,-5.44271,-5.80144)">
                <path d="M140.736,102.008L143.512,102.008C161.888,102.008 176.806,115.098 176.806,131.222L176.806,205.97C176.806,222.094 161.888,235.184 143.512,235.184L76.924,235.184C58.548,235.184 43.63,222.094 43.63,205.97L43.63,131.222C43.63,115.098 58.548,102.008 76.924,102.008L79.7,102.008L110.218,74.221L140.736,102.008Z" style="fill:rgb(90,35,0);"/>
                <clipPath id="_clip1">
                    <path d="M140.736,102.008L143.512,102.008C161.888,102.008 176.806,115.098 176.806,131.222L176.806,205.97C176.806,222.094 161.888,235.184 143.512,235.184L76.924,235.184C58.548,235.184 43.63,222.094 43.63,205.97L43.63,131.222C43.63,115.098 58.548,102.008 76.924,102.008L79.7,102.008L110.218,74.221L140.736,102.008Z"/>
                </clipPath>
                <g clip-path="url(#_clip1)">
                    <g transform="matrix(1.17882,0,0,1.03437,20.0548,8.67776)">
                        <path d="M36.629,79.291L36.629,223.049C36.629,225.343 34.766,227.206 32.471,227.206L24.156,227.206C21.862,227.206 19.999,225.343 19.999,223.049L19.999,79.291C19.999,76.997 21.862,75.134 24.156,75.134L32.471,75.134C34.766,75.134 36.629,76.997 36.629,79.291Z" style="fill:rgb(77,36,11);"/>
                    </g>
                    <g transform="matrix(1.17882,0,0,1.03437,57.9765,3.87161)">
                        <path d="M36.629,79.291L36.629,223.049C36.629,225.343 34.766,227.206 32.471,227.206L24.156,227.206C21.862,227.206 19.999,225.343 19.999,223.049L19.999,79.291C19.999,76.997 21.862,75.134 24.156,75.134L32.471,75.134C34.766,75.134 36.629,76.997 36.629,79.291Z" style="fill:rgb(77,36,11);"/>
                    </g>
                    <g transform="matrix(1.17882,0,0,1.03437,95.8982,-0.934535)">
                        <path d="M36.629,79.291L36.629,223.049C36.629,225.343 34.766,227.206 32.471,227.206L24.156,227.206C21.862,227.206 19.999,225.343 19.999,223.049L19.999,79.291C19.999,76.997 21.862,75.134 24.156,75.134L32.471,75.134C34.766,75.134 36.629,76.997 36.629,79.291Z" style="fill:rgb(77,36,11);"/>
                    </g>
                    <g transform="matrix(1.17882,0,0,1.12918,133.82,-12.8643)">
                        <path d="M36.629,78.942L36.629,223.398C36.629,225.5 34.766,227.206 32.471,227.206L24.156,227.206C21.862,227.206 19.999,225.5 19.999,223.398L19.999,78.942C19.999,76.84 21.862,75.134 24.156,75.134L32.471,75.134C34.766,75.134 36.629,76.84 36.629,78.942Z" style="fill:rgb(77,36,11);"/>
                    </g>
                    <g transform="matrix(1.17882,0,0,1.03437,57.5159,-2.35769)">
                        <path d="M60.874,169.554L60.874,225.513C60.874,232.336 55.335,237.875 48.512,237.875L23.789,237.875C16.966,237.875 11.427,232.336 11.427,225.513L11.427,169.554C11.427,162.731 16.966,157.192 23.789,157.192L48.512,157.192C55.335,157.192 60.874,162.731 60.874,169.554Z" style="fill:rgb(59,46,38);"/>
                    </g>
                </g>
            </g>
            <g transform="matrix(0.707107,0.707107,-0.778444,0.778444,12.1124,-80.382)">
                <path d="M161.306,48.951L161.306,119.591C161.306,121.692 159.428,123.397 157.116,123.397L148.734,123.397C146.421,123.397 144.543,121.692 144.543,119.591L144.543,45.476C144.533,45.367 144.528,45.256 144.528,45.145L144.528,37.531C144.528,35.43 146.406,33.725 148.718,33.725L239.072,33.725C241.385,33.725 243.263,35.43 243.263,37.531L243.263,45.145C243.263,47.246 241.385,48.951 239.072,48.951L161.306,48.951Z" style="fill:rgb(66,92,53);"/>
            </g>
        </g>
    </g>
</svg>
