<?xml version="1.0" encoding="UTF-8" standalone="no"?>
<!DOCTYPE svg PUBLIC "-//W3C//DTD SVG 1.1//EN" "http://www.w3.org/Graphics/SVG/1.1/DTD/svg11.dtd">
<svg width="100%" height="100%" viewBox="0 0 342 342" version="1.1" xmlns="http://www.w3.org/2000/svg" xmlns:xlink="http://www.w3.org/1999/xlink" xml:space="preserve" xmlns:serif="http://www.serif.com/" style="fill-rule:evenodd;clip-rule:evenodd;stroke-linecap:round;stroke-linejoin:round;stroke-miterlimit:1.5;">
    <g transform="matrix(1.33333,0,0,1.33333,0,0)">
        <g transform="matrix(-0.992631,0,0,0.992631,250.716,5.02922)">
            <path d="M159.024,56.153L159.024,107.041L75.646,107.041L71.956,107.041C71.916,107.041 71.875,107.041 71.835,107.041C71.821,107.041 71.672,107.041 71.672,107.041L71.672,107.043C70.268,107.081 68.883,107.699 67.907,108.863L31.994,151.662C30.192,153.81 30.46,157.006 32.593,158.796C33.662,159.692 34.997,160.067 36.291,159.947C36.44,159.96 36.592,159.966 36.746,159.965L42.142,159.947L42.142,219.764C42.142,227.33 48.284,233.472 55.85,233.472L200.15,233.472C207.716,233.472 213.858,227.33 213.858,219.764L213.858,56.164C214.806,56.218 215.775,55.925 216.558,55.268C218.191,53.898 218.404,51.46 217.034,49.828L189.731,17.289C188.96,16.37 187.85,15.9 186.737,15.91C185.623,15.9 184.514,16.37 183.743,17.289L156.439,49.828C155.069,51.46 155.283,53.898 156.915,55.268C157.536,55.789 158.274,56.081 159.024,56.153Z" style="fill:none;stroke:black;stroke-width:20.99px;"/>
        </g>
        <g transform="matrix(-1,0,0,1,252.368,3.30887)">
            <g transform="matrix(1,0,0,1,21.0012,44.0113)">
                <path d="M21.141,175.753L21.141,100.897C21.141,100.115 21.171,99.34 21.231,98.573L50.743,98.573C58.091,98.573 64.057,92.608 64.057,85.259L64.057,71.376L136.159,71.376C136.785,71.376 137.407,71.396 138.023,71.434L138.023,8.125C138.023,0.559 144.166,-5.584 151.732,-5.584L179.149,-5.584C186.714,-5.584 192.857,0.559 192.857,8.125L192.857,175.753C192.857,183.319 186.714,189.461 179.149,189.461L34.849,189.461C27.283,189.461 21.141,183.319 21.141,175.753Z" style="fill:rgb(87,87,87);"/>
                <clipPath id="_clip1">
                    <path d="M21.141,175.753L21.141,100.897C21.141,100.115 21.171,99.34 21.231,98.573L50.743,98.573C58.091,98.573 64.057,92.608 64.057,85.259L64.057,71.376L136.159,71.376C136.785,71.376 137.407,71.396 138.023,71.434L138.023,8.125C138.023,0.559 144.166,-5.584 151.732,-5.584L179.149,-5.584C186.714,-5.584 192.857,0.559 192.857,8.125L192.857,175.753C192.857,183.319 186.714,189.461 179.149,189.461L34.849,189.461C27.283,189.461 21.141,183.319 21.141,175.753Z"/>
                </clipPath>
                <g clip-path="url(#_clip1)">
                    <g>
                        <g transform="matrix(1.49133,0,0,1.42442,-76.5489,-79.4477)">
                            <path d="M150.615,87.535L150.615,91.622C150.615,92.751 149.741,93.666 148.663,93.666L139.1,93.666C138.022,93.666 137.148,92.751 137.148,91.622L137.148,87.535C137.148,86.406 138.022,85.491 139.1,85.491L148.663,85.491C149.741,85.491 150.615,86.406 150.615,87.535Z" style="fill:rgb(75,70,67);"/>
                        </g>
                        <g transform="matrix(1.49133,0,0,1.42442,-49.0287,-64.5677)">
                            <path d="M150.615,87.535L150.615,91.622C150.615,92.751 149.741,93.666 148.663,93.666L139.1,93.666C138.022,93.666 137.148,92.751 137.148,91.622L137.148,87.535C137.148,86.406 138.022,85.491 139.1,85.491L148.663,85.491C149.741,85.491 150.615,86.406 150.615,87.535Z" style="fill:rgb(75,70,67);"/>
                        </g>
                        <g transform="matrix(1.49133,0,0,1.42442,-141.466,5.34199)">
                            <path d="M150.615,87.535L150.615,91.622C150.615,92.751 149.741,93.666 148.663,93.666L139.1,93.666C138.022,93.666 137.148,92.751 137.148,91.622L137.148,87.535C137.148,86.406 138.022,85.491 139.1,85.491L148.663,85.491C149.741,85.491 150.615,86.406 150.615,87.535Z" style="fill:rgb(75,70,67);"/>
                        </g>
                        <g transform="matrix(1.49133,0,0,1.42442,-166.191,-6.62816)">
                            <path d="M150.615,87.535L150.615,91.622C150.615,92.751 149.741,93.666 148.663,93.666L139.1,93.666C138.022,93.666 137.148,92.751 137.148,91.622L137.148,87.535C137.148,86.406 138.022,85.491 139.1,85.491L148.663,85.491C149.741,85.491 150.615,86.406 150.615,87.535Z" style="fill:rgb(75,70,67);"/>
                        </g>
                        <g transform="matrix(1.49133,0,0,1.42442,-188.848,14.8973)">
                            <path d="M150.615,87.535L150.615,91.622C150.615,92.751 149.741,93.666 148.663,93.666L139.1,93.666C138.022,93.666 137.148,92.751 137.148,91.622L137.148,87.535C137.148,86.406 138.022,85.491 139.1,85.491L148.663,85.491C149.741,85.491 150.615,86.406 150.615,87.535Z" style="fill:rgb(75,70,67);"/>
                        </g>
                        <g transform="matrix(1.49133,0,0,1.42442,-158.311,28.3929)">
                            <path d="M150.615,87.535L150.615,91.622C150.615,92.751 149.741,93.666 148.663,93.666L139.1,93.666C138.022,93.666 137.148,92.751 137.148,91.622L137.148,87.535C137.148,86.406 138.022,85.491 139.1,85.491L148.663,85.491C149.741,85.491 150.615,86.406 150.615,87.535Z" style="fill:rgb(75,70,67);"/>
                        </g>
                        <g transform="matrix(1.49133,0,0,1.42442,-183.392,45.5334)">
                            <path d="M150.615,87.535L150.615,91.622C150.615,92.751 149.741,93.666 148.663,93.666L139.1,93.666C138.022,93.666 137.148,92.751 137.148,91.622L137.148,87.535C137.148,86.406 138.022,85.491 139.1,85.491L148.663,85.491C149.741,85.491 150.615,86.406 150.615,87.535Z" style="fill:rgb(75,70,67);"/>
                        </g>
                        <g transform="matrix(1.49133,0,0,1.42442,-158.311,60.3096)">
                            <path d="M150.615,87.535L150.615,91.622C150.615,92.751 149.741,93.666 148.663,93.666L139.1,93.666C138.022,93.666 137.148,92.751 137.148,91.622L137.148,87.535C137.148,86.406 138.022,85.491 139.1,85.491L148.663,85.491C149.741,85.491 150.615,86.406 150.615,87.535Z" style="fill:rgb(75,70,67);"/>
                        </g>
                        <g transform="matrix(1.49133,0,0,1.42442,-41.209,-88.3135)">
                            <path d="M150.615,87.535L150.615,91.622C150.615,92.751 149.741,93.666 148.663,93.666L139.1,93.666C138.022,93.666 137.148,92.751 137.148,91.622L137.148,87.535C137.148,86.406 138.022,85.491 139.1,85.491L148.663,85.491C149.741,85.491 150.615,86.406 150.615,87.535Z" style="fill:rgb(75,70,67);"/>
                        </g>
                        <g transform="matrix(1.49133,0,0,1.42442,-76.5489,-79.4477)">
                            <path d="M150.615,87.535L150.615,91.622C150.615,92.751 149.741,93.666 148.663,93.666L139.1,93.666C138.022,93.666 137.148,92.751 137.148,91.622L137.148,87.535C137.148,86.406 138.022,85.491 139.1,85.491L148.663,85.491C149.741,85.491 150.615,86.406 150.615,87.535Z" style="fill:rgb(75,70,67);"/>
                        </g>
                        <g transform="matrix(1.49133,0,0,1.42442,-78.6422,-58.7448)">
                            <path d="M150.615,87.535L150.615,91.622C150.615,92.751 149.741,93.666 148.663,93.666L139.1,93.666C138.022,93.666 137.148,92.751 137.148,91.622L137.148,87.535C137.148,86.406 138.022,85.491 139.1,85.491L148.663,85.491C149.741,85.491 150.615,86.406 150.615,87.535Z" style="fill:rgb(75,70,67);"/>
                        </g>
                        <g transform="matrix(1.49133,0,0,1.42442,-61.2942,-106.168)">
                            <path d="M150.615,87.535L150.615,91.622C150.615,92.751 149.741,93.666 148.663,93.666L139.1,93.666C138.022,93.666 137.148,92.751 137.148,91.622L137.148,87.535C137.148,86.406 138.022,85.491 139.1,85.491L148.663,85.491C149.741,85.491 150.615,86.406 150.615,87.535Z" style="fill:rgb(75,70,67);"/>
                        </g>
                        <g transform="matrix(1.49133,0,0,1.42442,-21.7182,-111.991)">
                            <path d="M150.615,87.535L150.615,91.622C150.615,92.751 149.741,93.666 148.663,93.666L139.1,93.666C138.022,93.666 137.148,92.751 137.148,91.622L137.148,87.535C137.148,86.406 138.022,85.491 139.1,85.491L148.663,85.491C149.741,85.491 150.615,86.406 150.615,87.535Z" style="fill:rgb(75,70,67);"/>
                        </g>
                        <g transform="matrix(1.49133,0,0,1.42442,-61.2942,-37.7856)">
                            <path d="M150.615,87.535L150.615,91.622C150.615,92.751 149.741,93.666 148.663,93.666L139.1,93.666C138.022,93.666 137.148,92.751 137.148,91.622L137.148,87.535C137.148,86.406 138.022,85.491 139.1,85.491L148.663,85.491C149.741,85.491 150.615,86.406 150.615,87.535Z" style="fill:rgb(75,70,67);"/>
                        </g>
                        <g transform="matrix(1.49133,0,0,1.42442,-31.7608,-47.0988)">
                            <path d="M150.615,87.535L150.615,91.622C150.615,92.751 149.741,93.666 148.663,93.666L139.1,93.666C138.022,93.666 137.148,92.751 137.148,91.622L137.148,87.535C137.148,86.406 138.022,85.491 139.1,85.491L148.663,85.491C149.741,85.491 150.615,86.406 150.615,87.535Z" style="fill:rgb(75,70,67);"/>
                        </g>
                        <g transform="matrix(1.49133,0,0,1.42442,-21.7182,-18.2741)">
                            <path d="M150.615,87.535L150.615,91.622C150.615,92.751 149.741,93.666 148.663,93.666L139.1,93.666C138.022,93.666 137.148,92.751 137.148,91.622L137.148,87.535C137.148,86.406 138.022,85.491 139.1,85.491L148.663,85.491C149.741,85.491 150.615,86.406 150.615,87.535Z" style="fill:rgb(75,70,67);"/>
                        </g>
                        <g transform="matrix(1.49133,0,0,1.42442,-74.2832,-16.3298)">
                            <path d="M150.615,87.535L150.615,91.622C150.615,92.751 149.741,93.666 148.663,93.666L139.1,93.666C138.022,93.666 137.148,92.751 137.148,91.622L137.148,87.535C137.148,86.406 138.022,85.491 139.1,85.491L148.663,85.491C149.741,85.491 150.615,86.406 150.615,87.535Z" style="fill:rgb(75,70,67);"/>
                        </g>
                        <g transform="matrix(1.49133,0,0,1.42442,-105.707,-10.5069)">
                            <path d="M150.615,87.535L150.615,91.622C150.615,92.751 149.741,93.666 148.663,93.666L139.1,93.666C138.022,93.666 137.148,92.751 137.148,91.622L137.148,87.535C137.148,86.406 138.022,85.491 139.1,85.491L148.663,85.491C149.741,85.491 150.615,86.406 150.615,87.535Z" style="fill:rgb(75,70,67);"/>
                        </g>
                        <g transform="matrix(1.49133,0,0,1.42442,-125.705,31.3482)">
                            <path d="M150.615,87.535L150.615,91.622C150.615,92.751 149.741,93.666 148.663,93.666L139.1,93.666C138.022,93.666 137.148,92.751 137.148,91.622L137.148,87.535C137.148,86.406 138.022,85.491 139.1,85.491L148.663,85.491C149.741,85.491 150.615,86.406 150.615,87.535Z" style="fill:rgb(75,70,67);"/>
                        </g>
                        <g transform="matrix(1.49133,0,0,1.42442,-115.662,51.3563)">
                            <path d="M150.615,87.535L150.615,91.622C150.615,92.751 149.741,93.666 148.663,93.666L139.1,93.666C138.022,93.666 137.148,92.751 137.148,91.622L137.148,87.535C137.148,86.406 138.022,85.491 139.1,85.491L148.663,85.491C149.741,85.491 150.615,86.406 150.615,87.535Z" style="fill:rgb(75,70,67);"/>
                        </g>
                        <g transform="matrix(1.49133,0,0,1.42442,-95.5768,13.8137)">
                            <path d="M150.615,87.535L150.615,91.622C150.615,92.751 149.741,93.666 148.663,93.666L139.1,93.666C138.022,93.666 137.148,92.751 137.148,91.622L137.148,87.535C137.148,86.406 138.022,85.491 139.1,85.491L148.663,85.491C149.741,85.491 150.615,86.406 150.615,87.535Z" style="fill:rgb(75,70,67);"/>
                        </g>
                        <g transform="matrix(1.49133,0,0,1.42442,-85.5342,37.1712)">
                            <path d="M150.615,87.535L150.615,91.622C150.615,92.751 149.741,93.666 148.663,93.666L139.1,93.666C138.022,93.666 137.148,92.751 137.148,91.622L137.148,87.535C137.148,86.406 138.022,85.491 139.1,85.491L148.663,85.491C149.741,85.491 150.615,86.406 150.615,87.535Z" style="fill:rgb(75,70,67);"/>
                        </g>
                        <g transform="matrix(1.49133,0,0,1.42442,-72.4115,63.0023)">
                            <path d="M150.615,87.535L150.615,91.622C150.615,92.751 149.741,93.666 148.663,93.666L139.1,93.666C138.022,93.666 137.148,92.751 137.148,91.622L137.148,87.535C137.148,86.406 138.022,85.491 139.1,85.491L148.663,85.491C149.741,85.491 150.615,86.406 150.615,87.535Z" style="fill:rgb(75,70,67);"/>
                        </g>
                        <g transform="matrix(1.49133,0,0,1.42442,-53.9905,42.9941)">
                            <path d="M150.615,87.535L150.615,91.622C150.615,92.751 149.741,93.666 148.663,93.666L139.1,93.666C138.022,93.666 137.148,92.751 137.148,91.622L137.148,87.535C137.148,86.406 138.022,85.491 139.1,85.491L148.663,85.491C149.741,85.491 150.615,86.406 150.615,87.535Z" style="fill:rgb(75,70,67);"/>
                        </g>
                        <g transform="matrix(1.49133,0,0,1.42442,-62.369,19.6367)">
                            <path d="M150.615,87.535L150.615,91.622C150.615,92.751 149.741,93.666 148.663,93.666L139.1,93.666C138.022,93.666 137.148,92.751 137.148,91.622L137.148,87.535C137.148,86.406 138.022,85.491 139.1,85.491L148.663,85.491C149.741,85.491 150.615,86.406 150.615,87.535Z" style="fill:rgb(75,70,67);"/>
                        </g>
                        <g transform="matrix(1.49133,0,0,1.42442,-43.9479,-1.94762)">
                            <path d="M150.615,87.535L150.615,91.622C150.615,92.751 149.741,93.666 148.663,93.666L139.1,93.666C138.022,93.666 137.148,92.751 137.148,91.622L137.148,87.535C137.148,86.406 138.022,85.491 139.1,85.491L148.663,85.491C149.741,85.491 150.615,86.406 150.615,87.535Z" style="fill:rgb(75,70,67);"/>
                        </g>
                        <g transform="matrix(1.49133,0,0,1.42442,-26.9992,23.2705)">
                            <path d="M150.615,87.535L150.615,91.622C150.615,92.751 149.741,93.666 148.663,93.666L139.1,93.666C138.022,93.666 137.148,92.751 137.148,91.622L137.148,87.535C137.148,86.406 138.022,85.491 139.1,85.491L148.663,85.491C149.741,85.491 150.615,86.406 150.615,87.535Z" style="fill:rgb(75,70,67);"/>
                        </g>
                        <g transform="matrix(1.49133,0,0,1.42442,-23.8627,51.3563)">
                            <path d="M150.615,87.535L150.615,91.622C150.615,92.751 149.741,93.666 148.663,93.666L139.1,93.666C138.022,93.666 137.148,92.751 137.148,91.622L137.148,87.535C137.148,86.406 138.022,85.491 139.1,85.491L148.663,85.491C149.741,85.491 150.615,86.406 150.615,87.535Z" style="fill:rgb(75,70,67);"/>
                        </g>
                    </g>
                    <g transform="matrix(1,0,0,1.06162,-95.738,10.063)">
                        <path d="M273.271,128.123L273.271,167.895C273.271,172.083 269.661,175.484 265.215,175.484L249.101,175.484C244.655,175.484 241.045,172.083 241.045,167.895L241.045,128.123C241.045,123.934 244.655,120.534 249.101,120.534L265.215,120.534C269.661,120.534 273.271,123.934 273.271,128.123Z" style="fill:rgb(45,45,45);"/>
                    </g>
                    <g transform="matrix(0.53194,0,0,0.675075,-21.2225,44.2124)">
                        <path d="M273.271,126.882L273.271,169.135C273.271,172.639 269.661,175.484 265.215,175.484L249.101,175.484C244.655,175.484 241.045,172.639 241.045,169.135L241.045,126.882C241.045,123.379 244.655,120.534 249.101,120.534L265.215,120.534C269.661,120.534 273.271,123.379 273.271,126.882Z" style="fill:rgb(45,45,45);"/>
                    </g>
                    <g transform="matrix(0.53194,0,0,0.675075,-55.3926,44.2124)">
                        <path d="M273.271,126.882L273.271,169.135C273.271,172.639 269.661,175.484 265.215,175.484L249.101,175.484C244.655,175.484 241.045,172.639 241.045,169.135L241.045,126.882C241.045,123.379 244.655,120.534 249.101,120.534L265.215,120.534C269.661,120.534 273.271,123.379 273.271,126.882Z" style="fill:rgb(45,45,45);"/>
                    </g>
                    <g transform="matrix(0.53194,0,0,0.675075,-88.947,44.2124)">
                        <path d="M273.271,126.882L273.271,169.135C273.271,172.639 269.661,175.484 265.215,175.484L249.101,175.484C244.655,175.484 241.045,172.639 241.045,169.135L241.045,126.882C241.045,123.379 244.655,120.534 249.101,120.534L265.215,120.534C269.661,120.534 273.271,123.379 273.271,126.882Z" style="fill:rgb(45,45,45);"/>
                    </g>
                    <g transform="matrix(1.29098,0,0,0.473098,-166.251,-34.8716)">
                        <path d="M273.271,134.271L273.271,161.746C273.271,169.328 271.016,175.484 268.237,175.484L246.079,175.484C243.3,175.484 241.045,169.328 241.045,161.746L241.045,134.271C241.045,126.69 243.3,120.534 246.079,120.534L268.237,120.534C271.016,120.534 273.271,126.69 273.271,134.271Z" style="fill:rgb(45,45,45);"/>
                        <clipPath id="_clip2">
                            <path d="M273.271,134.271L273.271,161.746C273.271,169.328 271.016,175.484 268.237,175.484L246.079,175.484C243.3,175.484 241.045,169.328 241.045,161.746L241.045,134.271C241.045,126.69 243.3,120.534 246.079,120.534L268.237,120.534C271.016,120.534 273.271,126.69 273.271,134.271Z"/>
                        </clipPath>
                        <g clip-path="url(#_clip2)">
                            <g transform="matrix(-0.774603,0,0,2.11373,297.5,-32.8656)">
                                <circle cx="52.081" cy="92.747" r="1.8" style="fill:rgb(154,143,69);"/>
                            </g>
                            <g transform="matrix(-0.774603,0,0,2.11373,307.997,-26.3129)">
                                <path d="M73.992,85.476L74.663,85.476C75.814,85.476 76.749,86.411 76.749,87.561C76.749,88.712 75.814,89.647 74.663,89.647L56.6,89.647C55.449,89.647 54.515,88.712 54.515,87.561C54.515,86.411 55.449,85.476 56.6,85.476L57.271,85.476L57.271,78.244C57.271,74.158 60.209,70.752 64.085,70.026C64.023,69.853 63.99,69.667 63.99,69.473C63.99,68.567 64.725,67.831 65.632,67.831C66.538,67.831 67.274,68.567 67.274,69.473C67.274,69.667 67.24,69.853 67.178,70.026C71.054,70.752 73.992,74.158 73.992,78.244L73.992,85.476Z" style="fill:rgb(191,171,34);"/>
                            </g>
                        </g>
                    </g>
                </g>
            </g>
            <g transform="matrix(0.766044,0.642788,-0.642788,0.766044,86.9215,-85.3899)">
                <path d="M146.767,61.622C146.067,62.324 145.1,62.759 144.031,62.759C141.9,62.759 140.17,61.029 140.17,58.897L140.17,16.421C140.17,15.221 140.718,14.149 141.577,13.44C142.424,12.717 143.576,12.363 144.757,12.572L186.588,19.948C188.687,20.318 190.091,22.322 189.721,24.421C189.53,25.503 188.905,26.4 188.057,26.965C187.958,27.068 187.853,27.167 187.742,27.26L147.043,61.411C146.953,61.486 146.861,61.557 146.767,61.622Z" style="fill:rgb(34,97,152);"/>
            </g>
            <g transform="matrix(1.00063,0.839632,-0.845477,1.0076,-58.4688,-25.3738)">
                <path d="M189.05,26.009C188.778,26.387 188.44,26.71 188.057,26.965C187.958,27.068 187.853,27.167 187.742,27.26L147.043,61.411C146.953,61.486 146.861,61.557 146.767,61.622C146.067,62.324 145.1,62.759 144.031,62.759C141.9,62.759 140.17,61.029 140.17,58.897L140.17,16.421C140.17,15.266 140.678,14.229 141.482,13.521L141.481,13.52C141.481,13.52 141.569,13.447 141.577,13.44C141.601,13.42 141.625,13.4 141.648,13.381L143.812,11.578L192.711,-29.17L212.097,-6.227C215.663,-2.007 215.108,4.296 210.858,7.837L189.05,26.009Z" style="fill:rgb(34,97,152);"/>
            </g>
        </g>
    </g>
</svg>
